<svg xmlns="http://www.w3.org/2000/svg" xmlns:xlink="http://www.w3.org/1999/xlink" width="62.504" height="62.504" viewBox="0 0 62.504 62.504">
  <defs>
    <clipPath id="clip-path">
      <rect id="Rectangle_405181" data-name="Rectangle 405181" width="32" height="30" fill="#fff"/>
    </clipPath>
  </defs>
  <g id="Group_1101901" data-name="Group 1101901" transform="translate(-279.816 -1198.717)">
    <g id="Group_1072053" data-name="Group 1072053" transform="translate(279.816 1198.717)">
      <circle id="Ellipse_4742" data-name="Ellipse 4742" cx="31.252" cy="31.252" r="31.252" transform="translate(0)" fill="#7d420e"/>
    </g>
    <g id="Group_1102749" data-name="Group 1102749" transform="translate(294.82 1214.717)">
      <g id="Group_1102748" data-name="Group 1102748" clip-path="url(#clip-path)">
        <path id="Path_882974" data-name="Path 882974" d="M45.1,7.468V6.837c0-.814.021-1.628-.006-2.441a2,2,0,0,1,1.2-1.835,1.833,1.833,0,0,1,2.434,1.683c.017.312.026.626.026.939q0,3.146,0,6.292a2.322,2.322,0,0,1-.35,1.394,1.728,1.728,0,0,1-1.415.817c-1.7.022-3.408.028-5.112.032q-.956,0-1.913-.03a1.874,1.874,0,0,1-1.747-1.721,1.907,1.907,0,0,1,1.335-2.061,2.889,2.889,0,0,1,.72-.088c.576-.011,1.152,0,1.728,0,.018,0,.036,0,.075-.007-.028-.06-.048-.109-.072-.155A10.866,10.866,0,0,0,38.715,5.81a10.211,10.211,0,0,0-3.623-1.68,10.656,10.656,0,0,0-1.867-.24,9.529,9.529,0,0,0-2.2.125,10.05,10.05,0,0,0-5.354,2.751,11.174,11.174,0,0,0-3.111,5.471,2.057,2.057,0,0,1-.955,1.386,1.817,1.817,0,0,1-2.677-1.649,2.731,2.731,0,0,1,.089-.67,14.013,14.013,0,0,1,.693-2.192A15.168,15.168,0,0,1,22.758,4.36a14.275,14.275,0,0,1,3.815-2.867A13.16,13.16,0,0,1,33.173,0,12.854,12.854,0,0,1,37.38.809a13.742,13.742,0,0,1,4.252,2.485,14.656,14.656,0,0,1,3.193,3.826c.072.124.156.24.234.359l.037-.011" transform="translate(-16.754 0)" fill="#fff"/>
        <path id="Path_882975" data-name="Path 882975" d="M3.659,138.928v.7c0,.819-.013,1.638,0,2.456a1.943,1.943,0,0,1-1.3,1.827,1.837,1.837,0,0,1-2.332-1.729c-.017-.257-.026-.515-.026-.772q0-3.245,0-6.49a2.371,2.371,0,0,1,.244-1.17,1.766,1.766,0,0,1,1.491-1c.589-.035,1.18-.032,1.77-.033q2.471-.006,4.942,0a2.176,2.176,0,0,1,1.194.294,2,2,0,0,1,.873,2.046,1.868,1.868,0,0,1-1.465,1.511,3.712,3.712,0,0,1-.626.04c-.547,0-1.095,0-1.642-.006-.028,0-.055,0-.109.01.071.141.131.27.2.393a10.562,10.562,0,0,0,6.366,5.187,9.811,9.811,0,0,0,3.179.358,9.514,9.514,0,0,0,2.352-.36,10.254,10.254,0,0,0,4.332-2.532,11.194,11.194,0,0,0,3.063-5.332,2.521,2.521,0,0,1,.572-1.182,1.777,1.777,0,0,1,3,.77,2.321,2.321,0,0,1-.014,1.31A15.5,15.5,0,0,1,27.9,139.6a14.887,14.887,0,0,1-2.7,3.252,13.834,13.834,0,0,1-6.914,3.4,13.618,13.618,0,0,1-3.33.153,12.636,12.636,0,0,1-3.524-.767,13.993,13.993,0,0,1-5.159-3.287,14.455,14.455,0,0,1-2.46-3.251,1.189,1.189,0,0,0-.082-.123.494.494,0,0,0-.071-.058" transform="translate(0 -116.448)" fill="#fff"/>
      </g>
    </g>
  </g>
</svg>
