<svg xmlns="http://www.w3.org/2000/svg" xmlns:xlink="http://www.w3.org/1999/xlink" width="139" height="139" viewBox="0 0 139 139">
  <defs>
    <clipPath id="clip-path">
      <rect id="Rectangle_401159" data-name="Rectangle 401159" width="139" height="139" fill="#fff"/>
    </clipPath>
    <clipPath id="clip-path-2">
      <rect id="Rectangle_403322" data-name="Rectangle 403322" width="76" height="71.436" fill="none"/>
    </clipPath>
  </defs>
  <g id="Group_1102778" data-name="Group 1102778" transform="translate(-416 -7070.001)">
    <g id="Group_1101927" data-name="Group 1101927" transform="translate(261.43 950.75)">
      <g id="Group_1099585" data-name="Group 1099585" transform="translate(154.57 6119.251)">
        <g id="Group_1099584" data-name="Group 1099584" transform="translate(0 0)" clip-path="url(#clip-path)">
          <path id="Path_873472" data-name="Path 873472" d="M39.713,27.544l.541.241c-.339.349-.65.625-.906.947s-.478.713-.713,1.071a.905.905,0,0,0,1.3.133,28.939,28.939,0,0,1,3.479-2.353,15.406,15.406,0,0,0,2.51-1.543c.572-.485,1.3-.669,1.823-1.191a.325.325,0,0,1,.225-.113,1.067,1.067,0,0,0,1.079-.414c.146-.173.341-.141.52.006.309.253.568.185.847-.1a1.315,1.315,0,0,1,1.643-.286c-.031.471-.031.471-.486.79a2.028,2.028,0,0,0-.394-.167.621.621,0,0,0-.67.8c.091.265.281.19.48.125a14.615,14.615,0,0,1,1.73-.519c1.121-.215,2.255-.366,3.384-.544q1.855-.293,3.709-.587a28.018,28.018,0,0,1,4.435-.474c3.13.009,6.26-.029,9.39-.051a1.641,1.641,0,0,0,.639-.057A5.9,5.9,0,0,1,76.35,23c.216-.017.418-.232.683-.391.245.258.743-.364,1.043.161-.217.414-.807-.089-.925.523a2.147,2.147,0,0,0,.471.271,11.324,11.324,0,0,0,3.561.564c2.133-.08,4.269-.093,6.4-.1a15.2,15.2,0,0,1,3.761.489c.812.2,1.644.321,2.464.5a2.3,2.3,0,0,1,.588.242c.19.1.356.251.545.355a3.439,3.439,0,0,1,1.4,1.316,1.372,1.372,0,0,0,.91.681,1.418,1.418,0,0,1,.573.284,7.47,7.47,0,0,0,1.837,1.192,7.337,7.337,0,0,1,1.293.831,19.114,19.114,0,0,0,1.985,1.206c.867.472,1.758.9,2.637,1.348a1.277,1.277,0,0,1,.377.249,1.3,1.3,0,0,0,1.053.42,1.469,1.469,0,0,1,1.114.569,6.789,6.789,0,0,0,.642.527,1.967,1.967,0,0,1,.218.139,37.337,37.337,0,0,0,3.272,2.448.768.768,0,0,0,.736.24c0-.15.011-.3,0-.439-.032-.328-.106-.655-.109-.982a1.481,1.481,0,0,1,1.5-1.556,4.022,4.022,0,0,1,2.252.431,6.991,6.991,0,0,0,1.566.541.994.994,0,0,1,.185.057c.711.408,1.42.821,2.131,1.231.316.182.622.387.953.537a18.371,18.371,0,0,1,2.824,1.944,20.548,20.548,0,0,1,3.314,3.207c.131.145.272.28.412.415a8.491,8.491,0,0,1,1.5,2.044,8.628,8.628,0,0,0,.964,1.314,21.538,21.538,0,0,1,2.587,4.161,18.17,18.17,0,0,1,.972,2.131c.271.762.429,1.566.633,2.353a6.717,6.717,0,0,0,.188.766,9.238,9.238,0,0,1,.389,2.531,1.352,1.352,0,0,1-.017.395c-.089.441-.421.58-.762.3a1.939,1.939,0,0,1-.414-.5c-.406-.672-.781-1.363-1.2-2.029a28.6,28.6,0,0,0-2.146-3.2c-.957-1.156-1.842-2.374-2.747-3.575-.379-.5-.724-1.033-1.1-1.543a2.886,2.886,0,0,0-.333-.3,4.055,4.055,0,0,1-.488-.511,3.557,3.557,0,0,0-1.512-1.363c-.208-.087-.346-.37-.494-.581-.16-.228-.292-.475-.395-.645l-1.1.208a.979.979,0,0,0,.73.833c.153.046.362.11.422.23a15.262,15.262,0,0,0,1.75,2.182c.638.855,1.337,1.664,1.96,2.53.814,1.131,1.619,2.271,2.353,3.457s1.383,2.425,2.05,3.652a.721.721,0,0,1-.061.9c-.062-.006-.129.006-.143-.016a12.7,12.7,0,0,1-1.256-1.8,3.066,3.066,0,0,0-1.49-1.747,9.976,9.976,0,0,1-1.015-.64s-.055-.017-.085,0c-.47.321-.642.291-1.018-.126-.144-.16-.176-.484-.6-.4a3.806,3.806,0,0,0,.24.641,7.528,7.528,0,0,1,.611.9c.261.641.439,1.316.663,1.973.175.514.379,1.017.547,1.533a5.671,5.671,0,0,0,.686,1.628,1.846,1.846,0,0,1,.179.56c.085.294.083.295.464.53a.433.433,0,0,0-.107.61,8.475,8.475,0,0,1,.5,1.339q.368,1.125.709,2.26a7.308,7.308,0,0,1,.228.952,6.716,6.716,0,0,0,.734,2.572,1.447,1.447,0,0,0,.261.375,3.638,3.638,0,0,1,.977,2.035c.241.844.436,1.7.715,2.533.3.89.677,1.752,1.011,2.63a16.07,16.07,0,0,1,.834,3.927.831.831,0,0,1-.062.514,1.612,1.612,0,0,0-.165,1.2c.1.794-.05.97-.894,1.059a2.682,2.682,0,0,0-.037.471c.137,1.514.287,3.026.425,4.54.052.57.07,1.144.128,1.713a3.462,3.462,0,0,1-.062,1.557,4.947,4.947,0,0,0-.125,1.441.506.506,0,0,0,.411.587c.424.075.542.39.582.764.016.153.015.308.021.462.043,1.1.123,2.2.119,3.3,0,1.211-.08,2.421-.133,3.632-.019.44-.043.882-.094,1.319-.04.347-.12.69-.191,1.033a5.35,5.35,0,0,0-.168.705,10.091,10.091,0,0,1-1.255,3.857,3.024,3.024,0,0,0-.226.546,3.564,3.564,0,0,1-1.117,1.507c-.369.369-.672.223-.7-.3a.726.726,0,0,0-.363-.652c-.889-.512-.8-1.385-.747-2.2.058-.854.229-1.7.34-2.55a5.159,5.159,0,0,0,0-.624l-.581-.036c-.035-.049-.088-.094-.08-.118a4.113,4.113,0,0,1,.636-1.57,4.233,4.233,0,0,0,.894-2.229,13.768,13.768,0,0,0,.258-2.622,1.242,1.242,0,0,1,.306-.98.616.616,0,0,0,.1-.679,3.079,3.079,0,0,1,.028-1.617,6.22,6.22,0,0,0,.085-2.709l-.766.559a.773.773,0,0,1-.38-.785c0-.571.045-1.143.1-1.712a2.617,2.617,0,0,0-.43-2,4.687,4.687,0,0,1-.576-1.524c-.08-.28-.151-.5-.494-.525-.289.212-.215.544-.225.836-.034.947-.009,1.9-.088,2.842-.1,1.227-.231,2.457-.444,3.668-.232,1.319-.659,2.6-.845,3.928-.209,1.493-.753,2.885-1.054,4.347a13.507,13.507,0,0,1-.648,1.865c-.308.846-.616,1.691-.939,2.531-.244.634-.491,1.269-.777,1.884-.537,1.159-1.08,2.316-1.662,3.453-.526,1.027-1.07,2.048-1.671,3.03-.784,1.28-1.692,2.484-2.439,3.786a36.394,36.394,0,0,0-2.523,4.587,29.469,29.469,0,0,1-1.536,2.814c-1.009,1.9-2.369,3.555-3.552,5.333-.192.288-.458.524-.668.8s-.391.573-.583.861a1.659,1.659,0,0,1-.137.22c-.9.969-1.795,1.953-2.725,2.9a22.321,22.321,0,0,1-1.881,1.7,28.109,28.109,0,0,1-2.448,1.8,5.963,5.963,0,0,1-1.808.843,2.745,2.745,0,0,0-1.672,1.044,1.718,1.718,0,0,1-.354.293l-.1-.09.229-.547a1.959,1.959,0,0,0-.476-.18,2.169,2.169,0,0,1-1.108-.492c-.49-.366-.483-.8.074-1.1.417-.226.867-.388,1.3-.583a2.4,2.4,0,0,0,1.275-1.034,8.005,8.005,0,0,0-2.005.584q-1.245.448-2.488.9-2.946,1.089-5.891,2.185-2.461.915-4.921,1.834a8.553,8.553,0,0,0-.848.318,11.726,11.726,0,0,1-3.837.835c-1.025.135-2.041.341-3.063.505-.508.081-1.02.138-1.531.209-.725.1-1.449.2-2.173.3a3.924,3.924,0,0,1-.768.1,18.127,18.127,0,0,0-3.352.232c-1.049.127-2.1.229-3.157.282a5.411,5.411,0,0,1-1.331-.179c-1.142-.235-2.28-.486-3.417-.742-.758-.171-1.509-.377-2.27-.54a5.229,5.229,0,0,0-1.341-.182,21.368,21.368,0,0,1-2.6-.252,10.481,10.481,0,0,1-3.507-.785,4.069,4.069,0,0,0-1.665-.465,9.154,9.154,0,0,1-1.954-.544,2.186,2.186,0,0,1-1.019-.332c-.117-.1-.408,0-.609.051A1.655,1.655,0,0,1,45.1,140.8a2.156,2.156,0,0,1-1.4.11.32.32,0,0,1-.2-.156,1.455,1.455,0,0,1-.086-.332.773.773,0,0,1,.289-.035.789.789,0,0,0,.418.085,2.078,2.078,0,0,0-.186-.186,1.337,1.337,0,0,1-.625-.863c-.028-.181-.2-.337-.295-.482-.637.2-.2,1.019-.86,1.171-.277-.17-.506-.533-.943-.529-.073,0-.252-.345-.206-.424.3-.524-.058-.921-.2-1.36a.469.469,0,0,0-.245-.3,2.49,2.49,0,0,1-.01.545c-.03.13-.131.312-.233.338a.452.452,0,0,1-.363-.184,1.535,1.535,0,0,1-.162-.444l-.909-.437c-.043-.245-.08-.458-.126-.726a.712.712,0,0,1-.9-.117c-.2-.173-.347-.051-.47.239l1.151.415c.015.312.116.687-.322.912a.862.862,0,0,1-.353-.871c-.262-.085-.409-.087-.462.247-.071.45-.193.5-.759.376l.613-.912-.677.155c-.189-.266-.038-.771-.594-.794-.187.133-.388.506-.818.126a7.768,7.768,0,0,1,.491-.63.322.322,0,0,0,.035-.5,1.924,1.924,0,0,1-.169-.617l-.455-.057c.053-.051.194-.13.229-.243.021-.066-.112-.24-.207-.272a3.88,3.88,0,0,0-.748-.16c-.248-.033-.628.339-.513.539.25.432-.063.737-.1,1.116-.393-.228-.322-.611-.383-.947s-.134-.672.3-.782c-.255-.527-.362-.624-1.176-1.1a1.43,1.43,0,0,0-.374.215c-.138.145-.145.293.085.4a2.484,2.484,0,0,1,.435.355l-.673.409-.5-1.43.6.034c0-.127.036-.292-.005-.315a2.494,2.494,0,0,1-.828-.872c-.1-.144-.411-.135-.693-.215l.1-.5a.812.812,0,0,1-.875-.588.831.831,0,0,1,.018-.748.752.752,0,0,0-.034-.81c-.358-.6-.747-1.179-1.134-1.76-.054-.082-.164-.126-.3-.223a1.568,1.568,0,0,0-.216.4,5.548,5.548,0,0,0-.1.918.758.758,0,0,0,.142.414c.223.32.483.614.708.932.491.694.46.991-.178,1.726-.442-.282-.892-.4-1.191.175.164.426.326.829.473,1.238a.708.708,0,0,0,.513.443c.425.144.444.264.193.757a3.37,3.37,0,0,1-.289-.228c-.108-.106-.182-.268-.307-.333a1.745,1.745,0,0,1-.946-2.116c.107-.539-.208-.812-.99-.858a3.525,3.525,0,0,0,.165.4,4.365,4.365,0,0,0,.268.377c-.19.207-.368.211-.523.049a2.462,2.462,0,0,1-.921-1.448c-.039-.386-.254-.479-.862-.48a5.9,5.9,0,0,0-1.72-1.965,53.863,53.863,0,0,1-4.376-3.456c-.76-.8-1.491-1.632-2.226-2.457-.477-.536-.969-1.061-1.4-1.634-.77-1.028-1.512-2.079-2.24-3.138-.556-.808-1.11-1.621-1.6-2.472Q9.519,111.9,8.46,109.83a3.5,3.5,0,0,1-.5-1.758,1.055,1.055,0,0,0-.1-.512,23.105,23.105,0,0,1-1.335-3.837,8.1,8.1,0,0,1-.355-1.057,16.26,16.26,0,0,1-.14-1.69c0-.058.1-.122.18-.217l2.48,4.435a2.708,2.708,0,0,0,.192-.589c.01-.329-.041-.66-.032-.989.011-.423.2-.547.588-.412.183.064.358.157.544.212.326.095.441.017.493-.31a.924.924,0,0,0,.008-.263c-.18-1.394-.439-2.775-.494-4.189-.042-1.074-.275-2.14-.325-3.214-.044-.943.055-1.891.077-2.838.015-.616.02-1.232,0-1.847a5.571,5.571,0,0,0-.739-2.092,20.5,20.5,0,0,1-.846-2.2c-.169-.532-.168-.638-.529-.945a.749.749,0,0,0-.09,1.008,1.148,1.148,0,0,1-.049,1.5,2.816,2.816,0,0,0-.241.491,3.53,3.53,0,0,0,.384.263c.427.216.547.427.42.872a7.811,7.811,0,0,1-.342.813,2.624,2.624,0,0,1-.284-.477c-.212-.76-.409-1.524-.611-2.287a.725.725,0,0,0-.072-.251,2.777,2.777,0,0,1-.383-1.442,7.118,7.118,0,0,0-.436-2.191,2.131,2.131,0,0,1-.073-.65c-.015-.128,0-.3-.071-.375-.422-.441-.349-1.026-.441-1.552-.114-.649-.161-1.312-.211-1.971a.711.711,0,0,0-.36-.651.746.746,0,0,1-.346-.958A1.341,1.341,0,0,1,4.5,77.34a1.308,1.308,0,0,0-.112-1.369.828.828,0,0,1-.041-.81.725.725,0,0,0,.036-.505,4.73,4.73,0,0,1-.087-1.89c-.006-.835-.028-1.67-.027-2.505a5.122,5.122,0,0,1,.323-2.386,5.819,5.819,0,0,0,.3-1.143,3.4,3.4,0,0,1,.131-.342,1.918,1.918,0,0,1,.49.93,20.042,20.042,0,0,1,.774,3.394,8.7,8.7,0,0,1,.083.918c.071.61.158,1.218.228,1.828.076.656.147,1.313.208,1.971a.92.92,0,0,0,.364.807c.206-.671.388-1.363,1.2-1.592.457.361.279,1.048.6,1.662a2.063,2.063,0,0,0,.254-.523c.106-.983.2-1.968.273-2.954a2.114,2.114,0,0,0-.137-.568,7.472,7.472,0,0,1-.284-1.339c-.049-1.322-.048-2.645-.041-3.968,0-.3.13-.6.151-.906.019-.273.071-.634-.068-.811a2.84,2.84,0,0,1-.454-1.627A8.538,8.538,0,0,1,8.724,61.9a3.007,3.007,0,0,1,.488-1.42,6.137,6.137,0,0,0,.332-.713,3.658,3.658,0,0,1,.408-.668.421.421,0,0,1,.383-.117c.1.045.163.229.207.364.024.073-.03.171-.038.258a2.28,2.28,0,0,0,.42,1.689.975.975,0,0,1,.069,1.157,1.42,1.42,0,0,0-.185.619,4.531,4.531,0,0,1-.6,1.992,4.292,4.292,0,0,0-.021,2.7,2.82,2.82,0,0,0,.409-.486,2.958,2.958,0,0,0,.179-.631c.24-1.162.473-2.326.709-3.489.123-.6.243-1.206.373-1.807.29-1.332.556-2.671.889-3.991.251-.994.574-1.971.9-2.944s.68-1.951,1.043-2.918c.424-1.128.807-2.28,1.327-3.362a30.6,30.6,0,0,1,1.9-3.362c.852-1.317,1.746-2.614,2.722-3.836.757-.948,1.669-1.767,2.508-2.647.495-.519,1-1.033,1.469-1.574a3.869,3.869,0,0,1,1.528-1.281c.205-.075.358-.307.527-.477.308-.308.6-.636.917-.933.474-.444.773-.356.963.259a1.8,1.8,0,0,0,.1.239c.008.016.034.024.095.063a2.258,2.258,0,0,0,1.1-.8A7.272,7.272,0,0,1,33.417,31.3a6.618,6.618,0,0,0,1.543-.932c.371-.25.855-.277,1.169-.65.052-.062.286,0,.413.051a.9.9,0,0,0,1.019-.207c.429-.392.816-.831,1.252-1.284l-.391-.461c.6-.278.943-.888,1.634-1.057l-.327.8a1.494,1.494,0,0,0-.369.065c-.079.035-.178.139-.178.213a.251.251,0,0,0,.443.131,1.61,1.61,0,0,0,.087-.427m88.751,45.32a1.318,1.318,0,0,0,.28-1.2,14.253,14.253,0,0,0-.574-3.038,1.545,1.545,0,0,1-.026-1.161,1.823,1.823,0,0,0-.169-1.583c-.082-.154-.221-.31-.223-.467a6.282,6.282,0,0,0-.475-1.689,10.4,10.4,0,0,0-.937-2.164c-.394-.7-.828-1.385-1.216-2.091-.343-.625-.61-1.295-.978-1.9-.608-1-1.268-1.974-1.911-2.955-.251-.383-.5-.764-.776-1.132a1.663,1.663,0,0,0-.919-.733c.069.24.1.395.157.539.087.223.182.443.289.656.163.326.338.647.512.968a7.677,7.677,0,0,1,.462.857c.248.647.412,1.331.694,1.96.348.776.779,1.514,1.179,2.266a36.831,36.831,0,0,1,2.268,5.025c.343.971.777,1.913,1.065,2.9.436,1.495.78,3.018,1.165,4.529.026.1.064.2.134.415M24.187,122.989a1.443,1.443,0,0,0-.535-1.729,3.972,3.972,0,0,1-1.785-1.915,4.489,4.489,0,0,0-.8-1.1,4.613,4.613,0,0,0-1.487-1.22,5.954,5.954,0,0,0,.516,1.162c.368.62.786,1.208,1.146,1.833.282.488.454,1.049.769,1.511a18.274,18.274,0,0,0,2.148,2.864c.631.621,1.163,1.345,1.746,2.017.207.238.436.455.709.739a11.1,11.1,0,0,0-2.431-4.16M129.267,75.65a5.124,5.124,0,0,0-.042.823c.14,1.158.292,2.314.466,3.467a2.42,2.42,0,0,0,.286.615c.629-.463.745-.751.527-1.256a11.165,11.165,0,0,1-.87-3.026.7.7,0,0,0-.367-.623M7.95,83.478c-.047-.949-.086-1.773-.129-2.6a.427.427,0,0,0-.293-.422c-.047.035-.072.043-.08.06a3.741,3.741,0,0,0,.045,2.621c.031.117.242.185.457.337M90.984,25.322a7.934,7.934,0,0,0,1.192.465,2.508,2.508,0,0,1,1.009.377.83.83,0,0,0,1.04,0,7.2,7.2,0,0,0-.679-.426c-.619-.3-1.349-.232-1.945-.637-.156-.106-.417-.1-.617.222m37.808,41.565a.821.821,0,0,0,.157.939c.227-.524.215-.593-.157-.939M45.065,139.744c-.385.239-.4.3-.18.763.289-.31.29-.31.18-.763m-12.055-7.29c-.037.523.457.384.583.758.071-.529.063-.537-.583-.758m-5.5-6.867a.622.622,0,0,0,.257.842c.142-.359.156-.62-.257-.842M128.993,74.438c.113-.319.2-.518-.1-.694-.161.238-.131.417.1.694M36.967,135.969c-.077-.34-.143-.567-.534-.507.045.3.178.449.534.507" transform="translate(-2.611 -14.26)" fill="#fff"/>
          <path id="Path_873473" data-name="Path 873473" d="M85.85,15.459c-.16-.012-.29-.017-.418-.032-.643-.071-.908-.41-.813-1.073a2.077,2.077,0,0,1,.77-1.336c.669-.548,1.371-1.057,2.016-1.633A28.562,28.562,0,0,1,91,8.962a14.98,14.98,0,0,1,3.448-1.745,17.925,17.925,0,0,0,1.639-.757,12.759,12.759,0,0,1,1.247-.509c.735-.24,1.48-.446,2.222-.661.249-.072.5-.129.753-.188a.863.863,0,0,1,.376-.064.513.513,0,0,1,.334.247.443.443,0,0,1-.145.381c-.33.243-.686.451-1.036.665a13.362,13.362,0,0,1-2,1.174c-.529.206-.949.569-1.462.789a7.366,7.366,0,0,0-1.469.936c-.638.48-1.241,1.008-1.865,1.506a2.3,2.3,0,0,1-.348.16,2.914,2.914,0,0,0-.664.393,26.387,26.387,0,0,1-3.476,2.565c-.331.232-.6.551-.938.777-.552.373-1,1-1.766.83" transform="translate(-54.479 -3.083)" fill="#fff"/>
          <path id="Path_873474" data-name="Path 873474" d="M344.12,265.859c-.181-.217-.4-.365-.439-.551a1.642,1.642,0,0,1,.014-1.007,10.7,10.7,0,0,0,1.081-2.922,25.123,25.123,0,0,1,.962-2.712c.052-.144.136-.277.174-.423a.641.641,0,0,1,.517-.528.71.71,0,0,0,.634-.786c-.019-.52.339-.79.6-1.119.182-.229.421-.143.548.145a.861.861,0,0,1-.086.934,2.422,2.422,0,0,0-.45,1.484c-.01.22-.043.44-.039.659a13.212,13.212,0,0,1-.691,4.075c-.229.748-.4,1.515-.6,2.272-.062.232-.168.454-.214.688a3.71,3.71,0,0,0-.135,1.03,1.149,1.149,0,0,1-.475,1.2,3.345,3.345,0,0,0-.587.692,3.332,3.332,0,0,1-.363.462.6.6,0,0,1-1.059-.37,3.438,3.438,0,0,0-.323-1.192.884.884,0,0,1,.142-.933c.246-.356.507-.7.792-1.095" transform="translate(-221.328 -162.973)" fill="#fff"/>
          <path id="Path_873475" data-name="Path 873475" d="M181.7,17.6a.615.615,0,0,1-.476-.651,5.259,5.259,0,0,1,.046-.857A1.733,1.733,0,0,0,181.167,15c-.191-.414-.063-.612.372-.68a29.186,29.186,0,0,1,6.763-.209,6.444,6.444,0,0,0,.7-.021,1.025,1.025,0,0,1,.315,0,20.009,20.009,0,0,0,3.519.393,1.666,1.666,0,0,0,1.056-.221,1.262,1.262,0,0,1,1.54.667.508.508,0,0,1-.511.663c-1.007.009-2.015-.019-3.021.014a11.193,11.193,0,0,0-1.4.214c-1.02.165-2.036.384-3.062.474a4.268,4.268,0,0,0-1.212.274,2.786,2.786,0,0,1-.96.079,3.141,3.141,0,0,0-1.448.267,1.946,1.946,0,0,1-.881.168c-.493-.009-.947.016-1.231.52" transform="translate(-116.752 -8.812)" fill="#fff"/>
          <path id="Path_873476" data-name="Path 873476" d="M152.217,6.519l.489-.681a.8.8,0,0,0-.813-.005,14.473,14.473,0,0,1-3.273.962.855.855,0,0,1-1.006-.852,1.513,1.513,0,0,1,.249-.918,2.99,2.99,0,0,1,1.642-.977c.9-.2,1.8-.446,2.691-.676.229-.059.452-.157.684-.193,1.468-.228,2.934-.466,4.407-.654.637-.081,1.288-.054,1.933-.075a.551.551,0,0,1,.595.349c-.19.431-.571.461-.963.415a.568.568,0,0,0-.58.171,5.385,5.385,0,0,1-2.367,1.4c-.078.03-.16.054-.32.108.747.348,1.4-.071,2.075-.042.151.269.049.448-.188.52a5.883,5.883,0,0,1-1.123.256,3.832,3.832,0,0,0-1.41.367,9.731,9.731,0,0,1-2.032.605,2.3,2.3,0,0,1-.689-.078m2.264-1.3c0,.041,0,.082,0,.123l.365-.039-.011-.113-.353.029" transform="translate(-95.15 -1.437)" fill="#fff"/>
          <path id="Path_873477" data-name="Path 873477" d="M201.345,7.858a.764.764,0,0,1-.791.377,4.627,4.627,0,0,0-.579-.02c-.279.024-.5.124-.484.484.012.216-.059.4-.307.424a.487.487,0,0,1-.522-.308c-.067-.151-.148-.3-.266-.528a2.367,2.367,0,0,0-.248.374.468.468,0,0,1-.49.331c-1.485.06-2.968.159-4.452.206a3.643,3.643,0,0,1-1.137-.188.539.539,0,0,1-.439-.576,1,1,0,0,1,.387-.557,1.478,1.478,0,0,1,.667-.209c.96-.117,1.922-.217,2.885-.312a14.688,14.688,0,0,1,3.22-.115c.531.064,1.075.017,1.612.043a1.069,1.069,0,0,1,.943.575" transform="translate(-123.556 -4.459)" fill="#fff"/>
          <path id="Path_873478" data-name="Path 873478" d="M76.056,339.706l-1.143-.413c-.3-.11-.6-.228-.907-.331a4.956,4.956,0,0,1-2.446-2.152,5.23,5.23,0,0,1-.484-.853.633.633,0,0,1,.114-.79.862.862,0,0,1,.728-.065,18.77,18.77,0,0,1,2.615,1.252,11.741,11.741,0,0,1,1.509,1.19,2.492,2.492,0,0,1,.731,1.642c.039.34-.217.49-.718.521" transform="translate(-45.697 -213.603)" fill="#fff"/>
          <path id="Path_873479" data-name="Path 873479" d="M2.809,213.847c.034.656.071,1.312.1,1.968.016.322.1.661-.213.966a1.836,1.836,0,0,1-.362-.213c-.583-.551-1.152-1.082-1-2.051a3.632,3.632,0,0,0-.306-1.389,11.51,11.51,0,0,1-.65-2.8c-.007-.805-.209-1.607-.3-2.414a4.327,4.327,0,0,1-.015-1.6c.142.184.257.275.294.392.123.4.2.807.329,1.2.195.58.44,1.143.631,1.724.245.746.457,1.5.693,2.29l.574.1a1.516,1.516,0,0,1-.04.335c-.223.6-.176.727.421.949.243.09.384.25.3.493s-.3.174-.481.067l-.135-.232-.069.068.223.148" transform="translate(0.125 -131.481)" fill="#fff"/>
          <path id="Path_873480" data-name="Path 873480" d="M379.646,145.954a1.926,1.926,0,0,1-.19-.4c-.087-.586-.16-1.175-.238-1.762-.017-.131-.023-.264-.052-.392-.255-1.134-.529-2.265-.769-3.4-.154-.731-.264-1.471-.388-2.208a1.6,1.6,0,0,1-.006-.33.433.433,0,0,1,.382-.459c.225-.033.358.111.43.319.131.373.265.744.391,1.118.063.187.1.382.165.569a15.775,15.775,0,0,1,.793,5.322,3.5,3.5,0,0,1-.518,1.621" transform="translate(-243.849 -87.267)" fill="#fff"/>
          <path id="Path_873481" data-name="Path 873481" d="M175.73,370.168c.2-.693.682-.659,1.2-.525.208.053.432.055.633.126.306.109.369.476.093.6a11.316,11.316,0,0,1-1.342.445.336.336,0,0,1-.252-.027c-.776-.51-1.668-.257-2.5-.4a2.473,2.473,0,0,1-.385-.028.969.969,0,0,0-1.078.172c-.066.06-.229.009-.464.009l.584-.4c-.2-.147-.4-.226-.5-.374a.962.962,0,0,1-.144-.59c.011-.093.252-.2.4-.224a1.64,1.64,0,0,1,.579.025,7.931,7.931,0,0,1,2.355.64c.258.14.491.331.812.552" transform="translate(-110.619 -235.22)" fill="#fff"/>
          <path id="Path_873482" data-name="Path 873482" d="M213.95,378.939c-.279-.016-.561-.014-.837-.054a.808.808,0,0,1-.7-.675.832.832,0,0,1,.48-.835,3.858,3.858,0,0,1,2.426-.51c.38.035.733.106.87.544a.952.952,0,0,1-.409,1.018,2.708,2.708,0,0,1-1.828.511" transform="translate(-136.967 -240.265)" fill="#fff"/>
          <path id="Path_873483" data-name="Path 873483" d="M154.884,16.9a1.8,1.8,0,0,1-.227.41c-.1.105-.318.123-.377.237-.385.739-1.146.828-1.788,1.122-.019.009-.035.032-.054.034a4.552,4.552,0,0,0-1.4.259c-.195.084-.374-.188-.343-.436a.674.674,0,0,1,.632-.637,4.859,4.859,0,0,0,2.69-.948.74.74,0,0,1,.864-.041" transform="translate(-97.139 -10.578)" fill="#fff"/>
          <path id="Path_873484" data-name="Path 873484" d="M224.382,7.568l.347.471h.685l-.11.587.545.333c.024.346-.193.414-.438.456-.592.1-1.184.211-1.777.312-.345.059-.481-.107-.362-.459a2.755,2.755,0,0,1,.217-.4,2.448,2.448,0,0,0,.29-.569,1.14,1.14,0,0,1,.6-.732" transform="translate(-143.956 -4.703)" fill="#fff"/>
          <path id="Path_873485" data-name="Path 873485" d="M16.027,214.754a5.783,5.783,0,0,1-.889-2.88c.012-.114.093-.309.147-.311.126,0,.345.059.369.142a5.69,5.69,0,0,1,.583,2.711c-.015.075-.084.138-.211.338" transform="translate(-9.636 -134.831)" fill="#fff"/>
          <path id="Path_873486" data-name="Path 873486" d="M211.581,1.421c-.052.4-.227.485-.472.449a2.28,2.28,0,0,1-.5-.121,2.075,2.075,0,0,0-1.446-.007,1.1,1.1,0,0,1-.995-.107c-.122-.083-.323-.04-.485-.069a2.418,2.418,0,0,1-.315-.1.667.667,0,0,1,.05-.11,5.928,5.928,0,0,0,1.721-.287c.084-.01.2-.039.251,0,.482.36,1.031.18,1.551.226a6.061,6.061,0,0,1,.64.125" transform="translate(-133.718 -0.544)" fill="#fff"/>
          <path id="Path_873487" data-name="Path 873487" d="M233.581,3.86c.4.071.76.131,1.115.2.1.02.24.036.3.108a.705.705,0,0,1,.2.437.522.522,0,0,1-.321.33.883.883,0,0,1-.49-.052c-.183-.056-.351-.164-.53-.237-.468-.19-.481-.222-.272-.786" transform="translate(-150.554 -2.337)" fill="#fff"/>
          <path id="Path_873488" data-name="Path 873488" d="M370.454,95.668a7.626,7.626,0,0,1-1.208-1.888c.26-.228.494-.168.621.008a9.9,9.9,0,0,1,.78,1.264c.075.144.012.363.012.547l-.2.068" transform="translate(-238.201 -59.603)" fill="#fff"/>
          <path id="Path_873489" data-name="Path 873489" d="M296.531,48.13c-.077-.014-.179,0-.228-.046-.426-.393-.853-.786-1.258-1.2-.2-.2-.358-.457-.033-.76.813.4,1.02,1.31,1.654,1.85l-.135.157" transform="translate(-190.167 -29.297)" fill="#fff"/>
          <path id="Path_873490" data-name="Path 873490" d="M365.5,124.227c.151.035.352.02.444.115a2.118,2.118,0,0,1,.429.651c.174.421.3.861.441,1.3.015.046-.033.113-.079.252-.469-.8-1.23-1.342-1.225-2.329Z" transform="translate(-235.78 -79.111)" fill="#fff"/>
          <path id="Path_873491" data-name="Path 873491" d="M353.214,111.438a2.678,2.678,0,0,1,.363.345,6.984,6.984,0,0,1,.5.824.443.443,0,0,1,0,.391.4.4,0,0,1-.39.03,1.911,1.911,0,0,1-.707-1.2c-.021-.087.13-.217.24-.387" transform="translate(-227.697 -70.961)" fill="#fff"/>
          <path id="Path_873492" data-name="Path 873492" d="M188.3,2.087a1.96,1.96,0,0,1-.456.028.426.426,0,0,1-.269-.2c-.024-.044.078-.235.137-.243a8.578,8.578,0,0,1,1.273-.091c.092,0,.179.245.268.377a1.455,1.455,0,0,1-.38.166,3.145,3.145,0,0,1-.572-.034" transform="translate(-120.943 -0.881)" fill="#fff"/>
          <path id="Path_873493" data-name="Path 873493" d="M11.617,155.847a8.823,8.823,0,0,1-.2-1.142.547.547,0,0,1,.264-.44c.214-.067.322.152.365.356.1.453.189.908-.432,1.226" transform="translate(-7.245 -98.273)" fill="#fff"/>
          <path id="Path_873494" data-name="Path 873494" d="M332.083,293.852c.313.693.192,1.042-.57,1.473-.029-.149-.1-.292-.066-.387.136-.339.309-.663.477-.988.025-.048.1-.066.16-.1" transform="translate(-213.797 -187.324)" fill="#fff"/>
          <path id="Path_873495" data-name="Path 873495" d="M227.386,3.084c-.495.554-.882.536-1.269-.03.412-.342.805-.247,1.269.03" transform="translate(-145.82 -1.683)" fill="#fff"/>
          <path id="Path_873496" data-name="Path 873496" d="M133.975,20.277c-.663.278-1.331.139-1.983.566a1.515,1.515,0,0,1,1.983-.566" transform="translate(-85.068 -12.709)" fill="#fff"/>
          <path id="Path_873497" data-name="Path 873497" d="M192.122,371.544c-.319.447-.711.465-1.195.056a.711.711,0,0,1,1.195-.056" transform="translate(-123.107 -236.694)" fill="#fff"/>
          <path id="Path_873498" data-name="Path 873498" d="M221.843,2.814c-.376.01-.7-.241-.7-.5a.375.375,0,0,1,.2-.278.612.612,0,0,1,.716.481c0,.119-.165.236-.21.294" transform="translate(-142.608 -1.162)" fill="#fff"/>
          <path id="Path_873499" data-name="Path 873499" d="M13.959,158.721a5.559,5.559,0,0,1,.02.819.483.483,0,0,1-.259.311.342.342,0,0,1-.329-.081.447.447,0,0,1,.018-.356c.11-.251.252-.488.381-.73l.169.038" transform="translate(-8.498 -101.099)" fill="#fff"/>
          <path id="Path_873500" data-name="Path 873500" d="M140.712,1.73c-.186.109-.352.22-.53.305a.262.262,0,0,1-.405-.171.393.393,0,0,1,.258-.512c.209-.051.378.034.677.378" transform="translate(-90.078 -0.729)" fill="#fff"/>
          <path id="Path_873501" data-name="Path 873501" d="M241.093,6.05a.813.813,0,0,1,.923-.337.348.348,0,0,1,.2.279.354.354,0,0,1-.261.232,6.65,6.65,0,0,1-.861-.175" transform="translate(-155.486 -3.502)" fill="#fff"/>
          <path id="Path_873502" data-name="Path 873502" d="M6.41,190.312c.347.474.346.5-.018.944-.4-.4-.4-.468.018-.944" transform="translate(-3.809 -121.275)" fill="#fff"/>
          <path id="Path_873503" data-name="Path 873503" d="M142.142,25.725c.046.394-.267.474-.455.651-.3-.187-.235-.362-.109-.538a.354.354,0,0,1,.564-.113" transform="translate(-91.186 -16.224)" fill="#fff"/>
          <path id="Path_873504" data-name="Path 873504" d="M5.814,217.981c.554.013.69.188.568.754a.932.932,0,0,1-.568-.754" transform="translate(-3.627 -138.926)" fill="#fff"/>
          <path id="Path_873505" data-name="Path 873505" d="M17.46,241.17c-.407-.476.216-.675.1-1.1l.5.2-.6.892" transform="translate(-11.054 -153.019)" fill="#fff"/>
          <path id="Path_873506" data-name="Path 873506" d="M385.512,122.442a.645.645,0,0,1,.253.8.242.242,0,0,1-.181.144.235.235,0,0,1-.189-.128c-.048-.27-.135-.556.117-.818" transform="translate(-248.589 -77.981)" fill="#fff"/>
          <path id="Path_873507" data-name="Path 873507" d="M373.864,100.462a.942.942,0,0,1,.573.632.308.308,0,0,1-.086.275.278.278,0,0,1-.272-.068c-.14-.231-.245-.486-.363-.731l.149-.108" transform="translate(-241.085 -63.96)" fill="#fff"/>
          <path id="Path_873508" data-name="Path 873508" d="M116.127,29.891c.037-.167.02-.408.122-.485.246-.185.509-.052.782.069-.157.4-.525.31-.72.528Z" transform="translate(-74.828 -18.575)" fill="#fff"/>
          <path id="Path_873509" data-name="Path 873509" d="M339.23,284.917a.672.672,0,0,1,.094.757.225.225,0,0,1-.438-.032.593.593,0,0,1,.344-.725" transform="translate(-218.595 -181.624)" fill="#fff"/>
          <path id="Path_873510" data-name="Path 873510" d="M389.571,136.545l-.377.326a1.606,1.606,0,0,1-.27-.443c-.039-.172.07-.387.268-.331.132.037.217.247.378.448" transform="translate(-250.897 -86.686)" fill="#fff"/>
          <path id="Path_873511" data-name="Path 873511" d="M221.461,8.682c-.1.138-.152.3-.235.317a1.308,1.308,0,0,1-.543-.031c-.042-.01-.08-.262-.064-.269a1.934,1.934,0,0,1,.519-.16c.085-.011.181.077.322.144" transform="translate(-142.269 -5.321)" fill="#fff"/>
          <path id="Path_873512" data-name="Path 873512" d="M381.077,112.869c-.251-.3-.592-.542-.552-1.01a1.545,1.545,0,0,1,.552,1.01" transform="translate(-245.479 -71.23)" fill="#fff"/>
          <path id="Path_873513" data-name="Path 873513" d="M357.718,118.506c.407.023.489.245.42.541a.279.279,0,0,1-.229.15c-.233-.028-.293-.264-.191-.691" transform="translate(-230.729 -75.47)" fill="#fff"/>
          <path id="Path_873514" data-name="Path 873514" d="M89.111,332.855a1.882,1.882,0,0,1,.5.3c.047.052-.086.273-.137.416l-.156.011-.3-.629.1-.1" transform="translate(-57.329 -212.204)" fill="#fff"/>
          <path id="Path_873515" data-name="Path 873515" d="M75.623,321.81l.573.284-.28.293-.4-.489.107-.088" transform="translate(-48.616 -205.158)" fill="#fff"/>
          <path id="Path_873516" data-name="Path 873516" d="M147.945,20.175c.165.382.191.6-.047.759a.171.171,0,0,1-.165-.04c-.161-.265.023-.422.212-.719" transform="translate(-95.188 -12.745)" fill="#fff"/>
          <path id="Path_873517" data-name="Path 873517" d="M381.041,170.649c-.086-.222-.173-.335-.154-.425s.138-.179.213-.268c.069.087.2.18.194.26-.011.116-.122.223-.252.433" transform="translate(-245.713 -108.29)" fill="#fff"/>
          <path id="Path_873518" data-name="Path 873518" d="M291.109,36.783c-.144.121-.228.246-.317.249s-.168-.125-.254-.194c.076-.083.142-.214.231-.234s.183.091.339.179" transform="translate(-187.4 -23.224)" fill="#fff"/>
          <path id="Path_873519" data-name="Path 873519" d="M108.777,22.023c.02.3-.032.477-.358.49-.1-.331.078-.417.358-.49" transform="translate(-69.835 -13.923)" fill="#fff"/>
          <path id="Path_873520" data-name="Path 873520" d="M152.258,0c-.189.337-.353.366-.716.225L152.258,0" transform="translate(-97.686 0.125)" fill="#fff"/>
          <path id="Path_873521" data-name="Path 873521" d="M196.053,371.579c-.115.1-.185.2-.258.2s-.166-.089-.25-.14c.071-.089.127-.208.218-.254.044-.022.154.1.289.189" transform="translate(-126.087 -236.783)" fill="#fff"/>
          <path id="Path_873522" data-name="Path 873522" d="M330.1,298.735l-.3.279-.1-.094.255-.32.147.135" transform="translate(-212.676 -190.353)" fill="#fff"/>
          <path id="Path_873523" data-name="Path 873523" d="M386.839,125.975a.447.447,0,0,1,.255.647c-.291-.146-.3-.339-.255-.647" transform="translate(-249.544 -80.235)" fill="#fff"/>
          <path id="Path_873524" data-name="Path 873524" d="M364.984,122.818c-.064-.248-.406-.4-.26-.791a.837.837,0,0,1,.251.8l.009-.013" transform="translate(-235.259 -77.716)" fill="#fff"/>
          <path id="Path_873525" data-name="Path 873525" d="M80.367,334.77c.367.115.455.238.363.429-.024.05-.136.054-.208.08l-.155-.509" transform="translate(-51.747 -213.426)" fill="#fff"/>
          <path id="Path_873526" data-name="Path 873526" d="M384.353,120.312a3.31,3.31,0,0,1,.168.323c.005.013-.122.1-.127.1-.082-.088-.155-.186-.229-.282l.188-.138" transform="translate(-247.83 -76.622)" fill="#fff"/>
          <path id="Path_873527" data-name="Path 873527" d="M176.055,11.607c-.088.029-.156.074-.187.055s-.054-.1-.068-.154c0-.007.078-.055.1-.044a.817.817,0,0,1,.154.143" transform="translate(-113.343 -7.187)" fill="#fff"/>
          <path id="Path_873528" data-name="Path 873528" d="M3.1,204.559a.85.85,0,0,1-.144-.209c-.008-.026.094-.122.107-.114a.408.408,0,0,1,.158.149c.011.02-.06.088-.121.174" transform="translate(-1.78 -130.157)" fill="#fff"/>
          <path id="Path_873529" data-name="Path 873529" d="M100.87,342.268a.926.926,0,0,1-.228.1c-.023,0-.094-.117-.084-.128a.524.524,0,0,1,.182-.134c.015-.006.066.078.13.158" transform="translate(-64.778 -218.108)" fill="#fff"/>
          <path id="Path_873530" data-name="Path 873530" d="M111.125,34.106l-.169-.1c.033-.041.063-.112.1-.117s.105.039.158.062l-.09.154" transform="translate(-71.49 -21.494)" fill="#fff"/>
          <path id="Path_873531" data-name="Path 873531" d="M19.029,233.6l-.122.148-.139-.147c.041-.038.08-.1.125-.105s.08.059.135.1" transform="translate(-11.988 -148.821)" fill="#fff"/>
          <path id="Path_873532" data-name="Path 873532" d="M198.546,2.453c-.027.027-.055.074-.083.075s-.054-.049-.081-.076c.028-.027.055-.074.084-.075s.053.049.08.076" transform="translate(-127.918 -1.391)" fill="#fff"/>
        </g>
      </g>
    </g>
    <g id="Group_1101933" data-name="Group 1101933" transform="translate(441.305 7098.295)">
      <rect id="Rectangle_401104" data-name="Rectangle 401104" width="79.858" height="80.967" fill="none"/>
      <g id="Group_1101935" data-name="Group 1101935" transform="translate(1.495 5.391)">
        <g id="Group_1101934" data-name="Group 1101934" transform="translate(0 0)" clip-path="url(#clip-path-2)">
          <path id="Path_880812" data-name="Path 880812" d="M44.833,67.809C33.2,59.73,31.191,62.34,20.686,67.117,9.3,72.293,2.447,67.31,1.752,58.9c-1.42-17.195,20.934-9.38,18.662-27.636-1.675-13.451,4.461-19.315,12.7-20.629C41.264,9.339,52.662,12.231,52,24.958c-.369,7.04,9.8,9.979,16.4,13.38,9.921,5.115,8.413,18.147,4.347,24.015-6.833,9.863-17.033,13.008-27.909,5.456" transform="translate(-0.092 -0.567)" fill="#d1eeee"/>
          <path id="Path_880813" data-name="Path 880813" d="M42.93,58.347s9.564.575,10.4-1.648-.5-5.148,2.932-7.034,4.969-4.845,6.445-4.034c1.9,1.045.171,3.276-1.805,5.284a5.051,5.051,0,0,0-1.189,5.85c1.195,3.059-2.84,3.842-2.95,7.692-.046,1.576-3.323,6.5-11.386,3.09Z" transform="translate(-2.351 -2.491)" fill="#c2c23c"/>
          <path id="Path_880814" data-name="Path 880814" d="M33.278,52.75s-12.088,5.3-14.414,2.814-2.227-6.924-7.724-7.742S1.991,43.893.528,45.649c-1.885,2.265,1.6,4.339,5.289,6.006a7.43,7.43,0,0,1,4.8,7.035c.155,4.543,5.826,3.639,8.116,8.589.938,2.026,7.933,6.857,16.5-1.41Z" transform="translate(0 -2.471)" fill="#c2c23c"/>
          <path id="Path_880815" data-name="Path 880815" d="M36.691,66.3c-4.7.539-21.273-6.3-21.439-6.368l.059-.112c.166.069,16.709,6.894,21.373,6.359Z" transform="translate(-0.835 -3.276)" fill="#969924"/>
          <path id="Path_880816" data-name="Path 880816" d="M23.105,63.032a2.37,2.37,0,0,1-1.526.613l-.009-.121c.858-.112,1.379-.361,1.546-.743.277-.631-.492-1.431-.5-1.44l.1-.086c.033.035.827.865.52,1.565a.874.874,0,0,1-.132.211" transform="translate(-1.182 -3.355)" fill="#969924"/>
          <path id="Path_880817" data-name="Path 880817" d="M18.95,61.467a2.368,2.368,0,0,1-1.526.614l-.009-.122c.86-.11,1.38-.36,1.546-.742.278-.63-.491-1.432-.5-1.441l.1-.085c.035.035.829.864.521,1.565a.884.884,0,0,1-.133.21" transform="translate(-0.954 -3.269)" fill="#969924"/>
          <path id="Path_880818" data-name="Path 880818" d="M16.51,60.6a2.374,2.374,0,0,1-1.527.613l-.009-.121c.86-.111,1.381-.361,1.547-.742.277-.631-.492-1.433-.5-1.44l.1-.085c.034.034.827.862.52,1.564a.842.842,0,0,1-.131.211" transform="translate(-0.82 -3.222)" fill="#969924"/>
          <path id="Path_880819" data-name="Path 880819" d="M21.245,62.328a1.981,1.981,0,0,1-1.272.512l-.008-.121c.706-.092,1.136-.3,1.271-.609.227-.515-.4-1.176-.411-1.182l.1-.085c.028.028.691.72.433,1.306a.7.7,0,0,1-.112.179" transform="translate(-1.094 -3.332)" fill="#969924"/>
          <path id="Path_880820" data-name="Path 880820" d="M25.2,63.77a2.373,2.373,0,0,1-1.526.613l-.009-.122c.859-.11,1.379-.36,1.546-.742.277-.63-.492-1.432-.5-1.44l.1-.086c.035.035.828.864.521,1.565a.885.885,0,0,1-.132.211" transform="translate(-1.296 -3.395)" fill="#969924"/>
          <path id="Path_880821" data-name="Path 880821" d="M27.536,64.786a2.38,2.38,0,0,1-1.526.614L26,65.279c.859-.111,1.381-.361,1.547-.743.277-.63-.492-1.431-.5-1.44l.1-.085c.033.033.827.863.52,1.564a.885.885,0,0,1-.132.211" transform="translate(-1.424 -3.451)" fill="#969924"/>
          <path id="Path_880822" data-name="Path 880822" d="M29.495,65.282a1.7,1.7,0,0,1-1.1.442l-.009-.122c.6-.077.967-.251,1.083-.514.192-.438-.347-1-.352-1l.1-.086c.025.025.6.622.372,1.13a.67.67,0,0,1-.1.155" transform="translate(-1.555 -3.505)" fill="#969924"/>
          <path id="Path_880823" data-name="Path 880823" d="M28.69,68.477s-4.08.629-4.258-3.1-1.343-5.392-5.207-7.172-4.6-3.976-4.185-6.731-6.336-3.861-4.42-6.686c3.062-4.51.858-6.127-1.693-7.218-2.865-1.225-4.548-4.732-.956-5.361s7.36,3.841,8.047,5.972,1.642,4.08,5.84,4.489,5.737,1.813,7.066,4.54.606,2.818,4.829,5.587Z" transform="translate(-0.325 -1.76)" fill="#969924"/>
          <path id="Path_880824" data-name="Path 880824" d="M38.323,64.342c-6.474-2.27-23.492-21.534-23.662-21.727l.153-.108c.17.194,17.154,19.421,23.581,21.675Z" transform="translate(-0.803 -2.328)" fill="#c2c23c"/>
          <path id="Path_880825" data-name="Path 880825" d="M22.734,51.6a3.52,3.52,0,0,1-2.394-.172l.07-.162c1.191.4,2.035.4,2.508.019.78-.638.312-2.154.308-2.169l.185-.048c.021.067.5,1.635-.365,2.344a1.286,1.286,0,0,1-.312.188" transform="translate(-1.114 -2.687)" fill="#c2c23c"/>
          <path id="Path_880826" data-name="Path 880826" d="M18.367,46.96a3.519,3.519,0,0,1-2.394-.171l.069-.163c1.194.4,2.037.406,2.508.02.781-.637.314-2.154.309-2.17l.185-.047c.023.067.5,1.636-.364,2.345a1.293,1.293,0,0,1-.313.186" transform="translate(-0.875 -2.433)" fill="#c2c23c"/>
          <path id="Path_880827" data-name="Path 880827" d="M15.77,44.3a3.523,3.523,0,0,1-2.394-.174l.069-.162c1.191.4,2.036.406,2.508.02.78-.638.313-2.155.308-2.169l.185-.047c.022.065.5,1.633-.364,2.343a1.278,1.278,0,0,1-.312.189" transform="translate(-0.733 -2.288)" fill="#c2c23c"/>
          <path id="Path_880828" data-name="Path 880828" d="M20.8,49.51a2.94,2.94,0,0,1-2-.142l.07-.162c.98.328,1.676.336,2.061.018.637-.521.255-1.77.251-1.783l.184-.047c.018.055.42,1.363-.306,1.956a1.045,1.045,0,0,1-.264.16" transform="translate(-1.03 -2.596)" fill="#c2c23c"/>
          <path id="Path_880829" data-name="Path 880829" d="M24.965,53.867a3.527,3.527,0,0,1-2.394-.173l.069-.163c1.191.4,2.035.406,2.507.02.78-.637.314-2.154.309-2.17l.186-.046c.022.066.5,1.634-.364,2.344a1.3,1.3,0,0,1-.313.188" transform="translate(-1.236 -2.811)" fill="#c2c23c"/>
          <path id="Path_880830" data-name="Path 880830" d="M27.332,56.651a3.525,3.525,0,0,1-2.394-.171l.069-.163c1.192.4,2.037.406,2.508.019.78-.637.313-2.153.309-2.168l.185-.048c.021.064.5,1.634-.365,2.343a1.263,1.263,0,0,1-.312.188" transform="translate(-1.366 -2.964)" fill="#c2c23c"/>
          <path id="Path_880831" data-name="Path 880831" d="M29.577,58.514a2.528,2.528,0,0,1-1.724-.123l.071-.162c.835.281,1.425.285,1.752.02.542-.442.214-1.506.211-1.517l.186-.046c.015.046.361,1.176-.267,1.69a1.009,1.009,0,0,1-.229.138" transform="translate(-1.526 -3.105)" fill="#c2c23c"/>
          <path id="Path_880832" data-name="Path 880832" d="M46.238,71.5c3.805-2.367,11.924-17.067,12-17.214l-.112-.047c-.081.147-8.184,14.819-11.961,17.169Z" transform="translate(-2.529 -2.971)" fill="#969924"/>
          <path id="Path_880833" data-name="Path 880833" d="M54.955,61.188a2.3,2.3,0,0,0,1.5-.45l-.067-.093c-.7.423-1.24.546-1.6.368-.588-.3-.5-1.329-.5-1.339l-.125,0c0,.045-.088,1.114.565,1.443a.848.848,0,0,0,.226.076" transform="translate(-2.966 -3.268)" fill="#969924"/>
          <path id="Path_880834" data-name="Path 880834" d="M57.082,57.611a2.3,2.3,0,0,0,1.5-.449l-.068-.094c-.7.424-1.241.548-1.6.369-.588-.3-.507-1.329-.506-1.34l-.125,0c0,.046-.089,1.114.565,1.443a.858.858,0,0,0,.226.075" transform="translate(-3.083 -3.072)" fill="#969924"/>
          <path id="Path_880835" data-name="Path 880835" d="M58.361,55.549a2.3,2.3,0,0,0,1.5-.451L59.8,55c-.7.424-1.241.548-1.6.369-.588-.3-.506-1.33-.5-1.339l-.126,0c0,.045-.088,1.113.565,1.442a.817.817,0,0,0,.226.077" transform="translate(-3.153 -2.959)" fill="#969924"/>
          <path id="Path_880836" data-name="Path 880836" d="M55.913,59.577a1.921,1.921,0,0,0,1.253-.374l-.068-.093c-.578.348-1.021.452-1.311.3-.48-.241-.414-1.092-.413-1.1l-.125,0c0,.038-.075.929.473,1.2a.679.679,0,0,0,.191.064" transform="translate(-3.026 -3.193)" fill="#969924"/>
          <path id="Path_880837" data-name="Path 880837" d="M53.855,62.952a2.3,2.3,0,0,0,1.5-.45l-.067-.095c-.7.425-1.239.548-1.6.369-.587-.295-.506-1.329-.5-1.339l-.126,0c0,.045-.088,1.113.565,1.443a.859.859,0,0,0,.226.076" transform="translate(-2.906 -3.365)" fill="#969924"/>
          <path id="Path_880838" data-name="Path 880838" d="M52.741,65.064a2.3,2.3,0,0,0,1.5-.449l-.067-.094c-.7.423-1.242.547-1.6.368-.588-.3-.506-1.328-.5-1.339l-.126,0c0,.044-.088,1.113.565,1.442a.859.859,0,0,0,.226.076" transform="translate(-2.845 -3.48)" fill="#969924"/>
          <path id="Path_880839" data-name="Path 880839" d="M51.605,66.563a1.654,1.654,0,0,0,1.081-.323l-.067-.093c-.492.3-.869.384-1.114.261-.408-.205-.35-.93-.35-.937l-.126,0c0,.032-.063.8.41,1.04a.682.682,0,0,0,.165.056" transform="translate(-2.795 -3.585)" fill="#969924"/>
          <path id="Path_880840" data-name="Path 880840" d="M63.988,19.661c0,1.694-9.615,2.988-21.254,2.988s-21.252-1.294-21.252-2.988,9.613-3.145,21.252-3.145,21.254,1.451,21.254,3.145" transform="translate(-1.177 -0.904)" fill="#94b8ed"/>
          <path id="Path_880841" data-name="Path 880841" d="M29.977,28.54c-.2-.29-4.815-7.173-3.632-12.825a7.389,7.389,0,0,1,3.45-4.879,14.74,14.74,0,0,1,2.8-1.408c.676-3.556,2.745-5.885,6-6.53a11.213,11.213,0,0,1,3.464-.2A6.259,6.259,0,0,1,45.043.423c3.034-1.152,6.775.111,9.1,3.068a10.07,10.07,0,0,1,1.722,3.273,9.26,9.26,0,0,1,2.9.482,4.726,4.726,0,0,1,2.811,2.891c.97,2.71-.118,6.476-3.233,11.192l-.788-.521c3.665-5.549,3.725-8.693,3.131-10.352a3.8,3.8,0,0,0-2.209-2.31,8.428,8.428,0,0,0-2.372-.44c.647,3.189-.228,6.785-2.6,10.24-.064.09-1.458,2-3.362,2.008h-.014a3.756,3.756,0,0,1-2.978-1.819c-1.282-1.748-.882-4.651,1-7.223a10.041,10.041,0,0,1,6.745-4.091A9.111,9.111,0,0,0,53.4,4.075C51.327,1.439,48.03.3,45.379,1.306a5.373,5.373,0,0,0-2.293,1.585,5.154,5.154,0,0,1,3.806,3.622c.6,1.959.865,4.5-.214,5.758a2.247,2.247,0,0,1-2.166.7c-1.672-.247-3.222-2.646-3.528-5.461A7.355,7.355,0,0,1,41.547,3.6a10.891,10.891,0,0,0-2.77.225,6.444,6.444,0,0,0-5.17,5.3,5.045,5.045,0,0,1,4.1.523c2.211,1.458,2.783,4.764,2.368,7.393A4.479,4.479,0,0,1,36.192,20.3H36.18c-1.03,0-2.842-.6-3.513-4.608a19.318,19.318,0,0,1-.226-5.187A14.8,14.8,0,0,0,30.3,11.637a6.474,6.474,0,0,0-3.029,4.271c-1.1,5.256,3.443,12.035,3.488,12.1Zm3.441-18.389a18.029,18.029,0,0,0,.181,5.383c.413,2.463,1.329,3.819,2.58,3.819h.009a3.581,3.581,0,0,0,2.95-2.461c.355-2.254-.1-5.237-1.956-6.456a4.38,4.38,0,0,0-3.764-.285M55.136,7.733A8.9,8.9,0,0,0,48.9,11.468c-1.608,2.2-2.017,4.716-1,6.107a2.88,2.88,0,0,0,2.216,1.433h.009A3.924,3.924,0,0,0,52.725,17.4c2.257-3.283,3.07-6.687,2.411-9.67m-12.6-4.007a6.585,6.585,0,0,0-.608,3.68c.275,2.53,1.657,4.47,2.726,4.628a1.342,1.342,0,0,0,1.311-.377c.776-.9.573-3.095.027-4.865a4.289,4.289,0,0,0-3.457-3.065" transform="translate(-1.432 0)" fill="#4e5661"/>
          <path id="Path_880842" data-name="Path 880842" d="M42.384,22.843c-11.024,0-20.093-1.205-21.2-2.749.134,4.727.331,4.91-2.051,7.173-3.138,2.981-4.22,2.848-4,5.093.212,2.191,3.115,1.472,4.053,2.182,1.659,1.254.466,2.709-.846,3.64s-1.714,2.171-.361,3.542c0,0-1.494,1.551,0,2.6s3.162-.264,1.734,2.531S20.51,52.2,25.179,51.4c2.051-.354,5.025-1.664,6.534.229s-.392,11.921-3.135,15.45,22.3,5.172,24.986.013c.86-1.65-4.156-7.562-3.773-10.964S51.3,50.673,54.911,45.1c4.718-7.283,8.717-16.836,8.686-25.033-1.017,1.558-10.124,2.776-21.212,2.776" transform="translate(-0.827 -1.099)" fill="#cadbf3"/>
          <path id="Path_880843" data-name="Path 880843" d="M80.023,36.313c.427,1.752-.713,6.782-.713,6.782l-1.1-1.177-.445-5.5s1.824-1.854,2.253-.1" transform="translate(-4.26 -1.947)" fill="#fbb99d"/>
          <path id="Path_880844" data-name="Path 880844" d="M79.937,36.728S79.589,32.3,77.9,31a2.63,2.63,0,0,0-3.3.128s3.137,3.93,3.116,6.459,2.216-.861,2.216-.861" transform="translate(-4.086 -1.668)" fill="#fbb99d"/>
          <path id="Path_880845" data-name="Path 880845" d="M77.742,43.1a1.154,1.154,0,0,0-.319.618c-.021.151,0,.305-.009.457a3.91,3.91,0,0,1-.238.923.548.548,0,0,0-.032.2.179.179,0,0,0,.305.131.479.479,0,0,0,.122-.176,2.645,2.645,0,0,1,.322-.653.247.247,0,0,1,.227-.1c.123.03.149.192.143.319a1.505,1.505,0,0,1-.147.645.694.694,0,0,1-.515.381c-.136.014-.3-.014-.388.092a.233.233,0,0,0,.055.31.49.49,0,0,0,.33.087A2.263,2.263,0,0,0,78,46.268a2.086,2.086,0,0,0,.781-.281,1.451,1.451,0,0,0,.542-.956,5.881,5.881,0,0,0,.03-1.125,10.946,10.946,0,0,1,.071-1.493.835.835,0,0,0-.075-.6.693.693,0,0,0-.289-.2,1.062,1.062,0,0,0-.4-.107.5.5,0,0,0-.38.149.781.781,0,0,0-.091.641c.019.128.1.328,0,.437-.123.141-.319.23-.45.371" transform="translate(-4.225 -2.273)" fill="#fbb99d"/>
          <path id="Path_880846" data-name="Path 880846" d="M75.629,29.457s2.57-.208,3.723,2.95c.991,2.711.754,2.584.754,2.584l-2.547.67s-2.929-4.28-1.93-6.2" transform="translate(-4.131 -1.613)" fill="#fce6d9"/>
          <path id="Path_880847" data-name="Path 880847" d="M76.849,50.518,66.82,43.175l.2-1.5,9.535-.751Z" transform="translate(-3.66 -2.241)" fill="#4e5661"/>
          <path id="Path_880848" data-name="Path 880848" d="M67.05,69.184s-.386.467-.837,1.1-.793,1.29-.159,1.593,1.4-.44,1.65-.879.531-.391.873-.683.162-1.375.162-1.375Z" transform="translate(-3.599 -3.776)" fill="#feb801"/>
          <path id="Path_880849" data-name="Path 880849" d="M72.89,47.01C71.965,48.226,68.884,67.8,68.884,67.8c-.925.807-2.313,0-2.313,0-1-9.981.237-24.806.237-24.806s7.007,5.232,6.082,4.016" transform="translate(-3.625 -2.355)" fill="#4e5661"/>
          <path id="Path_880850" data-name="Path 880850" d="M76.787,69.524s.385.467.837,1.1.792,1.29.159,1.593-1.4-.44-1.651-.879-.531-.391-.873-.683-.162-1.374-.162-1.374Z" transform="translate(-4.111 -3.794)" fill="#feb801"/>
          <path id="Path_880851" data-name="Path 880851" d="M70.731,47.3c.925,1.215,4.006,20.789,4.006,20.789.925.807,2.313,0,2.313,0,1-9.982-.086-25.713-.086-25.713s-7.158,6.138-6.233,4.924" transform="translate(-3.87 -2.321)" fill="#4e5661"/>
          <path id="Path_880852" data-name="Path 880852" d="M62.585,35.836s4.128-.869,5.27-2.643a2.377,2.377,0,0,0-.162-3.04s-3.644,3.374-6.011,3.659.9,2.024.9,2.024" transform="translate(-3.331 -1.651)" fill="#fbb99d"/>
          <path id="Path_880853" data-name="Path 880853" d="M70.347,29.238s.4-.026.107,1.962c-.365,2.461-4.491,3.9-4.491,3.9L63.82,32.756s3.955-3.518,6.527-3.518" transform="translate(-3.496 -1.601)" fill="#fce6d9"/>
          <path id="Path_880854" data-name="Path 880854" d="M68.169,31c.656-2.183,3.819-2.3,6.391-1.89,1.734.273,2.711,1.456,2.714,3.591,0,1.4.114,7.293-.732,8.955,0,0-2.9,2.221-9.578-.459A36.7,36.7,0,0,1,68.169,31" transform="translate(-3.667 -1.584)" fill="#fce6d9"/>
          <path id="Path_880855" data-name="Path 880855" d="M63.068,35.863c-1.621.622-5.216.167-5.216.167l.276-1.258,4.746-1.061s1.814,1.527.194,2.151" transform="translate(-3.169 -1.846)" fill="#fbb99d"/>
          <path id="Path_880856" data-name="Path 880856" d="M56.379,34.62c-.568-.157-1.115-.379-1.685-.525a1.815,1.815,0,0,0-.489-.073.331.331,0,0,0-.179.044.142.142,0,0,0-.06.162c.025.056.095.095.088.155-.009.081-.134.077-.193.133a.145.145,0,0,0,0,.184.414.414,0,0,0,.158.119l.461.243a.4.4,0,0,1-.26.12.446.446,0,0,0-.123.013.088.088,0,0,0-.065.094.122.122,0,0,0,.043.058,1.723,1.723,0,0,0,.821.348,8.1,8.1,0,0,1,.886.17.5.5,0,0,1,.335.237.567.567,0,0,1-.109.488l-.214.361c-.055.092-.1.225-.016.29a.2.2,0,0,0,.181.007,2.576,2.576,0,0,0,.765-.546,3.067,3.067,0,0,1,1.571-.676.432.432,0,0,0,.139-.032.333.333,0,0,0,.137-.143,1.218,1.218,0,0,0,.167-.767.271.271,0,0,0-.037-.118.267.267,0,0,0-.116-.086A1.99,1.99,0,0,0,57.6,34.8a4.405,4.405,0,0,1-1.219-.184" transform="translate(-2.948 -1.863)" fill="#fbb99d"/>
          <path id="Path_880857" data-name="Path 880857" d="M73.349,30.032a95.953,95.953,0,0,1-.82,11.8l-.821.053a54.886,54.886,0,0,0,.935-11.857Z" transform="translate(-3.928 -1.645)" fill="#fdfefd"/>
          <path id="Path_880858" data-name="Path 880858" d="M76.877,42.822s-6.262,1.26-10.178-.68l.268-1.036a18.987,18.987,0,0,0,9.811.526Z" transform="translate(-3.653 -2.251)" fill="#4e5661"/>
          <path id="Path_880859" data-name="Path 880859" d="M74.13,41.809h-.558l-.131,1.733h.918Z" transform="translate(-4.023 -2.29)" fill="#8172a9"/>
          <path id="Path_880860" data-name="Path 880860" d="M69.993,41.59l-.4-.131-.69,1.589.828.269Z" transform="translate(-3.774 -2.27)" fill="#8172a9"/>
          <path id="Path_880861" data-name="Path 880861" d="M73.211,31.41a.183.183,0,0,0,.014-.261.186.186,0,0,0-.262-.014.184.184,0,0,0-.015.261.187.187,0,0,0,.263.014" transform="translate(-3.993 -1.702)" fill="#edd0c3"/>
          <path id="Path_880862" data-name="Path 880862" d="M73.211,33.246a.183.183,0,0,0,.014-.261.186.186,0,0,0-.262-.014.183.183,0,0,0-.015.26.187.187,0,0,0,.263.015" transform="translate(-3.993 -1.803)" fill="#edd0c3"/>
          <path id="Path_880863" data-name="Path 880863" d="M73.127,34.883a.187.187,0,0,0-.263-.014.182.182,0,0,0-.014.26.185.185,0,1,0,.277-.246" transform="translate(-3.988 -1.907)" fill="#edd0c3"/>
          <path id="Path_880864" data-name="Path 880864" d="M72.668,37.1a.183.183,0,0,0-.014.261.186.186,0,0,0,.262.014.184.184,0,0,0,.015-.261.187.187,0,0,0-.263-.014" transform="translate(-3.977 -2.029)" fill="#edd0c3"/>
          <path id="Path_880865" data-name="Path 880865" d="M72.5,39.635a.19.19,0,0,0-.014.261.174.174,0,0,0,.251.014.19.19,0,0,0,.014-.261.174.174,0,0,0-.251-.014" transform="translate(-3.968 -2.168)" fill="#edd0c3"/>
          <path id="Path_880866" data-name="Path 880866" d="M76.482,33.953H74.575l.09-.094c-.043.616-.026,1.861.694,2.06.678.188,1.119-.463,1.152-1.079a2.918,2.918,0,0,0-.116-.956.09.09,0,0,1,.174-.049c.267.9.126,2.39-1.1,2.291-.952-.078-1.03-1.524-.98-2.267a.1.1,0,0,1,.091-.094h1.907a.094.094,0,0,1,0,.187" transform="translate(-4.079 -1.849)" fill="#edd0c3"/>
          <path id="Path_880867" data-name="Path 880867" d="M69.186,33.376l1.977.224a.094.094,0,0,1,.09.094c.01.88-.269,2.371-1.392,2.235s-1.01-1.651-.762-2.483a.09.09,0,1,1,.174.049,2.981,2.981,0,0,0-.1,1.621.841.841,0,0,0,1.072.6,1.269,1.269,0,0,0,.689-.945c.082-.3.07-.611.131-.91.011-.052,0-.109,0-.161-.031.254.158.029.026.083-.034.014-.129-.015-.165-.019l-1.749-.2c-.113-.013-.115-.2,0-.187" transform="translate(-3.776 -1.828)" fill="#edd0c3"/>
          <path id="Path_880868" data-name="Path 880868" d="M74.622,26.386s-2.649.591-2.5.816-.111.677-.117,1.115a2.527,2.527,0,0,1-.72,1.459c-.285.337.222.738.673.826,1.944.38,3.172-.374,2.761-1.028a3.59,3.59,0,0,1-.1-3.188" transform="translate(-3.9 -1.445)" fill="#fbb99d"/>
          <path id="Path_880869" data-name="Path 880869" d="M72.042,28.314c.007-.439.265-.891.117-1.116s2.71-.861,2.71-.861a2.168,2.168,0,0,0-.508,1.153,7.92,7.92,0,0,1-2.478,1.446,1.767,1.767,0,0,0,.159-.622" transform="translate(-3.937 -1.442)" fill="#dc8162"/>
          <path id="Path_880870" data-name="Path 880870" d="M71.828,22.534c-1.113.873-2.062,3.889-.9,5.325.639.789,2.966-.049,4.057-1.767A3.842,3.842,0,0,0,74.9,23.2a2.235,2.235,0,0,0-3.069-.665" transform="translate(-3.856 -1.213)" fill="#fbb99d"/>
          <path id="Path_880871" data-name="Path 880871" d="M70.552,24.839c0,.185.25-1.824,1.338-1.96.442-.055.343.429.856.468.439.034,1.752-.882,1.247,1.83-.025.13.095.284.152.4.072.144-.151.474-.147.636s.455-.324.446-.168c-.015.25-.185.472-.206.722-.036.459.346.2.5-.015l.63-.893a1.358,1.358,0,0,0,.25-.473c.018-.076.075-.448.137-.473a.867.867,0,0,1,.41-.052,3.289,3.289,0,0,0-.187-1.173,1.916,1.916,0,0,0-.717-.932,2.627,2.627,0,0,0,.448,0,.108.108,0,0,0,.07-.024c.034-.035.006-.093-.025-.132a3.528,3.528,0,0,0-.768-.742c-.176-.126-.677-.493-.912-.4a.456.456,0,0,0,.216-.183,8.024,8.024,0,0,0-1.843.1,2.947,2.947,0,0,0,.3-.486,2.645,2.645,0,0,0-1.383.777,1.932,1.932,0,0,0-.435,1.592c.015.127-.033.147-.083.236a2.047,2.047,0,0,0-.15.41,3.179,3.179,0,0,0-.148.931" transform="translate(-3.864 -1.144)" fill="#53424d"/>
          <path id="Path_880872" data-name="Path 880872" d="M73.883,26.1s.8-.734,1.246-.523-.179,1.465-1.094,1.291-.4-.57-.152-.768" transform="translate(-4.027 -1.399)" fill="#fbb99d"/>
          <path id="Path_880873" data-name="Path 880873" d="M73.38,25.666c.025-.012-.027.011-.037.014a.524.524,0,0,1-.126.027c-.167.012-.24-.1-.277-.241-.024-.089-.164-.043-.141.046a.436.436,0,0,0,.664.272c.085-.042,0-.161-.083-.119" transform="translate(-3.987 -1.392)" fill="#1e100c"/>
          <path id="Path_880874" data-name="Path 880874" d="M71.755,25.054a.507.507,0,0,1-.141.089c-.164.067-.254-.036-.31-.181-.033-.086-.174-.041-.141.046.066.172.189.329.4.3a.606.606,0,0,0,.3-.157c.069-.062-.043-.157-.112-.095" transform="translate(-3.898 -1.364)" fill="#1e100c"/>
          <path id="Path_880875" data-name="Path 880875" d="M71.519,24.247a.441.441,0,0,1,.517.313c.039.109.2.037.164-.071a.608.608,0,0,0-.708-.418.089.089,0,0,0,.027.176" transform="translate(-3.912 -1.317)" fill="#552b19"/>
          <path id="Path_880876" data-name="Path 880876" d="M73.015,24.911a.442.442,0,0,1,.583.162c.066.094.2-.02.137-.113a.609.609,0,0,0-.795-.21c-.1.05-.028.212.075.162" transform="translate(-3.993 -1.351)" fill="#552b19"/>
          <path id="Path_880877" data-name="Path 880877" d="M72.341,24.934a.884.884,0,0,1-.04.493c-.1.219-.366.287-.531.457-.226.233-.054.41.248.54.073.031.121-.06.048-.091-.676-.289.188-.545.333-.824a.942.942,0,0,0,.065-.581c-.01-.065-.134-.06-.123.007" transform="translate(-3.925 -1.362)" fill="#dc8162"/>
          <path id="Path_880878" data-name="Path 880878" d="M72.563,26.9s-.03.613-.534.553a.591.591,0,0,1-.492-.612Z" transform="translate(-3.918 -1.47)" fill="#faffff"/>
          <path id="Path_880879" data-name="Path 880879" d="M73.638,26.8a.346.346,0,1,1-.161-.462.345.345,0,0,1,.161.462" transform="translate(-3.997 -1.44)" fill="#f3a498"/>
          <path id="Path_880880" data-name="Path 880880" d="M70.706,25.585a.35.35,0,1,1-.115.481.351.351,0,0,1,.115-.481" transform="translate(-3.864 -1.398)" fill="#f3a498"/>
        </g>
      </g>
    </g>
  </g>
</svg>
