<svg xmlns="http://www.w3.org/2000/svg" xmlns:xlink="http://www.w3.org/1999/xlink" width="72" height="72" viewBox="0 0 72 72">
  <defs>
    <clipPath id="clip-path">
      <rect id="Rectangle_405159" data-name="Rectangle 405159" width="72" height="72" transform="translate(288 11564)" fill="#fff" stroke="#707070" stroke-width="1"/>
    </clipPath>
    <clipPath id="clip-path-2">
      <rect id="Rectangle_405160" data-name="Rectangle 405160" width="66.418" height="69" fill="#fff"/>
    </clipPath>
  </defs>
  <g id="Mask_Group_1098722" data-name="Mask Group 1098722" transform="translate(-288 -11564)" clip-path="url(#clip-path)">
    <g id="Group_1102725" data-name="Group 1102725" transform="translate(290.556 11567)">
      <g id="Group_1102724" data-name="Group 1102724" clip-path="url(#clip-path-2)">
        <path id="Path_882922" data-name="Path 882922" d="M39.876,37.741c-.168,1.445-.343,2.866-.5,4.288a6.3,6.3,0,0,1-5.426,5.62,6.918,6.918,0,0,1-3.711-.622c-.058-.024-.114-.051-.207-.093-.01.112-.025.2-.025.287,0,1.71,0,3.419-.006,5.129a.359.359,0,0,0,.245.379c.439.212.87.442,1.292.685a1.05,1.05,0,0,1,.482,1.553c-.387.79-.8,1.567-1.184,2.359a.72.72,0,0,0-.043.477,28.115,28.115,0,0,1,1.187,6.01c.116,1.554.162,3.114.249,4.671.016.291-.073.39-.376.377-.6-.025-1.205-.007-1.8-.007-.057-1.4-.109-2.773-.171-4.147a24.722,24.722,0,0,0-.59-4.062l-.1-.009c-.121.229-.242.459-.365.688a1.138,1.138,0,0,1-1.936.455L12.978,51.863c-.1-.074-.21-.143-.315-.216-.475-.329-.482-.338-.933.038A27.073,27.073,0,0,0,3.5,63.319,32.728,32.728,0,0,0,2.11,68.763c-.013.07-.035.139-.059.237C1.4,68.886.766,68.786.138,68.647c-.073-.016-.155-.264-.134-.387.14-.793.284-1.587.469-2.37A29.424,29.424,0,0,1,8.441,51.71c.7-.7,1.488-1.328,2.257-1.961a3.406,3.406,0,0,0,.944-1.176c.532-1.108,1.083-2.207,1.636-3.305.208-.413.435-.813.991-.828.051,0,.141-.144.142-.223.008-.775.013-1.55-.013-2.324a.577.577,0,0,0-.246-.389c-1.291-.836-2.592-1.656-3.89-2.481A17.253,17.253,0,0,1,6.117,13.351,16.785,16.785,0,0,1,10.79,9.465a1.017,1.017,0,0,0,.5-.679A10,10,0,0,1,18.6,1.443a14.527,14.527,0,0,1,6.028-.1,41.037,41.037,0,0,1,5.828,1.427,11.452,11.452,0,0,0,8.872-.9c1.133-.6,2.287-1.162,3.44-1.722a1.1,1.1,0,0,1,1.687,1.1,31.5,31.5,0,0,1-.826,6.677,16.887,16.887,0,0,1-4.659,7.544l-.151.144c.432.957.89,1.875,1.264,2.826a16.557,16.557,0,0,1,1.051,5.6c.036,1.167.009,2.336,0,3.5A1.175,1.175,0,0,0,42.462,28.9c2.08,0,4.16-.028,6.24-.032q4.395-.008,8.789,0a5.24,5.24,0,0,1,2.143.378,4.492,4.492,0,0,1,2.655,4.279,4.444,4.444,0,0,1-3.382,4.04,5.83,5.83,0,0,1-1.447.173q-8.232.017-16.464.006H39.876M27.715,51.378c0-1.762,0-3.459-.006-5.155a.268.268,0,0,0-.151-.19c-1.459-.545-2.918-1.089-4.383-1.615-.21-.075-.2-.169-.142-.329.2-.524.412-1.045.6-1.574.07-.2.168-.2.335-.14q1.4.531,2.8,1.052c1.7.631,3.378,1.316,5.1,1.874a4.071,4.071,0,0,0,5.128-2.48,10.03,10.03,0,0,0,.276-1.527c.043-.238-.023-.329-.286-.36-.862-.1-1.727-.208-2.577-.378-.746-.15-1.475-.386-2.209-.591-.152-.042-.313-.093-.227-.328.194-.527.377-1.057.559-1.588a.212.212,0,0,1,.314-.154,18.28,18.28,0,0,0,4.448.874c.2.016.268-.038.288-.224.062-.58.147-1.158.2-1.74.078-.906.456-1.266,1.365-1.267H56.4c.5,0,1,.012,1.5,0a2.162,2.162,0,0,0,2.16-2.117,2.109,2.109,0,0,0-1.865-2.341,12.216,12.216,0,0,0-1.683-.024H49.119q-3.264,0-6.528,0a3.691,3.691,0,0,1-1.9-.416,3.365,3.365,0,0,1-1.768-3.1c-.023-1.76-.019-3.525-.139-5.28a12.314,12.314,0,0,0-1.631-5.078c-.094-.172-.168-.164-.318-.062-.359.244-.724.483-1.1.692a17.492,17.492,0,0,1-6.281,2.02,15.141,15.141,0,0,1-5.208-.293c-1.291-.283-2.555-.69-3.833-1.038-.166-.045-.34-.065-.555-.106.215.485.42.9.586,1.33a8.339,8.339,0,0,1,.624,3.48,10.7,10.7,0,0,1-.923,3.65c-.49,1.138-.927,2.3-1.4,3.443a1.038,1.038,0,0,1-1.086.717,1.106,1.106,0,0,1-1.014-.872c-.265-.76-.507-1.529-.765-2.291s-.482-1.54-.8-2.278a2.1,2.1,0,0,0-2.28-1.19,2.138,2.138,0,0,0-1.781,2.2A26.626,26.626,0,0,0,11.5,31.04,4,4,0,0,0,15.408,34.4a1.072,1.072,0,0,1,1.155,1.222q.015,4.762.012,9.524a.386.386,0,0,0,.229.4q4.025,2.15,8.044,4.311c.933.5,1.869.993,2.867,1.523M17.773,26.65h.094c.161-.411.332-.818.482-1.233a6.929,6.929,0,0,0-.277-5.674q-.63-1.267-1.274-2.527a1.049,1.049,0,0,1,.071-1.272,1.129,1.129,0,0,1,1.291-.349c1.667.488,3.339.956,5,1.45a15.507,15.507,0,0,0,7.455.388,13.741,13.741,0,0,0,7.148-3.79A14.337,14.337,0,0,0,42.11,3.176a2.357,2.357,0,0,0-.027-.259c-.128.055-.226.091-.319.137-.721.359-1.438.726-2.162,1.078a12.492,12.492,0,0,1-7.577,1.192,33.045,33.045,0,0,1-3.973-.988,23.826,23.826,0,0,0-6.921-1.056,7.875,7.875,0,0,0-5.905,2.6A8.121,8.121,0,0,0,13.2,10.129a1.076,1.076,0,0,1-.528.756c-.153.1-.313.179-.47.268A14.768,14.768,0,0,0,4.488,22.109a14.264,14.264,0,0,0,.072,5.1,14.567,14.567,0,0,0,5.809,9.26c1.22.9,2.537,1.66,3.811,2.481a1.158,1.158,0,0,0,.225.078c0-.665,0-1.29,0-1.916,0-.573,0-.574-.535-.738a6.024,6.024,0,0,1-4.409-4.542,19.136,19.136,0,0,1-.594-5.488,4.646,4.646,0,0,1,.263-1.361,4.309,4.309,0,0,1,4.84-2.685,4.4,4.4,0,0,1,3.365,3.1c.139.421.29.838.436,1.257M14.841,46.988l-1.307,2.6c.085.065.166.13.25.19q2.161,1.545,4.323,3.088,4.511,3.208,9.023,6.415c.144.1.236.158.339-.052q1-2.039,2.026-4.069c.122-.241.079-.357-.165-.487q-5.9-3.127-11.784-6.271c-.887-.472-1.781-.933-2.705-1.417" transform="translate(0 0)" fill="#fff"/>
        <path id="Path_882923" data-name="Path 882923" d="M245.858,90.106l-3.346,3.268c-.485-.5-.958-.978-1.418-1.472a.275.275,0,0,1,.032-.262q1.5-1.512,3.02-3a.286.286,0,0,1,.278.015c.461.45.907.915,1.433,1.453" transform="translate(-179.44 -65.955)" fill="#fff"/>
        <path id="Path_882924" data-name="Path 882924" d="M228.272,86.729v4.425h-2.257c-.006-.068-.019-.139-.019-.209q0-1.955,0-3.909c0-.135-.034-.3.175-.3.695-.006,1.39,0,2.1,0" transform="translate(-168.215 -64.555)" fill="#fff"/>
        <path id="Path_882925" data-name="Path 882925" d="M201.487,90.04c.488-.477.931-.918,1.388-1.343a.285.285,0,0,1,.277-.016c1.053,1.029,2.095,2.069,3.166,3.134-.147.154-.265.284-.388.408-.321.323-.639.65-.972.961a.282.282,0,0,1-.269.027c-1.059-1.036-2.107-2.083-3.2-3.17" transform="translate(-149.975 -65.987)" fill="#fff"/>
        <path id="Path_882926" data-name="Path 882926" d="M136.783,99.735c-.694,0-1.351.006-2.008-.009a.282.282,0,0,1-.187-.2c-.011-1.348,0-2.7-.009-4.043,0-.2.057-.268.278-.261.634.021,1.269.008,1.927.008Z" transform="translate(-100.172 -70.876)" fill="#fff"/>
      </g>
    </g>
  </g>
</svg>
