<svg xmlns="http://www.w3.org/2000/svg" xmlns:xlink="http://www.w3.org/1999/xlink" width="72" height="72" viewBox="0 0 72 72">
  <defs>
    <clipPath id="clip-path">
      <rect id="Rectangle_403424" data-name="Rectangle 403424" width="72" height="72" transform="translate(288 11564)" fill="#fff" stroke="#707070" stroke-width="1"/>
    </clipPath>
    <clipPath id="clip-path-2">
      <rect id="Rectangle_405157" data-name="Rectangle 405157" width="61.32" height="66.029" fill="#fff"/>
    </clipPath>
  </defs>
  <g id="Mask_Group_1098708" data-name="Mask Group 1098708" transform="translate(-288 -11564)" clip-path="url(#clip-path)">
    <g id="Group_1102723" data-name="Group 1102723" transform="translate(293.34 11566.985)">
      <g id="Group_1102722" data-name="Group 1102722" clip-path="url(#clip-path-2)">
        <path id="Path_882913" data-name="Path 882913" d="M7.315,24.456c-.141-.007-.228-.015-.314-.015-1.588,0-3.176.006-4.764-.007-.278,0-.317.1-.312.346.018.956.026,1.914,0,2.87a1.512,1.512,0,0,1-.216.744.847.847,0,0,1-.936.358.894.894,0,0,1-.707-.68,1.91,1.91,0,0,1-.058-.5q0-5.534,0-11.067A3.314,3.314,0,0,1,3.075,13.1a22.955,22.955,0,0,1,2.691-.012,4.092,4.092,0,0,1,1.266.231,3.1,3.1,0,0,1,2.142,2.842,1.6,1.6,0,0,1,.011.3c-.028.278.066.382.369.408a2.951,2.951,0,0,1,2.612,3.489c-.009.046-.008.094-.013.164.571.042,1.129.089,1.687.123q1.727.105,3.455.2c.493.027.56-.031.527-.526-.128-1.947-.278-3.892-.393-5.839a2.842,2.842,0,0,1,.189-1.733,1.513,1.513,0,0,1,2.183-.566c.968.606,1.915,1.248,2.871,1.875.915.6,1.825,1.206,2.746,1.8.494.317.62.274.883-.251q1.4-2.8,2.8-5.6a4.537,4.537,0,0,1,.244-.438,1.528,1.528,0,0,1,2.632,0c.283.447.5.938.738,1.413q1.133,2.258,2.259,4.519c.026.053.051.107.078.159.244.46.391.5.835.222a5.387,5.387,0,0,1,.767-.436.9.9,0,0,1,1.032.38.812.812,0,0,1-.012,1.041,3.163,3.163,0,0,1-2.043,1.076,2.118,2.118,0,0,1-2.1-1.158c-.435-.794-.823-1.614-1.228-2.424q-.773-1.545-1.541-3.093c-.021-.042-.05-.079-.1-.15l-1.187,2.367c-.534,1.065-1.055,2.137-1.6,3.194a2.2,2.2,0,0,1-2.6,1.2A4.052,4.052,0,0,1,24.2,17.3c-1.554-1.009-3.1-2.035-4.643-3.054-.04-.026-.084-.046-.175-.094,0,.212-.009.389,0,.566.112,1.85.233,3.7.338,5.55A2.155,2.155,0,0,1,18.473,22.5a2.391,2.391,0,0,1-1.079.227c-1.251-.036-2.5-.126-3.751-.2-.768-.045-1.535-.1-2.3-.141a1.192,1.192,0,0,0-.233.04c.111.173.2.319.3.463q1.544,2.329,3.088,4.657a2.252,2.252,0,0,1,.187,2.252,2.2,2.2,0,0,1-1.095,1.08q-2.033,1.02-4.077,2.016a.535.535,0,0,0-.331.484c-.1.653.169.967.755,1.236,1.556.714,3.077,1.5,4.611,2.266a5.852,5.852,0,0,1,.517.285.89.89,0,0,1,.342,1.2.922.922,0,0,1-1.234.419c-1.361-.669-2.716-1.349-4.075-2.023-.28-.139-.566-.267-.883-.416-.009.11-.02.183-.02.255,0,2.486.007,4.971,0,7.457a1.688,1.688,0,0,0,.53,1.292c1.337,1.312,2.659,2.639,3.98,3.969a1.343,1.343,0,0,0,1,.428l2.928-.01a.813.813,0,0,0,.147-.034c-.029-.11-.047-.213-.083-.309a8.583,8.583,0,0,1-.52-3.012c0-.927.007-1.855-.008-2.782a.894.894,0,0,0-.155-.478,4.772,4.772,0,0,1-.088-5.442,1.4,1.4,0,0,0,.256-.851c-.015-1.2-.033-2.407,0-3.61a13.915,13.915,0,0,1,9.1-12.933,12.567,12.567,0,0,1,6.608-.582,13.265,13.265,0,0,1,7.65,4.272,13.559,13.559,0,0,1,3.249,6.344,18.1,18.1,0,0,1,.359,2.9c.06,1.24.006,2.485.023,3.728a1.244,1.244,0,0,0,.187.626,4.627,4.627,0,0,1,.182,5.16,2.685,2.685,0,0,0-.383,1.517c.021.71,0,1.42.005,2.131a8.255,8.255,0,0,1-.525,3.009c-.128.331-.1.357.267.355.848,0,1.7-.023,2.544,0a1.592,1.592,0,0,0,1.264-.512c1-1.033,2.025-2.047,3.043-3.065.279-.279.568-.548.862-.811a1.542,1.542,0,0,0,.525-1.264,11.153,11.153,0,0,1,.015-1.212.911.911,0,0,1,.66-.859.845.845,0,0,1,.953.3.888.888,0,0,1,.213.5,18.619,18.619,0,0,1-.021,2.066,2.76,2.76,0,0,1-.907,1.687c-1.335,1.343-2.68,2.677-4.015,4.019a3.475,3.475,0,0,1-2.653,1.082c-1.291-.028-2.583-.015-3.875-.01a.405.405,0,0,0-.272.123,7.49,7.49,0,0,1-5.22,2.629c-.921.076-1.853.026-2.78.022a.579.579,0,0,0-.517.245,4.31,4.31,0,0,1-6.609.092.884.884,0,0,0-.8-.341A11.184,11.184,0,0,1,22.62,54.1a7.527,7.527,0,0,1-3.491-2.284.506.506,0,0,0-.345-.142c-1.3-.01-2.6-.021-3.905,0a3.3,3.3,0,0,1-2.48-.99c-1.378-1.37-2.745-2.751-4.122-4.121a3.361,3.361,0,0,1-.966-2.545c.019-3.452.009-6.9.009-10.356q0-4.276,0-8.551v-.652M42.25,35.842c0-.755,0-1.463,0-2.171a13.525,13.525,0,0,0-.524-3.793A11.6,11.6,0,0,0,31.952,21.5a10.754,10.754,0,0,0-4.869.5A11.6,11.6,0,0,0,19.2,31.953a31.6,31.6,0,0,0-.121,3.335c0,.172,0,.344,0,.536.6-.088,1.164-.166,1.725-.262.067-.011.139-.12.17-.2a4.38,4.38,0,0,1,.887-1.454,3.934,3.934,0,0,1,2.946-1.289c1.775-.007,3.55-.013,5.325.005a1.2,1.2,0,0,0,1.1-.55,12.331,12.331,0,0,1,.738-1,2.462,2.462,0,0,1,1.817-.988,27.428,27.428,0,0,1,3.251.021,4.011,4.011,0,0,1,3.506,3.574c.053.615.008,1.238.008,1.861l1.7.3M24.332,34.516a7.055,7.055,0,0,0-.638.305,2.316,2.316,0,0,0-1.07,2.169c0,1.341.009,2.683,0,4.024a8.566,8.566,0,0,0,1.57,5.14,7.8,7.8,0,0,0,9.871,2.59,8.052,8.052,0,0,0,4.62-7.546c.037-1.893,0-3.787-.007-5.68a16.611,16.611,0,0,0-.039-1.741,1.981,1.981,0,0,0-2-1.761c-.888,0-1.775.007-2.663,0a.61.61,0,0,0-.537.245c-.28.369-.552.744-.832,1.112a2.689,2.689,0,0,1-2,1.13c-.844.059-1.694.042-2.541.059-.141,0-.282.014-.509.026.383.189.691.314.972.485a.871.871,0,0,1,.373,1.169.915.915,0,0,1-1.213.476c-.92-.4-1.837-.812-2.737-1.255a1.59,1.59,0,0,1-.473-.53,1.734,1.734,0,0,1-.148-.413m-22.391-12a.767.767,0,0,0,.117.023c1.873,0,3.747,0,5.62,0a.54.54,0,0,0,.33-.148c.35-.332.685-.681,1.026-1.024.361-.363.74-.711,1.08-1.094a.928.928,0,0,0-.074-1.217,1.025,1.025,0,0,0-1.214-.214.925.925,0,0,1-1.485-.68c-.016-.147-.021-.295-.024-.443-.009-.5.008-1.007-.028-1.507a1.215,1.215,0,0,0-1.151-1.182c-.884-.051-1.773-.038-2.659-.047a1.431,1.431,0,0,0-1.563,1.606c.051,1.8.021,3.609.026,5.413,0,.166,0,.332,0,.518M42.227,44.8a1.281,1.281,0,0,0-.267.019,5.248,5.248,0,0,1-1.866.22c-.2-.014-.269.1-.337.257a10.156,10.156,0,0,1-4.91,5.185c-.062.031-.148.1-.148.152-.01.616-.007,1.232-.007,1.865.68,0,1.329.007,1.977,0a5.382,5.382,0,0,0,4.712-2.724,8.248,8.248,0,0,0,.846-4.972m-23.206-.054a27.949,27.949,0,0,0,.184,2.959,5.547,5.547,0,0,0,3.637,4.481,7.645,7.645,0,0,0,3.038.3c.056,0,.153-.152.155-.235.013-.5-.017-1.006.01-1.508a.66.66,0,0,0-.361-.7,10.162,10.162,0,0,1-4.114-4.748.354.354,0,0,0-.374-.251,9.354,9.354,0,0,1-1.119-.062c-.318-.04-.629-.135-1.056-.231m-9.8-13.793c.625-.31,1.206-.6,1.785-.886.6-.3,1.194-.6,1.791-.9.234-.118.309-.269.148-.512-.3-.451-.576-.916-.874-1.367q-1.157-1.748-2.326-3.487c-.162-.241-.328-.238-.454.02a1.078,1.078,0,0,0-.091.455q-.01,3.221-.006,6.441a2.342,2.342,0,0,0,.028.239m18.764,20.1c-.113,1.37,0,2.247,1.087,2.975a2.4,2.4,0,0,0,2.743-.106,2.68,2.68,0,0,0,.925-2.68,10.374,10.374,0,0,1-4.756-.188m-7.3-13.57a2.807,2.807,0,0,0-2.662,3.264c.247,1.48,1.642,2.627,2.781,2.375q-.059-2.83-.118-5.64m19.952-.006c-.038,1.89-.075,3.765-.114,5.67a2.588,2.588,0,0,0,2.212-1.066,2.857,2.857,0,0,0-2.1-4.6" transform="translate(-0.005 -6.708)" fill="#fff"/>
        <path id="Path_882914" data-name="Path 882914" d="M59.354,34.437H54.028a2.6,2.6,0,0,0-.028.269q.007,6.614.014,13.228a5.053,5.053,0,0,1-.034.59.906.906,0,0,1-.829.824.889.889,0,0,1-.951-.67,4.907,4.907,0,0,1-.084-.937c-.013-.451,0-.9,0-1.4-.118.048-.215.081-.306.127q-2.264,1.121-4.525,2.245a.93.93,0,0,1-1.1-.063.891.891,0,0,1,.05-1.481,9.886,9.886,0,0,1,.992-.524q2.325-1.162,4.655-2.316a.393.393,0,0,0,.256-.407c0-.887.007-.885-.8-1.283-1.2-.593-2.4-1.181-3.6-1.786a2.209,2.209,0,0,1-1.214-2.665,2.812,2.812,0,0,1,.376-.763c1.048-1.587,2.107-3.167,3.162-4.75.048-.072.086-.151.159-.28-.154-.008-.263-.025-.37-.019-1.958.112-3.917.221-5.875.342a2.278,2.278,0,0,1-2.389-2,7.8,7.8,0,0,1,.041-1.327c.1-1.6.215-3.206.322-4.81.009-.14,0-.28,0-.473-.316.206-.55.385-.808.52a.9.9,0,0,1-1.206-.271.821.821,0,0,1,.123-1.23,13.051,13.051,0,0,1,1.623-1.078,1.571,1.571,0,0,1,2.229,1.4c-.017.846-.107,1.69-.154,2.536-.051.915-.085,1.831-.137,2.746-.028.492-.083.982-.116,1.474-.039.578,0,.635.564.605,1.466-.078,2.932-.174,4.4-.264l.726-.046a2.976,2.976,0,0,1,2.9-3.688c.045-.411.062-.815.138-1.206a3.279,3.279,0,0,1,3.128-2.546c.927-.014,1.858-.053,2.781.008a3.307,3.307,0,0,1,3.172,3.25c.023.551.009,1.1.009,1.657q0,13.494.005,26.989A7.975,7.975,0,0,1,59.755,60a14.084,14.084,0,0,1-1.24,1.389q-4.38,4.365-8.782,8.708a2.758,2.758,0,0,0-.886,2.156c.044,2.15.028,4.3.028,6.451,0,.463-.021.927-.062,1.388a2.885,2.885,0,0,1-2.535,2.569,8.635,8.635,0,0,1-.943.055q-15.134,0-30.268,0a3.012,3.012,0,0,1-2.914-1.706,3.09,3.09,0,0,1-.255-1.441q0-3.67,0-7.339,0-.341,0-.681a2.63,2.63,0,0,0-.82-1.957c-1.9-1.877-3.789-3.771-5.681-5.659q-1.55-1.547-3.1-3.095a7.56,7.56,0,0,1-2.286-5.5C-.007,51.1,0,46.857,0,42.616c0-.687.246-1.064.754-1.181a.938.938,0,0,1,1.148.784,4.182,4.182,0,0,1,.036.59c0,4.182.012,8.365-.009,12.547A5.587,5.587,0,0,0,3.623,59.5q4.145,4.14,8.306,8.263c.231.229.452.468.675.705a4.241,4.241,0,0,1,1.187,2.975q.016,3.965.006,7.931c0,1.117.307,1.446,1.433,1.446H45.676c.895,0,1.268-.389,1.265-1.291-.009-2.387,0-4.774-.023-7.161a4.894,4.894,0,0,1,1.55-3.7q4.711-4.662,9.38-9.366a5.234,5.234,0,0,0,1.533-3.934c-.014-1.016-.011-2.032-.011-3.048q0-8.789,0-17.578c0-.1-.01-.192-.016-.312m0-1.91c.008-.1.016-.146.016-.195,0-2.032.007-4.063,0-6.1a1.179,1.179,0,0,0-1.1-1.217c-1.031-.048-2.067-.024-3.1-.006a1.2,1.2,0,0,0-.547.2,1.357,1.357,0,0,0-.616,1.265c-.009.581.007,1.165-.036,1.744a.935.935,0,0,1-1.421.67.99.99,0,0,0-1.284.16.957.957,0,0,0-.02,1.269,5.869,5.869,0,0,0,.505.538c.484.478.981.943,1.456,1.429a.718.718,0,0,0,.565.244c1.755-.009,3.51,0,5.266,0h.311m-7.251,8.4a.8.8,0,0,0,.03-.128q0-3.221,0-6.443a1.362,1.362,0,0,0-.045-.438.586.586,0,0,0-.239-.308c-.045-.024-.213.1-.276.2q-.719,1.047-1.415,2.109c-.591.9-1.182,1.791-1.758,2.7-.176.276-.139.389.154.537,1.173.595,2.351,1.178,3.554,1.779" transform="translate(0 -16.691)" fill="#fff"/>
        <path id="Path_882915" data-name="Path 882915" d="M39.106,5.247c-.378.4-.7.749-1.04,1.092a5.9,5.9,0,0,1-.562.523.9.9,0,0,1-1.477-.417c-.218-.652-.38-1.323-.559-1.988-.285-1.054-.569-2.108-.842-3.166A.946.946,0,0,1,34.934.2a.888.888,0,0,1,1.374.308,13.122,13.122,0,0,1,.476,1.547c.2.726.4,1.455.611,2.238.133-.109.227-.174.307-.253.427-.423.843-.858,1.276-1.274a.905.905,0,0,1,1.363-.059,1.216,1.216,0,0,1,.281.537c.308,1.272.595,2.548.892,3.822.148.632.311,1.261.454,1.894a.975.975,0,0,1-.958,1.315.938.938,0,0,1-.855-.778C40,8.918,39.879,8.33,39.74,7.746q-.255-1.077-.516-2.152c-.022-.09-.06-.177-.119-.347" transform="translate(-26.363 0)" fill="#fff"/>
        <path id="Path_882916" data-name="Path 882916" d="M196.933,4.311c.3-1.106.567-2.133.848-3.156a3.441,3.441,0,0,1,.25-.691.886.886,0,0,1,1.063-.418.874.874,0,0,1,.641.943,12.5,12.5,0,0,1-.3,1.292c-.329,1.256-.666,2.511-1,3.766a3.885,3.885,0,0,1-.135.422.9.9,0,0,1-1.465.4c-.476-.412-.905-.878-1.354-1.321-.076-.075-.147-.157-.278-.3-.1.358-.192.651-.262.95-.242,1.045-.475,2.092-.717,3.137a1.9,1.9,0,0,1-.145.417.912.912,0,0,1-1.059.5.9.9,0,0,1-.7-.967c.064-.486.194-.963.3-1.442.351-1.525.692-3.052,1.066-4.571.224-.911.982-1.115,1.67-.469.438.412.858.842,1.288,1.263.068.066.142.127.279.249" transform="translate(-146.645 -0.001)" fill="#fff"/>
        <path id="Path_882917" data-name="Path 882917" d="M115.666,156.476a17.591,17.591,0,0,1-2.094-.015,2.409,2.409,0,0,1-2.043-2.479,3.251,3.251,0,0,1,3.008-3.2,11.784,11.784,0,0,1,2.765.077,3.241,3.241,0,0,1,2.537,3.66,2.482,2.482,0,0,1-2.428,1.992c-.581.019-1.163,0-1.744,0,0-.014,0-.027,0-.04m.009-1.843v0c.552,0,1.1.006,1.655,0,.365-.006.591-.177.637-.454a1.264,1.264,0,0,0-.964-1.426,17.431,17.431,0,0,0-2.559-.014,1.2,1.2,0,0,0-1,1.129c-.067.5.134.755.636.768.532.013,1.064,0,1.6,0" transform="translate(-85.041 -114.941)" fill="#fff"/>
        <path id="Path_882918" data-name="Path 882918" d="M119.965,131.975a2.219,2.219,0,0,1,2.029-2.221,1.048,1.048,0,0,1,1.086.846.99.99,0,0,1-.806,1.041.612.612,0,0,0-.371.171c-.147.221-.052.393.213.484.13.044.261.088.387.144a.93.93,0,0,1,.58.965,1.028,1.028,0,0,1-.839.8,2.155,2.155,0,0,1-2.278-2.052c0-.059,0-.118,0-.177" transform="translate(-91.474 -98.934)" fill="#fff"/>
        <path id="Path_882919" data-name="Path 882919" d="M140.71,114.573a.888.888,0,0,1-.493.816c-.937.433-1.872.869-2.819,1.278a.9.9,0,0,1-1.152-.448.97.97,0,0,1,.439-1.268c.911-.418,1.814-.856,2.74-1.24a.917.917,0,0,1,1.286.861" transform="translate(-103.803 -86.648)" fill="#fff"/>
        <path id="Path_882920" data-name="Path 882920" d="M108.151,128.97c0,.3.008.592,0,.887a.827.827,0,0,1-.7.83.955.955,0,0,1-1.017-.432.657.657,0,0,1-.109-.272,19.1,19.1,0,0,1-.015-1.94.857.857,0,0,1,.768-.756.956.956,0,0,1,.968.438.672.672,0,0,1,.1.357c.014.295,0,.591,0,.887" transform="translate(-81.043 -97.045)" fill="#fff"/>
        <path id="Path_882921" data-name="Path 882921" d="M144.031,129c0-.256,0-.513,0-.769a.865.865,0,0,1,.7-.9.914.914,0,0,1,1.014.424,4.153,4.153,0,0,1-.021,2.564.967.967,0,0,1-1.014.385.829.829,0,0,1-.681-.821c-.014-.3,0-.592,0-.887Z" transform="translate(-109.823 -97.071)" fill="#fff"/>
      </g>
    </g>
  </g>
</svg>
