<svg xmlns="http://www.w3.org/2000/svg" xmlns:xlink="http://www.w3.org/1999/xlink" width="121" height="121" viewBox="0 0 121 121">
  <defs>
    <clipPath id="clip-path">
      <rect id="Rectangle_401159" data-name="Rectangle 401159" width="121" height="121" fill="#3d5756"/>
    </clipPath>
  </defs>
  <g id="Group_1102795" data-name="Group 1102795" transform="translate(9472 320)">
    <g id="Group_1102170" data-name="Group 1102170" transform="translate(-9626.668 -6439.349)">
      <g id="Group_1099585" data-name="Group 1099585" transform="translate(154.668 6119.349)">
        <g id="Group_1099584" data-name="Group 1099584" clip-path="url(#clip-path)">
          <path id="Path_873472" data-name="Path 873472" d="M35.22,26.911l.473.21c-.3.305-.568.546-.791.827s-.417.622-.622.935A.791.791,0,0,0,35.416,29a25.275,25.275,0,0,1,3.038-2.055A13.455,13.455,0,0,0,40.646,25.6c.5-.424,1.133-.584,1.592-1.04a.284.284,0,0,1,.2-.1.932.932,0,0,0,.943-.361c.127-.151.3-.123.455.005.27.221.5.161.74-.083a1.149,1.149,0,0,1,1.435-.25c-.027.411-.027.411-.425.69a1.77,1.77,0,0,0-.344-.145.542.542,0,0,0-.585.7c.08.231.245.166.419.109a12.764,12.764,0,0,1,1.51-.453c.979-.188,1.97-.319,2.955-.475q1.62-.256,3.239-.512a24.469,24.469,0,0,1,3.873-.414c2.734.008,5.467-.025,8.2-.045a1.433,1.433,0,0,0,.558-.05,5.151,5.151,0,0,1,1.807-.231c.189-.015.365-.2.6-.341.214.225.649-.318.911.141-.19.361-.705-.077-.808.457a1.875,1.875,0,0,0,.412.237,9.89,9.89,0,0,0,3.11.493c1.863-.07,3.728-.081,5.593-.09a13.278,13.278,0,0,1,3.285.427c.709.177,1.436.281,2.152.433a2.011,2.011,0,0,1,.514.211c.166.089.311.219.476.31a3,3,0,0,1,1.223,1.149,1.2,1.2,0,0,0,.795.595,1.238,1.238,0,0,1,.5.248,6.524,6.524,0,0,0,1.6,1.041,6.408,6.408,0,0,1,1.13.726,16.694,16.694,0,0,0,1.733,1.053c.757.412,1.536.784,2.3,1.177a1.116,1.116,0,0,1,.329.218,1.132,1.132,0,0,0,.92.367,1.283,1.283,0,0,1,.973.5,5.929,5.929,0,0,0,.56.46,1.719,1.719,0,0,1,.191.122,32.608,32.608,0,0,0,2.857,2.138.67.67,0,0,0,.643.21c0-.131.01-.258,0-.384-.028-.287-.093-.572-.095-.858a1.294,1.294,0,0,1,1.31-1.359A3.513,3.513,0,0,1,102.4,33a6.106,6.106,0,0,0,1.368.473.868.868,0,0,1,.162.05c.621.357,1.24.717,1.861,1.075.276.159.543.338.832.469a16.044,16.044,0,0,1,2.466,1.7,17.946,17.946,0,0,1,2.895,2.8c.114.126.237.244.36.362a7.416,7.416,0,0,1,1.311,1.785,7.534,7.534,0,0,0,.842,1.147,18.811,18.811,0,0,1,2.259,3.634,15.868,15.868,0,0,1,.849,1.861c.237.666.374,1.368.552,2.055a5.864,5.864,0,0,0,.164.669,8.068,8.068,0,0,1,.34,2.21,1.181,1.181,0,0,1-.015.345c-.077.385-.368.506-.666.263a1.694,1.694,0,0,1-.362-.437c-.355-.587-.682-1.191-1.044-1.772a24.982,24.982,0,0,0-1.874-2.791c-.835-1.01-1.609-2.074-2.4-3.122-.331-.44-.632-.9-.957-1.347a2.519,2.519,0,0,0-.29-.266,3.542,3.542,0,0,1-.426-.446,3.107,3.107,0,0,0-1.321-1.19c-.182-.076-.3-.324-.431-.507-.139-.2-.255-.415-.345-.563l-.963.182a.855.855,0,0,0,.638.728c.134.04.316.1.369.2a13.329,13.329,0,0,0,1.528,1.905c.557.747,1.168,1.453,1.712,2.21.711.988,1.414,1.984,2.055,3.019s1.208,2.118,1.79,3.19a.629.629,0,0,1-.053.785c-.055-.005-.113.005-.124-.014a11.09,11.09,0,0,1-1.1-1.576,2.678,2.678,0,0,0-1.3-1.526,8.713,8.713,0,0,1-.887-.559s-.048-.015-.074,0c-.41.281-.56.254-.889-.11-.126-.14-.154-.423-.528-.352a3.324,3.324,0,0,0,.21.559,6.573,6.573,0,0,1,.534.79c.228.559.384,1.149.579,1.723.153.449.331.888.478,1.339a4.953,4.953,0,0,0,.6,1.422,1.613,1.613,0,0,1,.157.489c.074.257.073.257.405.463a.378.378,0,0,0-.094.533,7.4,7.4,0,0,1,.433,1.17q.321.983.619,1.974a6.385,6.385,0,0,1,.2.832,5.866,5.866,0,0,0,.641,2.247,1.264,1.264,0,0,0,.228.327,3.177,3.177,0,0,1,.853,1.778c.211.737.381,1.487.625,2.212.261.777.591,1.53.883,2.3a14.035,14.035,0,0,1,.728,3.43.726.726,0,0,1-.054.449,1.408,1.408,0,0,0-.144,1.051c.086.694-.043.847-.781.925a2.342,2.342,0,0,0-.032.411c.12,1.322.251,2.643.371,3.965.046.5.061,1,.112,1.5a3.023,3.023,0,0,1-.054,1.36,4.321,4.321,0,0,0-.109,1.259.442.442,0,0,0,.359.512c.37.065.473.341.508.667.014.133.013.269.018.4.038.961.107,1.923.1,2.884,0,1.057-.07,2.115-.116,3.172-.016.385-.038.77-.082,1.152-.035.3-.1.6-.167.9a4.673,4.673,0,0,0-.146.616,8.813,8.813,0,0,1-1.1,3.369,2.642,2.642,0,0,0-.2.477,3.112,3.112,0,0,1-.975,1.316c-.322.322-.586.2-.609-.258a.634.634,0,0,0-.317-.569c-.776-.447-.7-1.21-.652-1.925.051-.746.2-1.484.3-2.227a4.505,4.505,0,0,0,0-.545l-.508-.031c-.031-.043-.077-.082-.07-.1a3.592,3.592,0,0,1,.555-1.371,3.7,3.7,0,0,0,.781-1.947,12.026,12.026,0,0,0,.226-2.29,1.084,1.084,0,0,1,.267-.856.538.538,0,0,0,.089-.593,2.689,2.689,0,0,1,.024-1.413,5.432,5.432,0,0,0,.074-2.366l-.669.489a.675.675,0,0,1-.332-.685c0-.5.039-1,.088-1.495a2.286,2.286,0,0,0-.376-1.743,4.094,4.094,0,0,1-.5-1.331c-.07-.244-.132-.436-.431-.459-.253.185-.187.475-.2.73-.03.827-.008,1.658-.077,2.482-.09,1.072-.2,2.146-.388,3.2-.2,1.152-.576,2.275-.738,3.43-.182,1.3-.658,2.52-.92,3.8a11.794,11.794,0,0,1-.566,1.629c-.269.738-.538,1.477-.82,2.21-.213.554-.429,1.108-.678,1.646-.469,1.013-.944,2.023-1.452,3.015-.459.9-.934,1.789-1.46,2.646-.685,1.118-1.478,2.169-2.13,3.306a31.785,31.785,0,0,0-2.2,4.006,25.734,25.734,0,0,1-1.342,2.457c-.881,1.66-2.069,3.105-3.1,4.658-.168.252-.4.458-.583.7s-.341.5-.509.752a1.45,1.45,0,0,1-.119.192c-.79.847-1.567,1.706-2.38,2.53a19.5,19.5,0,0,1-1.643,1.484,24.551,24.551,0,0,1-2.138,1.572,5.208,5.208,0,0,1-1.579.736,2.4,2.4,0,0,0-1.46.911,1.5,1.5,0,0,1-.309.256l-.086-.078.2-.478a1.71,1.71,0,0,0-.416-.157A1.894,1.894,0,0,1,86.17,125c-.428-.319-.422-.7.065-.959.364-.2.757-.339,1.135-.509a2.1,2.1,0,0,0,1.114-.9,6.991,6.991,0,0,0-1.751.51q-1.087.391-2.173.79-2.573.951-5.145,1.908-2.149.8-4.3,1.6a7.469,7.469,0,0,0-.74.278,10.241,10.241,0,0,1-3.351.729c-.9.118-1.783.3-2.675.441-.444.071-.891.121-1.337.182l-1.9.266a3.426,3.426,0,0,1-.671.083,15.83,15.83,0,0,0-2.927.2c-.916.111-1.836.2-2.757.246a4.726,4.726,0,0,1-1.162-.156c-1-.205-1.991-.424-2.984-.648-.662-.149-1.318-.33-1.982-.472a4.567,4.567,0,0,0-1.171-.159,18.662,18.662,0,0,1-2.274-.22,9.154,9.154,0,0,1-3.062-.685,3.554,3.554,0,0,0-1.454-.406,7.994,7.994,0,0,1-1.706-.475,1.909,1.909,0,0,1-.89-.29c-.1-.083-.356,0-.532.045a1.445,1.445,0,0,1-1.623-.575,1.883,1.883,0,0,1-1.224.1.279.279,0,0,1-.175-.136,1.271,1.271,0,0,1-.075-.29.675.675,0,0,1,.253-.03.689.689,0,0,0,.365.074,1.815,1.815,0,0,0-.163-.163,1.168,1.168,0,0,1-.546-.754c-.024-.158-.177-.295-.257-.421-.556.178-.178.89-.751,1.022-.242-.148-.442-.466-.823-.462-.063,0-.22-.3-.18-.37.266-.458-.05-.8-.172-1.187a.41.41,0,0,0-.214-.266,2.175,2.175,0,0,1-.009.476c-.026.114-.114.273-.2.3a.4.4,0,0,1-.317-.161,1.341,1.341,0,0,1-.142-.387l-.794-.382c-.037-.214-.07-.4-.11-.634a.621.621,0,0,1-.783-.1c-.177-.151-.3-.045-.41.209l1.005.362c.013.273.1.6-.281.8a.753.753,0,0,1-.309-.761c-.229-.074-.357-.076-.4.215-.062.393-.169.433-.663.329l.535-.8-.591.135c-.165-.232-.033-.673-.519-.694-.163.116-.338.442-.714.11a6.783,6.783,0,0,1,.429-.551.281.281,0,0,0,.031-.439,1.681,1.681,0,0,1-.148-.539l-.4-.05c.046-.045.169-.114.2-.213.018-.057-.1-.209-.181-.238a3.389,3.389,0,0,0-.654-.14c-.217-.029-.549.3-.448.471.218.377-.055.644-.092.975-.343-.2-.281-.534-.334-.827s-.117-.587.266-.683c-.222-.46-.316-.545-1.027-.959a1.249,1.249,0,0,0-.326.188c-.12.126-.127.256.075.35a2.17,2.17,0,0,1,.38.31l-.587.357L28,118.713l.523.03c0-.111.031-.255,0-.275a2.178,2.178,0,0,1-.723-.761c-.083-.126-.359-.118-.605-.188l.083-.437a.71.71,0,0,1-.764-.513.726.726,0,0,1,.015-.653.657.657,0,0,0-.03-.708c-.313-.523-.653-1.03-.991-1.537-.047-.071-.143-.11-.259-.194a1.37,1.37,0,0,0-.189.349,4.846,4.846,0,0,0-.085.8.662.662,0,0,0,.124.361c.2.28.421.536.618.814.429.606.4.866-.155,1.507-.386-.246-.779-.351-1.04.153.143.372.285.724.413,1.081a.618.618,0,0,0,.448.387c.371.126.388.231.168.661a2.941,2.941,0,0,1-.253-.2c-.095-.092-.159-.234-.268-.291a1.524,1.524,0,0,1-.826-1.848c.094-.471-.182-.709-.865-.749a3.078,3.078,0,0,0,.144.353,3.81,3.81,0,0,0,.234.329c-.166.181-.321.184-.457.043a2.15,2.15,0,0,1-.8-1.264c-.034-.337-.222-.418-.753-.419a5.156,5.156,0,0,0-1.5-1.716,47.037,47.037,0,0,1-3.822-3.018c-.664-.7-1.3-1.425-1.944-2.146-.416-.468-.846-.927-1.222-1.427-.673-.9-1.32-1.815-1.957-2.74-.486-.706-.97-1.416-1.4-2.159q-1.011-1.757-1.936-3.564a3.06,3.06,0,0,1-.436-1.535.922.922,0,0,0-.083-.447A20.178,20.178,0,0,1,6.24,93.441a7.07,7.07,0,0,1-.31-.923,14.2,14.2,0,0,1-.123-1.476c0-.05.085-.106.157-.19L8.13,94.725a2.365,2.365,0,0,0,.168-.515c.009-.287-.036-.576-.028-.864.01-.369.177-.478.513-.36.16.056.312.138.475.185.285.083.385.015.43-.27a.807.807,0,0,0,.007-.23c-.157-1.218-.383-2.424-.431-3.659-.037-.938-.24-1.869-.284-2.807-.038-.823.048-1.652.067-2.478.013-.538.018-1.076,0-1.613A4.866,4.866,0,0,0,8.4,80.287a17.9,17.9,0,0,1-.739-1.921c-.147-.465-.147-.557-.462-.826a.654.654,0,0,0-.078.88,1,1,0,0,1-.043,1.314,2.46,2.46,0,0,0-.21.429,3.083,3.083,0,0,0,.335.229c.373.189.477.373.367.761a6.823,6.823,0,0,1-.3.71,2.292,2.292,0,0,1-.248-.416c-.185-.664-.357-1.331-.534-2a.633.633,0,0,0-.063-.219A2.425,2.425,0,0,1,6.1,77.971a6.216,6.216,0,0,0-.381-1.914,1.861,1.861,0,0,1-.063-.568c-.013-.112,0-.261-.062-.328-.369-.385-.3-.9-.386-1.355-.1-.567-.14-1.146-.184-1.722a.621.621,0,0,0-.314-.568.652.652,0,0,1-.3-.837,1.171,1.171,0,0,1,.063-.28,1.142,1.142,0,0,0-.1-1.2.723.723,0,0,1-.036-.708.633.633,0,0,0,.032-.441A4.131,4.131,0,0,1,4.288,66.4c-.006-.73-.024-1.459-.024-2.188a4.473,4.473,0,0,1,.282-2.084,5.082,5.082,0,0,0,.259-1,2.974,2.974,0,0,1,.114-.3,1.675,1.675,0,0,1,.428.812,17.5,17.5,0,0,1,.676,2.964,7.6,7.6,0,0,1,.072.8c.062.533.138,1.063.2,1.6.066.573.128,1.147.181,1.721a.8.8,0,0,0,.318.705c.18-.586.339-1.191,1.049-1.39.4.316.244.915.526,1.452a1.8,1.8,0,0,0,.221-.457c.092-.859.175-1.719.238-2.58a1.846,1.846,0,0,0-.119-.5A6.526,6.526,0,0,1,8.461,64.8c-.042-1.154-.041-2.31-.036-3.465,0-.264.113-.525.132-.791.016-.238.062-.554-.06-.708a2.48,2.48,0,0,1-.4-1.421,7.457,7.457,0,0,1,.055-1.5,2.626,2.626,0,0,1,.426-1.24,5.36,5.36,0,0,0,.29-.622,3.2,3.2,0,0,1,.356-.584.367.367,0,0,1,.335-.1c.09.039.142.2.181.318.021.064-.026.149-.033.225a1.991,1.991,0,0,0,.367,1.475.852.852,0,0,1,.06,1.011,1.24,1.24,0,0,0-.161.54,3.957,3.957,0,0,1-.526,1.74,3.748,3.748,0,0,0-.018,2.355A2.463,2.463,0,0,0,9.79,61.6a2.584,2.584,0,0,0,.157-.551c.21-1.015.413-2.031.62-3.047.107-.527.212-1.053.326-1.578.253-1.163.486-2.333.777-3.486.219-.868.5-1.722.783-2.571s.594-1.7.911-2.548c.371-.985.705-1.991,1.159-2.936a26.725,26.725,0,0,1,1.659-2.937c.744-1.15,1.525-2.283,2.377-3.35.661-.828,1.457-1.543,2.19-2.312.432-.453.871-.9,1.283-1.374a3.379,3.379,0,0,1,1.335-1.119c.179-.065.313-.268.46-.416.269-.269.523-.555.8-.815.414-.387.675-.311.841.226a1.576,1.576,0,0,0,.088.209c.007.014.029.021.083.055a1.972,1.972,0,0,0,.96-.7,6.351,6.351,0,0,1,3.122-2.162,5.78,5.78,0,0,0,1.348-.814c.324-.219.747-.242,1.021-.567.045-.054.25,0,.361.044a.786.786,0,0,0,.89-.181c.374-.342.713-.726,1.094-1.121l-.341-.4c.522-.243.824-.776,1.427-.923l-.285.7a1.3,1.3,0,0,0-.322.057c-.069.03-.156.122-.156.186a.219.219,0,0,0,.387.115,1.406,1.406,0,0,0,.076-.373m77.509,39.58a1.151,1.151,0,0,0,.245-1.048,12.449,12.449,0,0,0-.5-2.654,1.349,1.349,0,0,1-.023-1.014,1.592,1.592,0,0,0-.148-1.383c-.071-.134-.193-.271-.195-.408a5.486,5.486,0,0,0-.415-1.475,9.086,9.086,0,0,0-.818-1.89c-.344-.615-.723-1.209-1.062-1.827-.3-.546-.533-1.131-.854-1.661-.531-.876-1.108-1.724-1.669-2.581-.219-.334-.441-.667-.678-.988a1.452,1.452,0,0,0-.8-.64c.06.209.088.345.137.471.076.194.159.387.252.573.143.285.3.565.447.846a6.706,6.706,0,0,1,.4.749c.217.565.36,1.162.606,1.712.3.678.68,1.322,1.03,1.979a32.167,32.167,0,0,1,1.981,4.388c.3.848.678,1.671.93,2.533.381,1.305.681,2.635,1.017,3.955.023.089.056.174.117.362M21.661,110.267a1.26,1.26,0,0,0-.467-1.51,3.469,3.469,0,0,1-1.559-1.673,3.92,3.92,0,0,0-.7-.961,4.029,4.029,0,0,0-1.3-1.066,5.2,5.2,0,0,0,.45,1.015c.321.541.686,1.055,1,1.6.246.427.4.916.672,1.319a15.959,15.959,0,0,0,1.876,2.5c.551.542,1.015,1.175,1.525,1.761.181.207.381.4.619.645a9.7,9.7,0,0,0-2.123-3.633m91.77-41.342a4.472,4.472,0,0,0-.037.719c.123,1.011.255,2.021.407,3.028a2.113,2.113,0,0,0,.25.537c.549-.4.651-.656.46-1.1a9.751,9.751,0,0,1-.76-2.643.612.612,0,0,0-.32-.544M7.48,75.761c-.041-.829-.075-1.548-.113-2.268a.373.373,0,0,0-.255-.369c-.041.03-.063.038-.07.053a3.267,3.267,0,0,0,.039,2.289c.027.1.211.161.4.295M80,24.971a6.929,6.929,0,0,0,1.041.406,2.191,2.191,0,0,1,.882.329.725.725,0,0,0,.909,0,6.283,6.283,0,0,0-.593-.372c-.541-.258-1.178-.2-1.7-.556-.137-.093-.364-.089-.539.194m33.019,36.3a.717.717,0,0,0,.137.82c.2-.458.188-.518-.137-.82M39.894,124.9c-.336.209-.348.259-.157.666.252-.271.254-.271.157-.666m-10.528-6.367c-.033.457.4.336.509.662.062-.462.055-.469-.509-.662m-4.806-6a.544.544,0,0,0,.224.736c.124-.314.136-.542-.224-.736m88.631-44.67c.1-.279.171-.453-.09-.606-.141.208-.115.364.09.606M32.822,121.6c-.067-.3-.125-.5-.466-.442.039.262.156.392.466.442" transform="translate(-2.927 -15.419)" fill="#3d5756"/>
          <path id="Path_873473" data-name="Path 873473" d="M85.692,14.138c-.14-.01-.253-.015-.365-.028-.561-.062-.793-.358-.71-.937a1.814,1.814,0,0,1,.673-1.167c.584-.479,1.2-.923,1.76-1.426a24.943,24.943,0,0,1,3.144-2.117A13.082,13.082,0,0,1,93.2,6.94a15.654,15.654,0,0,0,1.432-.661,11.141,11.141,0,0,1,1.089-.445c.642-.21,1.292-.39,1.941-.577.217-.063.438-.112.657-.164a.754.754,0,0,1,.328-.056.448.448,0,0,1,.292.216.387.387,0,0,1-.127.333c-.288.213-.6.394-.9.581A11.67,11.67,0,0,1,96.161,7.19c-.462.18-.829.5-1.277.689A6.433,6.433,0,0,0,93.6,8.7c-.557.419-1.083.88-1.629,1.315a2.006,2.006,0,0,1-.3.14,2.545,2.545,0,0,0-.58.343,23.045,23.045,0,0,1-3.036,2.24c-.289.2-.527.482-.819.679-.482.325-.875.872-1.542.725" transform="translate(-58.403 -3.439)" fill="#3d5756"/>
          <path id="Path_873474" data-name="Path 873474" d="M343.991,264.569c-.158-.189-.352-.319-.383-.481a1.434,1.434,0,0,1,.012-.88,9.343,9.343,0,0,0,.944-2.552,21.953,21.953,0,0,1,.84-2.369c.046-.125.119-.242.152-.369a.56.56,0,0,1,.451-.461.62.62,0,0,0,.554-.687c-.017-.454.3-.69.524-.978.159-.2.368-.125.479.127a.752.752,0,0,1-.076.816,2.115,2.115,0,0,0-.393,1.3c-.009.192-.037.384-.034.576a11.539,11.539,0,0,1-.6,3.559c-.2.654-.348,1.323-.525,1.984-.054.2-.146.4-.187.6a3.241,3.241,0,0,0-.118.9,1,1,0,0,1-.415,1.046,2.92,2.92,0,0,0-.513.6,2.914,2.914,0,0,1-.317.4.524.524,0,0,1-.925-.323,3,3,0,0,0-.282-1.041.772.772,0,0,1,.124-.815c.215-.311.442-.613.692-.956" transform="translate(-236.861 -174.824)" fill="#3d5756"/>
          <path id="Path_873475" data-name="Path 873475" d="M181.625,17.144a.537.537,0,0,1-.416-.569,4.594,4.594,0,0,1,.04-.748,1.513,1.513,0,0,0-.093-.951c-.167-.362-.055-.534.325-.594a25.489,25.489,0,0,1,5.906-.182,5.627,5.627,0,0,0,.61-.018.9.9,0,0,1,.275,0,17.474,17.474,0,0,0,3.074.343,1.455,1.455,0,0,0,.922-.193,1.1,1.1,0,0,1,1.345.583.443.443,0,0,1-.446.579c-.879.008-1.76-.017-2.639.012a9.776,9.776,0,0,0-1.223.187c-.891.145-1.778.335-2.674.414a3.728,3.728,0,0,0-1.058.239,2.434,2.434,0,0,1-.838.069,2.743,2.743,0,0,0-1.265.233,1.7,1.7,0,0,1-.769.146c-.431-.008-.827.014-1.075.454" transform="translate(-125.009 -9.58)" fill="#3d5756"/>
          <path id="Path_873476" data-name="Path 873476" d="M151.633,6l.427-.6a.7.7,0,0,0-.71,0,12.639,12.639,0,0,1-2.859.841.747.747,0,0,1-.879-.744,1.322,1.322,0,0,1,.217-.8,2.612,2.612,0,0,1,1.434-.853c.788-.175,1.568-.389,2.351-.59.2-.051.395-.137.6-.169,1.282-.2,2.563-.407,3.849-.571.557-.071,1.125-.047,1.689-.065a.481.481,0,0,1,.519.3c-.166.377-.5.4-.841.362a.5.5,0,0,0-.507.149,4.7,4.7,0,0,1-2.067,1.22c-.068.027-.139.047-.279.094.652.3,1.225-.062,1.812-.036.132.235.043.391-.164.454a5.138,5.138,0,0,1-.981.224,3.346,3.346,0,0,0-1.231.321,8.5,8.5,0,0,1-1.775.529,2.006,2.006,0,0,1-.6-.068m1.977-1.133c0,.036,0,.071,0,.108l.319-.034-.009-.1-.308.025" transform="translate(-101.905 -1.675)" fill="#3d5756"/>
          <path id="Path_873477" data-name="Path 873477" d="M200.113,7.773a.668.668,0,0,1-.691.329,4.041,4.041,0,0,0-.505-.017c-.244.021-.44.108-.423.422.01.189-.052.354-.268.37a.425.425,0,0,1-.456-.269c-.058-.132-.129-.258-.232-.461a2.066,2.066,0,0,0-.216.326.409.409,0,0,1-.428.289c-1.3.052-2.592.139-3.888.18a3.181,3.181,0,0,1-.993-.164.47.47,0,0,1-.384-.5.873.873,0,0,1,.338-.487,1.291,1.291,0,0,1,.582-.182c.839-.1,1.679-.189,2.52-.273a12.828,12.828,0,0,1,2.813-.1c.464.056.939.015,1.408.038a.934.934,0,0,1,.823.5" transform="translate(-132.287 -4.914)" fill="#3d5756"/>
          <path id="Path_873478" data-name="Path 873478" d="M75.415,339.116l-1-.361c-.264-.1-.526-.2-.792-.289a4.328,4.328,0,0,1-2.136-1.88,4.567,4.567,0,0,1-.423-.745.553.553,0,0,1,.1-.69.753.753,0,0,1,.635-.057,16.391,16.391,0,0,1,2.284,1.094,10.256,10.256,0,0,1,1.318,1.039,2.176,2.176,0,0,1,.639,1.434c.034.3-.19.428-.627.455" transform="translate(-49.011 -229.095)" fill="#3d5756"/>
          <path id="Path_873479" data-name="Path 873479" d="M2.453,212.892c.03.573.062,1.146.089,1.719.014.281.083.577-.186.844a1.6,1.6,0,0,1-.316-.186c-.509-.482-1.006-.945-.87-1.791A3.172,3.172,0,0,0,.9,212.265a10.052,10.052,0,0,1-.568-2.445c-.007-.7-.182-1.4-.258-2.108a3.779,3.779,0,0,1-.013-1.4c.124.161.225.24.257.342.107.345.172.705.287,1.048.17.507.384,1,.551,1.506.214.651.4,1.313.605,2l.5.09a1.324,1.324,0,0,1-.035.293c-.2.523-.154.635.368.829.212.078.336.218.258.43s-.263.152-.42.058l-.118-.2-.06.06.195.129" transform="translate(0 -141.068)" fill="#3d5756"/>
          <path id="Path_873480" data-name="Path 873480" d="M379.437,144.819a1.685,1.685,0,0,1-.166-.345c-.076-.512-.14-1.026-.208-1.539-.015-.114-.02-.231-.046-.343-.223-.991-.462-1.978-.671-2.971-.135-.638-.231-1.285-.339-1.928A1.4,1.4,0,0,1,378,137.4a.378.378,0,0,1,.333-.4c.2-.029.313.1.376.279.114.326.231.65.342.977.055.163.09.334.144.5a13.777,13.777,0,0,1,.693,4.648,3.058,3.058,0,0,1-.452,1.415" transform="translate(-260.95 -93.676)" fill="#3d5756"/>
          <path id="Path_873481" data-name="Path 873481" d="M175.2,370.012c.178-.605.6-.576,1.052-.458.182.046.377.048.552.11.267.1.322.415.081.523a9.889,9.889,0,0,1-1.172.389.293.293,0,0,1-.22-.023c-.678-.445-1.457-.224-2.182-.35a2.153,2.153,0,0,1-.336-.024.846.846,0,0,0-.941.151c-.057.053-.2.008-.405.008l.51-.349c-.179-.128-.352-.2-.435-.327a.84.84,0,0,1-.126-.515c.01-.082.22-.173.35-.2a1.432,1.432,0,0,1,.505.021,6.929,6.929,0,0,1,2.057.559c.226.122.429.289.709.482" transform="translate(-118.45 -252.266)" fill="#3d5756"/>
          <path id="Path_873482" data-name="Path 873482" d="M213.754,378.673c-.244-.014-.49-.012-.731-.047a.706.706,0,0,1-.612-.589.726.726,0,0,1,.42-.729,3.369,3.369,0,0,1,2.118-.445c.332.031.64.093.76.475a.831.831,0,0,1-.357.889,2.365,2.365,0,0,1-1.6.446" transform="translate(-146.631 -257.673)" fill="#3d5756"/>
          <path id="Path_873483" data-name="Path 873483" d="M154.353,16.884a1.574,1.574,0,0,1-.2.358c-.088.092-.277.107-.329.207-.336.646-1,.723-1.562.98-.017.008-.031.028-.047.03a3.975,3.975,0,0,0-1.219.226c-.17.073-.327-.164-.3-.381a.589.589,0,0,1,.552-.556,4.244,4.244,0,0,0,2.349-.828.646.646,0,0,1,.755-.036" transform="translate(-104.032 -11.472)" fill="#3d5756"/>
          <path id="Path_873484" data-name="Path 873484" d="M224.236,7.568l.3.411h.6l-.1.513.476.291c.021.3-.169.361-.382.4-.517.09-1.034.184-1.552.273-.3.051-.42-.094-.316-.4a2.413,2.413,0,0,1,.189-.349,2.136,2.136,0,0,0,.254-.5,1,1,0,0,1,.526-.639" transform="translate(-154.107 -5.175)" fill="#3d5756"/>
          <path id="Path_873485" data-name="Path 873485" d="M15.912,214.35a5.051,5.051,0,0,1-.776-2.516c.011-.1.081-.269.129-.271.11,0,.3.052.322.124a4.969,4.969,0,0,1,.509,2.367c-.013.065-.073.12-.184.3" transform="translate(-10.441 -144.659)" fill="#3d5756"/>
          <path id="Path_873486" data-name="Path 873486" d="M211.047,1.374c-.046.348-.2.423-.412.392a1.991,1.991,0,0,1-.438-.105,1.812,1.812,0,0,0-1.262-.006.961.961,0,0,1-.869-.093c-.107-.073-.282-.035-.423-.06a2.111,2.111,0,0,1-.275-.088.584.584,0,0,1,.044-.1,5.177,5.177,0,0,0,1.5-.25c.073-.009.171-.034.219,0,.421.315.9.157,1.355.2a5.294,5.294,0,0,1,.559.109" transform="translate(-143.156 -0.717)" fill="#3d5756"/>
          <path id="Path_873487" data-name="Path 873487" d="M233.565,3.86c.352.062.664.114.974.174.091.018.209.032.259.094a.616.616,0,0,1,.176.382.456.456,0,0,1-.281.288.771.771,0,0,1-.428-.045c-.16-.049-.307-.143-.463-.207-.409-.166-.42-.194-.238-.687" transform="translate(-161.163 -2.639)" fill="#3d5756"/>
          <path id="Path_873488" data-name="Path 873488" d="M370.3,95.411a6.659,6.659,0,0,1-1.055-1.649c.227-.2.431-.147.543.007a8.648,8.648,0,0,1,.681,1.1c.065.126.01.317.01.478l-.179.06" transform="translate(-254.909 -64.022)" fill="#3d5756"/>
          <path id="Path_873489" data-name="Path 873489" d="M296.315,47.876c-.068-.012-.156,0-.2-.04-.372-.343-.745-.687-1.1-1.049-.174-.179-.313-.4-.028-.663.71.347.891,1.144,1.444,1.615l-.118.137" transform="translate(-203.533 -31.537)" fill="#3d5756"/>
          <path id="Path_873490" data-name="Path 873490" d="M365.495,124.226c.132.03.307.017.388.1a1.849,1.849,0,0,1,.374.569c.152.367.265.752.386,1.132.013.04-.029.1-.069.22-.409-.695-1.074-1.172-1.07-2.034Z" transform="translate(-252.319 -84.933)" fill="#3d5756"/>
          <path id="Path_873491" data-name="Path 873491" d="M353.183,111.438a2.339,2.339,0,0,1,.317.3,6.108,6.108,0,0,1,.434.719.387.387,0,0,1,0,.342.349.349,0,0,1-.341.026,1.669,1.669,0,0,1-.618-1.05c-.018-.076.113-.19.21-.338" transform="translate(-243.674 -76.198)" fill="#3d5756"/>
          <path id="Path_873492" data-name="Path 873492" d="M188.211,2.023a1.711,1.711,0,0,1-.4.025.372.372,0,0,1-.235-.177c-.021-.039.068-.206.12-.212a7.491,7.491,0,0,1,1.111-.08c.08,0,.156.214.234.329a1.27,1.27,0,0,1-.332.145,2.747,2.747,0,0,1-.5-.03" transform="translate(-129.492 -1.079)" fill="#3d5756"/>
          <path id="Path_873493" data-name="Path 873493" d="M11.592,155.645a7.706,7.706,0,0,1-.173-1,.478.478,0,0,1,.231-.384c.187-.058.281.133.319.311.085.4.165.793-.377,1.07" transform="translate(-7.883 -105.473)" fill="#3d5756"/>
          <path id="Path_873494" data-name="Path 873494" d="M332,293.852c.273.605.168.91-.5,1.287-.025-.13-.092-.255-.058-.338.119-.3.269-.579.416-.863.022-.042.091-.058.14-.086" transform="translate(-228.806 -200.926)" fill="#3d5756"/>
          <path id="Path_873495" data-name="Path 873495" d="M227.225,3.052c-.432.484-.77.468-1.108-.026.36-.3.7-.216,1.108.026" transform="translate(-156.1 -1.938)" fill="#3d5756"/>
          <path id="Path_873496" data-name="Path 873496" d="M133.724,20.257c-.579.243-1.162.121-1.732.494a1.323,1.323,0,0,1,1.732-.494" transform="translate(-91.121 -13.756)" fill="#3d5756"/>
          <path id="Path_873497" data-name="Path 873497" d="M191.97,371.506c-.278.39-.621.406-1.043.049a.621.621,0,0,1,1.043-.049" transform="translate(-131.806 -253.845)" fill="#3d5756"/>
          <path id="Path_873498" data-name="Path 873498" d="M221.754,2.713c-.328.009-.61-.211-.613-.433a.328.328,0,0,1,.171-.243.535.535,0,0,1,.626.42c0,.1-.144.206-.183.256" transform="translate(-152.665 -1.38)" fill="#3d5756"/>
          <path id="Path_873499" data-name="Path 873499" d="M13.883,158.716a4.855,4.855,0,0,1,.017.715.422.422,0,0,1-.226.271.3.3,0,0,1-.287-.071.39.39,0,0,1,.016-.311c.1-.219.22-.426.333-.638l.148.033" transform="translate(-9.224 -108.502)" fill="#3d5756"/>
          <path id="Path_873500" data-name="Path 873500" d="M140.591,1.68c-.163.095-.307.192-.463.267a.229.229,0,0,1-.354-.149A.343.343,0,0,1,140,1.35c.183-.045.33.03.591.33" transform="translate(-96.48 -0.915)" fill="#3d5756"/>
          <path id="Path_873501" data-name="Path 873501" d="M241.093,6a.71.71,0,0,1,.806-.294.3.3,0,0,1,.174.244.309.309,0,0,1-.228.2A5.809,5.809,0,0,1,241.093,6" transform="translate(-166.438 -3.888)" fill="#3d5756"/>
          <path id="Path_873502" data-name="Path 873502" d="M6.37,190.312c.3.414.3.436-.016.825-.348-.347-.349-.409.016-.825" transform="translate(-4.207 -130.129)" fill="#3d5756"/>
          <path id="Path_873503" data-name="Path 873503" d="M142.057,25.713c.04.344-.233.414-.4.568-.266-.163-.206-.316-.1-.47a.309.309,0,0,1,.493-.1" transform="translate(-97.664 -17.524)" fill="#3d5756"/>
          <path id="Path_873504" data-name="Path 873504" d="M5.814,217.981c.484.011.6.164.5.659a.814.814,0,0,1-.5-.659" transform="translate(-4.014 -149.048)" fill="#3d5756"/>
          <path id="Path_873505" data-name="Path 873505" d="M17.442,241.032c-.355-.416.189-.589.089-.957l.437.178-.526.779" transform="translate(-11.957 -164.155)" fill="#3d5756"/>
          <path id="Path_873506" data-name="Path 873506" d="M385.49,122.442a.564.564,0,0,1,.221.7.212.212,0,0,1-.158.126.2.2,0,0,1-.165-.112c-.042-.236-.118-.486.1-.714" transform="translate(-266.019 -83.722)" fill="#3d5756"/>
          <path id="Path_873507" data-name="Path 873507" d="M373.845,100.462a.823.823,0,0,1,.5.552.269.269,0,0,1-.075.24.243.243,0,0,1-.238-.059c-.122-.2-.214-.424-.317-.638l.13-.094" transform="translate(-257.994 -68.693)" fill="#3d5756"/>
          <path id="Path_873508" data-name="Path 873508" d="M116.127,29.818c.032-.145.017-.357.107-.424.215-.161.445-.046.683.06-.137.345-.459.271-.629.461Z" transform="translate(-80.168 -20.044)" fill="#3d5756"/>
          <path id="Path_873509" data-name="Path 873509" d="M339.184,284.917a.587.587,0,0,1,.082.661.2.2,0,0,1-.382-.028.518.518,0,0,1,.3-.633" transform="translate(-233.938 -194.817)" fill="#3d5756"/>
          <path id="Path_873510" data-name="Path 873510" d="M389.488,136.487l-.329.285a1.4,1.4,0,0,1-.236-.387c-.034-.151.061-.338.234-.289.115.032.19.216.33.391" transform="translate(-268.488 -93.053)" fill="#3d5756"/>
          <path id="Path_873511" data-name="Path 873511" d="M221.354,8.664c-.084.12-.133.262-.205.277a1.142,1.142,0,0,1-.474-.027c-.037-.009-.07-.229-.056-.235a1.689,1.689,0,0,1,.454-.14c.074-.009.158.067.281.126" transform="translate(-152.302 -5.838)" fill="#3d5756"/>
          <path id="Path_873512" data-name="Path 873512" d="M381.007,112.741c-.219-.26-.517-.473-.482-.882a1.349,1.349,0,0,1,.482.882" transform="translate(-262.693 -76.485)" fill="#3d5756"/>
          <path id="Path_873513" data-name="Path 873513" d="M357.712,118.506c.355.02.427.214.367.472a.244.244,0,0,1-.2.131c-.2-.025-.256-.231-.167-.6" transform="translate(-246.917 -81.03)" fill="#3d5756"/>
          <path id="Path_873514" data-name="Path 873514" d="M89.1,332.855a1.643,1.643,0,0,1,.437.266c.041.046-.075.238-.119.364l-.136.01-.266-.549.084-.09" transform="translate(-61.451 -227.595)" fill="#3d5756"/>
          <path id="Path_873515" data-name="Path 873515" d="M75.609,321.81l.5.248-.244.256-.349-.427.093-.077" transform="translate(-52.132 -220.043)" fill="#3d5756"/>
          <path id="Path_873516" data-name="Path 873516" d="M147.91,20.175c.144.334.167.52-.041.663a.149.149,0,0,1-.144-.035c-.141-.231.02-.369.185-.628" transform="translate(-101.945 -13.795)" fill="#3d5756"/>
          <path id="Path_873517" data-name="Path 873517" d="M381.021,170.561c-.075-.194-.151-.293-.135-.371s.12-.157.186-.234c.061.076.176.158.169.227-.01.1-.107.194-.22.378" transform="translate(-262.943 -116.21)" fill="#3d5756"/>
          <path id="Path_873518" data-name="Path 873518" d="M291.037,36.761c-.126.106-.2.215-.277.218s-.147-.109-.221-.17c.067-.072.124-.187.2-.2s.16.079.3.156" transform="translate(-200.573 -25.028)" fill="#3d5756"/>
          <path id="Path_873519" data-name="Path 873519" d="M108.728,22.023c.017.262-.028.417-.313.428-.084-.289.068-.364.313-.428" transform="translate(-74.828 -15.059)" fill="#3d5756"/>
          <path id="Path_873520" data-name="Path 873520" d="M152.167,0c-.165.294-.308.32-.625.2l.625-.2" transform="translate(-104.617)" fill="#3d5756"/>
          <path id="Path_873521" data-name="Path 873521" d="M195.988,371.555c-.1.084-.161.177-.225.179s-.145-.078-.218-.122c.062-.078.111-.182.191-.222.038-.019.135.085.253.165" transform="translate(-134.994 -253.942)" fill="#3d5756"/>
          <path id="Path_873522" data-name="Path 873522" d="M330.051,298.718l-.263.244-.089-.082.223-.28.129.118" transform="translate(-227.608 -204.173)" fill="#3d5756"/>
          <path id="Path_873523" data-name="Path 873523" d="M386.837,125.975a.39.39,0,0,1,.223.565c-.254-.128-.26-.3-.223-.565" transform="translate(-267.041 -86.138)" fill="#3d5756"/>
          <path id="Path_873524" data-name="Path 873524" d="M364.947,122.718c-.056-.217-.355-.348-.227-.691a.731.731,0,0,1,.219.7l.008-.011" transform="translate(-251.762 -83.438)" fill="#3d5756"/>
          <path id="Path_873525" data-name="Path 873525" d="M80.367,334.77c.321.1.4.208.317.375-.021.043-.119.047-.182.07l-.135-.445" transform="translate(-55.481 -228.905)" fill="#3d5756"/>
          <path id="Path_873526" data-name="Path 873526" d="M384.329,120.312a2.906,2.906,0,0,1,.147.282c0,.011-.107.089-.111.085-.072-.077-.135-.163-.2-.246l.164-.121" transform="translate(-265.208 -82.265)" fill="#3d5756"/>
          <path id="Path_873527" data-name="Path 873527" d="M176.023,11.589c-.077.025-.136.065-.163.048s-.047-.086-.059-.134c0-.006.068-.048.088-.039a.714.714,0,0,1,.135.125" transform="translate(-121.363 -7.838)" fill="#3d5756"/>
          <path id="Path_873528" data-name="Path 873528" d="M3.078,204.518a.742.742,0,0,1-.125-.182c-.007-.023.082-.107.094-.1a.356.356,0,0,1,.138.13c.01.018-.052.077-.106.152" transform="translate(-2.038 -139.65)" fill="#3d5756"/>
          <path id="Path_873529" data-name="Path 873529" d="M100.83,342.248a.81.81,0,0,1-.2.091c-.02,0-.082-.1-.074-.111a.458.458,0,0,1,.159-.117c.013-.005.058.069.114.138" transform="translate(-69.419 -233.924)" fill="#3d5756"/>
          <path id="Path_873530" data-name="Path 873530" d="M111.1,34.079l-.148-.086c.029-.036.055-.1.088-.1s.092.034.138.054l-.078.134" transform="translate(-76.598 -23.173)" fill="#3d5756"/>
          <path id="Path_873531" data-name="Path 873531" d="M19,233.585l-.106.129-.121-.129c.036-.033.07-.087.109-.092s.07.052.118.092" transform="translate(-12.956 -159.655)" fill="#3d5756"/>
          <path id="Path_873532" data-name="Path 873532" d="M198.525,2.443c-.024.023-.048.065-.072.065s-.047-.042-.07-.066c.024-.024.048-.065.073-.065s.046.043.07.066" transform="translate(-136.953 -1.625)" fill="#3d5756"/>
        </g>
      </g>
    </g>
  </g>
</svg>
