<svg id="Group_1099681" data-name="Group 1099681" xmlns="http://www.w3.org/2000/svg" xmlns:xlink="http://www.w3.org/1999/xlink" width="91.212" height="90.856" viewBox="0 0 91.212 90.856">
  <defs>
    <clipPath id="clip-path">
      <rect id="Rectangle_401174" data-name="Rectangle 401174" width="91.212" height="90.856" fill="#12263f"/>
    </clipPath>
  </defs>
  <g id="Group_1099679" data-name="Group 1099679" transform="translate(0 0)" clip-path="url(#clip-path)">
    <path id="Path_873661" data-name="Path 873661" d="M9.122,73.01a5.416,5.416,0,0,1-5.812-.065,5.459,5.459,0,0,1-2.7-5.178,5.648,5.648,0,1,1,11.182,1.47,1.4,1.4,0,0,1-.056.359c-.248.5,0,.732.408.99a20.359,20.359,0,0,0,8.236,2.95c.889.121,1.774.232,2.662.346.088.01.183,0,.346,0-.056-.154-.091-.274-.144-.389a56.408,56.408,0,0,1-4-12.675,2.3,2.3,0,0,0-.794-1.411A56.746,56.746,0,0,1,9.021,49.054a1.34,1.34,0,0,0-.216-.189c-.441,1.062-.9,2.068-1.287,3.1a20.441,20.441,0,0,0-1.3,6.589,1.932,1.932,0,0,1-1.565,1.967,1.781,1.781,0,0,1-2.081-1.477,16,16,0,0,1,.118-3.035A28.177,28.177,0,0,1,6.43,45.516a.61.61,0,0,0-.026-.64c-.732-1.584-1.545-3.139-2.172-4.766a22.345,22.345,0,0,1-1.679-9.859,16.648,16.648,0,0,1,9.4-14.162,24.527,24.527,0,0,1,9.075-2.646c1.375-.14,2.757-.209,4.132-.34a.815.815,0,0,0,.487-.336c1.114-1.535,2.123-3.152,3.329-4.613a22.32,22.32,0,0,1,9.062-6.9A16.518,16.518,0,0,1,45.07.056,17.537,17.537,0,0,1,50,.974a.89.89,0,0,0,.836-.1,5.273,5.273,0,0,1,5.916.072,5.324,5.324,0,0,1,2.6,5.374,5.387,5.387,0,0,1-3.721,4.672,5.644,5.644,0,0,1-7.517-5.668c.023-.336.056-.67.095-1.114-.97-.124-1.927-.291-2.888-.366C41.058,3.5,37.514,5.113,34.391,7.876a27.694,27.694,0,0,0-4.4,5.054,3.653,3.653,0,0,0-.183.363c.4.046.728.075,1.058.127,1.7.261,3.4.5,5.1.8a55.307,55.307,0,0,1,7.648,2.035,1.926,1.926,0,0,0,1.271,0,60.529,60.529,0,0,1,9.683-2.434,44.679,44.679,0,0,1,11.1-.621,28.519,28.519,0,0,1,11,2.937,16.806,16.806,0,0,1,8,8.562,18.133,18.133,0,0,1,1.072,9.9,28.345,28.345,0,0,1-3.192,9.333,2.222,2.222,0,0,0,0,2.5,25.883,25.883,0,0,1,3.015,7.987,21.349,21.349,0,0,1,.075,8.526.91.91,0,0,0,.336,1.013,5.53,5.53,0,0,1,1.447,6.475A5.642,5.642,0,1,1,80.906,62.7c.261-.062.536-.085.791-.17a.44.44,0,0,0,.248-.284,17.512,17.512,0,0,0,.291-4.253,21.617,21.617,0,0,0-2.352-8.6c-.075-.154-.137-.314-.232-.536-.18.229-.336.421-.483.624a60.377,60.377,0,0,1-9.4,10.222,2.169,2.169,0,0,0-.5,1.15,57.448,57.448,0,0,1-3.878,12.335c-.078.173-.163.34-.291.6.265,0,.47.01.673,0a24.337,24.337,0,0,0,7.974-1.6,1.853,1.853,0,0,1,2.649,1.088,1.748,1.748,0,0,1-.817,2.127,13.591,13.591,0,0,1-3.394,1.219,31.744,31.744,0,0,1-5.861.879c-.921.059-1.842.069-2.767.082a.68.68,0,0,0-.637.4,32.55,32.55,0,0,1-6.573,8.027A19.2,19.2,0,0,1,47.3,90.559,16.481,16.481,0,0,1,37,89.184a23.3,23.3,0,0,1-8.405-6.919c-1.075-1.356-2-2.832-3.009-4.24a.753.753,0,0,0-.529-.255,37.167,37.167,0,0,1-6.7-.771A23.65,23.65,0,0,1,9.269,73.1c-.056-.039-.111-.072-.147-.095m52.21-11.584c.1,0,.131.01.147,0q2.205-1.671,4.4-3.352a.515.515,0,0,0,.18-.3c.121-.748.268-1.5.327-2.251.222-2.77.474-5.54.6-8.314a57.254,57.254,0,0,0-.931-13c-.291-1.575-.278-1.581-1.535-2.548A77.574,77.574,0,0,0,44.612,20.532a1.178,1.178,0,0,0-.771.013q-1.6.6-3.166,1.277a73.732,73.732,0,0,0-12.234,6.651c-1.882,1.284-3.688,2.676-5.518,4.028-.2.147-.441.359-.477.572-.225,1.431-.464,2.865-.578,4.309q-.279,3.611-.405,7.229a61.406,61.406,0,0,0,.376,8.7c.144,1.333.405,2.653.532,3.989a1.506,1.506,0,0,0,.683,1.156c.856.644,1.692,1.32,2.545,1.967.48.363.983.7,1.558,1.107,0-.464-.023-.84.007-1.212a9.954,9.954,0,0,1,.209-1.682,3.94,3.94,0,0,1,1.816-2.264q4.155-2.749,8.307-5.508c.14-.095.274-.206.425-.32-.062-.069-.095-.111-.134-.147a8.766,8.766,0,0,1-2.894-5.707c-.127-1.7-.118-3.417-.095-5.122a8.705,8.705,0,0,1,2.081-5.648,9.194,9.194,0,0,1,8.915-3.45,9.5,9.5,0,0,1,7.912,9.252c.007,1.385.033,2.77-.013,4.152a8.756,8.756,0,0,1-2.081,5.524c-.327.392-.67.771-1.016,1.166.088.069.157.134.232.183.928.617,1.856,1.228,2.78,1.846q2.93,1.945,5.861,3.9a4.011,4.011,0,0,1,1.862,3.544c0,.461,0,.918,0,1.395m-3.75.415h0c0-.611.023-1.222-.013-1.833a.776.776,0,0,0-.291-.51c-1.072-.738-2.159-1.45-3.244-2.169q-3.357-2.23-6.713-4.446a.96.96,0,0,0-.624-.183,10.567,10.567,0,0,1-4.479.072,1.718,1.718,0,0,0-1.424.336q-4.758,3.195-9.549,6.347a.65.65,0,0,0-.34.624c.016,1.166.02,2.336.007,3.5a.627.627,0,0,0,.35.614,72.485,72.485,0,0,0,12.754,6.138.887.887,0,0,0,.581,0c1.754-.719,3.515-1.424,5.243-2.2a62.564,62.564,0,0,0,7.35-3.91.748.748,0,0,0,.4-.758c-.026-.542-.007-1.085-.007-1.627m6.785-44.948c.154.356.252.6.363.843a61.757,61.757,0,0,1,4.054,11.551,3.773,3.773,0,0,0,1.294,2.107,58.687,58.687,0,0,1,7.442,7.553c.693.846,1.352,1.718,2.068,2.636.212-.464.421-.9.611-1.336a21.616,21.616,0,0,0,2-9.663,13.052,13.052,0,0,0-1.437-5.456,13.9,13.9,0,0,0-7.739-6.54,23.394,23.394,0,0,0-6.145-1.467c-.8-.085-1.607-.147-2.509-.229M29.693,77.547c.464.637.856,1.2,1.271,1.748a21.827,21.827,0,0,0,6.155,5.736,13.117,13.117,0,0,0,13.332.523A18.7,18.7,0,0,0,56.2,80.9c.931-1.088,1.79-2.234,2.738-3.42-.248-.049-.376-.085-.5-.1a54.356,54.356,0,0,1-7.265-1.124c-2.2-.513-4.364-1.176-6.547-1.761a1.145,1.145,0,0,0-.585,0c-2.241.621-4.462,1.33-6.726,1.869a41.992,41.992,0,0,1-7.615,1.183M23.4,17.023l-.075-.127q-1.147.147-2.29.291A21.408,21.408,0,0,0,13.1,19.692a12.708,12.708,0,0,0-6.419,8.255,16.279,16.279,0,0,0,.333,8.634c.454,1.581,1.134,3.1,1.718,4.639a1.493,1.493,0,0,0,.154.258,1.548,1.548,0,0,0,.268-.209c1.682-2,3.3-4.067,5.07-5.988,1.31-1.421,2.813-2.666,4.247-3.969a2.348,2.348,0,0,0,.787-1.372c.186-.983.4-1.963.647-2.934A61.612,61.612,0,0,1,22.372,19.4c.323-.8.683-1.584,1.026-2.378m15.21,24.628h-.069c0,.65,0,1.3,0,1.954a5.676,5.676,0,0,0,5.88,5.606,5.537,5.537,0,0,0,5.42-4.694,44.687,44.687,0,0,0,.108-5,3.271,3.271,0,0,0-.046-.565A5.666,5.666,0,0,0,44.054,34.1a5.608,5.608,0,0,0-5.426,4.753,21.1,21.1,0,0,0-.02,2.8m31.828-4.975c-.062.023-.124.046-.186.072a73.46,73.46,0,0,1,.091,17.216c.17-.144.3-.238.408-.35a49.374,49.374,0,0,0,6.658-8.193.466.466,0,0,0-.046-.412c-1.121-1.5-2.205-3.025-3.4-4.462-1.114-1.343-2.346-2.584-3.528-3.871M18.145,53.941a77.558,77.558,0,0,1,.036-17.213c-.209.17-.34.261-.451.372a49.188,49.188,0,0,0-6.609,7.925.512.512,0,0,0,.007.457,50.339,50.339,0,0,0,6.55,8.076c.118.118.258.212.467.382M38.526,18.719l-.039-.14c-1.078-.238-2.153-.49-3.234-.712a40.953,40.953,0,0,0-7.246-.928.524.524,0,0,0-.555.34,46.224,46.224,0,0,0-3,7.494c-.235.755-.448,1.519-.67,2.277a88.336,88.336,0,0,1,14.743-8.33M23.894,63.775l-.118.091c.225.758.444,1.519.679,2.274a46.574,46.574,0,0,0,2.966,7.416.553.553,0,0,0,.627.366c.539-.052,1.088-.039,1.624-.114,1.741-.242,3.486-.483,5.22-.781,1.215-.206,2.414-.5,3.623-.755l.029-.111a78.927,78.927,0,0,1-14.652-8.386m40.838.1c-.049-.036-.1-.069-.147-.1A78.907,78.907,0,0,1,50.1,72.1a1.575,1.575,0,0,0,.235.118,67.637,67.637,0,0,0,10.2,1.555.534.534,0,0,0,.595-.353,40.7,40.7,0,0,0,2.5-6.037c.385-1.166.742-2.339,1.107-3.509m-.689-37.2c.036-.029.075-.056.114-.085-.072-.225-.144-.451-.216-.679A54.561,54.561,0,0,0,60.62,17.8c-.51-1.006-.242-.957-1.477-.807-2.094.255-4.182.6-6.266.954-.974.163-1.934.425-2.9.644l-.02.127a82.136,82.136,0,0,1,14.086,7.958m18.212,43.37a1.883,1.883,0,1,0-.062-3.763,1.884,1.884,0,0,0-1.859,1.882,1.865,1.865,0,0,0,1.921,1.882m-76,0a1.9,1.9,0,0,0,1.9-1.875A1.884,1.884,0,0,0,6.227,66.28a1.882,1.882,0,1,0,.029,3.763M53.727,7.579a1.9,1.9,0,0,0,1.9-1.875,1.9,1.9,0,1,0-1.9,1.875" transform="translate(1.361 0)" fill="#12263f"/>
    <path id="Path_873662" data-name="Path 873662" d="M10.212,5.477H6.4V3.053c0-.323.013-.65-.01-.974-.02-.225.049-.333.281-.333,1.085,0,2.169,0,3.254.016.095,0,.271.157.271.242.02,1.15.013,2.3.013,3.473" transform="translate(14.485 3.957)" fill="#12263f"/>
    <path id="Path_873663" data-name="Path 873663" d="M24.171,5.476H20.362V3.055c0-.323.013-.65-.01-.97-.02-.225.042-.34.278-.34,1.085,0,2.169,0,3.254.02a.393.393,0,0,1,.274.278c.02,1.134.013,2.27.013,3.433" transform="translate(46.127 3.955)" fill="#12263f"/>
    <path id="Path_873664" data-name="Path 873664" d="M28.681,17.1c-.529,0-1.058,0-1.584,0-.242,0-.33-.085-.327-.336.007-1.029,0-2.061-.02-3.09,0-.255.1-.346.333-.343q1.607.01,3.215.016c.206,0,.278.095.278.3-.007,1.042-.01,2.087,0,3.13,0,.232-.085.314-.31.31-.526-.01-1.055,0-1.584,0V17.1" transform="translate(60.637 30.225)" fill="#12263f"/>
    <path id="Path_873665" data-name="Path 873665" d="M24.128,24.936c0,1.166.007,2.29-.013,3.414,0,.108-.163.3-.255.3-1.15.02-2.3.013-3.5.013V24.936Z" transform="translate(46.154 56.525)" fill="#12263f"/>
    <path id="Path_873666" data-name="Path 873666" d="M10.171,24.936c0,1.17.007,2.319-.01,3.469a.351.351,0,0,1-.229.248c-1.163.016-2.326.01-3.531.01V24.936Z" transform="translate(14.51 56.525)" fill="#12263f"/>
    <path id="Path_873667" data-name="Path 873667" d="M1.9,17.081c-.516,0-1.029-.01-1.545,0-.258.007-.356-.075-.353-.35.013-1.016.01-2.032,0-3.048,0-.245.075-.346.323-.346,1.042,0,2.087,0,3.13-.007.248,0,.333.1.33.346q0,1.524,0,3.048c0,.274-.095.385-.382.376-.5-.023-1-.007-1.506-.007v-.016" transform="translate(0 30.225)" fill="#12263f"/>
  </g>
</svg>
