<svg xmlns="http://www.w3.org/2000/svg" xmlns:xlink="http://www.w3.org/1999/xlink" width="62.504" height="62.504" viewBox="0 0 62.504 62.504">
  <defs>
    <clipPath id="clip-path">
      <rect id="Rectangle_403468" data-name="Rectangle 403468" width="31.4" height="31.328" fill="#fff"/>
    </clipPath>
  </defs>
  <g id="Group_1102236" data-name="Group 1102236" transform="translate(-279.816 -1198.717)">
    <g id="Group_1072053" data-name="Group 1072053" transform="translate(279.816 1198.717)">
      <circle id="Ellipse_4742" data-name="Ellipse 4742" cx="31.252" cy="31.252" r="31.252" transform="translate(0)" fill="#7d420e"/>
    </g>
    <g id="Group_1102229" data-name="Group 1102229" transform="translate(295.817 1214.717)">
      <g id="Group_1102228" data-name="Group 1102228" transform="translate(0 0)" clip-path="url(#clip-path)">
        <path id="Path_881322" data-name="Path 881322" d="M24.817,13.432c-.37-.368-.717-.721-1.073-1.065a.341.341,0,0,0-.216-.081c-.692-.006-1.385-.005-2.078-.005a.308.308,0,0,0-.313.2q-.171.454-.325.916c-.1.307-.194.619-.291.927a.446.446,0,0,1-.055.083c-.059-.169-.114-.321-.166-.474-.131-.388-.258-.776-.389-1.165-.028-.085-.065-.168-.1-.252a.351.351,0,0,0-.368-.243q-1.75.008-3.5,0a.4.4,0,0,0-.384.258c-.186.371-.375.741-.562,1.111-.019.037-.037.074-.068.137-.05-.1-.091-.181-.133-.263-.166-.327-.34-.651-.5-.983a.423.423,0,0,0-.443-.262c-.874.005-1.747,0-2.621,0-.267,0-.534.006-.8,0a.381.381,0,0,0-.412.281c-.148.427-.291.856-.438,1.283-.062.185-.126.368-.2.6-.03-.1-.047-.158-.068-.218-.178-.54-.352-1.082-.538-1.62-.094-.272-.175-.321-.462-.322-.624,0-1.246,0-1.87,0a.559.559,0,0,0-.438.184c-.312.326-.637.64-.974.977l-.173-.489c-.045-.131-.091-.262-.136-.393a.4.4,0,0,0-.408-.281,1.629,1.629,0,0,1-1.431-.946,2.036,2.036,0,0,1-.164-.92q0-3.436,0-6.874c0-.6-.005-1.2,0-1.807A1.709,1.709,0,0,1,3.137.548,1.554,1.554,0,0,1,4.334,0q10.6,0,21.2,0a1.621,1.621,0,0,1,1.579,1.437c.017.169.026.34.026.51q0,4.253,0,8.506a1.694,1.694,0,0,1-.768,1.557,1.587,1.587,0,0,1-.841.268.383.383,0,0,0-.4.28c-.082.236-.16.474-.243.71-.018.054-.045.1-.072.164M15.043,1.253a4.85,4.85,0,0,0-5,4.463A4.77,4.77,0,0,0,14.765,11a4.784,4.784,0,0,0,5.063-4.748,4.866,4.866,0,0,0-4.785-5m8.739,9.777h0c.244,0,.489.005.734,0a1.339,1.339,0,0,0,1.35-1.217c.021-.553.013-1.106.015-1.66a.261.261,0,0,0-.024-.14c-.055-.077-.114-.175-.194-.208a.363.363,0,0,0-.534.37c0,.431,0,.864-.005,1.3,0,.552-.234.791-.782.8-.426.005-.852-.009-1.278,0a.663.663,0,0,0-.362.117.328.328,0,0,0-.081.4.371.371,0,0,0,.361.244c.267.006.533,0,.8,0M6.008,1.268V1.246c-.235,0-.468,0-.7,0A1.292,1.292,0,0,0,4,2.409c-.049.566-.027,1.137-.032,1.707a.477.477,0,0,0,.053.182.321.321,0,0,0,.362.2A.331.331,0,0,0,4.7,4.233a1.452,1.452,0,0,0,.024-.27c0-.415,0-.83.006-1.246a.632.632,0,0,1,.685-.706C5.836,2,6.257,2.006,6.678,2a1.527,1.527,0,0,0,.286-.021.352.352,0,0,0,.291-.366.335.335,0,0,0-.307-.344c-.313-.014-.628,0-.941,0" transform="translate(0.772 0)" fill="#fff"/>
        <path id="Path_881323" data-name="Path 881323" d="M5.629,26.012H.387c-.009-.089-.023-.172-.023-.255a11.741,11.741,0,0,1,.942-5.07,3.536,3.536,0,0,1,1.221-1.508,2.47,2.47,0,0,1,1.733-.406,1.719,1.719,0,0,1,1.237.82,4.31,4.31,0,0,1,.634,1.789c.051.341.1.684.127,1.028a.66.66,0,0,1-.062.323,6.655,6.655,0,0,0-.507,2.2c-.032.354-.04.71-.06,1.081" transform="translate(0.103 5.315)" fill="#fff"/>
        <path id="Path_881324" data-name="Path 881324" d="M13.376,25.46H5.053c.014-.271.022-.535.042-.8a6.637,6.637,0,0,1,.373-1.887,2.991,2.991,0,0,1,2.259-1.916,6.118,6.118,0,0,1,2.863.024,3.237,3.237,0,0,1,2.4,2.288,8.731,8.731,0,0,1,.349,1.911c.012.121.022.243.035.377" transform="translate(1.432 5.868)" fill="#fff"/>
        <path id="Path_881325" data-name="Path 881325" d="M19.766,20.753c.4-.045.526-.145.63-.554.071-.273.1-.556.167-.828a.585.585,0,0,1,.19-.3,1.831,1.831,0,0,1,1.43-.3,2.754,2.754,0,0,1,1.98,1.371,7.094,7.094,0,0,1,.92,2.4,13.385,13.385,0,0,1,.309,3.36c0,.032-.005.063-.008.1H21.1c-.009-.077-.022-.154-.028-.231a4.459,4.459,0,0,0-1.485-3.066.3.3,0,0,1-.081-.223c.06-.506.133-1.01.205-1.514.01-.073.032-.144.05-.222" transform="translate(5.53 5.315)" fill="#fff"/>
        <path id="Path_881326" data-name="Path 881326" d="M22.42,12.523a4.139,4.139,0,0,1,3.179,1.5,3.322,3.322,0,0,1,.692,1.676c.015.114-.014.172-.135.2a7.771,7.771,0,0,1-2.561.27,6.108,6.108,0,0,1-1.541-.322,1.61,1.61,0,0,0-.388-.085.3.3,0,0,0-.363.29,2.237,2.237,0,0,1-.506,1.236,5.212,5.212,0,0,1-.485.435c-.076.064-.141.062-.217-.023A4,4,0,0,0,18.213,16.5c-.18-.051-.21-.166-.2-.323a3.546,3.546,0,0,1,2.229-3.261,5.231,5.231,0,0,1,2.178-.391" transform="translate(5.105 3.55)" fill="#fff"/>
        <path id="Path_881327" data-name="Path 881327" d="M4.066,12.524A4.57,4.57,0,0,1,7.092,13.56a3.3,3.3,0,0,1,1.146,2.179.209.209,0,0,1-.08.166A3.908,3.908,0,0,0,6.5,17.847c-.046.117-.108.107-.2.062a2.233,2.233,0,0,1-1.31-1.819.33.33,0,0,0-.462-.311c-.429.1-.851.232-1.283.316a6.814,6.814,0,0,1-3.141-.2c-.133-.037-.108-.128-.1-.213A3.259,3.259,0,0,1,.848,13.84a4.058,4.058,0,0,1,2.69-1.276c.2-.019.393-.03.528-.04" transform="translate(0 3.55)" fill="#fff"/>
        <path id="Path_881328" data-name="Path 881328" d="M21.978,25.235H13.733a2.533,2.533,0,0,1,.139-.956,3.609,3.609,0,0,1,2.115-2.356,4.371,4.371,0,0,1,4.18.214,3.632,3.632,0,0,1,1.774,2.829c.005.042.006.085.013.127s.014.082.024.142" transform="translate(3.891 6.092)" fill="#fff"/>
        <path id="Path_881329" data-name="Path 881329" d="M14.023,25.68H12.782c-.039-.385-.062-.768-.116-1.145A6,6,0,0,0,11.389,21.4,3.3,3.3,0,0,0,9.91,20.41a.88.88,0,0,1,.135-.068,9.906,9.906,0,0,1,5.8.037.851.851,0,0,1,.493.347,2.249,2.249,0,0,0,.37.4c.128.118.275.217.421.33a4.624,4.624,0,0,0-3.109,4.228" transform="translate(2.809 5.648)" fill="#fff"/>
        <path id="Path_881330" data-name="Path 881330" d="M12.7,17.939a1.143,1.143,0,0,1-.191-.014,3.638,3.638,0,0,1-1.426-.684c-.041-.035-.085-.065-.127-.1-.3-.226-.476-.2-.715.087a3.324,3.324,0,0,1-2.424,1.249c-.528.037-.588.089-.565.613a2.172,2.172,0,0,1-.225,1.222,1.232,1.232,0,0,1-.753.6.136.136,0,0,1-.184-.067,3.991,3.991,0,0,1-.62-2.184,3.091,3.091,0,0,1,2.066-3.112,4.016,4.016,0,0,1,4.27.719,2.559,2.559,0,0,1,.884,1.566.972.972,0,0,1,.009.1" transform="translate(1.55 4.317)" fill="#fff"/>
        <path id="Path_881331" data-name="Path 881331" d="M18.021,16.024a3.583,3.583,0,0,1,2.459,1.085,3.207,3.207,0,0,1,.887,2.587,5.785,5.785,0,0,1-.118.756c-.044.2-.087.221-.279.154A4.514,4.514,0,0,1,18.195,18.2a1.118,1.118,0,0,0-.27-.362.3.3,0,0,0-.411.019,1.53,1.53,0,0,0-.219.208,2.7,2.7,0,0,1-2.336.941c-.237-.009-.474-.067-.711-.1-.114-.014-.136-.071-.114-.175a3.076,3.076,0,0,1,1.335-2.023,4.266,4.266,0,0,1,2.553-.688" transform="translate(4.004 4.542)" fill="#fff"/>
        <path id="Path_881332" data-name="Path 881332" d="M9.42,15.2a3.277,3.277,0,0,1,.972-1.117,4.2,4.2,0,0,1,2.178-.788,4.6,4.6,0,0,1,3.071.8,3.356,3.356,0,0,1,1.434,2.22.131.131,0,0,1-.076.164c-.268.151-.53.313-.8.466a.424.424,0,0,1-.219.072,3.832,3.832,0,0,1-1.648-.5,1.773,1.773,0,0,1-.919-1.577.385.385,0,1,0-.768,0,1.824,1.824,0,0,1-.964,1.618.13.13,0,0,1-.2-.032,4.2,4.2,0,0,0-1.975-1.263.482.482,0,0,1-.059-.026c-.008,0-.013-.015-.027-.032" transform="translate(2.67 3.763)" fill="#fff"/>
        <path id="Path_881333" data-name="Path 881333" d="M14.948,17.073c-.157.322-.334.653-.477,1a3,3,0,0,0-.2,1.188.589.589,0,0,0,.136.287.768.768,0,0,0,.186.141,3.269,3.269,0,0,1-1.291.6,3.122,3.122,0,0,1-2.385-.433.2.2,0,0,1-.076-.15c.006-.121.042-.24.06-.361.036-.252.069-.5.1-.773.16.01.339.027.517.033.388.012.468-.073.47-.461a3.313,3.313,0,0,0-.322-1.4.159.159,0,0,1,.076-.244,2.7,2.7,0,0,0,.882-.833,2.541,2.541,0,0,0,1.052.918c.418.191.861.33,1.272.484" transform="translate(3.072 4.442)" fill="#fff"/>
        <path id="Path_881334" data-name="Path 881334" d="M4.073,15.75a3.3,3.3,0,0,0,2.009,2.12,3.083,3.083,0,0,1-2.659.965A3.179,3.179,0,0,1,.8,15.962a8.4,8.4,0,0,0,3.27-.212" transform="translate(0.228 4.464)" fill="#fff"/>
        <path id="Path_881335" data-name="Path 881335" d="M21.4,15.745a8.153,8.153,0,0,0,3.263.214,3.013,3.013,0,0,1-3.032,2.866,6.762,6.762,0,0,1-1.07-.153.276.276,0,0,1-.163-.163c-.112-.286-.2-.581-.311-.869-.042-.113.028-.141.094-.185a2.915,2.915,0,0,0,1.162-1.52c.019-.054.033-.11.058-.191" transform="translate(5.691 4.463)" fill="#fff"/>
        <path id="Path_881336" data-name="Path 881336" d="M14.937,19.134a3.264,3.264,0,0,0,2.471-.9A5.368,5.368,0,0,0,19.7,20.405a2.482,2.482,0,0,1-2.865,1.146,2.592,2.592,0,0,1-1.9-2.418" transform="translate(4.231 5.167)" fill="#fff"/>
        <path id="Path_881337" data-name="Path 881337" d="M7.091,20.362a2.488,2.488,0,0,0,.459-1.707c.331-.078.648-.137.957-.227a3.863,3.863,0,0,0,1.63-1.025c.068-.068.1-.062.181-.014.284.163.58.3.869.459.041.023.095.076.094.114a2.768,2.768,0,0,1-2.137,2.9,2.672,2.672,0,0,1-2.054-.5" transform="translate(2.01 4.918)" fill="#fff"/>
        <path id="Path_881338" data-name="Path 881338" d="M7.558,20.9a2.158,2.158,0,0,0-.952.316c-.282.15-.54.347-.812.526A4.788,4.788,0,0,0,4.42,18.615l.62-.35c.024.175.041.341.073.506a4.822,4.822,0,0,0,.8,1.91.5.5,0,0,0,.553.191,2.683,2.683,0,0,0,.578-.175.262.262,0,0,1,.339.049c.045.044.095.081.176.15" transform="translate(1.253 5.177)" fill="#fff"/>
        <path id="Path_881339" data-name="Path 881339" d="M18.341,21.321l.911-.845c-.054.356-.112.751-.172,1.162l-.739-.317" transform="translate(5.199 5.804)" fill="#fff"/>
        <path id="Path_881340" data-name="Path 881340" d="M14.456,19.12c.047.208.094.406.148.642l-.747-.181.6-.461" transform="translate(3.928 5.42)" fill="#fff"/>
        <path id="Path_881341" data-name="Path 881341" d="M9.011,5.724a4.036,4.036,0,0,1,4.134-4.138,4.026,4.026,0,0,1,4.131,4.138,4.133,4.133,0,0,1-8.265,0m4.1,2.842a2.4,2.4,0,0,0,.272,0,1.964,1.964,0,0,0,.887-.23.327.327,0,0,0,.108-.517,1.962,1.962,0,0,0-.228-.267Q12.824,6.224,11.492,4.9c-.14-.139-.279-.28-.429-.408a.385.385,0,0,0-.624.139,1.407,1.407,0,0,0-.074.194,2.9,2.9,0,0,0,2.747,3.743m-.054-5.8c-.25.047-.5.086-.75.145-.525.126-.629.476-.216.866.635.6,1.251,1.218,1.871,1.834.4.4.793.818,1.2,1.213.277.267.57.209.7-.148a2.989,2.989,0,0,0,.16-.743,2.935,2.935,0,0,0-2.974-3.168" transform="translate(2.554 0.449)" fill="#fff"/>
        <path id="Path_881342" data-name="Path 881342" d="M10.638,4.69l2.186,2.246a2.2,2.2,0,0,1-1.5-.528,2.094,2.094,0,0,1-.75-1.676l.059-.042" transform="translate(2.999 1.329)" fill="#fff"/>
        <path id="Path_881343" data-name="Path 881343" d="M12.151,3.118a2.156,2.156,0,0,1,1.513.557,1.94,1.94,0,0,1,.671,1.679L12.151,3.118" transform="translate(3.444 0.884)" fill="#fff"/>
      </g>
    </g>
  </g>
</svg>
