<svg xmlns="http://www.w3.org/2000/svg" xmlns:xlink="http://www.w3.org/1999/xlink" width="120" height="120" viewBox="0 0 120 120">
  <defs>
    <linearGradient id="linear-gradient" x1="0.17" y1="0.896" x2="0.791" y2="0.048" gradientUnits="objectBoundingBox">
      <stop offset="0" stop-color="#3d5756"/>
      <stop offset="1" stop-color="#348d8d"/>
    </linearGradient>
    <clipPath id="clip-path">
      <rect id="Rectangle_401159" data-name="Rectangle 401159" width="120" height="120" fill="url(#linear-gradient)"/>
    </clipPath>
    <clipPath id="clip-path-2">
      <rect id="Rectangle_401180" data-name="Rectangle 401180" width="65" height="65" transform="translate(304.571 695)" fill="#fff" stroke="#707070" stroke-width="1"/>
    </clipPath>
    <clipPath id="clip-path-3">
      <rect id="Rectangle_401181" data-name="Rectangle 401181" width="60.652" height="60.374" fill="#fff"/>
    </clipPath>
  </defs>
  <g id="Group_1102767" data-name="Group 1102767" transform="translate(-810.571 -642)">
    <g id="Group_1099685" data-name="Group 1099685" transform="translate(655.903 -5477.35)">
      <g id="Group_1099585" data-name="Group 1099585" transform="translate(154.668 6119.349)">
        <g id="Group_1099584" data-name="Group 1099584" clip-path="url(#clip-path)">
          <path id="Path_873472" data-name="Path 873472" d="M34.963,26.875l.469.209c-.294.3-.563.542-.785.82s-.414.617-.617.928a.784.784,0,0,0,1.128.115,25.066,25.066,0,0,1,3.013-2.038,13.343,13.343,0,0,0,2.174-1.337c.5-.42,1.124-.579,1.579-1.032a.282.282,0,0,1,.195-.1.924.924,0,0,0,.935-.358c.126-.15.3-.122.451.005.267.22.492.16.734-.083a1.139,1.139,0,0,1,1.423-.248c-.027.408-.027.408-.421.685A1.756,1.756,0,0,0,44.9,24.3a.538.538,0,0,0-.58.692c.079.229.243.164.416.108a12.658,12.658,0,0,1,1.5-.45c.971-.187,1.953-.317,2.931-.471q1.606-.254,3.212-.508a24.267,24.267,0,0,1,3.841-.411c2.711.008,5.422-.025,8.133-.044a1.422,1.422,0,0,0,.554-.049,5.108,5.108,0,0,1,1.792-.229c.187-.015.362-.2.591-.338.213.223.644-.315.9.14-.188.358-.7-.077-.8.453a1.86,1.86,0,0,0,.408.235,9.808,9.808,0,0,0,3.084.489c1.847-.069,3.7-.081,5.547-.089a13.168,13.168,0,0,1,3.258.424c.7.175,1.424.278,2.134.429a1.994,1.994,0,0,1,.509.21c.165.088.308.217.472.308a2.978,2.978,0,0,1,1.212,1.14,1.188,1.188,0,0,0,.788.59,1.228,1.228,0,0,1,.5.246,6.47,6.47,0,0,0,1.591,1.032,6.355,6.355,0,0,1,1.12.72A16.556,16.556,0,0,0,89.73,29.97c.751.409,1.523.777,2.284,1.168a1.106,1.106,0,0,1,.326.216,1.123,1.123,0,0,0,.912.364,1.272,1.272,0,0,1,.965.493,5.879,5.879,0,0,0,.556.456,1.7,1.7,0,0,1,.189.121,32.336,32.336,0,0,0,2.834,2.12.665.665,0,0,0,.638.208c0-.13.01-.256,0-.38-.027-.284-.092-.567-.094-.851a1.283,1.283,0,0,1,1.3-1.348,3.484,3.484,0,0,1,1.95.374,6.055,6.055,0,0,0,1.357.469.861.861,0,0,1,.16.05c.616.354,1.23.711,1.846,1.066.274.158.539.336.825.465a15.911,15.911,0,0,1,2.446,1.684,17.8,17.8,0,0,1,2.871,2.778c.113.125.236.242.357.359a7.355,7.355,0,0,1,1.3,1.771,7.472,7.472,0,0,0,.835,1.138,18.655,18.655,0,0,1,2.24,3.6,15.737,15.737,0,0,1,.842,1.845c.235.66.371,1.356.548,2.038a5.815,5.815,0,0,0,.162.664,8,8,0,0,1,.337,2.192,1.171,1.171,0,0,1-.015.342c-.077.382-.365.5-.66.261a1.68,1.68,0,0,1-.359-.433c-.352-.582-.676-1.181-1.036-1.757a24.775,24.775,0,0,0-1.859-2.768c-.829-1-1.6-2.056-2.379-3.1-.329-.436-.627-.9-.949-1.336a2.5,2.5,0,0,0-.288-.264,3.512,3.512,0,0,1-.423-.442,3.081,3.081,0,0,0-1.31-1.18c-.18-.075-.3-.321-.427-.5-.138-.2-.253-.411-.342-.559l-.955.18a.848.848,0,0,0,.632.722c.133.04.314.1.366.2a13.22,13.22,0,0,0,1.516,1.89c.553.741,1.158,1.441,1.7,2.192.7.979,1.4,1.967,2.038,2.994s1.2,2.1,1.775,3.163a.624.624,0,0,1-.053.779c-.054-.005-.112.005-.123-.014a11,11,0,0,1-1.087-1.563,2.656,2.656,0,0,0-1.29-1.514,8.641,8.641,0,0,1-.879-.554s-.048-.015-.073,0c-.407.278-.556.252-.882-.109-.125-.139-.153-.419-.524-.349a3.3,3.3,0,0,0,.208.555,6.517,6.517,0,0,1,.529.783c.226.555.38,1.14.574,1.709.151.445.329.881.474,1.328a4.912,4.912,0,0,0,.594,1.41,1.6,1.6,0,0,1,.155.485c.073.255.072.255.4.459a.375.375,0,0,0-.093.528,7.342,7.342,0,0,1,.429,1.16q.319.975.614,1.958a6.332,6.332,0,0,1,.2.825,5.817,5.817,0,0,0,.635,2.228,1.253,1.253,0,0,0,.226.325,3.151,3.151,0,0,1,.846,1.763c.209.731.378,1.475.62,2.194.259.771.586,1.517.876,2.278a13.919,13.919,0,0,1,.722,3.4.72.72,0,0,1-.053.445,1.4,1.4,0,0,0-.143,1.043c.085.688-.043.84-.774.918a2.323,2.323,0,0,0-.032.408c.119,1.311.248,2.621.368,3.932.045.494.061.991.111,1.484a3,3,0,0,1-.053,1.349,4.285,4.285,0,0,0-.108,1.249.438.438,0,0,0,.356.508c.367.065.469.338.5.662.014.132.013.267.018.4.037.953.106,1.907.1,2.86,0,1.049-.07,2.1-.115,3.146-.016.381-.037.764-.082,1.142-.035.3-.1.6-.166.894a4.635,4.635,0,0,0-.145.611,8.74,8.74,0,0,1-1.087,3.341,2.62,2.62,0,0,0-.2.473,3.087,3.087,0,0,1-.967,1.306c-.32.32-.582.194-.6-.256a.629.629,0,0,0-.314-.565c-.77-.443-.7-1.2-.647-1.909.051-.74.2-1.472.294-2.209a4.467,4.467,0,0,0,0-.54l-.5-.031c-.03-.043-.076-.081-.07-.1a3.563,3.563,0,0,1,.551-1.36,3.666,3.666,0,0,0,.774-1.931,11.927,11.927,0,0,0,.224-2.271,1.075,1.075,0,0,1,.265-.849.534.534,0,0,0,.089-.588,2.667,2.667,0,0,1,.024-1.4,5.387,5.387,0,0,0,.073-2.347l-.663.485a.669.669,0,0,1-.329-.68c0-.494.039-.99.087-1.482a2.267,2.267,0,0,0-.373-1.729,4.06,4.06,0,0,1-.5-1.32c-.07-.242-.131-.433-.427-.455-.251.183-.186.471-.2.724-.029.82-.008,1.645-.076,2.462-.089,1.063-.2,2.128-.384,3.177-.2,1.142-.571,2.256-.731,3.4-.181,1.293-.653,2.5-.913,3.765a11.7,11.7,0,0,1-.561,1.615c-.267.732-.533,1.465-.813,2.192-.212.549-.426,1.1-.673,1.632-.465,1-.936,2.006-1.44,2.99-.455.889-.926,1.774-1.448,2.624-.679,1.109-1.466,2.151-2.113,3.279a31.522,31.522,0,0,0-2.186,3.973,25.52,25.52,0,0,1-1.331,2.437c-.874,1.646-2.052,3.079-3.077,4.619-.166.25-.4.454-.579.694s-.338.5-.505.746a1.439,1.439,0,0,1-.118.191c-.783.84-1.554,1.692-2.36,2.509a19.337,19.337,0,0,1-1.629,1.472,24.348,24.348,0,0,1-2.12,1.559,5.164,5.164,0,0,1-1.566.73,2.377,2.377,0,0,0-1.448.9,1.488,1.488,0,0,1-.307.254l-.085-.078.2-.474a1.7,1.7,0,0,0-.412-.156,1.879,1.879,0,0,1-.959-.426c-.424-.317-.419-.689.064-.951.361-.2.751-.336,1.126-.5a2.084,2.084,0,0,0,1.1-.9,6.933,6.933,0,0,0-1.737.506q-1.078.388-2.155.783-2.552.943-5.1,1.893-2.131.793-4.262,1.588a7.409,7.409,0,0,0-.734.276,10.157,10.157,0,0,1-3.324.723c-.888.117-1.768.3-2.653.437-.44.071-.884.12-1.326.181l-1.882.264a3.4,3.4,0,0,1-.665.082,15.7,15.7,0,0,0-2.9.2c-.908.11-1.821.2-2.734.244a4.687,4.687,0,0,1-1.153-.155c-.989-.2-1.975-.421-2.959-.643-.657-.148-1.307-.327-1.966-.468a4.529,4.529,0,0,0-1.161-.157,18.509,18.509,0,0,1-2.255-.219,9.079,9.079,0,0,1-3.037-.68,3.525,3.525,0,0,0-1.442-.4,7.928,7.928,0,0,1-1.692-.471,1.893,1.893,0,0,1-.883-.287c-.1-.082-.353,0-.527.044a1.434,1.434,0,0,1-1.609-.57,1.867,1.867,0,0,1-1.214.1.277.277,0,0,1-.174-.135,1.26,1.26,0,0,1-.075-.288.669.669,0,0,1,.251-.03.683.683,0,0,0,.362.074,1.8,1.8,0,0,0-.162-.162,1.158,1.158,0,0,1-.541-.747c-.024-.157-.175-.292-.255-.417-.552.177-.176.883-.745,1.014-.24-.147-.438-.462-.817-.458-.063,0-.218-.3-.178-.367.264-.454-.05-.8-.17-1.178a.406.406,0,0,0-.213-.264,2.157,2.157,0,0,1-.009.472c-.026.113-.113.271-.2.293a.392.392,0,0,1-.314-.16,1.33,1.33,0,0,1-.14-.384l-.787-.379c-.037-.213-.069-.4-.109-.629a.616.616,0,0,1-.777-.1c-.176-.15-.3-.045-.407.207l1,.359c.013.27.1.6-.279.79a.747.747,0,0,1-.306-.755c-.227-.074-.354-.075-.4.214-.061.39-.167.429-.658.326l.531-.79-.587.134c-.163-.23-.033-.668-.514-.688-.162.115-.336.438-.708.109a6.727,6.727,0,0,1,.425-.546.279.279,0,0,0,.03-.435,1.667,1.667,0,0,1-.146-.535l-.394-.05c.046-.044.168-.113.2-.211.018-.057-.1-.208-.179-.236a3.361,3.361,0,0,0-.648-.139c-.215-.029-.544.294-.444.467.216.374-.055.639-.091.967-.341-.2-.279-.529-.331-.82s-.116-.582.264-.677c-.22-.456-.313-.54-1.018-.951a1.239,1.239,0,0,0-.324.186c-.119.125-.126.254.074.348a2.152,2.152,0,0,1,.377.307l-.583.354-.429-1.239.519.029c0-.11.031-.253,0-.273a2.16,2.16,0,0,1-.717-.755c-.082-.125-.356-.117-.6-.186l.083-.433a.7.7,0,0,1-.758-.509.72.72,0,0,1,.015-.648.651.651,0,0,0-.029-.7c-.31-.519-.647-1.021-.982-1.525-.047-.071-.142-.109-.257-.193a1.359,1.359,0,0,0-.187.346,4.806,4.806,0,0,0-.084.8.656.656,0,0,0,.123.358c.193.277.418.532.613.808.425.6.4.859-.154,1.495-.383-.244-.772-.348-1.031.152.142.369.283.718.41,1.072a.613.613,0,0,0,.444.384c.368.125.384.229.167.655a2.918,2.918,0,0,1-.251-.2c-.094-.092-.158-.232-.266-.289a1.512,1.512,0,0,1-.819-1.833c.093-.467-.18-.7-.857-.743a3.053,3.053,0,0,0,.143.35,3.779,3.779,0,0,0,.232.326c-.164.179-.318.183-.453.043a2.132,2.132,0,0,1-.8-1.254c-.034-.335-.22-.415-.747-.416a5.113,5.113,0,0,0-1.49-1.7,46.649,46.649,0,0,1-3.79-2.993c-.658-.694-1.291-1.413-1.928-2.128-.413-.464-.839-.919-1.211-1.416-.667-.89-1.309-1.8-1.941-2.718-.482-.7-.962-1.4-1.386-2.141q-1-1.742-1.92-3.534a3.034,3.034,0,0,1-.432-1.522.914.914,0,0,0-.082-.443,20.011,20.011,0,0,1-1.157-3.323,7.011,7.011,0,0,1-.308-.915,14.083,14.083,0,0,1-.122-1.464c0-.05.084-.105.156-.188L8.1,94.129a2.346,2.346,0,0,0,.166-.511c.009-.285-.035-.572-.028-.857.01-.366.175-.474.509-.357.159.056.31.136.471.183.282.082.382.015.427-.268a.8.8,0,0,0,.007-.228c-.156-1.208-.38-2.4-.428-3.629-.037-.93-.238-1.853-.281-2.784-.038-.816.048-1.638.067-2.458.013-.533.018-1.067,0-1.6a4.826,4.826,0,0,0-.64-1.812,17.754,17.754,0,0,1-.733-1.9c-.146-.461-.146-.553-.458-.819a.649.649,0,0,0-.078.873.994.994,0,0,1-.042,1.3,2.44,2.44,0,0,0-.209.425,3.058,3.058,0,0,0,.332.227c.369.187.474.37.364.755a6.767,6.767,0,0,1-.3.7A2.273,2.273,0,0,1,7,80.961c-.184-.658-.354-1.32-.529-1.981a.628.628,0,0,0-.062-.217,2.4,2.4,0,0,1-.331-1.249,6.165,6.165,0,0,0-.378-1.9,1.846,1.846,0,0,1-.063-.563c-.013-.111,0-.259-.062-.325-.366-.382-.3-.888-.382-1.344-.1-.562-.139-1.137-.182-1.707a.616.616,0,0,0-.312-.564.646.646,0,0,1-.3-.83A1.162,1.162,0,0,1,4.463,70a1.133,1.133,0,0,0-.1-1.185.717.717,0,0,1-.035-.7.628.628,0,0,0,.031-.438,4.1,4.1,0,0,1-.076-1.637c-.006-.724-.024-1.447-.023-2.17a4.436,4.436,0,0,1,.28-2.067,5.04,5.04,0,0,0,.257-.99,2.949,2.949,0,0,1,.113-.3,1.661,1.661,0,0,1,.425.805,17.359,17.359,0,0,1,.67,2.94,7.536,7.536,0,0,1,.072.8c.061.528.137,1.055.2,1.583.066.568.127,1.138.18,1.707a.8.8,0,0,0,.315.7c.178-.581.336-1.181,1.041-1.379.4.313.242.908.521,1.44a1.787,1.787,0,0,0,.22-.453c.092-.851.173-1.7.236-2.559a1.831,1.831,0,0,0-.118-.492,6.472,6.472,0,0,1-.246-1.159c-.042-1.145-.041-2.291-.036-3.437,0-.262.112-.521.131-.784.016-.236.061-.549-.059-.7a2.46,2.46,0,0,1-.393-1.409,7.4,7.4,0,0,1,.054-1.484,2.6,2.6,0,0,1,.423-1.23,5.315,5.315,0,0,0,.288-.617,3.168,3.168,0,0,1,.353-.579.364.364,0,0,1,.332-.1c.089.039.141.2.18.315.021.063-.026.148-.033.223A1.975,1.975,0,0,0,10.03,56.1a.845.845,0,0,1,.06,1,1.23,1.23,0,0,0-.16.536,3.925,3.925,0,0,1-.521,1.725A3.717,3.717,0,0,0,9.39,61.7a2.443,2.443,0,0,0,.354-.421,2.562,2.562,0,0,0,.155-.546c.208-1.007.409-2.015.614-3.022.106-.522.21-1.045.323-1.565.251-1.154.482-2.313.77-3.457.217-.861.5-1.707.777-2.55s.589-1.69.9-2.527c.368-.977.7-1.975,1.149-2.912a26.5,26.5,0,0,1,1.645-2.912c.738-1.141,1.512-2.264,2.357-3.322.655-.821,1.445-1.53,2.172-2.293.429-.45.864-.894,1.272-1.363a3.351,3.351,0,0,1,1.324-1.11c.178-.065.31-.266.456-.413.267-.267.519-.551.794-.808.411-.384.669-.308.834.225a1.563,1.563,0,0,0,.087.207c.007.014.029.02.082.055a1.956,1.956,0,0,0,.952-.7,6.3,6.3,0,0,1,3.1-2.144,5.733,5.733,0,0,0,1.337-.807c.321-.217.74-.24,1.012-.563.045-.053.248,0,.358.044a.78.78,0,0,0,.883-.18c.371-.34.707-.72,1.085-1.112l-.338-.4c.517-.241.817-.769,1.415-.915l-.283.694a1.294,1.294,0,0,0-.319.056c-.068.03-.154.121-.154.184a.218.218,0,0,0,.384.114,1.394,1.394,0,0,0,.075-.37m76.869,39.253a1.142,1.142,0,0,0,.243-1.04,12.346,12.346,0,0,0-.5-2.632,1.338,1.338,0,0,1-.022-1.005,1.579,1.579,0,0,0-.146-1.371c-.071-.133-.191-.268-.193-.4a5.441,5.441,0,0,0-.412-1.463,9.011,9.011,0,0,0-.812-1.874c-.341-.61-.717-1.2-1.054-1.811-.3-.541-.528-1.122-.847-1.648-.527-.869-1.1-1.71-1.656-2.56-.217-.331-.437-.662-.672-.98a1.44,1.44,0,0,0-.8-.634c.06.208.088.342.136.467.075.193.158.384.25.568.142.283.293.56.443.839a6.65,6.65,0,0,1,.4.743c.215.56.357,1.153.6,1.7.3.672.675,1.312,1.021,1.963a31.9,31.9,0,0,1,1.964,4.352c.3.841.673,1.657.922,2.512.378,1.295.676,2.614,1.009,3.922.022.088.056.172.116.359M21.517,109.542a1.25,1.25,0,0,0-.463-1.5,3.44,3.44,0,0,1-1.546-1.659,3.888,3.888,0,0,0-.691-.953,4,4,0,0,0-1.288-1.057,5.157,5.157,0,0,0,.447,1.007c.318.537.681,1.047.993,1.587.244.423.393.909.666,1.308a15.827,15.827,0,0,0,1.86,2.481c.546.538,1.007,1.165,1.512,1.747.179.206.377.394.614.64a9.617,9.617,0,0,0-2.105-3.6m91.012-41a4.434,4.434,0,0,0-.036.713c.122,1,.253,2,.4,3a2.1,2.1,0,0,0,.248.533c.544-.4.645-.651.456-1.088a9.67,9.67,0,0,1-.754-2.621.607.607,0,0,0-.318-.539M7.453,75.321c-.041-.822-.075-1.535-.112-2.249a.37.37,0,0,0-.253-.366c-.041.03-.062.038-.069.052a3.24,3.24,0,0,0,.039,2.27c.027.1.209.16.4.292m71.918-50.37a6.871,6.871,0,0,0,1.032.4,2.172,2.172,0,0,1,.874.326.719.719,0,0,0,.9,0,6.231,6.231,0,0,0-.588-.369c-.536-.256-1.168-.2-1.685-.552-.135-.092-.361-.088-.535.192m32.746,36a.711.711,0,0,0,.136.813c.2-.454.186-.513-.136-.813M39.6,124.054c-.333.207-.345.257-.156.661.25-.268.251-.268.156-.661M29.159,117.74c-.032.453.4.333.5.657.061-.458.054-.465-.5-.657m-4.766-5.947a.539.539,0,0,0,.223.729c.123-.311.135-.537-.223-.729m87.9-44.3c.1-.276.17-.449-.089-.6-.139.206-.114.361.089.6M32.585,120.784c-.067-.294-.124-.491-.462-.439.039.26.154.389.462.439" transform="translate(-2.938 -15.478)" fill="url(#linear-gradient)"/>
          <path id="Path_873473" data-name="Path 873473" d="M85.683,14.063c-.139-.01-.251-.015-.362-.027-.557-.061-.787-.355-.7-.929a1.8,1.8,0,0,1,.667-1.157c.579-.475,1.188-.915,1.746-1.414a24.737,24.737,0,0,1,3.118-2.1,12.974,12.974,0,0,1,2.986-1.512,15.524,15.524,0,0,0,1.42-.656,11.049,11.049,0,0,1,1.08-.441c.636-.208,1.281-.387,1.925-.573.215-.062.434-.111.652-.163a.748.748,0,0,1,.326-.055.444.444,0,0,1,.289.214.384.384,0,0,1-.126.33c-.286.211-.594.391-.9.576a11.574,11.574,0,0,1-1.736,1.016c-.458.178-.822.493-1.266.683a6.38,6.38,0,0,0-1.272.81c-.552.416-1.075.873-1.616,1.3a1.99,1.99,0,0,1-.3.139,2.524,2.524,0,0,0-.575.34,22.855,22.855,0,0,1-3.011,2.222c-.287.2-.523.478-.812.673-.478.323-.868.865-1.53.719" transform="translate(-58.62 -3.452)" fill="url(#linear-gradient)"/>
          <path id="Path_873474" data-name="Path 873474" d="M343.984,264.5c-.157-.188-.349-.316-.38-.477a1.422,1.422,0,0,1,.012-.872,9.265,9.265,0,0,0,.937-2.531,21.776,21.776,0,0,1,.833-2.349c.045-.124.118-.24.15-.366a.556.556,0,0,1,.447-.458.615.615,0,0,0,.549-.681c-.017-.45.293-.685.52-.969.157-.2.364-.124.475.126a.746.746,0,0,1-.075.809,2.1,2.1,0,0,0-.39,1.285c-.009.191-.037.381-.034.571a11.444,11.444,0,0,1-.6,3.529c-.2.648-.345,1.313-.52,1.968-.054.2-.145.393-.186.6a3.215,3.215,0,0,0-.117.892,1,1,0,0,1-.411,1.037,2.9,2.9,0,0,0-.509.6,2.888,2.888,0,0,1-.315.4.519.519,0,0,1-.918-.32,2.979,2.979,0,0,0-.28-1.032.766.766,0,0,1,.123-.808c.213-.308.439-.608.686-.948" transform="translate(-237.739 -175.493)" fill="url(#linear-gradient)"/>
          <path id="Path_873475" data-name="Path 873475" d="M181.621,17.118a.533.533,0,0,1-.412-.564,4.556,4.556,0,0,1,.04-.742,1.5,1.5,0,0,0-.092-.943c-.166-.359-.054-.53.322-.589a25.278,25.278,0,0,1,5.857-.181,5.581,5.581,0,0,0,.6-.018.888.888,0,0,1,.273,0,17.33,17.33,0,0,0,3.048.34,1.443,1.443,0,0,0,.915-.191,1.093,1.093,0,0,1,1.334.578.44.44,0,0,1-.442.575c-.872.008-1.745-.017-2.617.012a9.694,9.694,0,0,0-1.213.185c-.884.143-1.763.332-2.652.411a3.7,3.7,0,0,0-1.05.237,2.413,2.413,0,0,1-.831.068,2.72,2.72,0,0,0-1.254.231,1.685,1.685,0,0,1-.763.145c-.427-.008-.821.014-1.067.45" transform="translate(-125.473 -9.617)" fill="url(#linear-gradient)"/>
          <path id="Path_873476" data-name="Path 873476" d="M151.6,5.974l.424-.59a.691.691,0,0,0-.7,0,12.535,12.535,0,0,1-2.835.834.741.741,0,0,1-.872-.738,1.311,1.311,0,0,1,.216-.8,2.59,2.59,0,0,1,1.422-.846c.782-.173,1.555-.386,2.331-.585.2-.051.391-.136.592-.167,1.271-.2,2.542-.4,3.817-.567.552-.071,1.116-.047,1.675-.065a.477.477,0,0,1,.515.3c-.164.374-.495.4-.834.359a.492.492,0,0,0-.5.148,4.664,4.664,0,0,1-2.05,1.21c-.068.026-.138.047-.277.093.647.3,1.215-.061,1.8-.036.131.233.042.388-.163.45a5.1,5.1,0,0,1-.973.222,3.319,3.319,0,0,0-1.221.318,8.428,8.428,0,0,1-1.76.524,1.99,1.99,0,0,1-.6-.068m1.961-1.124c0,.035,0,.071,0,.107l.316-.034-.009-.1-.306.025" transform="translate(-102.282 -1.681)" fill="url(#linear-gradient)"/>
          <path id="Path_873477" data-name="Path 873477" d="M200.043,7.768a.662.662,0,0,1-.685.326,4.007,4.007,0,0,0-.5-.017c-.242.021-.436.108-.419.419.01.187-.051.351-.266.367a.422.422,0,0,1-.452-.267c-.058-.131-.128-.256-.23-.457a2.047,2.047,0,0,0-.215.324.406.406,0,0,1-.425.286c-1.286.052-2.57.137-3.856.178a3.155,3.155,0,0,1-.985-.163.466.466,0,0,1-.38-.5.866.866,0,0,1,.335-.483,1.28,1.28,0,0,1,.577-.181c.832-.1,1.665-.188,2.5-.27a12.722,12.722,0,0,1,2.789-.1c.46.055.931.014,1.4.038a.926.926,0,0,1,.817.5" transform="translate(-132.777 -4.933)" fill="url(#linear-gradient)"/>
          <path id="Path_873478" data-name="Path 873478" d="M75.379,339.082l-.99-.358c-.262-.095-.521-.2-.786-.286a4.293,4.293,0,0,1-2.118-1.864,4.529,4.529,0,0,1-.419-.739.548.548,0,0,1,.1-.684.747.747,0,0,1,.63-.057,16.255,16.255,0,0,1,2.265,1.084,10.171,10.171,0,0,1,1.307,1.03A2.158,2.158,0,0,1,76,338.631c.034.294-.188.424-.622.451" transform="translate(-49.192 -229.97)" fill="url(#linear-gradient)"/>
          <path id="Path_873479" data-name="Path 873479" d="M2.433,212.838c.03.568.062,1.137.089,1.7.014.279.082.572-.185.837a1.589,1.589,0,0,1-.313-.185c-.5-.478-1-.937-.863-1.776a3.146,3.146,0,0,0-.265-1.2,9.969,9.969,0,0,1-.563-2.425c-.006-.7-.181-1.392-.256-2.091a3.748,3.748,0,0,1-.013-1.39c.123.159.223.238.255.339.107.342.171.7.285,1.039.169.5.381.99.546,1.493.212.646.4,1.3.6,1.983l.5.09a1.313,1.313,0,0,1-.034.29c-.193.519-.152.63.365.822.21.078.333.216.256.427s-.261.151-.416.058l-.117-.2-.06.059.193.128" transform="translate(0 -141.607)" fill="url(#linear-gradient)"/>
          <path id="Path_873480" data-name="Path 873480" d="M379.425,144.755a1.671,1.671,0,0,1-.165-.343c-.075-.508-.139-1.017-.206-1.526-.015-.114-.02-.229-.045-.34-.221-.983-.458-1.962-.666-2.947-.134-.633-.229-1.274-.337-1.912a1.384,1.384,0,0,1,0-.286.375.375,0,0,1,.33-.4c.2-.028.31.1.373.277.113.323.229.644.339.969.054.162.089.331.143.492a13.664,13.664,0,0,1,.687,4.61,3.033,3.033,0,0,1-.449,1.4" transform="translate(-261.917 -94.034)" fill="url(#linear-gradient)"/>
          <path id="Path_873481" data-name="Path 873481" d="M175.175,370c.176-.6.591-.571,1.043-.455.181.046.374.047.548.109.265.094.319.412.081.519a9.8,9.8,0,0,1-1.162.385.291.291,0,0,1-.219-.023c-.672-.442-1.445-.222-2.164-.348a2.133,2.133,0,0,1-.333-.024.839.839,0,0,0-.933.149c-.057.052-.2.007-.4.007l.506-.346c-.177-.127-.349-.2-.431-.324a.833.833,0,0,1-.125-.511c.01-.081.218-.171.347-.194a1.42,1.42,0,0,1,.5.021,6.871,6.871,0,0,1,2.04.554c.224.121.425.287.7.478" transform="translate(-118.889 -253.23)" fill="url(#linear-gradient)"/>
          <path id="Path_873482" data-name="Path 873482" d="M213.742,378.658c-.242-.014-.486-.012-.725-.047a.7.7,0,0,1-.607-.585.72.72,0,0,1,.416-.723,3.341,3.341,0,0,1,2.1-.441c.329.03.635.092.753.471a.824.824,0,0,1-.354.882,2.345,2.345,0,0,1-1.584.443" transform="translate(-147.175 -258.658)" fill="url(#linear-gradient)"/>
          <path id="Path_873483" data-name="Path 873483" d="M154.323,16.883a1.562,1.562,0,0,1-.2.355c-.088.091-.275.106-.326.205-.333.64-.992.717-1.549.972-.017.008-.03.028-.047.029a3.942,3.942,0,0,0-1.209.224c-.169.073-.324-.162-.3-.378a.584.584,0,0,1,.547-.552,4.209,4.209,0,0,0,2.33-.821.641.641,0,0,1,.749-.035" transform="translate(-104.417 -11.516)" fill="url(#linear-gradient)"/>
          <path id="Path_873484" data-name="Path 873484" d="M224.228,7.568l.3.408h.594l-.095.509.472.288c.021.3-.167.358-.379.4-.513.09-1.026.183-1.539.27-.3.051-.416-.093-.314-.4a2.392,2.392,0,0,1,.188-.346,2.119,2.119,0,0,0,.252-.493.988.988,0,0,1,.522-.634" transform="translate(-154.678 -5.195)" fill="url(#linear-gradient)"/>
          <path id="Path_873485" data-name="Path 873485" d="M15.906,214.327a5.009,5.009,0,0,1-.77-2.495c.01-.1.08-.267.127-.269.109,0,.3.051.32.123a4.928,4.928,0,0,1,.505,2.348c-.013.065-.072.119-.183.293" transform="translate(-10.479 -145.212)" fill="url(#linear-gradient)"/>
          <path id="Path_873486" data-name="Path 873486" d="M211.017,1.371c-.045.346-.2.42-.408.389a1.975,1.975,0,0,1-.435-.1,1.8,1.8,0,0,0-1.252-.006.953.953,0,0,1-.861-.093c-.106-.072-.279-.034-.42-.06a2.092,2.092,0,0,1-.273-.087.579.579,0,0,1,.043-.1,5.134,5.134,0,0,0,1.491-.248c.073-.009.17-.034.217,0,.417.312.893.156,1.344.2a5.251,5.251,0,0,1,.554.108" transform="translate(-143.686 -0.72)" fill="url(#linear-gradient)"/>
          <path id="Path_873487" data-name="Path 873487" d="M233.564,3.86c.349.062.658.113.966.173.09.018.208.031.257.093a.611.611,0,0,1,.175.379.452.452,0,0,1-.278.286.765.765,0,0,1-.424-.045c-.159-.049-.3-.142-.459-.205-.405-.165-.417-.192-.236-.681" transform="translate(-161.761 -2.649)" fill="url(#linear-gradient)"/>
          <path id="Path_873488" data-name="Path 873488" d="M370.292,95.4a6.6,6.6,0,0,1-1.046-1.635c.225-.2.428-.145.538.007a8.574,8.574,0,0,1,.675,1.095c.065.125.01.314.01.474l-.177.059" transform="translate(-255.854 -64.267)" fill="url(#linear-gradient)"/>
          <path id="Path_873489" data-name="Path 873489" d="M296.3,47.861c-.067-.012-.155,0-.2-.04-.369-.34-.739-.681-1.09-1.041-.173-.178-.31-.4-.028-.658.7.344.884,1.135,1.432,1.6l-.117.136" transform="translate(-204.287 -31.658)" fill="url(#linear-gradient)"/>
          <path id="Path_873490" data-name="Path 873490" d="M365.495,124.226c.131.03.3.017.385.1a1.834,1.834,0,0,1,.371.564c.151.364.263.746.382,1.123.013.04-.029.1-.068.218-.406-.689-1.065-1.163-1.061-2.017Z" transform="translate(-253.255 -85.257)" fill="url(#linear-gradient)"/>
          <path id="Path_873491" data-name="Path 873491" d="M353.181,111.438a2.318,2.318,0,0,1,.314.3,6.06,6.06,0,0,1,.431.713.384.384,0,0,1,0,.339.346.346,0,0,1-.338.026,1.655,1.655,0,0,1-.613-1.042c-.018-.075.112-.188.208-.336" transform="translate(-244.577 -76.489)" fill="url(#linear-gradient)"/>
          <path id="Path_873492" data-name="Path 873492" d="M188.206,2.019a1.7,1.7,0,0,1-.395.024.369.369,0,0,1-.233-.176c-.021-.038.068-.2.119-.21a7.43,7.43,0,0,1,1.1-.079c.08,0,.155.212.232.326a1.26,1.26,0,0,1-.329.144,2.724,2.724,0,0,1-.5-.029" transform="translate(-129.972 -1.083)" fill="url(#linear-gradient)"/>
          <path id="Path_873493" data-name="Path 873493" d="M11.591,155.634a7.642,7.642,0,0,1-.171-.989.474.474,0,0,1,.229-.381c.185-.058.279.132.316.308.084.392.164.787-.374,1.062" transform="translate(-7.913 -105.876)" fill="url(#linear-gradient)"/>
          <path id="Path_873494" data-name="Path 873494" d="M332,293.852c.271.6.166.9-.494,1.276-.025-.129-.091-.253-.057-.335.118-.294.267-.575.413-.856.022-.041.091-.057.138-.085" transform="translate(-229.655 -201.694)" fill="url(#linear-gradient)"/>
          <path id="Path_873495" data-name="Path 873495" d="M227.216,3.05c-.428.48-.764.464-1.1-.026.357-.3.7-.214,1.1.026" transform="translate(-156.678 -1.945)" fill="url(#linear-gradient)"/>
          <path id="Path_873496" data-name="Path 873496" d="M133.71,20.256c-.574.241-1.153.12-1.718.49a1.312,1.312,0,0,1,1.718-.49" transform="translate(-91.458 -13.809)" fill="url(#linear-gradient)"/>
          <path id="Path_873497" data-name="Path 873497" d="M191.962,371.5c-.276.387-.616.4-1.035.049a.616.616,0,0,1,1.035-.049" transform="translate(-132.295 -254.816)" fill="url(#linear-gradient)"/>
          <path id="Path_873498" data-name="Path 873498" d="M221.749,2.707c-.326.009-.6-.209-.608-.43a.325.325,0,0,1,.169-.241.53.53,0,0,1,.62.416c0,.1-.143.2-.181.254" transform="translate(-153.23 -1.385)" fill="url(#linear-gradient)"/>
          <path id="Path_873499" data-name="Path 873499" d="M13.879,158.716a4.815,4.815,0,0,1,.017.709.419.419,0,0,1-.224.269.3.3,0,0,1-.285-.071.387.387,0,0,1,.016-.308c.095-.218.218-.422.33-.633l.146.033" transform="translate(-9.258 -108.917)" fill="url(#linear-gradient)"/>
          <path id="Path_873500" data-name="Path 873500" d="M140.584,1.678c-.161.094-.3.191-.459.264a.227.227,0,0,1-.351-.148A.34.34,0,0,1,140,1.35c.181-.044.328.029.586.327" transform="translate(-96.838 -0.919)" fill="url(#linear-gradient)"/>
          <path id="Path_873501" data-name="Path 873501" d="M241.093,6a.7.7,0,0,1,.8-.292.3.3,0,0,1,.172.242.307.307,0,0,1-.226.2A5.761,5.761,0,0,1,241.093,6" transform="translate(-167.055 -3.903)" fill="url(#linear-gradient)"/>
          <path id="Path_873502" data-name="Path 873502" d="M6.368,190.312c.3.411.3.432-.016.818-.345-.344-.346-.405.016-.818" transform="translate(-4.223 -130.626)" fill="url(#linear-gradient)"/>
          <path id="Path_873503" data-name="Path 873503" d="M142.052,25.712c.04.341-.232.411-.394.564-.264-.162-.2-.313-.095-.466a.307.307,0,0,1,.489-.1" transform="translate(-98.026 -17.591)" fill="url(#linear-gradient)"/>
          <path id="Path_873504" data-name="Path 873504" d="M5.814,217.981c.48.011.6.163.492.653a.808.808,0,0,1-.492-.653" transform="translate(-4.029 -149.618)" fill="url(#linear-gradient)"/>
          <path id="Path_873505" data-name="Path 873505" d="M17.441,241.024c-.352-.412.187-.585.089-.949l.433.176-.522.772" transform="translate(-12.001 -164.783)" fill="url(#linear-gradient)"/>
          <path id="Path_873506" data-name="Path 873506" d="M385.489,122.442a.559.559,0,0,1,.219.695.21.21,0,0,1-.157.125.2.2,0,0,1-.164-.111c-.041-.234-.117-.482.1-.708" transform="translate(-267.006 -84.042)" fill="url(#linear-gradient)"/>
          <path id="Path_873507" data-name="Path 873507" d="M373.844,100.462a.816.816,0,0,1,.5.547.267.267,0,0,1-.075.238.241.241,0,0,1-.236-.059c-.121-.2-.212-.421-.314-.633l.129-.093" transform="translate(-258.95 -68.955)" fill="url(#linear-gradient)"/>
          <path id="Path_873508" data-name="Path 873508" d="M116.127,29.814c.032-.144.017-.354.106-.42.213-.16.441-.045.678.06-.136.342-.455.269-.623.457Z" transform="translate(-80.465 -20.121)" fill="url(#linear-gradient)"/>
          <path id="Path_873509" data-name="Path 873509" d="M339.182,284.917a.582.582,0,0,1,.081.655.2.2,0,0,1-.379-.027.514.514,0,0,1,.3-.628" transform="translate(-234.805 -195.561)" fill="url(#linear-gradient)"/>
          <path id="Path_873510" data-name="Path 873510" d="M389.484,136.484l-.326.283a1.39,1.39,0,0,1-.234-.384c-.034-.149.061-.335.232-.287.114.032.188.214.328.388" transform="translate(-269.484 -93.408)" fill="url(#linear-gradient)"/>
          <path id="Path_873511" data-name="Path 873511" d="M221.348,8.663c-.084.119-.131.26-.2.274a1.133,1.133,0,0,1-.47-.027c-.036-.008-.069-.227-.056-.233a1.675,1.675,0,0,1,.45-.139c.073-.009.157.066.279.125" transform="translate(-152.866 -5.86)" fill="url(#linear-gradient)"/>
          <path id="Path_873512" data-name="Path 873512" d="M381,112.734c-.217-.257-.513-.469-.478-.875a1.338,1.338,0,0,1,.478.875" transform="translate(-263.667 -76.778)" fill="url(#linear-gradient)"/>
          <path id="Path_873513" data-name="Path 873513" d="M357.712,118.506c.352.02.423.212.364.469a.242.242,0,0,1-.2.13c-.2-.024-.254-.229-.165-.6" transform="translate(-247.833 -81.34)" fill="url(#linear-gradient)"/>
          <path id="Path_873514" data-name="Path 873514" d="M89.1,332.855a1.629,1.629,0,0,1,.434.264c.041.045-.074.236-.118.361l-.135.009-.264-.544.084-.09" transform="translate(-61.679 -228.465)" fill="url(#linear-gradient)"/>
          <path id="Path_873515" data-name="Path 873515" d="M75.608,321.81l.5.246-.242.254-.346-.423.092-.077" transform="translate(-52.326 -220.884)" fill="url(#linear-gradient)"/>
          <path id="Path_873516" data-name="Path 873516" d="M147.908,20.175c.142.331.166.516-.041.658a.148.148,0,0,1-.143-.034c-.139-.23.02-.366.184-.623" transform="translate(-102.323 -13.848)" fill="url(#linear-gradient)"/>
          <path id="Path_873517" data-name="Path 873517" d="M381.02,170.556c-.075-.192-.15-.29-.134-.368s.119-.155.184-.232c.06.075.175.156.168.225-.009.1-.106.193-.219.375" transform="translate(-263.918 -116.654)" fill="url(#linear-gradient)"/>
          <path id="Path_873518" data-name="Path 873518" d="M291.033,36.759c-.125.1-.2.213-.274.216s-.146-.108-.22-.168c.066-.071.123-.185.2-.2s.159.079.294.155" transform="translate(-201.317 -25.124)" fill="url(#linear-gradient)"/>
          <path id="Path_873519" data-name="Path 873519" d="M108.725,22.023c.017.259-.028.413-.31.425-.083-.287.067-.361.31-.425" transform="translate(-75.106 -15.116)" fill="url(#linear-gradient)"/>
          <path id="Path_873520" data-name="Path 873520" d="M152.162,0c-.163.292-.306.317-.62.195l.62-.195" transform="translate(-105.005)" fill="url(#linear-gradient)"/>
          <path id="Path_873521" data-name="Path 873521" d="M195.985,371.553c-.1.083-.16.175-.224.177s-.144-.077-.216-.121c.061-.077.11-.18.189-.22.038-.019.134.084.251.164" transform="translate(-135.495 -254.913)" fill="url(#linear-gradient)"/>
          <path id="Path_873522" data-name="Path 873522" d="M330.048,298.717l-.26.242-.088-.082.221-.277.127.117" transform="translate(-228.452 -204.953)" fill="url(#linear-gradient)"/>
          <path id="Path_873523" data-name="Path 873523" d="M386.837,125.975a.387.387,0,0,1,.221.56c-.252-.127-.258-.294-.221-.56" transform="translate(-268.031 -86.467)" fill="url(#linear-gradient)"/>
          <path id="Path_873524" data-name="Path 873524" d="M364.945,122.712c-.055-.215-.352-.345-.225-.685a.725.725,0,0,1,.217.7l.008-.011" transform="translate(-252.696 -83.757)" fill="url(#linear-gradient)"/>
          <path id="Path_873525" data-name="Path 873525" d="M80.367,334.77c.318.1.394.206.314.372-.021.043-.118.047-.18.069l-.134-.441" transform="translate(-55.687 -229.78)" fill="url(#linear-gradient)"/>
          <path id="Path_873526" data-name="Path 873526" d="M384.328,120.312a2.882,2.882,0,0,1,.146.28c0,.011-.106.088-.11.084-.071-.077-.134-.162-.2-.244l.162-.12" transform="translate(-266.191 -82.58)" fill="url(#linear-gradient)"/>
          <path id="Path_873527" data-name="Path 873527" d="M176.021,11.588c-.076.025-.135.064-.162.048s-.047-.085-.059-.133c0-.006.068-.048.088-.038a.708.708,0,0,1,.134.124" transform="translate(-121.813 -7.868)" fill="url(#linear-gradient)"/>
          <path id="Path_873528" data-name="Path 873528" d="M3.076,204.516a.736.736,0,0,1-.124-.181c-.007-.023.081-.106.093-.1a.353.353,0,0,1,.137.129c.01.018-.052.076-.105.151" transform="translate(-2.045 -140.183)" fill="url(#linear-gradient)"/>
          <path id="Path_873529" data-name="Path 873529" d="M100.828,342.247a.8.8,0,0,1-.2.09c-.02,0-.081-.1-.073-.11a.454.454,0,0,1,.157-.116c.013-.005.057.068.113.136" transform="translate(-69.677 -234.818)" fill="url(#linear-gradient)"/>
          <path id="Path_873530" data-name="Path 873530" d="M111.1,34.077l-.147-.085c.029-.036.054-.1.087-.1s.091.034.137.053l-.078.133" transform="translate(-76.882 -23.262)" fill="url(#linear-gradient)"/>
          <path id="Path_873531" data-name="Path 873531" d="M18.994,233.584l-.105.128-.12-.128c.036-.033.069-.087.108-.091s.07.051.117.091" transform="translate(-13.005 -160.265)" fill="url(#linear-gradient)"/>
          <path id="Path_873532" data-name="Path 873532" d="M198.524,2.443c-.024.023-.047.064-.072.065s-.046-.042-.07-.066c.024-.024.048-.064.072-.065s.046.042.069.066" transform="translate(-137.461 -1.631)" fill="url(#linear-gradient)"/>
        </g>
      </g>
    </g>
    <g id="Mask_Group_1098694" data-name="Mask Group 1098694" transform="translate(533 -26)" clip-path="url(#clip-path-2)">
      <g id="Group_1099690" data-name="Group 1099690" transform="translate(306.571 697)">
        <g id="Group_1099689" data-name="Group 1099689" transform="translate(0 0)" clip-path="url(#clip-path-3)">
          <path id="Path_873674" data-name="Path 873674" d="M48.5,30.787a27.541,27.541,0,0,0-2.548-3.554,5.542,5.542,0,0,0-4.091-1.711c-1.53.012-3.062.007-4.592,0a.341.341,0,0,0-.378.257c-.505,1.3-1.022,2.592-1.542,3.885a1.963,1.963,0,0,1-.227.431.916.916,0,0,1-1.347.213,12.186,12.186,0,0,1-.939-.895,2.273,2.273,0,0,1-.158-.2.577.577,0,0,0-.308.612q.177,1.154.366,2.306.386,2.347.779,4.692c.239,1.412.466,2.826.737,4.233a1.429,1.429,0,0,1-.424,1.456c-.941.895-1.845,1.831-2.772,2.742a.959.959,0,0,1-1.537-.012c-.925-.911-1.831-1.845-2.772-2.74a1.4,1.4,0,0,1-.433-1.377c.443-2.527.867-5.058,1.3-7.587.2-1.157.394-2.311.577-3.47a1.463,1.463,0,0,0-.021-.568c-.067-.262-.192-.287-.389-.1-.315.294-.605.624-.939.895a.921.921,0,0,1-1.416-.262,3.125,3.125,0,0,1-.243-.519q-.654-1.617-1.3-3.236c-.025-.063-.053-.125-.079-.188-.229-.556-.229-.556-.848-.556-1.368,0-2.735.012-4.1,0a5.675,5.675,0,0,0-4.981,2.633c-1.864,2.721-3.681,5.478-5.517,8.218-.452.67-.909,1.335-1.363,2.005a1.756,1.756,0,0,0-.081.169,3.529,3.529,0,0,0,.373.042c2.033,0,4.064.007,6.1,0a.541.541,0,0,0,.371-.192q2.243-3.1,4.467-6.21a3.149,3.149,0,0,1,.234-.292.96.96,0,0,1,1.678.658q0,7.319.007,14.639a6.7,6.7,0,0,0,.176,1.127c.044.248.183.32.443.32q6.141-.014,12.279,0a1.934,1.934,0,0,1,.746.167.8.8,0,0,1,.515.714,17.864,17.864,0,0,1-.044,2.707,2.994,2.994,0,0,1-2.939,2.441c-3.9-.032-7.8-.014-11.7-.014l-12.48,0c-.348,0-.693,0-1.041.007a1.007,1.007,0,0,1-1.043-.779c-.322-.9-.656-1.806-.981-2.71Q2.137,45.788.212,40.4a3.387,3.387,0,0,1-.19-.895.82.82,0,0,1,.737-.879,5.032,5.032,0,0,1,.749-.037q1.37,0,2.745.007a.427.427,0,0,0,.4-.216Q8.385,32.79,12.129,27.2a7.946,7.946,0,0,1,5.23-3.542,12.476,12.476,0,0,1,2.179-.206c1.634-.03,3.271-.009,4.954-.009l-.218-.355A7.346,7.346,0,0,1,23.2,19.22q-.024-4.357,0-8.718a6.163,6.163,0,0,1,5.533-6.117,6.728,6.728,0,0,1,.746-.051c2.1,0,4.2-.028,6.3.007a3.479,3.479,0,0,1,3.278,2.072,3.43,3.43,0,0,1-1.428,4.427.471.471,0,0,0-.262.48c.014,2.754.044,5.505.012,8.257a6.906,6.906,0,0,1-1.291,3.869h.311c1.609,0,3.217-.012,4.826,0a8.343,8.343,0,0,1,7.353,3.915c1,1.521,2.024,3.02,3.025,4.536a1.609,1.609,0,0,0,.774.612q3.641,1.5,7.274,3c.971.4,1.143.8.744,1.778q-.758,1.871-1.548,3.727a.44.44,0,0,0,.1.561c.482.471.964.943,1.419,1.44a.886.886,0,0,1,.2.54q.028,1.6.007,3.206a3.824,3.824,0,0,1-1.961,3.322,4.614,4.614,0,0,1-2.255.617c-.413.023-.828.009-1.242,0a.329.329,0,0,0-.382.239c-.376.967-.781,1.922-1.171,2.884a1.086,1.086,0,0,1-1.581.716q-4.677-1.558-9.353-3.111a1.814,1.814,0,0,0-.209-.037v2.555c0,.165,0,.329.009.491.014.183-.067.229-.236.227-.5,0-1-.007-1.5.009-.192,0-.25-.051-.25-.243.012-1.127,0-2.251.019-3.377,0-.206-.016-.35-.25-.408a1.1,1.1,0,0,1-.329-.174.906.906,0,0,1-.4-1.15c.25-.677.547-1.335.781-2.017a3.459,3.459,0,0,0,.188-1.064c.012-4.541,0-9.084.007-13.628a.962.962,0,0,1,.651-1.008A.94.94,0,0,1,42.222,32c.811,1.1,1.6,2.214,2.4,3.322.06.083.125.16.218.276.494-1.268.971-2.494,1.449-3.718.081-.206.158-.415.246-.617A1.019,1.019,0,0,1,48,30.674c.148.06.294.123.443.183l.06-.07m5.1,11.834a2.63,2.63,0,0,1,.916-2.515,2.521,2.521,0,0,1,2.659-.22c.389-.939.767-1.854,1.15-2.784L48.038,32.827q-3.171,8.126-6.328,16.21c.13.049.218.086.306.116l9.49,3.157c.473.158.475.162.668-.3.174-.422.343-.846.519-1.282l-.461-.083a2.987,2.987,0,0,1-2.7-2.863,39.1,39.1,0,0,1-.039-4.038,1.044,1.044,0,0,1,1.08-1.12c.123-.012.25-.007.376-.007h2.654M2.4,40.556c.056.19.088.329.137.461q1.961,5.48,3.924,10.96c.264.737.271.728,1.057.726q5.734-.01,11.47-.016h.77a2.353,2.353,0,0,0-.065-.26q-2.069-5.793-4.14-11.588a.373.373,0,0,0-.417-.292q-5.737.01-11.47.009H2.4m32.981-29.1a.835.835,0,0,0-.116-.021c-1.8,0-3.6,0-5.4,0a.553.553,0,0,0-.345.162q-2.083,2.041-4.152,4.1a.593.593,0,0,0-.148.373c-.009,1.059-.014,2.119,0,3.176a6.3,6.3,0,0,0,.107,1.145,4.764,4.764,0,0,0,3.556,3.89,5.048,5.048,0,0,0,6.5-4.87c.009-2.58,0-5.158,0-7.738ZM25.152,12.948c.035.009.072.016.109.023.042-.037.083-.074.125-.114.96-.957,1.929-1.91,2.877-2.881a1.936,1.936,0,0,1,1.486-.628c2.033.016,4.064.007,6.1,0A1.606,1.606,0,0,0,37.4,7.866a1.489,1.489,0,0,0-1.5-1.509c-2.262-.014-4.527-.03-6.79,0A3.858,3.858,0,0,0,25.361,9.42a30.766,30.766,0,0,0-.209,3.528m26.412,31.69c0,1.078-.019,2.114.007,3.15a.877.877,0,0,0,.909.835c1.426.009,2.849.021,4.274,0a1.892,1.892,0,0,0,1.859-1.9c.016-.846.009-1.694,0-2.541a.44.44,0,0,0-.1-.28c-.691-.7-1.391-1.386-2.084-2.082a.548.548,0,0,0-.647-.172c-.262.111-.246.345-.246.566,0,.461,0,.923,0,1.384a.879.879,0,0,1-.512.867,2.021,2.021,0,0,1-.777.167c-.883.021-1.769.007-2.691.007M30.3,43.289c.642-.658,1.236-1.261,1.82-1.875a.405.405,0,0,0,.1-.3q-.337-2.135-.693-4.268-.389-2.344-.79-4.687c-.083-.494-.172-.985-.274-1.472-.014-.076-.111-.134-.172-.2a2.423,2.423,0,0,0-.185.192.361.361,0,0,0-.037.139q-.393,2.371-.79,4.745c-.308,1.857-.621,3.714-.925,5.57a.3.3,0,0,0,.067.229c.605.628,1.219,1.249,1.88,1.924m2.07,7.441h-11.2c.2.559.42,1.083.577,1.623a.409.409,0,0,0,.478.35c2.656-.014,5.313-.014,7.969-.016.394,0,.79.016,1.182,0a.942.942,0,0,0,.934-.828,10.455,10.455,0,0,0,.058-1.124M18.066,42.072l.067-.019V35.678c-.712.99-1.37,1.905-2.038,2.837a1.115,1.115,0,0,0,.178.083,1.172,1.172,0,0,1,.848.823c.165.48.343.955.515,1.435.144.4.285.809.429,1.215m24.386-6.4v5.941a1.073,1.073,0,0,0,.127-.176q.678-1.759,1.347-3.523a.271.271,0,0,0,0-.213c-.468-.654-.943-1.3-1.47-2.028M34.869,25.586c-.964-.308-1.657.336-2.4.563.494.517.992,1.043,1.514,1.593l.89-2.156m-6.766.573a7.747,7.747,0,0,1-1.02-.431,2.577,2.577,0,0,0-1.389-.2c.311.744.605,1.446.918,2.2L28.1,26.158m2.151.7c-.232.26-.459.505-.672.763a.264.264,0,0,0-.044.209.789.789,0,0,0,.92.7.31.31,0,0,0,.114,0,.425.425,0,0,0,.181-.109c.42-.637.415-.67-.141-1.215-.1-.093-.192-.183-.357-.341" transform="translate(0.027 5.696)" fill="#fff"/>
          <path id="Path_873675" data-name="Path 873675" d="M9.057,15.731a2.052,2.052,0,0,1,2.51.366,1.73,1.73,0,0,1,.5,1.222c-.009.992-.019,1.982,0,2.974a1.625,1.625,0,0,0,.188.737c1.164,2.089,2.348,4.17,3.528,6.254.216.38.22.382-.148.589s-.763.41-1.134.633c-.181.107-.269.056-.362-.109q-1-1.8-2.021-3.6c-.081-.139-.169-.276-.264-.433L5.587,27.49c1.117,2.084,2.221,4.14,3.345,6.236-.582.311-1.145.61-1.736.923-.121-.223-.234-.429-.345-.637Q3.836,28.385.821,22.752a5.807,5.807,0,0,1,.466-6.63,5.289,5.289,0,0,1,1.546-1.375.39.39,0,0,0,.218-.389c-.012-.742,0-1.484,0-2.223a.982.982,0,0,1,1.057-1.066c.306,0,.612,0,.964,0,0-.352.009-.684-.009-1.015,0-.063-.121-.139-.2-.172-.276-.109-.57-.178-.839-.3A4.917,4.917,0,0,1,1.037,5.429,4.991,4.991,0,0,1,4.27.327a5.052,5.052,0,0,1,6.757,3.887A5.058,5.058,0,0,1,7.611,9.759c-.658.2-.586.065-.582.8,0,.515.007.512.519.517.192,0,.387,0,.577.012A.957.957,0,0,1,9.057,12.1c0,1.127,0,2.251,0,3.377v.255m-3,5.357a5.935,5.935,0,0,1-.661-.067A3.039,3.039,0,0,1,3.049,18.1c0-.322,0-.642,0-.976l-.063.023a.746.746,0,0,0-.056.065,3.851,3.851,0,0,0-.464,4.421c.459.92.964,1.817,1.449,2.724l.744,1.4,6.249-3.113c-.137-.241-.246-.468-.385-.672a2.644,2.644,0,0,1-.422-1.643c.028-.825,0-1.655,0-2.483,0-.1-.014-.2-.028-.385C9.509,18.016,9,18.5,8.517,19a1.4,1.4,0,0,0-.392,1.05c.023.633.007,1.266.007,1.91H6.055ZM3.049,5.005A2.973,2.973,0,0,0,6.055,8.051a3.045,3.045,0,0,0-.023-6.09A2.963,2.963,0,0,0,3.049,5.005m2.033,8.067a.815.815,0,0,0-.023.134c0,1.625,0,3.25,0,4.877a.962.962,0,0,0,.809,1.032c.239.067.348-.009.454-.213.2-.389.44-.763.654-1.147a.685.685,0,0,0,.079-.325c0-1.356-.012-2.712-.019-4.068,0-.093,0-.185,0-.29Z" transform="translate(0 -0.001)" fill="#fff"/>
          <path id="Path_873676" data-name="Path 873676" d="M25.64,30.607a1.058,1.058,0,0,1,.123-.158,5.91,5.91,0,0,0,1.275-1.662q1.116-1.989,2.251-3.962c.125-.216.09-.311-.123-.417Q26.478,23.08,23.8,21.735c-.137-.067-.274-.139-.44-.227-.127.218-.257.429-.378.642-.637,1.131-1.277,2.26-1.908,3.394-.1.185-.2.218-.382.107-.387-.234-.784-.452-1.18-.668-.218-.116-.28-.22-.137-.468,1.171-2.045,2.323-4.1,3.491-6.143a2.132,2.132,0,0,0,.287-1.152c-.023-.9,0-1.808-.012-2.712a1.768,1.768,0,0,1,.735-1.465.479.479,0,0,0,.2-.433q-.007-3.578,0-7.158a3.2,3.2,0,0,1,2.378-3.194,3.57,3.57,0,0,1,.8-.09c1.261-.009,2.524,0,3.785,0a3.081,3.081,0,0,1,3.141,2.687,5.971,5.971,0,0,1,.063.862c0,2.571,0,5.139,0,7.71a1.083,1.083,0,0,0,.132.484,5.546,5.546,0,0,1,.218,5.491c-.781,1.562-1.7,3.055-2.564,4.578-1.094,1.931-2.2,3.86-3.287,5.793a7.331,7.331,0,0,1-1.725,2.181c-.183.151-.28.137-.41-.044-.311-.429-.633-.848-.969-1.3M28.146,4.134c-.1,0-.183-.016-.269-.012a6.651,6.651,0,0,0-.746.044A1.014,1.014,0,0,0,26.152,5.3c0,2.455,0,4.907.007,7.362a.617.617,0,0,0,.167.392c.679.693,1.37,1.375,2.065,2.054a.385.385,0,0,0,.246.1c.867,0,1.734.007,2.6,0a.878.878,0,0,0,.923-.932q.007-4.562,0-9.122a.923.923,0,0,0-.753-.964A10.144,10.144,0,0,0,30.165,4.1c-.1.684-.475,1.059-1,1.062s-.906-.378-1.018-1.027M33.167,16.52c-.093.058-.16.093-.218.137a2.718,2.718,0,0,1-1.428.566c-.651.051-1.305.046-1.959.065-.13,0-.26,0-.413,0v1.834H27.077c0-.633-.014-1.247,0-1.861a1.54,1.54,0,0,0-.447-1.175c-.382-.394-.781-.77-1.175-1.152-.09-.088-.192-.167-.331-.287-.012.16-.026.255-.026.348,0,.941,0,1.885.009,2.826a1.8,1.8,0,0,1-.257,1.018c-.192.306-.364.626-.549.948.056.032.1.063.137.083q2.865,1.422,5.726,2.849c.2.1.283.056.382-.121.677-1.2,1.37-2.383,2.04-3.581a6.872,6.872,0,0,0,.464-1.052,2.76,2.76,0,0,0,.114-1.442" transform="translate(25.431 2.847)" fill="#fff"/>
          <path id="Path_873677" data-name="Path 873677" d="M3.513,24.275a2.976,2.976,0,0,1,2.986-3,3.009,3.009,0,1,1-2.986,3m3.95-.009a.938.938,0,0,0-1.018-.99,1,1,0,0,0-.983,1.055A1.093,1.093,0,0,0,6.51,25.353a1.014,1.014,0,0,0,.953-1.087" transform="translate(4.621 28.043)" fill="#fff"/>
          <path id="Path_873678" data-name="Path 873678" d="M13.223,10.654a1.053,1.053,0,0,1-1.015-.983,1.053,1.053,0,0,1,1.015-.985,1.031,1.031,0,0,1,.99.971,1.01,1.01,0,0,1-.99,1" transform="translate(16.091 11.448)" fill="#fff"/>
          <path id="Path_873679" data-name="Path 873679" d="M13.977,9.637a.941.941,0,0,1,.948-.95,1.023,1.023,0,0,1,1.006.987,1.042,1.042,0,0,1-.981.985.965.965,0,0,1-.974-1.022" transform="translate(18.422 11.449)" fill="#fff"/>
          <path id="Path_873680" data-name="Path 873680" d="M15.25,13.082a4.078,4.078,0,0,1-2.886-1.14.669.669,0,0,1-.169-.8.648.648,0,0,1,.709-.371,1.051,1.051,0,0,1,.443.241,2.612,2.612,0,0,0,3.115.294,5.185,5.185,0,0,0,.459-.357.679.679,0,0,1,.981.021.67.67,0,0,1-.049.983,3.844,3.844,0,0,1-2.6,1.134" transform="translate(15.981 14.164)" fill="#fff"/>
        </g>
      </g>
    </g>
  </g>
</svg>
