<svg xmlns="http://www.w3.org/2000/svg" xmlns:xlink="http://www.w3.org/1999/xlink" width="1030" height="486" viewBox="0 0 1030 486">
  <defs>
    <clipPath id="clip-path">
      <path id="Path_608976" data-name="Path 608976" d="M16,0h998c8.837,0,16,7.536,16,16.831V469.169c0,9.3-7.163,16.831-16,16.831H16c-8.837,0-16-7.536-16-16.831V16.831C0,7.536,7.163,0,16,0Z" transform="translate(284.668 1119)" fill="#fff8e6"/>
    </clipPath>
    <clipPath id="clip-path-2">
      <rect id="Rectangle_403595" data-name="Rectangle 403595" width="820" height="459.932" transform="translate(-36 -23.497)" fill="none"/>
    </clipPath>
    <clipPath id="clip-path-3">
      <rect id="Rectangle_403568" data-name="Rectangle 403568" width="688" height="424.014" fill="none"/>
    </clipPath>
    <clipPath id="clip-path-4">
      <rect id="Rectangle_403569" data-name="Rectangle 403569" width="688" height="404.014" fill="none"/>
    </clipPath>
    <clipPath id="clip-path-6">
      <rect id="Rectangle_403570" data-name="Rectangle 403570" width="26.354" height="29.551" transform="translate(90.424 291.64)" fill="none"/>
    </clipPath>
    <clipPath id="clip-path-7">
      <rect id="Rectangle_403571" data-name="Rectangle 403571" width="32.398" height="44.54" transform="translate(563.278 293.926)" fill="none"/>
    </clipPath>
    <clipPath id="clip-path-9">
      <rect id="Rectangle_403574" data-name="Rectangle 403574" width="27.832" height="15.916" transform="translate(497.26 188.855)" fill="none"/>
    </clipPath>
    <clipPath id="clip-path-10">
      <rect id="Rectangle_403580" data-name="Rectangle 403580" width="2.085" height="1.838" transform="translate(142.822 165.844)" fill="none"/>
    </clipPath>
    <clipPath id="clip-path-11">
      <rect id="Rectangle_403581" data-name="Rectangle 403581" width="4.979" height="2.312" transform="translate(164.066 226.226)" fill="none"/>
    </clipPath>
    <clipPath id="clip-path-12">
      <rect id="Rectangle_403582" data-name="Rectangle 403582" width="13.262" height="4.071" transform="translate(145.093 227.218)" fill="none"/>
    </clipPath>
    <clipPath id="clip-path-13">
      <rect id="Rectangle_403583" data-name="Rectangle 403583" width="11.105" height="4.218" transform="translate(156.839 208.437)" fill="none"/>
    </clipPath>
    <clipPath id="clip-path-14">
      <rect id="Rectangle_403594" data-name="Rectangle 403594" width="825" height="431.932" transform="translate(120 0)" fill="none"/>
    </clipPath>
    <clipPath id="clip-path-15">
      <rect id="Rectangle_403585" data-name="Rectangle 403585" width="25.104" height="57.889" fill="none"/>
    </clipPath>
    <clipPath id="clip-path-16">
      <rect id="Rectangle_403586" data-name="Rectangle 403586" width="193.906" height="166.163" fill="none"/>
    </clipPath>
    <clipPath id="clip-path-17">
      <rect id="Rectangle_403587" data-name="Rectangle 403587" width="78.237" height="74.59" fill="none"/>
    </clipPath>
    <clipPath id="clip-path-18">
      <rect id="Rectangle_403588" data-name="Rectangle 403588" width="91.973" height="87.686" fill="none"/>
    </clipPath>
    <clipPath id="clip-path-19">
      <rect id="Rectangle_403589" data-name="Rectangle 403589" width="105.049" height="100.153" fill="none"/>
    </clipPath>
    <clipPath id="clip-path-20">
      <rect id="Rectangle_403590" data-name="Rectangle 403590" width="22.323" height="13.591" fill="#e6d09e"/>
    </clipPath>
    <clipPath id="clip-path-22">
      <rect id="Rectangle_403591" data-name="Rectangle 403591" width="19.988" height="14.698" fill="#e6d09e"/>
    </clipPath>
    <clipPath id="clip-path-24">
      <rect id="Rectangle_403592" data-name="Rectangle 403592" width="22.415" height="37.256" fill="#ac945b"/>
    </clipPath>
    <clipPath id="clip-path-25">
      <rect id="Rectangle_403593" data-name="Rectangle 403593" width="35.409" height="20.583" fill="#ac945b"/>
    </clipPath>
  </defs>
  <g id="Group_1102795" data-name="Group 1102795" transform="translate(-285 -903)">
    <g id="Mask_Group_1098656" data-name="Mask Group 1098656" transform="translate(0.332 -216)" clip-path="url(#clip-path)">
      <rect id="Rectangle_400937" data-name="Rectangle 400937" width="1079" height="510" transform="translate(264.668 1106)" fill="#fff8e6"/>
    </g>
    <g id="Group_1102447" data-name="Group 1102447" transform="translate(446 948)">
      <g id="Group_1102446" data-name="Group 1102446" clip-path="url(#clip-path-2)">
        <g id="Group_1102375" data-name="Group 1102375" transform="translate(11)">
          <g id="Group_1102374" data-name="Group 1102374" clip-path="url(#clip-path-3)">
            <path id="Path_881690" data-name="Path 881690" d="M100.756,382.193c134.341,29.094,352.15,29.1,486.488,0s134.341-76.265,0-105.359-352.149-29.095-486.49,0-134.339,76.265,0,105.359" transform="translate(0 8)" fill="#ffe7ae"/>
          </g>
        </g>
        <g id="Group_1102377" data-name="Group 1102377">
          <g id="Group_1102376" data-name="Group 1102376" clip-path="url(#clip-path-4)">
            <path id="Path_881691" data-name="Path 881691" d="M575.69,363.186c-15.469,8.41-40.55,8.41-56.019,0s-15.469-22.041,0-30.451,40.55-8.408,56.019,0,15.469,22.043,0,30.451" fill="#e6d09e"/>
            <path id="Path_881692" data-name="Path 881692" d="M162.348,360.429c-15.469,8.41-40.55,8.41-56.019,0s-15.469-22.041,0-30.451,40.55-8.408,56.019,0,15.469,22.044,0,30.451" fill="#e6d09e"/>
          </g>
        </g>
        <g id="Group_1102385" data-name="Group 1102385">
          <g id="Group_1102384" data-name="Group 1102384" clip-path="url(#clip-path-4)">
            <path id="Path_881693" data-name="Path 881693" d="M116.778,319.963s-.374-8.733-4.21-15.761-9.461-11.641-14.955-12.468-10.315,3.943-4.65,7.85,15.918,8.21,19.831,21.607Z" fill="#27debf"/>
            <g id="Group_1102380" data-name="Group 1102380" opacity="0.15">
              <g id="Group_1102379" data-name="Group 1102379">
                <g id="Group_1102378" data-name="Group 1102378" clip-path="url(#clip-path-6)">
                  <path id="Path_881694" data-name="Path 881694" d="M116.778,319.963s-.374-8.733-4.21-15.761-9.461-11.641-14.955-12.468-10.315,3.943-4.65,7.85,15.918,8.21,19.831,21.607Z"/>
                </g>
              </g>
            </g>
            <path id="Path_881695" data-name="Path 881695" d="M115.317,317.6a.259.259,0,0,0,.06-.013.3.3,0,0,0,.189-.373c-4.818-14.77-15.5-21.548-20.468-23.069a.3.3,0,0,0-.174.566C99.8,296.2,110.261,302.858,115,317.4a.3.3,0,0,0,.313.2" fill="#fff"/>
            <path id="Path_881696" data-name="Path 881696" d="M85.646,315.675a5.205,5.205,0,0,0,2.9,2.53,6.011,6.011,0,0,1,3.045,2.376c1.164,2.383-1.239,5.449.027,7.779a4.11,4.11,0,0,0,2.685,1.821,27.559,27.559,0,0,0,2.735.439,11.079,11.079,0,0,0,1.315-.009,5.953,5.953,0,0,1,3.76.671c1.748,1.151,2.145,3.488,3.125,5.338a8.665,8.665,0,0,0,5.86,4.278,6.03,6.03,0,0,0,3.186.014,1.317,1.317,0,0,0,.18-.1.082.082,0,0,0,.017-.013c.123-.121.279-.275.346-.36a.16.16,0,0,0,.037-.052c.406-1.165-.034-2.438.032-3.666,0-.077.007-.149.017-.222.151-1.422.291-2.837.425-4.257q.376-3.918.632-7.853c.1-1.7.438-3.55-.169-5.2-.673-1.818-2.652-2-3.279-3.779-.252-.71-.359-1.46-.6-2.178a6.109,6.109,0,0,0-4.933-3.988c-3.447-.419-6.75,2.163-10.188,1.665a26.175,26.175,0,0,1-2.613-.691c-2.766-.723-6.061-.153-7.8,2.107a3.641,3.641,0,0,0-.734,3.351" fill="#27debf"/>
            <path id="Path_881697" data-name="Path 881697" d="M115.527,334.959l.024,0a.3.3,0,0,0,.234-.346c-3.516-18.273-22.231-22.2-26.675-22.189a.3.3,0,1,0,0,.591c4.347-.007,22.653,3.832,26.094,21.71a.294.294,0,0,0,.322.238" fill="#fff"/>
            <path id="Path_881698" data-name="Path 881698" d="M95.171,324.391a.294.294,0,0,0,.162-.072,15.748,15.748,0,0,1,13.115-2.716.3.3,0,1,0,.128-.578,16.35,16.35,0,0,0-13.634,2.85.3.3,0,0,0-.027.417.3.3,0,0,0,.256.1" fill="#fff"/>
            <path id="Path_881699" data-name="Path 881699" d="M563.279,326.921c-.063-5.178,3.553-15.947,8.845-22.735s13.68-11.8,19.7-9.824c5.612,1.845,5.1,9.184-1.627,14.124s-16.842,11.166-19.723,19.6l-6.133,10.38Z" fill="#27debf"/>
            <g id="Group_1102383" data-name="Group 1102383" opacity="0.1">
              <g id="Group_1102382" data-name="Group 1102382">
                <g id="Group_1102381" data-name="Group 1102381" clip-path="url(#clip-path-7)">
                  <path id="Path_881700" data-name="Path 881700" d="M563.279,326.921c-.063-5.178,3.553-15.947,8.845-22.735s13.68-11.8,19.7-9.824c5.612,1.845,5.1,9.184-1.627,14.124s-16.842,11.166-19.723,19.6l-6.133,10.38Z"/>
                </g>
              </g>
            </g>
            <path id="Path_881701" data-name="Path 881701" d="M562.982,334.011a.378.378,0,0,0,.337-.308c3.255-17.716,17.38-32.254,25.9-35.531a.379.379,0,0,0,.217-.489.375.375,0,0,0-.489-.218c-8.682,3.339-23.068,18.116-26.372,36.1a.378.378,0,0,0,.3.44.367.367,0,0,0,.1,0" fill="#fff"/>
            <path id="Path_881702" data-name="Path 881702" d="M565.753,345.292c.8-2.92,4.294-7.766,10-11.8,6.308-4.465,14.333-6.58,16.148-10.018,2.179-4.13-1.326-7.966-7.85-7.077s-17.9,9.941-19.579,23.385Z" fill="#27debf"/>
            <path id="Path_881703" data-name="Path 881703" d="M564.453,342.253a.381.381,0,0,0,.323-.254c5.237-15.207,16.727-20.66,22.068-21.419a.377.377,0,0,0,.321-.428.372.372,0,0,0-.427-.321c-5.907.839-17.332,6.4-22.678,21.922a.378.378,0,0,0,.393.5" fill="#fff"/>
          </g>
        </g>
        <g id="Group_1102396" data-name="Group 1102396">
          <g id="Group_1102395" data-name="Group 1102395" clip-path="url(#clip-path-4)">
            <path id="Path_881704" data-name="Path 881704" d="M501.978,195.072c1.2.99,2.567,1.5,4.142,3.026a9.268,9.268,0,0,0,3.659,2.541c1.815.72,3.525.507,8.562-.3,6.163-.985,8.815-2.021,11.473-4.289,3.109-2.652,10.062-10.65,13.424-13.791,3.554-3.322,8.442-2.039,8.442-2.039a51,51,0,0,1-6.669,13.833c-2.693,3.833-7.722,7.5-10,9.394-3.64,3.029-5.574,4.226-13.572,4.827a82.581,82.581,0,0,1-11.773.455c-1.786-.053-2.9-.071-5.821-.314a17.154,17.154,0,0,1-3.752-.654,13.854,13.854,0,0,1-3.921-1.552,10.586,10.586,0,0,1-3.728-4.189,6.673,6.673,0,0,1-.7-3.016,4.44,4.44,0,0,1,1.087-2.858,1.224,1.224,0,0,1,.5-.369,1.475,1.475,0,0,1,1.088.233,63.908,63.908,0,0,0,5.775,3.065c1.673.644,2.943.868,2.819.531s-1.133-.647-2.171-1.817c-.991-1.117-1.3-2.8-.627-3.31s.553-.4,1.751.592" fill="#ffa8a7"/>
            <path id="Path_881705" data-name="Path 881705" d="M553.114,180.194A9.227,9.227,0,0,0,547,179.53c-3.111.894-5.6,2.928-8.569,6.111s-7.972,8.333-7.972,8.333,2.464,6.24,8,8.456l11.612-10.742Z" fill="#aec2dd"/>
            <path id="Path_881707" data-name="Path 881707" d="M498.442,195.679l11-6.408a3.784,3.784,0,0,1,3.423-.013l10.5,5.431a3.78,3.78,0,0,1,1.723,2.958l.048,12.733a3.785,3.785,0,0,1-1.7,2.971l-11,6.408a3.784,3.784,0,0,1-3.423.012l-10.5-5.43a3.783,3.783,0,0,1-1.722-2.958l-.048-12.733a3.784,3.784,0,0,1,1.7-2.971" fill="#37474f"/>
            <g id="Group_1102391" data-name="Group 1102391" opacity="0.4">
              <g id="Group_1102390" data-name="Group 1102390">
                <g id="Group_1102389" data-name="Group 1102389" clip-path="url(#clip-path-9)">
                  <path id="Path_881708" data-name="Path 881708" d="M525.092,197.358c-.126-.876-.837-1.192-1.689-.692L512.4,203.074a3.677,3.677,0,0,0-1.412,1.7,3.979,3.979,0,0,1,.205-.414l-13.93-7.394a3.474,3.474,0,0,1,1.207-1.284l11-6.408a3.772,3.772,0,0,1,3.423-.013l10.505,5.43a3.813,3.813,0,0,1,1.7,2.669" fill="#455a64"/>
                </g>
              </g>
            </g>
            <path id="Path_881709" data-name="Path 881709" d="M496.789,211.382a3.783,3.783,0,0,0,1.723,2.958l10.5,5.431a3.829,3.829,0,0,0,3.131.126c-.8.307-1.419-.145-1.423-1.121l-.048-12.733a3.5,3.5,0,0,1,.495-1.689l-13.933-7.394a3.5,3.5,0,0,0-.495,1.689Z" fill="#263238"/>
            <rect id="Rectangle_403575" data-name="Rectangle 403575" width="7.04" height="12.051" transform="translate(563.133 322.762)" fill="#ffa8a7"/>
            <path id="Path_881710" data-name="Path 881710" d="M550.693,325.8l-7.036.242-.352-12.754,7.388-.241Z" fill="#ffa8a7"/>
            <path id="Path_881711" data-name="Path 881711" d="M573.171,232.774c0,6.722-1.188,45.824-1.188,45.824.164,1.935,2.026,5.374,2.171,12.341.21,10.105-3.681,37.848-3.681,37.848a9.261,9.261,0,0,1-7.838.155s-3.193-37.608-4.454-47.609c-1.1-8.729-2.969-32.442-2.969-32.442l-3.314,28.5a40.049,40.049,0,0,1,.872,11.188c-.329,4.626-1.632,33.271-1.632,33.271a9.611,9.611,0,0,1-8.128.622s-4.966-40.837-5.047-45.081c-.093-4.839,1.84-54.237,1.84-54.237Z" fill="#37474f"/>
            <path id="Path_881712" data-name="Path 881712" d="M568.546,183.32a6.472,6.472,0,0,1,3.392,3.531,16.522,16.522,0,0,1,1.031,6.084v13.794l.2,26.045c-10.1,5.326-22.95,5.682-33.73-2.191,0,0,.6-33.524.6-39.008q0-.372.019-.753a12.514,12.514,0,0,1,15.7-11.254l6.38,1.641Z" fill="#cadbf3"/>
            <path id="Path_881713" data-name="Path 881713" d="M519.558,209.193c1.324.814,2.75,1.125,4.523,2.42a9.262,9.262,0,0,0,3.977,2.007c1.9.46,16.821-4.582,19.589-6.715,5.618-4.329,10.478-12.489,13.182-15.585,2.228-2.55,4.756-6.388,7.5-6.405,4.538,1.374,3.511,8.124-.287,14.2a56.474,56.474,0,0,1-15.863,15.807c-3.273,2.148-18.351,6.04-23.36,6.367-1.524.1-2.651.441-5.553.854a12.293,12.293,0,0,1-3.614.193,15.682,15.682,0,0,1-4.292-1.309,10.6,10.6,0,0,1-4.275-3.63,6.661,6.661,0,0,1-1.108-2.889,4.441,4.441,0,0,1,.678-2.982,1.226,1.226,0,0,1,.449-.436,1.477,1.477,0,0,1,1.11.08,63.817,63.817,0,0,0,6.145,2.23c1.747.406,3.036.451,2.866.134s-1.212-.483-2.4-1.5c-1.137-.968-1.676-2.6-1.083-3.191s.493-.471,1.817.343" fill="#ffa8a7"/>
            <path id="Path_881714" data-name="Path 881714" d="M560.145,157.665a9.674,9.674,0,1,1-9.675-9.675,9.675,9.675,0,0,1,9.675,9.675" fill="#263238"/>
            <path id="Path_881715" data-name="Path 881715" d="M567.194,164.543s-1.568,7.366-2.2,8.576a3.336,3.336,0,0,1-1.928,1.554l.109-5.181Z" fill="#263238"/>
            <path id="Path_881716" data-name="Path 881716" d="M565.227,153.992a3.633,3.633,0,0,1,3.005,1.056c1.29,1.32.57,5.45-1.037,9.5l-2.954.339Z" fill="#263238"/>
            <path id="Path_881717" data-name="Path 881717" d="M563.356,164.885c.592.354,1.436-.784,2.167-1.548a2.569,2.569,0,0,1,4.3.7c1.211,2.553-1.05,5.927-2.927,6.517-3.233,1.015-3.719-1.06-3.719-1.06l-.24,12.024c-4.021,5.156-15.18,4.72-10.531-.666l.01-3.55a20.461,20.461,0,0,1-4.361.224c-2.378-.368-3.875-2.245-4.6-4.82-1.159-4.135-1.6-7.474-.615-15.608,1.078-8.914,11.446-9.007,17.045-5.483s3.465,13.272,3.465,13.272" fill="#ffa8a7"/>
            <path id="Path_881718" data-name="Path 881718" d="M563.355,165.881c.3.006,1.43-1.873,2.167-2.544,1.022-.93-.3-9.345-.3-9.345a3.985,3.985,0,0,0-.985-4.257c-1.4-1.54-3.738-1.711-7.73-2.339-2.095-.329-5.271-.915-7.362-1.3-2.5-.464-4.566-.956-6.329.576a4.433,4.433,0,0,0-1.225,4.963,4.618,4.618,0,0,0,2.507,2.3s1.089.966,4.878,1.427a55.876,55.876,0,0,0,10.5-.2c1.1-.15,1.334.915,1.926,3.824.52,2.553.951,6.882,1.952,6.9" fill="#263238"/>
            <path id="Path_881719" data-name="Path 881719" d="M565.221,154.646l3.58-1.922a1.972,1.972,0,0,0-2.71-.9,2.134,2.134,0,0,0-.87,2.818" fill="#263238"/>
            <path id="Path_881720" data-name="Path 881720" d="M552.419,177.3s5.31-1.07,7.165-2.057a6.114,6.114,0,0,0,2.567-2.538,8.385,8.385,0,0,1-1.458,2.994c-1.357,1.736-8.274,3.014-8.274,3.014Z" fill="#f28f8f"/>
            <path id="Path_881721" data-name="Path 881721" d="M552.678,163.557a1.065,1.065,0,1,0,1.064-1.108,1.083,1.083,0,0,0-1.064,1.108" fill="#263238"/>
            <path id="Path_881722" data-name="Path 881722" d="M553.807,159.54l2.276,1.256a1.364,1.364,0,0,0-.53-1.812,1.269,1.269,0,0,0-1.746.556" fill="#263238"/>
            <path id="Path_881723" data-name="Path 881723" d="M552.9,170.908l-2.429.911a1.274,1.274,0,0,0,1.65.8,1.358,1.358,0,0,0,.779-1.716" fill="#f28f8f"/>
            <path id="Path_881724" data-name="Path 881724" d="M543.5,160.426l2.076-1.6a1.259,1.259,0,0,0-1.8-.277,1.378,1.378,0,0,0-.271,1.876" fill="#263238"/>
            <path id="Path_881725" data-name="Path 881725" d="M544.137,163.255a1.065,1.065,0,1,0,1.064-1.109,1.08,1.08,0,0,0-1.064,1.109" fill="#263238"/>
            <path id="Path_881726" data-name="Path 881726" d="M549.558,162.245l-.349,6.4-3.341-1.139Z" fill="#f28f8f"/>
            <path id="Path_881727" data-name="Path 881727" d="M563.133,331.338v-1.007c-.674.294-2.239,6.265-5.032,8.812-2.22,2.026-5.249,4.365-6.02,6.623-.8,2.348,4.219,3.645,6.293,3.278,2.411-.427,6.589-2.125,7.637-3.7s1.54-3.9,2.392-5.048,2.817-2.44,3.278-3.775a8.5,8.5,0,0,0-.4-3.7c-.326-1.245-.68-2.614-1.105-2.5,0,.152,0,.768,0,.768a5.569,5.569,0,0,1-3.52,1.189c-1.03.04-3.528-.164-3.52-.95" fill="#263238"/>
            <path id="Path_881728" data-name="Path 881728" d="M543.582,323.867c-.365.013-.663.528-1.469,1.4a15.4,15.4,0,0,1-4.142,2.98c-2.636,1.319-7.76,3.349-10.08,4.394-1.449.653-1.381,2.4.117,3.4s5.114,1.714,9.456.743c2.365-.529,5.445-2.714,7.394-2.6s5.6.09,7.034-.9.863-3.11.457-4.929c-.444-1.986-1-5.084-1.656-4.948v.685c-.847,1.281-5.214,1.8-7.074.859Z" fill="#263238"/>
            <path id="Path_881729" data-name="Path 881729" d="M555.213,248.891a26.077,26.077,0,0,1-9.8-5.621s1.893,3.542,7.518,6.838l-.75,24.883Z" fill="#263238"/>
            <path id="Path_881730" data-name="Path 881730" d="M568.617,183.322c3.353,1.643,4.713,4.143,3.224,9.717-1.337,5-6.467,13.537-10.5,17.714,0,0-6.905-3.271-10.581-7.524,3.641-5.569,5.39-8.843,8.808-13.552s7.005-6.918,9.052-6.355" fill="#aec2dd"/>
          </g>
        </g>
        <g id="Group_1102416" data-name="Group 1102416">
          <g id="Group_1102448" data-name="Group 1102448">
            <path id="Path_881732" data-name="Path 881732" d="M135.728,186.559c3.709-.013,7.638-1.067,10.8,3.724s12.41,26.078,12.41,26.078-7.523,4.009-7.715,3.721-12.874-21.463-12.874-21.463Z" fill="#ffa8a7"/>
            <path id="Path_881733" data-name="Path 881733" d="M131.607,182.116h0a15.41,15.41,0,0,1-15.41-15.41v-1.574a13.06,13.06,0,0,1,13.06-13.06h4.7a13.06,13.06,0,0,1,13.06,13.06v1.574a15.41,15.41,0,0,1-15.41,15.41" fill="#605841"/>
            <path id="Path_881735" data-name="Path 881735" d="M109.607,183.72h0a7.171,7.171,0,0,0,7.171-7.171V162.291a7.172,7.172,0,0,0-7.171,7.171Z" fill="#605841"/>
            <path id="Path_881737" data-name="Path 881737" d="M147.478,338.313a41.816,41.816,0,0,0,6.025,5.24,2.574,2.574,0,0,1,.837.866c.284.59.725,2.053-1.969,2.993a10.018,10.018,0,0,1-8.313-.8c-2.213-1.385-2.311-4.266-4.4-5.909-1.547-1.218-3.479-1.53-4.729-3.12-.871-1.108-.644-2.582-.19-4.406.5-1.992.724-3.5,1.383-3.346l-.108.916c.822,1.313,5.085,1.7,6.982.794a78.012,78.012,0,0,0,4.48,6.769" fill="#263238"/>
            <path id="Path_881738" data-name="Path 881738" d="M149.347,340.176v-.014c-.64-.587-1.268-1.192-1.869-1.85A51.881,51.881,0,0,1,144,333.184a7.894,7.894,0,0,1-1.487-3.747c-.044-1.761.126-4.9.126-4.9l-6.313-.416-.31,6.623c-.163,1.5,1.078,2.834,3.276,4.728s4.989,6.311,6.979,7.422,3.412,1.07,4.261.5c.873-.586.959-1.035-1.184-3.225" fill="#ffa8a7"/>
            <path id="Path_881739" data-name="Path 881739" d="M126.454,344.625a41.818,41.818,0,0,0,6.025,5.24,2.574,2.574,0,0,1,.837.866c.284.59.725,2.053-1.969,2.993a10.017,10.017,0,0,1-8.313-.8c-2.213-1.385-2.311-4.266-4.4-5.909-1.548-1.218-3.479-1.53-4.729-3.12-.871-1.108-.644-2.582-.19-4.406.495-1.992.724-3.5,1.383-3.346l-.108.916c.822,1.313,5.085,1.7,6.982.794a78.012,78.012,0,0,0,4.48,6.769" fill="#263238"/>
            <path id="Path_881740" data-name="Path 881740" d="M128.323,346.487v-.014c-.64-.587-1.268-1.192-1.869-1.85a51.786,51.786,0,0,1-3.479-5.129,8.917,8.917,0,0,1-1.479-3.811c-.114-1.547-.034-4.763-.034-4.763l-6.313.034-.158,6.106c-.163,1.5,1.077,2.834,3.276,4.728s4.989,6.311,6.979,7.422,3.412,1.07,4.261.5c.873-.586.959-1.035-1.184-3.225" fill="#ffa8a7"/>
            <path id="Path_881741" data-name="Path 881741" d="M115.072,228.639c-5.5,12.02.756,57.6.756,57.6-.165,1.95-1.886,4.98-2.087,10.939-.258,7.647,1.1,35.89,1.1,35.89a7.974,7.974,0,0,0,7.2.143s6.517-38.336,7.789-48.421c1.11-8.8,3.241-29.49,3.241-29.49l4.383,29.442a28.411,28.411,0,0,0-2.369,9.352c-.157,5.958.722,33.608.722,33.608a16.668,16.668,0,0,0,7.317.251s6.629-37.418,7.252-44.557c.372-4.265-2.815-56.553-2.815-56.553Z" fill="#37474f"/>
            <path id="Path_881742" data-name="Path 881742" d="M133.071,255.295l1.787-9.829s7.558-1.566,10.986-4.788a19.555,19.555,0,0,1-8.938,5.939l-2.007,8.6,1.983,25.688Z" fill="#263238"/>
            <path id="Path_881743" data-name="Path 881743" d="M125.813,186.839h0c-4.828.667-7.417,1.733-8.976,6.271a17.7,17.7,0,0,0,.282,10.3l4.22,12.333a66.461,66.461,0,0,0-6.268,12.893c12.339,6.887,28.78,3.224,32.489-1.8.157-1.066-.843-6.219-.543-11.686.319-5.829,1.255-12.524.338-16.127-1.7-6.689-6.371-11.057-11.628-12.466Z" fill="#f5f5f5"/>
            <path id="Path_881744" data-name="Path 881744" d="M122.934,199.781c-.21,3.172-1.168,11.89-1.168,11.89l4.044,6.392-4.471-2.318-3.965-11.587Z" fill="#e6e6e6"/>
            <path id="Path_881745" data-name="Path 881745" d="M141.83,158.458c1.668.986,3.729,5.181,3.526,13.974-.173,7.454-2.589,9.295-3.8,9.825s-3.553.208-5.827-.171v4.473s3.143,3.651,2.945,5.7-4.539,2.536-7.48.532a19.016,19.016,0,0,1-4.827-5.053V176.927a2.855,2.855,0,0,1-4.047.383c-2.512-1.668-2.607-5.8-1.147-7.278s4.607-1.013,5.194,1.035a17.98,17.98,0,0,0,8.457-2.521,13.574,13.574,0,0,0,7.007-10.088" fill="#ffa8a7"/>
            <path id="Path_881746" data-name="Path 881746" d="M137.034,170.56a.938.938,0,1,1-.985-.928.953.953,0,0,1,.985.928" fill="#263238"/>
            <path id="Path_881747" data-name="Path 881747" d="M137.285,176.878l2.176.694a1.123,1.123,0,0,1-1.416.781,1.2,1.2,0,0,1-.76-1.475" fill="#f28f8f"/>
            <path id="Path_881748" data-name="Path 881748" d="M144.719,167.682l-1.9-1.314a1.107,1.107,0,0,1,1.575-.324,1.213,1.213,0,0,1,.321,1.638" fill="#27debf"/>
            <g id="Group_1102405" data-name="Group 1102405" opacity="0.2">
              <g id="Group_1102404" data-name="Group 1102404">
                <g id="Group_1102403" data-name="Group 1102403" clip-path="url(#clip-path-10)">
                  <path id="Path_881749" data-name="Path 881749" d="M144.719,167.682l-1.9-1.314a1.107,1.107,0,0,1,1.575-.324,1.213,1.213,0,0,1,.321,1.638"/>
                </g>
              </g>
            </g>
            <path id="Path_881750" data-name="Path 881750" d="M144.282,169.882a.938.938,0,1,1-.985-.928.953.953,0,0,1,.985.928" fill="#263238"/>
            <path id="Path_881751" data-name="Path 881751" d="M139.86,169.346l.149,5.642,2.969-.92Z" fill="#f28f8f"/>
            <path id="Path_881752" data-name="Path 881752" d="M135.728,182.086c-2.4-.314-7.328-1.731-8.1-3.68a5.051,5.051,0,0,0,1.73,2.487c1.472,1.263,6.367,2.685,6.367,2.685Z" fill="#f28f8f"/>
            <path id="Path_881753" data-name="Path 881753" d="M175.209,205.238l-25.558,6.731-7.544,31.719,24.3-7.058Z" fill="#aec2dd"/>
            <g id="Group_1102408" data-name="Group 1102408" opacity="0.1">
              <g id="Group_1102407" data-name="Group 1102407">
                <g id="Group_1102406" data-name="Group 1102406" clip-path="url(#clip-path-11)">
                  <path id="Path_881754" data-name="Path 881754" d="M164.066,226.226c.237.648,1.636,2.446,4.611,2.3l.368-1.311Z"/>
                </g>
              </g>
            </g>
            <g id="Group_1102411" data-name="Group 1102411" opacity="0.1">
              <g id="Group_1102410" data-name="Group 1102410">
                <g id="Group_1102409" data-name="Group 1102409" clip-path="url(#clip-path-12)">
                  <path id="Path_881755" data-name="Path 881755" d="M158.355,227.218c-.113.845-1.852,2.411-4.789,3.391-3.343,1.114-8.472.524-8.472.524l.459-1.577Z"/>
                </g>
              </g>
            </g>
            <g id="Group_1102414" data-name="Group 1102414" opacity="0.1">
              <g id="Group_1102413" data-name="Group 1102413">
                <g id="Group_1102412" data-name="Group 1102412" clip-path="url(#clip-path-13)">
                  <path id="Path_881756" data-name="Path 881756" d="M167.727,209.831s.094-.437.211-.975-1.384-.561-3.35-.051l-3.766.976c-1.966.51-3.655,1.36-3.771,1.9l-.211.975Z"/>
                </g>
              </g>
            </g>
            <path id="Path_881757" data-name="Path 881757" d="M169.5,206.154c.074-.336-.534-.425-1.357-.2l-1.491.412s.444-2.108-2.865-1.372a5.187,5.187,0,0,0-4.032,3.131l-1.592.452c-.879.25-1.676.724-1.78,1.059l-.188.606,13.165-3.466s.066-.289.14-.625" fill="#37474f"/>
            <path id="Path_881758" data-name="Path 881758" d="M167.685,207.207c-1.206.291-1.708.451-1.888,1.281-.206.948-.29,1.643-.29,1.643l-5.827,1.54s.282-1.2.372-1.668-.109-.749-1.036-.5l-.078-.371,9.13-2.325Z" fill="#37474f"/>
            <path id="Path_881759" data-name="Path 881759" d="M167.886,209.923s.094-.437.211-.975-1.384-.561-3.35-.051l-3.766.976c-1.966.51-3.655,1.36-3.771,1.9l-.211.975Z" fill="#37474f"/>
            <path id="Path_881760" data-name="Path 881760" d="M113.715,225.179l4.665-7.778s20.468,6,22.5,6.156a5.331,5.331,0,0,0,5.067-3.272c.775-2,2.14-1.747,2.14-1.747s-.6,2.529-.794,3.337,4.681,1.472,7.384.557,6.615.413,4.191,4.093-7.136,4.105-10.41,4.107a34.43,34.43,0,0,1-4.094-.273c-1.059-.138-2.113-.245-3.178-.321-6.7-.477-24.426-3.9-27.472-4.859" fill="#ffa8a7"/>
            <path id="Path_881761" data-name="Path 881761" d="M172.609,214.511s-.916,3.265-1.134,4.044-3.19,2.2-5.069,2.711-3.933,1.128-3.044,3.755c.82,2.422,3.911,2.975,5.485,2.906s3.729-1.572,4.577-4c1.083-3.093.5-6.4.93-8.2s-.8-2.292-1.745-1.215" fill="#ffa8a7"/>
            <path id="Path_881762" data-name="Path 881762" d="M118.38,217.4l4.094-15.556s2.354-8.428,0-14.346c0,0-1.945-.7-4.913,1.757s-4.6,7.983-5.629,12.486-3.152,19.343-2.906,20.878,3.012,2.5,11.193,4.04Z" fill="#ffa8a7"/>
          </g>
        </g>
        <g id="Group_1102445" data-name="Group 1102445">
          <g id="Group_1102444" data-name="Group 1102444" transform="translate(-141 -23.497)" clip-path="url(#clip-path-14)">
            <path id="Path_881763" data-name="Path 881763" d="M360.5,231.6c-19.838,0-35.918,6-35.918,13.407v32.315c0,7.4,16.08,13.406,35.918,13.406s35.92-6,35.92-13.406V245.009c0-7.4-16.083-13.407-35.92-13.407" transform="translate(121.245 86.514)" fill="#ebebeb"/>
            <path id="Path_881764" data-name="Path 881764" d="M360.5,231.6c-19.838,0-35.918,6-35.918,13.407v32.315c0,7.4,16.08,13.406,35.918,13.406s35.92-6,35.92-13.406V245.009c0-7.4-16.083-13.407-35.92-13.407" transform="translate(121.245 86.514)" fill="#e6d09e"/>
            <g id="Group_1102419" data-name="Group 1102419" transform="translate(445.823 318.928)" opacity="0.1">
              <g id="Group_1102418" data-name="Group 1102418" transform="translate(0 -0.192)">
                <g id="Group_1102417" data-name="Group 1102417" clip-path="url(#clip-path-15)">
                  <path id="Path_881765" data-name="Path 881765" d="M324.578,244.979v32.315c0,6,10.553,11.074,25.106,12.787V232.193c-14.553,1.713-25.106,6.789-25.106,12.786" transform="translate(-324.578 -232.193)"/>
                </g>
              </g>
            </g>
            <path id="Path_881766" data-name="Path 881766" d="M430.431,284.348c.262-.357,99.519-135.864,99.519-135.864s-50.165,27.472-140.887,27.472a420.53,420.53,0,0,1-48.707-2.773c-59.79-6.972-92.182-24.7-92.182-24.7l99.449,135.835.018.029h0c6.1,8.3,22.328,14.233,41.393,14.233S424.33,292.646,430.431,284.348Z" transform="translate(92.704 55.465)" fill="#ebebeb"/>
            <path id="Path_881767" data-name="Path 881767" d="M316.963,183.515l-15.042-16.866c-35.094-7.968-53.747-18.165-53.747-18.165l99.449,135.835.018.029h0c4.906,6.673,16.366,11.81,30.579,13.569Z" transform="translate(92.704 55.465)" fill="#e0e0e0"/>
            <path id="Path_881768" data-name="Path 881768" d="M524.217,78.437C493.89,63.577,455.309,55.229,415.682,53.4l-.019-.01C364.9,51.069,312.5,59.406,273.643,78.449c-69.19,33.913-69.179,88.881,0,122.781,15.833,7.758,33.9,13.733,53.186,17.948,47.521,10.347,102.43,9.944,149.373-1.2q9.929-2.34,19.311-5.338c2.6-.826,5.185-1.7,7.712-2.6l.011-.016c3.6-1.286,7.12-2.634,10.546-4.073,3.567-1.5,7.052-3.058,10.422-4.717,69.19-33.911,69.209-88.886.01-122.8" transform="translate(82.836 19.803)" fill="#e6d09e"/>
            <g id="Group_1102422" data-name="Group 1102422" transform="translate(304.592 72.817)" opacity="0.1">
              <g id="Group_1102421" data-name="Group 1102421">
                <g id="Group_1102420" data-name="Group 1102420" clip-path="url(#clip-path-16)">
                  <path id="Path_881769" data-name="Path 881769" d="M415.663,53.394C364.9,51.069,312.5,59.406,273.643,78.449c-69.19,33.913-69.179,88.881,0,122.781,15.833,7.758,33.9,13.733,53.186,17.948l.011-.016c-6.608-7.826-10.969-26.452,1.743-27.6-17.227-3.832-33.232-9.164-47.132-15.977-19.886-9.744-33.368-21.371-39.031-33.623-4.82-10.455-3.7-21.026,3.378-31.388,6.836-10.087,19.186-19.66,35.613-27.73,33.048-16.2,77.934-23.979,122.342-23.337,0,0-1-4.711,11.907-6.111" transform="translate(-221.756 -53.014)"/>
                </g>
              </g>
            </g>
            <path id="Path_881770" data-name="Path 881770" d="M511.248,81.085C480.692,66.112,440,58.313,398.931,57.749c-44.41-.641-89.293,7.138-122.34,23.338-16.428,8.071-28.777,17.643-35.613,27.73-7.074,10.361-8.2,20.933-3.378,31.388,5.663,12.252,19.145,23.879,39.031,33.623,13.9,6.811,29.9,12.145,47.132,15.977,6.5,1.457,13.182,2.695,19.985,3.714a326.964,326.964,0,0,0,36.432,3.375q3.8.144,7.581.21c4.2.088,8.423.1,12.613.012a330.3,330.3,0,0,0,42.449-3.412c.139-.018.321-.059.481-.067,9.185-1.363,18.123-3.107,26.731-5.229q9.288-2.3,17.984-5.188,3.645-1.2,7.173-2.523,4.222-1.6,8.307-3.329c2.633-1.133,5.2-2.321,7.708-3.537,16.506-8.075,28.8-17.675,35.675-27.744,15.189-22.331,1.842-46.637-35.634-65" transform="translate(87.66 21.558)" fill="#f5f5f5"/>
            <path id="Path_881771" data-name="Path 881771" d="M375.516,127.486c-41.6,0-77.1,12.737-91.146,30.667q10.04,3.177,20.826,5.589c6.505,1.456,13.183,2.695,19.986,3.713a326.616,326.616,0,0,0,36.431,3.376q3.8.144,7.582.21c4.2.088,8.421.1,12.612.012a330.278,330.278,0,0,0,42.449-3.412c.14-.018.321-.059.481-.067,9.186-1.363,18.124-3.107,26.732-5.229q7.774-1.924,15.128-4.272c-14.088-17.889-49.542-30.587-91.081-30.587" transform="translate(106.225 47.622)" fill="#ebebeb"/>
            <path id="Path_881772" data-name="Path 881772" d="M401.277,71.173a39.119,39.119,0,1,1-39.119-39.119,39.119,39.119,0,0,1,39.119,39.119" transform="translate(120.67 11.974)" fill="#27debf"/>
            <g id="Group_1102425" data-name="Group 1102425" transform="translate(443.71 47.674)" opacity="0.1">
              <g id="Group_1102424" data-name="Group 1102424">
                <g id="Group_1102423" data-name="Group 1102423" clip-path="url(#clip-path-17)">
                  <path id="Path_881773" data-name="Path 881773" d="M351.247,84.258c-18.634-13.494-20.158-40.01-5.583-49.548a39.118,39.118,0,1,0,55.614,35.47c-1.49,18.848-31.4,27.571-50.03,14.077" transform="translate(-323.04 -34.709)"/>
                </g>
              </g>
            </g>
            <path id="Path_881774" data-name="Path 881774" d="M361.013,124.04a45.986,45.986,0,1,1-45.986-45.986,45.985,45.985,0,0,1,45.986,45.986" transform="translate(100.499 29.157)" fill="#8dc9f6"/>
            <g id="Group_1102428" data-name="Group 1102428" transform="translate(369.539 111.498)" opacity="0.1">
              <g id="Group_1102427" data-name="Group 1102427">
                <g id="Group_1102426" data-name="Group 1102426" clip-path="url(#clip-path-18)">
                  <path id="Path_881775" data-name="Path 881775" d="M302.2,139.423c-21.905-15.862-23.7-47.034-6.563-58.247a45.986,45.986,0,1,0,65.377,41.7c-1.751,22.157-36.909,32.41-58.814,16.548" transform="translate(-269.04 -81.175)"/>
                </g>
              </g>
            </g>
            <path id="Path_881776" data-name="Path 881776" d="M462.09,138.579a52.525,52.525,0,1,1-52.525-52.525,52.524,52.524,0,0,1,52.525,52.525" transform="translate(119.577 17.862)" fill="#d9eb73"/>
            <g id="Group_1102431" data-name="Group 1102431" transform="translate(476.617 108.813)" opacity="0.1">
              <g id="Group_1102430" data-name="Group 1102430" transform="translate(0 0)">
                <g id="Group_1102429" data-name="Group 1102429" clip-path="url(#clip-path-19)">
                  <path id="Path_881777" data-name="Path 881777" d="M394.914,155.7c-25.02-18.117-27.066-53.722-7.5-66.528A52.525,52.525,0,1,0,462.09,136.8c-2,25.307-42.156,37.018-67.176,18.9" transform="translate(-357.041 -89.174)"/>
                </g>
              </g>
            </g>
            <path id="Path_881778" data-name="Path 881778" d="M516.116,73a60.558,60.558,0,1,1-60.558-60.558A60.558,60.558,0,0,1,516.116,73" transform="translate(142.828 11.974)" fill="#c7dbf6"/>
            <path id="Path_881779" data-name="Path 881779" d="M438.667,92.758c-28.846-20.888-31.2-61.938-8.643-76.7a60.558,60.558,0,1,0,86.092,54.912c-2.306,29.177-48.6,42.68-77.449,21.792" transform="translate(142.828 14.003)" fill="#bbd0ec"/>
            <path id="Path_881780" data-name="Path 881780" d="M342.179,53.8A48.387,48.387,0,1,1,293.792,5.413,48.387,48.387,0,0,1,342.179,53.8" transform="translate(86.671 25.47)" fill="#a0f1f1"/>
            <path id="Path_881781" data-name="Path 881781" d="M280.3,69.986C257.246,53.3,255.362,20.5,273.39,8.7a48.387,48.387,0,1,0,68.79,43.875c-1.843,23.313-38.836,34.1-61.884,17.412" transform="translate(86.67 26.697)" fill="#8fd1d1"/>
            <path id="Path_881782" data-name="Path 881782" d="M251.35,81.781l4.534-10.155a3.211,3.211,0,0,1,2.424-1.716l10.237-1.284a3.388,3.388,0,0,1,2.736,1.3l6.549,9.248a3.381,3.381,0,0,1,.313,3.012l-4.535,10.155a3.214,3.214,0,0,1-2.424,1.717l-10.237,1.283a3.389,3.389,0,0,1-2.738-1.3l-6.546-9.248a3.381,3.381,0,0,1-.313-3.012" transform="translate(85.809 57.852)" fill="#a18e64"/>
            <path id="Path_881788" data-name="Path 881788" d="M251.35,81.781l4.534-10.155a3.211,3.211,0,0,1,2.424-1.716l10.237-1.284a3.388,3.388,0,0,1,2.736,1.3l6.549,9.248a3.381,3.381,0,0,1,.313,3.012l-4.535,10.155a3.214,3.214,0,0,1-2.424,1.717l-10.237,1.283a3.389,3.389,0,0,1-2.738-1.3l-6.546-9.248a3.381,3.381,0,0,1-.313-3.012" transform="translate(340.795 80.396)" fill="#a18e64"/>
            <g id="Group_1102434" data-name="Group 1102434" transform="translate(336.958 139.605)" opacity="0.1">
              <g id="Group_1102433" data-name="Group 1102433">
                <g id="Group_1102432" data-name="Group 1102432" clip-path="url(#clip-path-20)">
                  <path id="Path_881783" data-name="Path 881783" d="M258.205,90.47a3.389,3.389,0,0,0,2.738,1.3l10.236-1.283a3.248,3.248,0,0,0,2.288-1.47c-.413.625-1.082.6-1.584-.107l-6.549-9.248a3.181,3.181,0,0,1-.512-1.477l-13.678,1.564a3.181,3.181,0,0,0,.512,1.477Z" transform="translate(-251.144 -78.181)" fill="#e6d09e"/>
                </g>
              </g>
            </g>
            <g id="Group_1102449" data-name="Group 1102449" transform="translate(591.945 162.148)" opacity="0.1">
              <g id="Group_1102433-2" data-name="Group 1102433">
                <g id="Group_1102432-2" data-name="Group 1102432" clip-path="url(#clip-path-20)">
                  <path id="Path_881783-2" data-name="Path 881783" d="M258.205,90.47a3.389,3.389,0,0,0,2.738,1.3l10.236-1.283a3.248,3.248,0,0,0,2.288-1.47c-.413.625-1.082.6-1.584-.107l-6.549-9.248a3.181,3.181,0,0,1-.512-1.477l-13.678,1.564a3.181,3.181,0,0,0,.512,1.477Z" transform="translate(-251.144 -78.181)" fill="#e6d09e"/>
                </g>
              </g>
            </g>
            <g id="Group_1102437" data-name="Group 1102437" transform="translate(336.955 126.46)" opacity="0.4">
              <g id="Group_1102436" data-name="Group 1102436">
                <g id="Group_1102435" data-name="Group 1102435" clip-path="url(#clip-path-22)">
                  <path id="Path_881784" data-name="Path 881784" d="M271.13,69.715c-.54-.576-1.206-.451-1.553.339l-4.538,10.155a3.256,3.256,0,0,0-.135,1.941c-.027-.132-.051-.268-.066-.4l-13.675,1.563a3.075,3.075,0,0,1,.2-1.537L255.9,71.619A3.2,3.2,0,0,1,258.32,69.9l10.24-1.286a3.4,3.4,0,0,1,2.57,1.1" transform="translate(-251.142 -68.611)" fill="#e6d09e"/>
                </g>
              </g>
            </g>
            <g id="Group_1102450" data-name="Group 1102450" transform="translate(591.942 149.004)" opacity="0.4">
              <g id="Group_1102436-2" data-name="Group 1102436">
                <g id="Group_1102435-2" data-name="Group 1102435" clip-path="url(#clip-path-22)">
                  <path id="Path_881784-2" data-name="Path 881784" d="M271.13,69.715c-.54-.576-1.206-.451-1.553.339l-4.538,10.155a3.256,3.256,0,0,0-.135,1.941c-.027-.132-.051-.268-.066-.4l-13.675,1.563a3.075,3.075,0,0,1,.2-1.537L255.9,71.619A3.2,3.2,0,0,1,258.32,69.9l10.24-1.286a3.4,3.4,0,0,1,2.57,1.1" transform="translate(-251.142 -68.611)" fill="#e6d09e"/>
                </g>
              </g>
            </g>
            <path id="Path_881785" data-name="Path 881785" d="M379.633,2.247,397.1.027A5.235,5.235,0,0,1,401.47,1.86l10.442,12.584a5.235,5.235,0,0,1,.6,4.7l-6.813,16.239a5.235,5.235,0,0,1-3.769,2.865l-17.471,2.22a5.234,5.234,0,0,1-4.365-1.832L369.648,26.048a5.232,5.232,0,0,1-.6-4.7l6.814-16.239a5.233,5.233,0,0,1,3.769-2.865" transform="translate(137.742 0)" fill="#e6d09e"/>
            <g id="Group_1102440" data-name="Group 1102440" transform="translate(506.483 3.228)" opacity="0.1">
              <g id="Group_1102439" data-name="Group 1102439">
                <g id="Group_1102438" data-name="Group 1102438" clip-path="url(#clip-path-24)">
                  <path id="Path_881786" data-name="Path 881786" d="M369.051,20.473a5.237,5.237,0,0,0,.6,4.7l10.442,12.583a5.292,5.292,0,0,0,3.919,1.853c-1.19-.043-1.729-.95-1.207-2.2l6.814-16.239a4.851,4.851,0,0,1,1.541-1.883L377.406,2.35a4.848,4.848,0,0,0-1.541,1.883Z" transform="translate(-368.741 -2.35)" fill="#ac945b"/>
                </g>
              </g>
            </g>
            <g id="Group_1102443" data-name="Group 1102443" transform="translate(515.177 0.014)" opacity="0.4">
              <g id="Group_1102442" data-name="Group 1102442">
                <g id="Group_1102441" data-name="Group 1102441" clip-path="url(#clip-path-25)">
                  <path id="Path_881787" data-name="Path 881787" d="M410.3,18.769c.312-1.184-.422-1.97-1.777-1.792l-17.474,2.217a5.086,5.086,0,0,0-2.714,1.4,5.637,5.637,0,0,1,.483-.416L375.071,3.24a4.808,4.808,0,0,1,2.229-.982L394.768.036a5.223,5.223,0,0,1,4.366,1.832l10.444,12.586a5.268,5.268,0,0,1,.72,4.314" transform="translate(-375.071 -0.01)" fill="#ac945b"/>
                </g>
              </g>
            </g>
          </g>
        </g>
      </g>
    </g>
    <path id="Path_883029" data-name="Path 883029" d="M7.859-4.93h-4.5v3.047H8.641V0H1.016V-11.375H8.625v1.9H3.359v2.711h4.5Zm4.125-3.523.07.945a2.971,2.971,0,0,1,2.43-1.1A2.255,2.255,0,0,1,16.727-7.32a2.9,2.9,0,0,1,2.539-1.289,2.521,2.521,0,0,1,2.047.8,3.681,3.681,0,0,1,.672,2.41V0H19.719V-5.391a1.61,1.61,0,0,0-.281-1.051,1.246,1.246,0,0,0-.992-.332,1.409,1.409,0,0,0-1.406.969L17.047,0H14.789V-5.383A1.59,1.59,0,0,0,14.5-6.445a1.259,1.259,0,0,0-.984-.328,1.463,1.463,0,0,0-1.391.8V0H9.867V-8.453Zm19.344,4.3a5.07,5.07,0,0,1-.887,3.129A2.843,2.843,0,0,1,28.047.156a2.633,2.633,0,0,1-2.07-.891V3.25H23.719v-11.7h2.094l.078.828a2.654,2.654,0,0,1,2.141-.984,2.862,2.862,0,0,1,2.43,1.156,5.207,5.207,0,0,1,.867,3.188ZM29.07-4.312a3.327,3.327,0,0,0-.418-1.82,1.361,1.361,0,0,0-1.215-.641,1.478,1.478,0,0,0-1.461.813V-2.5a1.5,1.5,0,0,0,1.477.836Q29.07-1.664,29.07-4.312ZM37.625,0A2.507,2.507,0,0,1,37.4-.758a2.732,2.732,0,0,1-2.133.914,3,3,0,0,1-2.059-.719,2.312,2.312,0,0,1-.816-1.812,2.389,2.389,0,0,1,1-2.062,4.915,4.915,0,0,1,2.879-.727H37.3v-.484a1.393,1.393,0,0,0-.3-.937,1.183,1.183,0,0,0-.949-.352,1.345,1.345,0,0,0-.895.273.929.929,0,0,0-.324.75H32.578a2.268,2.268,0,0,1,.453-1.359,3,3,0,0,1,1.281-.98,4.669,4.669,0,0,1,1.859-.355,3.689,3.689,0,0,1,2.48.785,2.747,2.747,0,0,1,.918,2.207v3.664a4.041,4.041,0,0,0,.336,1.82V0ZM35.758-1.57a1.945,1.945,0,0,0,.922-.223,1.462,1.462,0,0,0,.625-.6V-3.844h-.844q-1.7,0-1.8,1.172l-.008.133a.9.9,0,0,0,.3.7A1.153,1.153,0,0,0,35.758-1.57Zm8.25-8.961v2.078h1.445V-6.8H44.008v4.219a1.007,1.007,0,0,0,.18.672.9.9,0,0,0,.688.2,3.6,3.6,0,0,0,.664-.055V-.047a4.648,4.648,0,0,1-1.367.2,2.156,2.156,0,0,1-2.422-2.4V-6.8H40.516V-8.453H41.75v-2.078ZM49.148,0H46.891V-8.453h2.258Zm-.664-11.883h2.461L48.781-9.461H46.945ZM55.992,0a2.507,2.507,0,0,1-.227-.758,2.732,2.732,0,0,1-2.133.914,3,3,0,0,1-2.059-.719,2.312,2.312,0,0,1-.816-1.812,2.389,2.389,0,0,1,1-2.062,4.915,4.915,0,0,1,2.879-.727h1.039v-.484a1.393,1.393,0,0,0-.3-.937,1.183,1.183,0,0,0-.949-.352,1.345,1.345,0,0,0-.895.273.929.929,0,0,0-.324.75H50.945A2.268,2.268,0,0,1,51.4-7.273a3,3,0,0,1,1.281-.98,4.669,4.669,0,0,1,1.859-.355,3.689,3.689,0,0,1,2.48.785,2.747,2.747,0,0,1,.918,2.207v3.664a4.041,4.041,0,0,0,.336,1.82V0ZM54.125-1.57a1.945,1.945,0,0,0,.922-.223,1.462,1.462,0,0,0,.625-.6V-3.844h-.844q-1.7,0-1.8,1.172l-.008.133a.9.9,0,0,0,.3.7A1.153,1.153,0,0,0,54.125-1.57Z" transform="translate(756 1013)" fill="#12263f"/>
    <path id="Path_883030" data-name="Path 883030" d="M9.578-9.477H6.094V0H3.75V-9.477H.313v-1.9H9.578ZM13.961.156A4.15,4.15,0,0,1,10.934-.984,4.054,4.054,0,0,1,9.766-4.023v-.219a5.106,5.106,0,0,1,.492-2.277,3.612,3.612,0,0,1,1.395-1.547,3.914,3.914,0,0,1,2.059-.543,3.508,3.508,0,0,1,2.73,1.094,4.444,4.444,0,0,1,1,3.1v.922H12.055a2.1,2.1,0,0,0,.66,1.328,2,2,0,0,0,1.395.5,2.437,2.437,0,0,0,2.039-.945l1.109,1.242A3.389,3.389,0,0,1,15.883-.246,4.511,4.511,0,0,1,13.961.156ZM13.7-6.789a1.411,1.411,0,0,0-1.09.455,2.357,2.357,0,0,0-.535,1.3h3.141v-.181a1.681,1.681,0,0,0-.406-1.165A1.456,1.456,0,0,0,13.7-6.789Zm.2-5.211h2.461L14.2-9.578H12.367ZM22.234-1.664a1.481,1.481,0,0,0,1.016-.344,1.2,1.2,0,0,0,.406-.914h2.117A2.9,2.9,0,0,1,25.3-1.348,3.093,3.093,0,0,1,24.043-.238a3.949,3.949,0,0,1-1.77.395A3.67,3.67,0,0,1,19.414-1,4.56,4.56,0,0,1,18.367-4.18v-.148a4.508,4.508,0,0,1,1.039-3.117,3.627,3.627,0,0,1,2.852-1.164,3.555,3.555,0,0,1,2.543.9,3.2,3.2,0,0,1,.973,2.4H23.656a1.551,1.551,0,0,0-.406-1.072,1.354,1.354,0,0,0-1.031-.412,1.36,1.36,0,0,0-1.191.575,3.333,3.333,0,0,0-.4,1.866v.235a3.375,3.375,0,0,0,.4,1.878A1.377,1.377,0,0,0,22.234-1.664Zm6.906-6.789.07.977a2.951,2.951,0,0,1,2.43-1.133,2.453,2.453,0,0,1,2,.789,3.682,3.682,0,0,1,.672,2.359V0H32.055V-5.406a1.465,1.465,0,0,0-.312-1.043A1.4,1.4,0,0,0,30.7-6.773a1.553,1.553,0,0,0-1.43.813V0H27.016V-8.453ZM38.406,0H36.141V-8.453h2.266Zm-2.4-10.641a1.112,1.112,0,0,1,.34-.836,1.277,1.277,0,0,1,.926-.328,1.28,1.28,0,0,1,.922.328,1.105,1.105,0,0,1,.344.836,1.108,1.108,0,0,1-.348.844,1.283,1.283,0,0,1-.918.328,1.283,1.283,0,0,1-.918-.328A1.108,1.108,0,0,1,36.008-10.641Zm7.773,8.977A1.481,1.481,0,0,0,44.8-2.008a1.2,1.2,0,0,0,.406-.914H47.32a2.9,2.9,0,0,1-.469,1.574A3.093,3.093,0,0,1,45.59-.238a3.949,3.949,0,0,1-1.77.395A3.67,3.67,0,0,1,40.961-1,4.56,4.56,0,0,1,39.914-4.18v-.148a4.508,4.508,0,0,1,1.039-3.117A3.627,3.627,0,0,1,43.8-8.609a3.555,3.555,0,0,1,2.543.9,3.2,3.2,0,0,1,.973,2.4H45.2A1.551,1.551,0,0,0,44.8-6.377a1.354,1.354,0,0,0-1.031-.412,1.36,1.36,0,0,0-1.191.575,3.333,3.333,0,0,0-.4,1.866v.235a3.375,3.375,0,0,0,.4,1.878A1.377,1.377,0,0,0,43.781-1.664ZM53.508,0a2.507,2.507,0,0,1-.227-.758,2.732,2.732,0,0,1-2.133.914A3,3,0,0,1,49.09-.562a2.312,2.312,0,0,1-.816-1.812,2.389,2.389,0,0,1,1-2.062,4.915,4.915,0,0,1,2.879-.727h1.039v-.484a1.393,1.393,0,0,0-.3-.937,1.183,1.183,0,0,0-.949-.352,1.345,1.345,0,0,0-.895.273.929.929,0,0,0-.324.75H48.461a2.268,2.268,0,0,1,.453-1.359,3,3,0,0,1,1.281-.98,4.669,4.669,0,0,1,1.859-.355,3.689,3.689,0,0,1,2.48.785,2.747,2.747,0,0,1,.918,2.207v3.664a4.041,4.041,0,0,0,.336,1.82V0ZM51.641-1.57a1.945,1.945,0,0,0,.922-.223,1.462,1.462,0,0,0,.625-.6V-3.844h-.844q-1.7,0-1.8,1.172l-.008.133a.9.9,0,0,0,.3.7A1.153,1.153,0,0,0,51.641-1.57Zm10.125-.766a.727.727,0,0,0-.41-.652,4.659,4.659,0,0,0-1.316-.426q-3.016-.633-3.016-2.562a2.323,2.323,0,0,1,.934-1.879A3.766,3.766,0,0,1,60.4-8.609a4.053,4.053,0,0,1,2.574.758,2.388,2.388,0,0,1,.965,1.969H61.68a1.092,1.092,0,0,0-.312-.8A1.322,1.322,0,0,0,60.391-7a1.351,1.351,0,0,0-.883.258.814.814,0,0,0-.312.656.7.7,0,0,0,.355.605,3.657,3.657,0,0,0,1.2.4,9.8,9.8,0,0,1,1.422.379A2.336,2.336,0,0,1,63.961-2.43a2.2,2.2,0,0,1-.992,1.871,4.28,4.28,0,0,1-2.562.715A4.47,4.47,0,0,1,58.52-.223a3.166,3.166,0,0,1-1.293-1.039,2.414,2.414,0,0,1-.469-1.426H58.9a1.179,1.179,0,0,0,.445.922,1.766,1.766,0,0,0,1.109.32,1.635,1.635,0,0,0,.98-.246A.766.766,0,0,0,61.766-2.336Z" transform="translate(688 1085)" fill="#12263f"/>
    <path id="Path_883031" data-name="Path 883031" d="M7.438-2.344H3.328L2.547,0H.055L4.289-11.375H6.461L10.719,0H8.227Zm-3.477-1.9H6.8L5.375-8.5ZM16.609-.859A2.831,2.831,0,0,1,14.3.156a2.67,2.67,0,0,1-2.074-.781,3.335,3.335,0,0,1-.73-2.289V-8.453H13.75v5.467q0,1.322,1.2,1.322a1.63,1.63,0,0,0,1.578-.8V-8.453H18.8V0H16.672ZM23.2-10.531v2.078h1.445V-6.8H23.2v4.219a1.007,1.007,0,0,0,.18.672.9.9,0,0,0,.688.2,3.6,3.6,0,0,0,.664-.055V-.047a4.648,4.648,0,0,1-1.367.2,2.156,2.156,0,0,1-2.422-2.4V-6.8H19.711V-8.453h1.234v-2.078ZM25.32-4.3A5.013,5.013,0,0,1,25.8-6.547,3.546,3.546,0,0,1,27.2-8.07a4.069,4.069,0,0,1,2.113-.539,3.849,3.849,0,0,1,2.793,1.047,4.2,4.2,0,0,1,1.207,2.844l.016.578A4.418,4.418,0,0,1,32.242-1.02,3.775,3.775,0,0,1,29.328.156,3.793,3.793,0,0,1,26.41-1.016,4.5,4.5,0,0,1,25.32-4.2Zm2.258.16A3.16,3.16,0,0,0,28.031-2.3a1.5,1.5,0,0,0,1.3.638,1.5,1.5,0,0,0,1.281-.63,3.457,3.457,0,0,0,.461-2.015,3.128,3.128,0,0,0-.461-1.831,1.5,1.5,0,0,0-1.3-.649,1.474,1.474,0,0,0-1.281.646A3.516,3.516,0,0,0,27.578-4.144ZM38.609.156A4.15,4.15,0,0,1,35.582-.984a4.054,4.054,0,0,1-1.168-3.039v-.219a5.106,5.106,0,0,1,.492-2.277A3.612,3.612,0,0,1,36.3-8.066a3.914,3.914,0,0,1,2.059-.543,3.508,3.508,0,0,1,2.73,1.094,4.444,4.444,0,0,1,1,3.1v.922H36.7a2.1,2.1,0,0,0,.66,1.328,2,2,0,0,0,1.395.5A2.437,2.437,0,0,0,40.8-2.609l1.109,1.242A3.389,3.389,0,0,1,40.531-.246,4.511,4.511,0,0,1,38.609.156Zm-.258-6.945a1.411,1.411,0,0,0-1.09.455,2.357,2.357,0,0,0-.535,1.3h3.141v-.181a1.681,1.681,0,0,0-.406-1.165A1.456,1.456,0,0,0,38.352-6.789Zm9.594,4.453a.727.727,0,0,0-.41-.652,4.659,4.659,0,0,0-1.316-.426Q43.2-4.047,43.2-5.977a2.323,2.323,0,0,1,.934-1.879,3.766,3.766,0,0,1,2.441-.754,4.053,4.053,0,0,1,2.574.758,2.388,2.388,0,0,1,.965,1.969H47.859a1.092,1.092,0,0,0-.312-.8A1.322,1.322,0,0,0,46.57-7a1.351,1.351,0,0,0-.883.258.814.814,0,0,0-.312.656.7.7,0,0,0,.355.605,3.657,3.657,0,0,0,1.2.4,9.8,9.8,0,0,1,1.422.379A2.336,2.336,0,0,1,50.141-2.43a2.2,2.2,0,0,1-.992,1.871,4.28,4.28,0,0,1-2.562.715A4.47,4.47,0,0,1,44.7-.223a3.166,3.166,0,0,1-1.293-1.039,2.414,2.414,0,0,1-.469-1.426h2.141a1.179,1.179,0,0,0,.445.922,1.766,1.766,0,0,0,1.109.32,1.635,1.635,0,0,0,.98-.246A.766.766,0,0,0,47.945-2.336Zm6.352-8.2v2.078h1.445V-6.8H54.3v4.219a1.007,1.007,0,0,0,.18.672.9.9,0,0,0,.688.2,3.6,3.6,0,0,0,.664-.055V-.047a4.648,4.648,0,0,1-1.367.2,2.156,2.156,0,0,1-2.422-2.4V-6.8H50.8V-8.453h1.234v-2.078ZM59.383,0H57.117V-8.453h2.266Zm-2.4-10.641a1.112,1.112,0,0,1,.34-.836,1.277,1.277,0,0,1,.926-.328,1.28,1.28,0,0,1,.922.328,1.105,1.105,0,0,1,.344.836,1.108,1.108,0,0,1-.348.844,1.283,1.283,0,0,1-.918.328,1.283,1.283,0,0,1-.918-.328A1.108,1.108,0,0,1,56.984-10.641Zm6.375,2.188.07.945a2.971,2.971,0,0,1,2.43-1.1A2.255,2.255,0,0,1,68.1-7.32a2.9,2.9,0,0,1,2.539-1.289,2.521,2.521,0,0,1,2.047.8,3.681,3.681,0,0,1,.672,2.41V0H71.094V-5.391a1.61,1.61,0,0,0-.281-1.051,1.246,1.246,0,0,0-.992-.332,1.409,1.409,0,0,0-1.406.969L68.422,0H66.164V-5.383a1.59,1.59,0,0,0-.289-1.062,1.259,1.259,0,0,0-.984-.328,1.463,1.463,0,0,0-1.391.8V0H61.242V-8.453ZM79.992,0a2.507,2.507,0,0,1-.227-.758,2.732,2.732,0,0,1-2.133.914,3,3,0,0,1-2.059-.719,2.312,2.312,0,0,1-.816-1.812,2.389,2.389,0,0,1,1-2.062,4.915,4.915,0,0,1,2.879-.727h1.039v-.484a1.393,1.393,0,0,0-.3-.937,1.183,1.183,0,0,0-.949-.352,1.345,1.345,0,0,0-.895.273.929.929,0,0,0-.324.75H74.945A2.268,2.268,0,0,1,75.4-7.273a3,3,0,0,1,1.281-.98,4.669,4.669,0,0,1,1.859-.355,3.689,3.689,0,0,1,2.48.785,2.747,2.747,0,0,1,.918,2.207v3.664a4.041,4.041,0,0,0,.336,1.82V0ZM78.125-1.57a1.945,1.945,0,0,0,.922-.223,1.462,1.462,0,0,0,.625-.6V-3.844h-.844q-1.7,0-1.8,1.172l-.008.133a.9.9,0,0,0,.3.7A1.153,1.153,0,0,0,78.125-1.57Z" transform="translate(642 1007)" fill="#12263f"/>
    <path id="Path_883032" data-name="Path 883032" d="M5.227-4.164H3.359V0H1.016V-11.375H5.242a4.778,4.778,0,0,1,3.109.9A3.1,3.1,0,0,1,9.445-7.937,3.5,3.5,0,0,1,8.941-6,3.437,3.437,0,0,1,7.414-4.758L9.875-.109V0H7.359Zm-1.867-1.9H5.25a1.936,1.936,0,0,0,1.367-.449A1.606,1.606,0,0,0,7.1-7.75a1.719,1.719,0,0,0-.457-1.266,1.9,1.9,0,0,0-1.4-.461H3.359ZM14.969.156A4.15,4.15,0,0,1,11.941-.984a4.054,4.054,0,0,1-1.168-3.039v-.219a5.106,5.106,0,0,1,.492-2.277A3.612,3.612,0,0,1,12.66-8.066a3.914,3.914,0,0,1,2.059-.543,3.508,3.508,0,0,1,2.73,1.094,4.444,4.444,0,0,1,1,3.1v.922H13.063a2.1,2.1,0,0,0,.66,1.328,2,2,0,0,0,1.395.5,2.437,2.437,0,0,0,2.039-.945l1.109,1.242A3.389,3.389,0,0,1,16.891-.246,4.511,4.511,0,0,1,14.969.156Zm-.258-6.945a1.411,1.411,0,0,0-1.09.455,2.357,2.357,0,0,0-.535,1.3h3.141v-.181a1.681,1.681,0,0,0-.406-1.165A1.456,1.456,0,0,0,14.711-6.789Zm4.688,2.5a4.954,4.954,0,0,1,.926-3.133,3,3,0,0,1,2.5-1.187,2.631,2.631,0,0,1,2.164.953l.094-.8h2.047V-.281a3.613,3.613,0,0,1-.5,1.93A3.236,3.236,0,0,1,25.2,2.9a4.985,4.985,0,0,1-2.141.43,4.635,4.635,0,0,1-1.812-.371A3.217,3.217,0,0,1,19.914,2l1-1.375a2.645,2.645,0,0,0,2.047.945,1.936,1.936,0,0,0,1.4-.48,1.8,1.8,0,0,0,.5-1.363V-.727A2.612,2.612,0,0,1,22.8.156,2.992,2.992,0,0,1,20.34-1.035,4.953,4.953,0,0,1,19.4-4.2Zm2.258.168a3.085,3.085,0,0,0,.461,1.8,1.466,1.466,0,0,0,1.266.653,1.568,1.568,0,0,0,1.477-.775V-6A1.564,1.564,0,0,0,23.4-6.773a1.476,1.476,0,0,0-1.277.665A3.477,3.477,0,0,0,21.656-4.121ZM33.922-.859A2.831,2.831,0,0,1,31.609.156a2.67,2.67,0,0,1-2.074-.781,3.335,3.335,0,0,1-.73-2.289V-8.453h2.258v5.467q0,1.322,1.2,1.322a1.63,1.63,0,0,0,1.578-.8V-8.453h2.266V0H33.984ZM40.2,0H37.93V-12H40.2Zm6.758,0a2.507,2.507,0,0,1-.227-.758,2.732,2.732,0,0,1-2.133.914,3,3,0,0,1-2.059-.719,2.312,2.312,0,0,1-.816-1.812,2.389,2.389,0,0,1,1-2.062,4.915,4.915,0,0,1,2.879-.727h1.039v-.484a1.393,1.393,0,0,0-.3-.937,1.183,1.183,0,0,0-.949-.352,1.345,1.345,0,0,0-.895.273.929.929,0,0,0-.324.75H41.906a2.268,2.268,0,0,1,.453-1.359,3,3,0,0,1,1.281-.98A4.669,4.669,0,0,1,45.5-8.609a3.689,3.689,0,0,1,2.48.785A2.747,2.747,0,0,1,48.9-5.617v3.664a4.041,4.041,0,0,0,.336,1.82V0ZM45.086-1.57a1.945,1.945,0,0,0,.922-.223,1.462,1.462,0,0,0,.625-.6V-3.844h-.844q-1.7,0-1.8,1.172l-.008.133a.9.9,0,0,0,.3.7A1.153,1.153,0,0,0,45.086-1.57Zm9.063-.094a1.481,1.481,0,0,0,1.016-.344,1.2,1.2,0,0,0,.406-.914h2.117a2.9,2.9,0,0,1-.469,1.574A3.093,3.093,0,0,1,55.957-.238a3.949,3.949,0,0,1-1.77.395A3.67,3.67,0,0,1,51.328-1,4.56,4.56,0,0,1,50.281-4.18v-.148A4.508,4.508,0,0,1,51.32-7.445a3.627,3.627,0,0,1,2.852-1.164,3.555,3.555,0,0,1,2.543.9,3.2,3.2,0,0,1,.973,2.4H55.57a1.551,1.551,0,0,0-.406-1.072,1.354,1.354,0,0,0-1.031-.412,1.36,1.36,0,0,0-1.191.575,3.333,3.333,0,0,0-.4,1.866v.235a3.375,3.375,0,0,0,.4,1.878A1.377,1.377,0,0,0,54.148-1.664ZM61.359,0H59.094V-8.453h2.266Zm-2.4-10.641a1.112,1.112,0,0,1,.34-.836,1.277,1.277,0,0,1,.926-.328,1.28,1.28,0,0,1,.922.328,1.105,1.105,0,0,1,.344.836,1.108,1.108,0,0,1-.348.844,1.283,1.283,0,0,1-.918.328,1.283,1.283,0,0,1-.918-.328A1.108,1.108,0,0,1,58.961-10.641ZM62.867-4.3a5.013,5.013,0,0,1,.484-2.242A3.546,3.546,0,0,1,64.746-8.07a4.069,4.069,0,0,1,2.113-.539,3.849,3.849,0,0,1,2.793,1.047,4.2,4.2,0,0,1,1.207,2.844l.016.578A4.418,4.418,0,0,1,69.789-1.02,3.775,3.775,0,0,1,66.875.156a3.793,3.793,0,0,1-2.918-1.172A4.5,4.5,0,0,1,62.867-4.2Zm2.258.16A3.16,3.16,0,0,0,65.578-2.3a1.5,1.5,0,0,0,1.3.638,1.5,1.5,0,0,0,1.281-.63,3.457,3.457,0,0,0,.461-2.015,3.128,3.128,0,0,0-.461-1.831,1.5,1.5,0,0,0-1.3-.649,1.474,1.474,0,0,0-1.281.646A3.516,3.516,0,0,0,65.125-4.144ZM67.3-12h2.461L67.6-9.578H65.766Zm7.039,3.547.07.977a2.951,2.951,0,0,1,2.43-1.133,2.453,2.453,0,0,1,2,.789,3.682,3.682,0,0,1,.672,2.359V0H77.258V-5.406a1.465,1.465,0,0,0-.312-1.043,1.4,1.4,0,0,0-1.039-.324,1.553,1.553,0,0,0-1.43.813V0H72.219V-8.453ZM4.758,19.156A4.15,4.15,0,0,1,1.73,18.016,4.054,4.054,0,0,1,.563,14.977v-.219a5.106,5.106,0,0,1,.492-2.277,3.612,3.612,0,0,1,1.395-1.547,3.914,3.914,0,0,1,2.059-.543,3.508,3.508,0,0,1,2.73,1.094,4.444,4.444,0,0,1,1,3.1v.922H2.852a2.1,2.1,0,0,0,.66,1.328,2,2,0,0,0,1.395.5,2.437,2.437,0,0,0,2.039-.945l1.109,1.242A3.389,3.389,0,0,1,6.68,18.754,4.511,4.511,0,0,1,4.758,19.156ZM4.5,12.211a1.411,1.411,0,0,0-1.09.455,2.357,2.357,0,0,0-.535,1.3H6.016v-.181a1.681,1.681,0,0,0-.406-1.165A1.456,1.456,0,0,0,4.5,12.211Zm7.133-1.664.07.945a2.971,2.971,0,0,1,2.43-1.1,2.255,2.255,0,0,1,2.242,1.289,2.9,2.9,0,0,1,2.539-1.289,2.521,2.521,0,0,1,2.047.8,3.681,3.681,0,0,1,.672,2.41V19H19.367V13.609a1.61,1.61,0,0,0-.281-1.051,1.246,1.246,0,0,0-.992-.332,1.409,1.409,0,0,0-1.406.969L16.7,19H14.438V13.617a1.59,1.59,0,0,0-.289-1.062,1.259,1.259,0,0,0-.984-.328,1.463,1.463,0,0,0-1.391.8V19H9.516V10.547ZM23.016,14.7a5.013,5.013,0,0,1,.484-2.242,3.546,3.546,0,0,1,1.395-1.523,4.069,4.069,0,0,1,2.113-.539A3.849,3.849,0,0,1,29.8,11.438a4.2,4.2,0,0,1,1.207,2.844l.016.578a4.418,4.418,0,0,1-1.086,3.121,3.775,3.775,0,0,1-2.914,1.176,3.793,3.793,0,0,1-2.918-1.172,4.5,4.5,0,0,1-1.09-3.187Zm2.258.16a3.16,3.16,0,0,0,.453,1.843,1.628,1.628,0,0,0,2.578.008,3.457,3.457,0,0,0,.461-2.015A3.128,3.128,0,0,0,28.3,12.86a1.5,1.5,0,0,0-1.3-.649,1.474,1.474,0,0,0-1.281.646A3.516,3.516,0,0,0,25.273,14.856Zm10.656,2.48a1.481,1.481,0,0,0,1.016-.344,1.2,1.2,0,0,0,.406-.914h2.117A2.9,2.9,0,0,1,39,17.652a3.093,3.093,0,0,1-1.262,1.109,3.949,3.949,0,0,1-1.77.395A3.67,3.67,0,0,1,33.109,18a4.56,4.56,0,0,1-1.047-3.184v-.148A4.508,4.508,0,0,1,33.1,11.555a3.627,3.627,0,0,1,2.852-1.164,3.555,3.555,0,0,1,2.543.9,3.2,3.2,0,0,1,.973,2.4H37.352a1.551,1.551,0,0,0-.406-1.072,1.51,1.51,0,0,0-2.223.163,3.333,3.333,0,0,0-.4,1.866v.235a3.375,3.375,0,0,0,.4,1.878A1.377,1.377,0,0,0,35.93,17.336ZM43.141,19H40.875V10.547h2.266Zm-2.4-10.641a1.112,1.112,0,0,1,.34-.836,1.465,1.465,0,0,1,1.848,0,1.193,1.193,0,0,1,0,1.68,1.448,1.448,0,0,1-1.836,0A1.108,1.108,0,0,1,40.742,8.359ZM44.648,14.7a5.013,5.013,0,0,1,.484-2.242,3.546,3.546,0,0,1,1.395-1.523,4.069,4.069,0,0,1,2.113-.539,3.849,3.849,0,0,1,2.793,1.047,4.2,4.2,0,0,1,1.207,2.844l.016.578A4.418,4.418,0,0,1,51.57,17.98a4.209,4.209,0,0,1-5.832,0,4.5,4.5,0,0,1-1.09-3.187Zm2.258.16a3.16,3.16,0,0,0,.453,1.843,1.628,1.628,0,0,0,2.578.008,3.457,3.457,0,0,0,.461-2.015,3.128,3.128,0,0,0-.461-1.831,1.5,1.5,0,0,0-1.3-.649,1.474,1.474,0,0,0-1.281.646A3.516,3.516,0,0,0,46.906,14.856Zm9.219-4.309.07.977a2.951,2.951,0,0,1,2.43-1.133,2.453,2.453,0,0,1,2,.789,3.682,3.682,0,0,1,.672,2.359V19H59.039V13.594a1.465,1.465,0,0,0-.312-1.043,1.4,1.4,0,0,0-1.039-.324,1.553,1.553,0,0,0-1.43.813V19H54V10.547ZM67.906,19a2.507,2.507,0,0,1-.227-.758,2.732,2.732,0,0,1-2.133.914,3,3,0,0,1-2.059-.719,2.312,2.312,0,0,1-.816-1.812,2.389,2.389,0,0,1,1-2.062,4.915,4.915,0,0,1,2.879-.727h1.039v-.484a1.393,1.393,0,0,0-.3-.937,1.183,1.183,0,0,0-.949-.352,1.345,1.345,0,0,0-.895.273.929.929,0,0,0-.324.75H62.859a2.268,2.268,0,0,1,.453-1.359,3,3,0,0,1,1.281-.98,4.669,4.669,0,0,1,1.859-.355,3.689,3.689,0,0,1,2.48.785,2.747,2.747,0,0,1,.918,2.207v3.664a4.041,4.041,0,0,0,.336,1.82V19Zm-1.867-1.57a1.945,1.945,0,0,0,.922-.223,1.462,1.462,0,0,0,.625-.6V15.156h-.844q-1.7,0-1.8,1.172l-.008.133a.9.9,0,0,0,.3.7A1.153,1.153,0,0,0,66.039,17.43ZM73.969,19H71.7V7h2.266Z" transform="translate(794 1080)" fill="#12263f"/>
    <path id="Path_883033" data-name="Path 883033" d="M-41.574-3.789A4.025,4.025,0,0,1-42.93-.9,4.76,4.76,0,0,1-46.152.156a4.28,4.28,0,0,1-3.441-1.473,6.038,6.038,0,0,1-1.254-4.043v-.7a6.819,6.819,0,0,1,.578-2.891,4.332,4.332,0,0,1,1.652-1.918,4.629,4.629,0,0,1,2.5-.668,4.637,4.637,0,0,1,3.172,1.055,4.326,4.326,0,0,1,1.391,2.961H-43.9a2.376,2.376,0,0,0-.613-1.6,2.271,2.271,0,0,0-1.605-.5,1.991,1.991,0,0,0-1.754.84,4.707,4.707,0,0,0-.6,2.605V-5.3a5.038,5.038,0,0,0,.559,2.7,1.954,1.954,0,0,0,1.762.852,2.314,2.314,0,0,0,1.621-.5,2.241,2.241,0,0,0,.613-1.535Zm1.039-.516a5.013,5.013,0,0,1,.484-2.242A3.546,3.546,0,0,1-38.656-8.07a4.069,4.069,0,0,1,2.113-.539A3.849,3.849,0,0,1-33.75-7.562a4.2,4.2,0,0,1,1.207,2.844l.016.578A4.418,4.418,0,0,1-33.613-1.02,3.775,3.775,0,0,1-36.527.156a3.793,3.793,0,0,1-2.918-1.172A4.5,4.5,0,0,1-40.535-4.2Zm2.258.16A3.16,3.16,0,0,0-37.824-2.3a1.5,1.5,0,0,0,1.3.638,1.5,1.5,0,0,0,1.281-.63,3.457,3.457,0,0,0,.461-2.015,3.128,3.128,0,0,0-.461-1.831,1.5,1.5,0,0,0-1.3-.649,1.474,1.474,0,0,0-1.281.646A3.516,3.516,0,0,0-38.277-4.144Zm9.258-4.309.07.945a2.971,2.971,0,0,1,2.43-1.1A2.255,2.255,0,0,1-24.277-7.32a2.9,2.9,0,0,1,2.539-1.289,2.521,2.521,0,0,1,2.047.8A3.681,3.681,0,0,1-19.02-5.4V0h-2.266V-5.391a1.61,1.61,0,0,0-.281-1.051,1.246,1.246,0,0,0-.992-.332,1.409,1.409,0,0,0-1.406.969l.008,5.8h-2.258V-5.383A1.59,1.59,0,0,0-26.5-6.445a1.259,1.259,0,0,0-.984-.328,1.463,1.463,0,0,0-1.391.8V0h-2.258V-8.453Zm16.8,7.594A2.831,2.831,0,0,1-14.535.156a2.67,2.67,0,0,1-2.074-.781,3.335,3.335,0,0,1-.73-2.289V-8.453h2.258v5.467q0,1.322,1.2,1.322a1.63,1.63,0,0,0,1.578-.8V-8.453h2.266V0H-12.16Zm5.969-7.594.07.977a2.951,2.951,0,0,1,2.43-1.133,2.453,2.453,0,0,1,2,.789,3.682,3.682,0,0,1,.672,2.359V0H-3.34V-5.406a1.465,1.465,0,0,0-.312-1.043,1.4,1.4,0,0,0-1.039-.324,1.553,1.553,0,0,0-1.43.813V0H-8.379V-8.453ZM3.012,0H.746V-8.453H3.012ZM.613-10.641a1.112,1.112,0,0,1,.34-.836,1.277,1.277,0,0,1,.926-.328,1.28,1.28,0,0,1,.922.328,1.105,1.105,0,0,1,.344.836A1.108,1.108,0,0,1,2.8-9.8a1.283,1.283,0,0,1-.918.328A1.283,1.283,0,0,1,.961-9.8,1.108,1.108,0,0,1,.613-10.641ZM8.387-1.664A1.481,1.481,0,0,0,9.4-2.008a1.2,1.2,0,0,0,.406-.914h2.117a2.9,2.9,0,0,1-.469,1.574A3.093,3.093,0,0,1,10.2-.238a3.949,3.949,0,0,1-1.77.395A3.67,3.67,0,0,1,5.566-1,4.56,4.56,0,0,1,4.52-4.18v-.148A4.508,4.508,0,0,1,5.559-7.445,3.627,3.627,0,0,1,8.41-8.609a3.555,3.555,0,0,1,2.543.9,3.2,3.2,0,0,1,.973,2.4H9.809A1.551,1.551,0,0,0,9.4-6.377a1.354,1.354,0,0,0-1.031-.412,1.36,1.36,0,0,0-1.191.575,3.333,3.333,0,0,0-.4,1.866v.235a3.375,3.375,0,0,0,.4,1.878A1.377,1.377,0,0,0,8.387-1.664ZM18.113,0a2.507,2.507,0,0,1-.227-.758,2.732,2.732,0,0,1-2.133.914A3,3,0,0,1,13.7-.562a2.312,2.312,0,0,1-.816-1.812,2.389,2.389,0,0,1,1-2.062,4.915,4.915,0,0,1,2.879-.727h1.039v-.484a1.393,1.393,0,0,0-.3-.937,1.183,1.183,0,0,0-.949-.352,1.345,1.345,0,0,0-.895.273.929.929,0,0,0-.324.75H13.066a2.268,2.268,0,0,1,.453-1.359,3,3,0,0,1,1.281-.98,4.669,4.669,0,0,1,1.859-.355,3.689,3.689,0,0,1,2.48.785,2.747,2.747,0,0,1,.918,2.207v3.664a4.041,4.041,0,0,0,.336,1.82V0ZM16.246-1.57a1.945,1.945,0,0,0,.922-.223,1.462,1.462,0,0,0,.625-.6V-3.844h-.844q-1.7,0-1.8,1.172l-.008.133a.9.9,0,0,0,.3.7A1.153,1.153,0,0,0,16.246-1.57Zm9.063-.094a1.481,1.481,0,0,0,1.016-.344,1.2,1.2,0,0,0,.406-.914h2.117a2.9,2.9,0,0,1-.469,1.574A3.093,3.093,0,0,1,27.117-.238a3.949,3.949,0,0,1-1.77.395A3.67,3.67,0,0,1,22.488-1,4.56,4.56,0,0,1,21.441-4.18v-.148A4.508,4.508,0,0,1,22.48-7.445a3.627,3.627,0,0,1,2.852-1.164,3.555,3.555,0,0,1,2.543.9,3.2,3.2,0,0,1,.973,2.4H26.73a1.551,1.551,0,0,0-.406-1.072,1.354,1.354,0,0,0-1.031-.412,1.36,1.36,0,0,0-1.191.575,3.333,3.333,0,0,0-.4,1.866v.235a3.375,3.375,0,0,0,.4,1.878A1.377,1.377,0,0,0,25.309-1.664ZM32.52,0H30.254V-8.453H32.52Zm-2.4-10.641a1.112,1.112,0,0,1,.34-.836,1.277,1.277,0,0,1,.926-.328,1.28,1.28,0,0,1,.922.328,1.105,1.105,0,0,1,.344.836A1.108,1.108,0,0,1,32.3-9.8a1.283,1.283,0,0,1-.918.328,1.283,1.283,0,0,1-.918-.328A1.108,1.108,0,0,1,30.121-10.641ZM34.027-4.3a5.013,5.013,0,0,1,.484-2.242A3.546,3.546,0,0,1,35.906-8.07a4.069,4.069,0,0,1,2.113-.539,3.849,3.849,0,0,1,2.793,1.047A4.2,4.2,0,0,1,42.02-4.719l.016.578A4.418,4.418,0,0,1,40.949-1.02,3.775,3.775,0,0,1,38.035.156a3.793,3.793,0,0,1-2.918-1.172A4.5,4.5,0,0,1,34.027-4.2Zm2.258.16A3.16,3.16,0,0,0,36.738-2.3a1.5,1.5,0,0,0,1.3.638,1.5,1.5,0,0,0,1.281-.63,3.457,3.457,0,0,0,.461-2.015,3.128,3.128,0,0,0-.461-1.831,1.5,1.5,0,0,0-1.3-.649,1.474,1.474,0,0,0-1.281.646A3.516,3.516,0,0,0,36.285-4.144ZM38.465-12h2.461L38.762-9.578H36.926ZM45.5-8.453l.07.977A2.951,2.951,0,0,1,48-8.609a2.453,2.453,0,0,1,2,.789,3.682,3.682,0,0,1,.672,2.359V0H48.418V-5.406a1.465,1.465,0,0,0-.312-1.043,1.4,1.4,0,0,0-1.039-.324,1.553,1.553,0,0,0-1.43.813V0H43.379V-8.453ZM-23.172,19a2.507,2.507,0,0,1-.227-.758,2.732,2.732,0,0,1-2.133.914,3,3,0,0,1-2.059-.719,2.312,2.312,0,0,1-.816-1.812,2.389,2.389,0,0,1,1-2.062,4.915,4.915,0,0,1,2.879-.727h1.039v-.484a1.393,1.393,0,0,0-.3-.937,1.183,1.183,0,0,0-.949-.352,1.345,1.345,0,0,0-.895.273.929.929,0,0,0-.324.75h-2.258a2.268,2.268,0,0,1,.453-1.359,3,3,0,0,1,1.281-.98,4.669,4.669,0,0,1,1.859-.355,3.689,3.689,0,0,1,2.48.785,2.747,2.747,0,0,1,.918,2.207v3.664a4.041,4.041,0,0,0,.336,1.82V19Zm-1.867-1.57a1.945,1.945,0,0,0,.922-.223,1.462,1.462,0,0,0,.625-.6V15.156h-.844q-1.7,0-1.8,1.172l-.008.133a.9.9,0,0,0,.3.7A1.153,1.153,0,0,0-25.039,17.43Zm10.125-.766a.727.727,0,0,0-.41-.652,4.659,4.659,0,0,0-1.316-.426q-3.016-.633-3.016-2.562a2.323,2.323,0,0,1,.934-1.879,3.766,3.766,0,0,1,2.441-.754,4.053,4.053,0,0,1,2.574.758,2.388,2.388,0,0,1,.965,1.969H-15a1.092,1.092,0,0,0-.312-.8A1.322,1.322,0,0,0-16.289,12a1.351,1.351,0,0,0-.883.258.814.814,0,0,0-.312.656.7.7,0,0,0,.355.605,3.657,3.657,0,0,0,1.2.4,9.8,9.8,0,0,1,1.422.379,2.336,2.336,0,0,1,1.789,2.273,2.2,2.2,0,0,1-.992,1.871,4.28,4.28,0,0,1-2.562.715,4.47,4.47,0,0,1-1.887-.379,3.166,3.166,0,0,1-1.293-1.039,2.414,2.414,0,0,1-.469-1.426h2.141a1.179,1.179,0,0,0,.445.922,1.766,1.766,0,0,0,1.109.32,1.635,1.635,0,0,0,.98-.246A.766.766,0,0,0-14.914,16.664Zm7.539,2.492A4.15,4.15,0,0,1-10.4,18.016a4.054,4.054,0,0,1-1.168-3.039v-.219a5.106,5.106,0,0,1,.492-2.277,3.612,3.612,0,0,1,1.395-1.547,3.914,3.914,0,0,1,2.059-.543,3.508,3.508,0,0,1,2.73,1.094,4.444,4.444,0,0,1,1,3.1v.922H-9.281a2.1,2.1,0,0,0,.66,1.328,2,2,0,0,0,1.395.5,2.437,2.437,0,0,0,2.039-.945l1.109,1.242a3.389,3.389,0,0,1-1.375,1.121A4.511,4.511,0,0,1-7.375,19.156Zm-.258-6.945a1.411,1.411,0,0,0-1.09.455,2.357,2.357,0,0,0-.535,1.3h3.141v-.181a1.681,1.681,0,0,0-.406-1.165A1.456,1.456,0,0,0-7.633,12.211Zm9.766.453A6.134,6.134,0,0,0,1.32,12.6a1.654,1.654,0,0,0-1.68.867V19H-2.617V10.547H-.484l.063,1.008a2.092,2.092,0,0,1,1.883-1.164,2.366,2.366,0,0,1,.7.1Zm4.18-4.2v2.078H7.758V12.2H6.313v4.219a1.007,1.007,0,0,0,.18.672.9.9,0,0,0,.688.2,3.6,3.6,0,0,0,.664-.055v1.711a4.648,4.648,0,0,1-1.367.2,2.156,2.156,0,0,1-2.422-2.4V12.2H2.82V10.547H4.055V8.469ZM11.4,19H9.133V10.547H11.4ZM9,8.359a1.112,1.112,0,0,1,.34-.836,1.277,1.277,0,0,1,.926-.328,1.28,1.28,0,0,1,.922.328,1.193,1.193,0,0,1,0,1.68,1.283,1.283,0,0,1-.918.328A1.283,1.283,0,0,1,9.348,9.2,1.108,1.108,0,0,1,9,8.359Zm7.422,7.883,1.57-5.7h2.359L17.5,19H15.344l-2.852-8.453h2.359ZM26.125,19a2.507,2.507,0,0,1-.227-.758,2.732,2.732,0,0,1-2.133.914,3,3,0,0,1-2.059-.719,2.312,2.312,0,0,1-.816-1.812,2.389,2.389,0,0,1,1-2.062,4.915,4.915,0,0,1,2.879-.727H25.8v-.484a1.393,1.393,0,0,0-.3-.937,1.183,1.183,0,0,0-.949-.352,1.345,1.345,0,0,0-.895.273.929.929,0,0,0-.324.75H21.078a2.268,2.268,0,0,1,.453-1.359,3,3,0,0,1,1.281-.98,4.669,4.669,0,0,1,1.859-.355,3.689,3.689,0,0,1,2.48.785,2.747,2.747,0,0,1,.918,2.207v3.664a4.041,4.041,0,0,0,.336,1.82V19Zm-1.867-1.57a1.945,1.945,0,0,0,.922-.223,1.462,1.462,0,0,0,.625-.6V15.156h-.844q-1.7,0-1.8,1.172l-.008.133a.9.9,0,0,0,.3.7A1.153,1.153,0,0,0,24.258,17.43Z" transform="translate(903 1007)" fill="#12263f"/>
    <path id="Path_883034" data-name="Path 883034" d="M3327,11743.669a13,13,0,0,1-13-13v-2.623a13,13,0,0,1,13-13h95.241l10.092-15.043,9.784,15.043H3537a13,13,0,0,1,13,13v2.623a13,13,0,0,1-13,13Z" transform="translate(-2646.501 -10398.668)" fill="#3d5756"/>
    <path id="Path_883035" data-name="Path 883035" d="M10.775-10.661H6.855V0H4.219V-10.661H.352V-12.8H10.775Zm6.108,3.533a6.9,6.9,0,0,0-.914-.07,1.86,1.86,0,0,0-1.89.976V0H11.54V-9.51h2.4l.07,1.134a2.354,2.354,0,0,1,2.118-1.31,2.662,2.662,0,0,1,.791.114ZM23.353,0A2.821,2.821,0,0,1,23.1-.853,3.073,3.073,0,0,1,20.7.176a3.376,3.376,0,0,1-2.316-.809,2.6,2.6,0,0,1-.918-2.039,2.687,2.687,0,0,1,1.121-2.32,5.529,5.529,0,0,1,3.239-.817h1.169v-.545a1.567,1.567,0,0,0-.338-1.055,1.331,1.331,0,0,0-1.068-.4A1.513,1.513,0,0,0,20.58-7.5a1.045,1.045,0,0,0-.365.844h-2.54a2.551,2.551,0,0,1,.51-1.529,3.37,3.37,0,0,1,1.441-1.1,5.253,5.253,0,0,1,2.092-.4,4.15,4.15,0,0,1,2.791.883,3.09,3.09,0,0,1,1.033,2.483V-2.2a4.546,4.546,0,0,0,.378,2.048V0Zm-2.1-1.767a2.188,2.188,0,0,0,1.037-.25,1.645,1.645,0,0,0,.7-.672V-4.324h-.949q-1.907,0-2.03,1.318L20-2.856a1.017,1.017,0,0,0,.334.782A1.3,1.3,0,0,0,21.252-1.767Zm14.81-2.9A5.758,5.758,0,0,1,35.086-1.1,3.231,3.231,0,0,1,32.361.176a2.969,2.969,0,0,1-2.47-1.187L29.777,0H27.492V-13.5h2.54v4.843a2.893,2.893,0,0,1,2.312-1.028,3.258,3.258,0,0,1,2.729,1.279,5.767,5.767,0,0,1,.989,3.6Zm-2.54-.185a3.783,3.783,0,0,0-.457-2.1A1.545,1.545,0,0,0,31.7-7.62a1.676,1.676,0,0,0-1.67.993v3.753a1.7,1.7,0,0,0,1.688,1,1.568,1.568,0,0,0,1.617-1.213A6.257,6.257,0,0,0,33.521-4.852ZM43.137,0a2.821,2.821,0,0,1-.255-.853,3.073,3.073,0,0,1-2.4,1.028,3.376,3.376,0,0,1-2.316-.809,2.6,2.6,0,0,1-.918-2.039,2.687,2.687,0,0,1,1.121-2.32,5.529,5.529,0,0,1,3.239-.817h1.169v-.545a1.567,1.567,0,0,0-.338-1.055,1.331,1.331,0,0,0-1.068-.4,1.513,1.513,0,0,0-1.006.308A1.045,1.045,0,0,0,40-6.653h-2.54a2.551,2.551,0,0,1,.51-1.529,3.37,3.37,0,0,1,1.441-1.1,5.253,5.253,0,0,1,2.092-.4,4.15,4.15,0,0,1,2.791.883,3.09,3.09,0,0,1,1.033,2.483V-2.2A4.546,4.546,0,0,0,45.7-.149V0Zm-2.1-1.767a2.188,2.188,0,0,0,1.037-.25,1.645,1.645,0,0,0,.7-.672V-4.324h-.949q-1.907,0-2.03,1.318l-.009.149a1.017,1.017,0,0,0,.334.782A1.3,1.3,0,0,0,41.036-1.767Zm8.93-7.743V.519a3.4,3.4,0,0,1-.835,2.448,3.174,3.174,0,0,1-2.408.875,5.165,5.165,0,0,1-1.257-.149V1.679a4.768,4.768,0,0,0,.8.079q1.151,0,1.151-1.222V-9.51Zm-2.751-2.461a1.251,1.251,0,0,1,.382-.94,1.436,1.436,0,0,1,1.042-.369,1.436,1.436,0,0,1,1.042.369,1.251,1.251,0,0,1,.382.94,1.247,1.247,0,0,1-.391.949,1.443,1.443,0,0,1-1.033.369,1.443,1.443,0,0,1-1.033-.369A1.247,1.247,0,0,1,47.215-11.971Zm4.342,7.128A5.64,5.64,0,0,1,52.1-7.365,3.989,3.989,0,0,1,53.67-9.079a4.577,4.577,0,0,1,2.377-.606A4.33,4.33,0,0,1,59.19-8.508a4.727,4.727,0,0,1,1.358,3.2l.018.65a4.97,4.97,0,0,1-1.222,3.511A4.247,4.247,0,0,1,56.065.176a4.268,4.268,0,0,1-3.283-1.318,5.058,5.058,0,0,1-1.226-3.586Zm2.54.18a3.555,3.555,0,0,0,.51,2.073,1.682,1.682,0,0,0,1.459.717,1.686,1.686,0,0,0,1.441-.709,3.89,3.89,0,0,0,.519-2.267,3.519,3.519,0,0,0-.519-2.06,1.686,1.686,0,0,0-1.459-.731,1.658,1.658,0,0,0-1.441.726A3.955,3.955,0,0,0,54.1-4.662ZM70.989.176a4.668,4.668,0,0,1-3.406-1.283A4.561,4.561,0,0,1,66.27-4.526v-.246a5.745,5.745,0,0,1,.554-2.562,4.064,4.064,0,0,1,1.569-1.74,4.4,4.4,0,0,1,2.316-.611,3.947,3.947,0,0,1,3.072,1.23A5,5,0,0,1,74.9-4.966v1.037H68.845a2.36,2.36,0,0,0,.743,1.494,2.245,2.245,0,0,0,1.569.563A2.742,2.742,0,0,0,73.45-2.936l1.248,1.4A3.813,3.813,0,0,1,73.151-.277,5.075,5.075,0,0,1,70.989.176ZM70.7-7.638a1.587,1.587,0,0,0-1.226.512,2.651,2.651,0,0,0-.6,1.466H72.4v-.2a1.891,1.891,0,0,0-.457-1.311A1.638,1.638,0,0,0,70.7-7.638ZM78.68-9.51l.079,1.1a3.32,3.32,0,0,1,2.733-1.274,2.759,2.759,0,0,1,2.25.888A4.142,4.142,0,0,1,84.5-6.144V0h-2.54V-6.082a1.648,1.648,0,0,0-.352-1.173,1.574,1.574,0,0,0-1.169-.365,1.747,1.747,0,0,0-1.608.914V0h-2.54V-9.51ZM95.282.176a4.668,4.668,0,0,1-3.406-1.283,4.561,4.561,0,0,1-1.314-3.419v-.246a5.745,5.745,0,0,1,.554-2.562,4.064,4.064,0,0,1,1.569-1.74A4.4,4.4,0,0,1,95-9.686a3.947,3.947,0,0,1,3.072,1.23,5,5,0,0,1,1.121,3.489v1.037H93.138a2.36,2.36,0,0,0,.743,1.494,2.245,2.245,0,0,0,1.569.563,2.742,2.742,0,0,0,2.294-1.063l1.248,1.4A3.813,3.813,0,0,1,97.444-.277,5.075,5.075,0,0,1,95.282.176Zm-.29-7.813a1.587,1.587,0,0,0-1.226.512,2.651,2.651,0,0,0-.6,1.466H96.7v-.2a1.891,1.891,0,0,0-.457-1.311A1.638,1.638,0,0,0,94.992-7.638Zm5.247,2.795a5.684,5.684,0,0,1,1-3.542,3.261,3.261,0,0,1,2.738-1.3,2.92,2.92,0,0,1,2.435,1.169l.167-.993h2.232V3.656H106.26V-.817a2.928,2.928,0,0,1-2.3.993,3.237,3.237,0,0,1-2.707-1.318A5.963,5.963,0,0,1,100.239-4.843Zm2.54.18a3.729,3.729,0,0,0,.479,2.077,1.533,1.533,0,0,0,1.349.713,1.708,1.708,0,0,0,1.652-.933V-6.74a1.694,1.694,0,0,0-1.635-.9,1.552,1.552,0,0,0-1.362.713A4.118,4.118,0,0,0,102.779-4.662Zm13.72,3.7A3.185,3.185,0,0,1,113.9.176,3,3,0,0,1,111.564-.7a3.752,3.752,0,0,1-.822-2.575V-9.51h2.54v6.151q0,1.487,1.354,1.487a1.834,1.834,0,0,0,1.775-.9V-9.51h2.549V0h-2.391ZM123.557,0h-2.549V-9.51h2.549Zm-2.7-11.971a1.251,1.251,0,0,1,.382-.94,1.436,1.436,0,0,1,1.042-.369,1.44,1.44,0,0,1,1.037.369,1.244,1.244,0,0,1,.387.94,1.247,1.247,0,0,1-.391.949,1.443,1.443,0,0,1-1.033.369,1.443,1.443,0,0,1-1.033-.369A1.247,1.247,0,0,1,120.858-11.971Zm13.351,7.3a5.7,5.7,0,0,1-1,3.52A3.2,3.2,0,0,1,130.518.176a2.963,2.963,0,0,1-2.329-1V3.656h-2.54V-9.51H128l.088.932A2.985,2.985,0,0,1,130.5-9.686a3.22,3.22,0,0,1,2.733,1.3,5.858,5.858,0,0,1,.976,3.586Zm-2.54-.185A3.743,3.743,0,0,0,131.2-6.9a1.532,1.532,0,0,0-1.367-.721,1.663,1.663,0,0,0-1.644.914v3.894a1.692,1.692,0,0,0,1.661.94Q131.669-1.872,131.669-4.852Zm3.718.009a5.64,5.64,0,0,1,.545-2.522A3.989,3.989,0,0,1,137.5-9.079a4.577,4.577,0,0,1,2.377-.606,4.33,4.33,0,0,1,3.142,1.178,4.727,4.727,0,0,1,1.358,3.2l.018.65a4.97,4.97,0,0,1-1.222,3.511A4.247,4.247,0,0,1,139.9.176a4.268,4.268,0,0,1-3.283-1.318,5.058,5.058,0,0,1-1.226-3.586Zm2.54.18a3.555,3.555,0,0,0,.51,2.073,1.682,1.682,0,0,0,1.459.717,1.686,1.686,0,0,0,1.441-.709,3.89,3.89,0,0,0,.519-2.267,3.519,3.519,0,0,0-.519-2.06,1.686,1.686,0,0,0-1.459-.731,1.658,1.658,0,0,0-1.441.726A3.955,3.955,0,0,0,137.927-4.662Z" transform="translate(711 1338)" fill="#fff"/>
  </g>
</svg>
