<svg xmlns="http://www.w3.org/2000/svg" xmlns:xlink="http://www.w3.org/1999/xlink" width="62.504" height="62.504" viewBox="0 0 62.504 62.504">
  <defs>
    <clipPath id="clip-path">
      <rect id="Rectangle_405182" data-name="Rectangle 405182" width="30" height="30" fill="#fff"/>
    </clipPath>
  </defs>
  <g id="Group_1101900" data-name="Group 1101900" transform="translate(-279.82 -1198.717)">
    <g id="Group_1072053" data-name="Group 1072053" transform="translate(279.82 1198.717)">
      <circle id="Ellipse_4742" data-name="Ellipse 4742" cx="31.252" cy="31.252" r="31.252" transform="translate(0)" fill="#7d420e"/>
    </g>
    <g id="Group_1102751" data-name="Group 1102751" transform="translate(295.82 1214.717)">
      <g id="Group_1102750" data-name="Group 1102750" transform="translate(0 0)" clip-path="url(#clip-path)">
        <path id="Path_882976" data-name="Path 882976" d="M17.945,13.671c-1.092-.363-2.169-.722-3.247-1.077a2.318,2.318,0,0,0-1.487-.069,1.39,1.39,0,0,0-1.048,1.4,3.18,3.18,0,0,0,.2,1.239c.288.862.573,1.724.864,2.587.036.106.034.152-.092.2a9.757,9.757,0,0,1-2.462.632,8.8,8.8,0,0,1-1.76.047,9.561,9.561,0,0,1-5.291-2.014A9.192,9.192,0,0,1,.21,11.146a8.043,8.043,0,0,1-.185-2.39,9.334,9.334,0,0,1,2.224-5.4,9.463,9.463,0,0,1,5.3-3.13A8.931,8.931,0,0,1,10.858.1a9.588,9.588,0,0,1,5.864,3.129,9.143,9.143,0,0,1,2.159,4.34A8.517,8.517,0,0,1,19.05,9.8a9.084,9.084,0,0,1-1.042,3.767c-.019.035-.042.068-.064.1" transform="translate(0 0)" fill="#fff"/>
        <path id="Path_882977" data-name="Path 882977" d="M20.851,25.854c-.3.315-.592.62-.887.918-.5.5-.993,1-1.5,1.495a2.251,2.251,0,0,1-.386.3.738.738,0,0,1-1.132-.248,3.954,3.954,0,0,1-.342-.786q-1.268-3.72-2.522-7.445-1.045-3.108-2.079-6.22a2.059,2.059,0,0,1-.139-.909c.048-.408.17-.615.744-.644a1.922,1.922,0,0,1,.682.112c1.954.644,3.9,1.3,5.853,1.952l6.784,2.261c.6.2,1.208.4,1.8.615a1.97,1.97,0,0,1,.55.315.59.59,0,0,1,.175.774,2.485,2.485,0,0,1-.432.612c-.752.758-1.518,1.5-2.28,2.247-.019.018-.035.039-.076.084.1.086.2.165.286.254q1.212,1.185,2.418,2.375a2.892,2.892,0,0,1,.356.441.591.591,0,0,1,.009.684,1.957,1.957,0,0,1-.283.377q-1.674,1.643-3.36,3.274a1.55,1.55,0,0,1-.269.206.716.716,0,0,1-.844-.012,4.077,4.077,0,0,1-.486-.41c-.837-.826-1.668-1.655-2.5-2.484-.041-.041-.085-.08-.144-.135" transform="translate(1.156 0.974)" fill="#fff"/>
      </g>
    </g>
  </g>
</svg>
