<svg xmlns="http://www.w3.org/2000/svg" xmlns:xlink="http://www.w3.org/1999/xlink" width="1079" height="510" viewBox="0 0 1079 510">
  <defs>
    <clipPath id="clip-path">
      <rect id="Rectangle_403272" data-name="Rectangle 403272" width="288.998" height="210.14" fill="none"/>
    </clipPath>
    <clipPath id="clip-path-2">
      <rect id="Rectangle_403273" data-name="Rectangle 403273" width="288.998" height="334" fill="none"/>
    </clipPath>
  </defs>
  <g id="Group_1102792" data-name="Group 1102792" transform="translate(-265 -5119)">
    <path id="Path_882986" data-name="Path 882986" d="M0,0H1079V510H0Z" transform="translate(265 5119)" fill="#fff8e6"/>
    <path id="Path_608976" data-name="Path 608976" d="M16,0h998c8.837,0,16,7.536,16,16.831V469.169c0,9.3-7.163,16.831-16,16.831H16c-8.837,0-16-7.536-16-16.831V16.831C0,7.536,7.163,0,16,0Z" transform="translate(285 5132)" fill="#fff8e6"/>
    <g id="Group_1101893" data-name="Group 1101893" transform="translate(1014.184 5407.86)">
      <g id="Group_1101892" data-name="Group 1101892" clip-path="url(#clip-path)">
        <path id="Path_880707" data-name="Path 880707" d="M63.362,249.677S49.3,243.885,41.849,238.093,13.718,193.413,12.89,187.621s6.62-4.964,14.894-.827S52.606,226.51,55.915,226.51s33.1,17.376,33.1,17.376Z" transform="translate(-3.688 -169.694)" fill="#e8a68e"/>
        <path id="Path_880708" data-name="Path 880708" d="M88.781,246.322s-14.066-5.792-21.512-11.584-28.132-44.681-28.96-50.473,6.62-4.964,14.893-.827,24.823,39.716,28.132,39.716,33.1,17.376,33.1,17.376Z" transform="translate(-10.996 -168.729)" fill="#e8a68e"/>
        <path id="Path_880709" data-name="Path 880709" d="M117.785,262.96s-13.375-7.245-20.169-13.792-23.254-47.4-23.465-53.25,7.107-4.237,14.9.751,20.487,42.116,23.778,42.466S143.9,259.911,143.9,259.911Z" transform="translate(-21.317 -172.195)" fill="#e8a68e"/>
        <path id="Path_880710" data-name="Path 880710" d="M141.13,269.888s-10.782-6.482-16.152-12.142-17.456-40.025-17.413-44.863,6.028-3.238,12.28,1.172,15.366,35.555,18.072,35.965,24.9,18.315,24.9,18.315Z" transform="translate(-30.925 -177.295)" fill="#e8a68e"/>
        <line id="Line_3221" data-name="Line 3221" x2="29.787" y2="49.92" transform="translate(28.049 20.134)" fill="none" stroke="#3b365b" stroke-miterlimit="10" stroke-width="1"/>
        <line id="Line_3222" data-name="Line 3222" x2="24.27" y2="42.75" transform="translate(53.699 28.408)" fill="none" stroke="#3b365b" stroke-miterlimit="10" stroke-width="1"/>
        <line id="Line_3223" data-name="Line 3223" x2="17.376" y2="36.682" transform="translate(76.591 36.958)" fill="none" stroke="#3b365b" stroke-miterlimit="10" stroke-width="1"/>
        <path id="Path_880711" data-name="Path 880711" d="M74.539,289.511s-25.65-17.376-38.061-23.995c-9.1-6.62-14.894-30.615-20.686-38.889-4.137-8.274,7.447-8.274,16.548-5.792S50.545,244,53.026,245.658s51.3,2.482,71.986,14.066c17.376,9.929,14.893,26.477,14.066,33.924s-1.655,11.584-1.655,11.584l4.965,91.843H66.265Z" transform="translate(-4.292 -180.017)" fill="#ffba9c"/>
        <path id="Path_880712" data-name="Path 880712" d="M98.148,317.806l13.79,4.689s-9.929,4.413-14.893,2.207Z" transform="translate(-27.901 -208.312)" fill="#3b365b"/>
        <path id="Path_880713" data-name="Path 880713" d="M148.141,329.806s13.239,3.861,25.374,1.655" transform="translate(-42.591 -211.762)" fill="none" stroke="#3b365b" stroke-miterlimit="10" stroke-width="1"/>
        <path id="Path_880714" data-name="Path 880714" d="M65.951,256.258a11.429,11.429,0,0,0-6.068,7.723" transform="translate(-17.217 -190.616)" fill="none" stroke="#3b365b" stroke-miterlimit="10" stroke-width="1"/>
        <path id="Path_880715" data-name="Path 880715" d="M14.98,226.216s4.781-1.287,7.171,1.839a33.509,33.509,0,0,1,4.046,7.906l-5.7,2.207" transform="translate(-4.307 -181.904)" fill="none" stroke="#3b365b" stroke-miterlimit="10" stroke-width="1"/>
        <path id="Path_880716" data-name="Path 880716" d="M311.509,249.677s14.066-5.792,21.513-11.584,28.132-44.681,28.959-50.473-6.62-4.964-14.893-.827-24.823,39.716-28.132,39.716-33.1,17.376-33.1,17.376Z" transform="translate(-82.185 -169.694)" fill="#e8a68e"/>
        <path id="Path_880717" data-name="Path 880717" d="M286.09,246.322s14.066-5.792,21.512-11.584,28.132-44.681,28.96-50.473-6.62-4.964-14.894-.827-24.822,39.716-28.132,39.716-33.1,17.376-33.1,17.376Z" transform="translate(-74.877 -168.729)" fill="#e8a68e"/>
        <path id="Path_880718" data-name="Path 880718" d="M259.681,262.96s13.375-7.245,20.169-13.792,23.254-47.4,23.465-53.25-7.107-4.237-14.9.751-20.487,42.116-23.779,42.466-31.075,20.775-31.075,20.775Z" transform="translate(-67.15 -172.195)" fill="#e8a68e"/>
        <path id="Path_880719" data-name="Path 880719" d="M242.186,269.888s10.782-6.482,16.152-12.142,17.456-40.025,17.413-44.863-6.028-3.238-12.28,1.172S248.106,249.61,245.4,250.021s-24.9,18.315-24.9,18.315Z" transform="translate(-63.393 -177.295)" fill="#e8a68e"/>
        <line id="Line_3224" data-name="Line 3224" x1="29.787" y2="49.92" transform="translate(231.163 20.134)" fill="none" stroke="#3b365b" stroke-miterlimit="10" stroke-width="1"/>
        <line id="Line_3225" data-name="Line 3225" x1="24.271" y2="42.75" transform="translate(211.028 28.408)" fill="none" stroke="#3b365b" stroke-miterlimit="10" stroke-width="1"/>
        <line id="Line_3226" data-name="Line 3226" x1="17.376" y2="36.682" transform="translate(195.032 36.958)" fill="none" stroke="#3b365b" stroke-miterlimit="10" stroke-width="1"/>
        <path id="Path_880720" data-name="Path 880720" d="M279.642,289.511s25.65-17.376,38.061-23.995c9.1-6.62,14.894-30.615,20.686-38.889,4.137-8.274-7.447-8.274-16.548-5.792s-18.2,23.168-20.685,24.823-51.3,2.482-71.986,14.066c-17.376,9.929-14.893,26.477-14.066,33.924s1.655,11.584,1.655,11.584l-4.965,91.843h76.122Z" transform="translate(-60.891 -180.017)" fill="#ffba9c"/>
        <path id="Path_880721" data-name="Path 880721" d="M301.455,317.806l-13.79,4.689s9.929,4.413,14.893,2.207Z" transform="translate(-82.705 -208.312)" fill="#3b365b"/>
        <path id="Path_880722" data-name="Path 880722" d="M247.233,329.806s-13.239,3.861-25.374,1.655" transform="translate(-63.785 -211.762)" fill="none" stroke="#3b365b" stroke-miterlimit="10" stroke-width="1"/>
        <path id="Path_880723" data-name="Path 880723" d="M337.214,256.258a11.429,11.429,0,0,1,6.068,7.723" transform="translate(-96.95 -190.616)" fill="none" stroke="#3b365b" stroke-miterlimit="10" stroke-width="1"/>
        <path id="Path_880724" data-name="Path 880724" d="M386.107,226.216s-4.781-1.287-7.171,1.839a33.507,33.507,0,0,0-4.046,7.906l5.7,2.207" transform="translate(-107.782 -181.904)" fill="none" stroke="#3b365b" stroke-miterlimit="10" stroke-width="1"/>
      </g>
    </g>
    <g id="Group_1101895" data-name="Group 1101895" transform="translate(1014.184 5284)">
      <g id="Group_1101894" data-name="Group 1101894" clip-path="url(#clip-path-2)">
        <path id="Path_880725" data-name="Path 880725" d="M180.208,67.749c39.386-2.684,62.856,44.731,36.867,74.456-9.069,8.029,1.517,35.155-7.5,37.69q-21.865,3.64-43.727,7.283c-8.658,1.05-3.845-12.664-5.026-17.815-26.083,5.894-22.284-.73-22.426-23.123-24.848,3.1.775-19.141.026-29.988-2.065-24.389,17.365-46.924,41.789-48.5" transform="translate(-36.662 -19.447)" fill="#aec2dd"/>
        <path id="Path_880726" data-name="Path 880726" d="M195.96,103.8c.733-.776,1.379-1.55,2.116-2.222a10.54,10.54,0,0,1,6.143-2.8,10.408,10.408,0,0,1,11.178,8.039,12.5,12.5,0,0,1-1.712,9.636,34.244,34.244,0,0,1-6.51,7.7,67.506,67.506,0,0,1-7.7,6.06,4.86,4.86,0,0,1-5.721.125,60.161,60.161,0,0,1-11.317-8.771,24.317,24.317,0,0,1-4.765-6.55,11.327,11.327,0,0,1,2.364-13.175,9.817,9.817,0,0,1,5.833-2.626,10.8,10.8,0,0,1,9.159,3.557c.322.329.62.682.928,1.023" transform="translate(-50.755 -28.384)" fill="#ff5e62"/>
        <path id="Path_880727" data-name="Path 880727" d="M315.982,70.308a103.172,103.172,0,0,1-13.5,133.96" transform="translate(-86.964 -20.214)" fill="none" stroke="#269490" stroke-miterlimit="10" stroke-width="2"/>
        <path id="Path_880728" data-name="Path 880728" d="M303.18,48.992a103.721,103.721,0,0,1,13,15.187" transform="translate(-87.165 -14.085)" fill="none" stroke="#4dc3a3" stroke-miterlimit="10" stroke-width="2"/>
        <path id="Path_880729" data-name="Path 880729" d="M182.522,9.553a104.081,104.081,0,0,1,14.453-1,102.806,102.806,0,0,1,71.516,28.816" transform="translate(-52.476 -2.458)" fill="none" stroke="#269490" stroke-miterlimit="10" stroke-width="2"/>
        <path id="Path_880730" data-name="Path 880730" d="M58.283,120.873q-.249-3.59-.25-7.244a103.2,103.2,0,0,1,72.013-98.368" transform="translate(-16.685 -4.388)" fill="none" stroke="#269490" stroke-miterlimit="10" stroke-width="2"/>
        <path id="Path_880731" data-name="Path 880731" d="M62.256,185.213a102.843,102.843,0,0,1-3.873-21.723" transform="translate(-16.785 -47.004)" fill="none" stroke="#4dc3a3" stroke-miterlimit="10" stroke-width="2"/>
        <path id="Path_880732" data-name="Path 880732" d="M91.264,239.281a103.123,103.123,0,0,1-27.445-45.3" transform="translate(-18.348 -55.77)" fill="none" stroke="#269490" stroke-miterlimit="10" stroke-width="2"/>
        <path id="Path_880733" data-name="Path 880733" d="M238.615,272.481a103.213,103.213,0,0,1-115.082,1.426" transform="translate(-35.516 -78.339)" fill="none" stroke="#269490" stroke-miterlimit="10" stroke-width="2"/>
        <path id="Path_880734" data-name="Path 880734" d="M68.621,110.988a10.343,10.343,0,1,1-10.343-10.343,10.343,10.343,0,0,1,10.343,10.343" transform="translate(-13.782 -28.936)" fill="#42cfcf"/>
        <path id="Path_880735" data-name="Path 880735" d="M271.6,15.445A15.445,15.445,0,1,1,256.155,0,15.445,15.445,0,0,1,271.6,15.445" transform="translate(-69.205 0)" fill="#42cfcf"/>
        <path id="Path_880736" data-name="Path 880736" d="M351.826,153.493a7.171,7.171,0,1,1-7.171-7.171,7.171,7.171,0,0,1,7.171,7.171" transform="translate(-97.028 -42.068)" fill="#42cfcf"/>
        <path id="Path_880737" data-name="Path 880737" d="M90.283,145.625a2.528,2.528,0,1,1-2.528-2.528,2.528,2.528,0,0,1,2.528,2.528" transform="translate(-24.503 -41.141)" fill="#ff5e62"/>
        <path id="Path_880738" data-name="Path 880738" d="M303.379,25.754a2.528,2.528,0,1,1-2.528-2.528,2.528,2.528,0,0,1,2.528,2.528" transform="translate(-85.768 -6.678)" fill="#42cfcf"/>
        <path id="Path_880739" data-name="Path 880739" d="M338.258,93.072s-6.09-20.776,7.1-28.946c0,0,9.857,15.173-7.1,28.946" transform="translate(-96.847 -18.436)" fill="#269490"/>
        <path id="Path_880740" data-name="Path 880740" d="M333.221,118.962s-13.854-16.638-27.992-10.237c0,0,7.1,16.642,27.992,10.237" transform="translate(-87.754 -30.837)" fill="#269490"/>
        <path id="Path_880741" data-name="Path 880741" d="M106.664,45.113s17.133-13.235,29.547-3.919c0,0-10.545,14.7-29.547,3.919" transform="translate(-30.666 -10.888)" fill="#269490"/>
        <path id="Path_880742" data-name="Path 880742" d="M88.6,48.2s10.453-18.959-.653-29.8c0,0-12.915,12.673.653,29.8" transform="translate(-23.689 -5.292)" fill="#269490"/>
        <path id="Path_880743" data-name="Path 880743" d="M198.861,290.048s-21.65.081-25.834-14.864c0,0,17.314-5.255,25.834,14.864" transform="translate(-49.746 -78.938)" fill="#269490"/>
        <path id="Path_880744" data-name="Path 880744" d="M221.88,296.086s-19.83,8.687-17.609,24.047c0,0,17.96-2.2,17.609-24.047" transform="translate(-58.679 -85.126)" fill="#269490"/>
      </g>
    </g>
    <path id="Path_882987" data-name="Path 882987" d="M69,0A69,69,0,1,1,0,69,69,69,0,0,1,69,0Z" transform="translate(699.896 5148)" fill="#ff9194"/>
    <path id="Path_882988" data-name="Path 882988" d="M69,0A69,69,0,1,1,0,69,69,69,0,0,1,69,0Z" transform="translate(1030.503 5376.032) rotate(135)" fill="#c2e8e8"/>
    <path id="Path_882989" data-name="Path 882989" d="M69,0A69,69,0,1,1,0,69,69,69,0,0,1,69,0Z" transform="translate(608.642 5278.451) rotate(45)" fill="#e6d09e"/>
    <path id="Path_882990" data-name="Path 882990" d="M69,0A69,69,0,1,1,0,69,69,69,0,0,1,69,0Z" transform="translate(699.896 5464)" fill="#aec2dd"/>
    <path id="Path_882991" data-name="Path 882991" d="M-30.688-3.171a1.278,1.278,0,0,0-.5-1.083,6.533,6.533,0,0,0-1.793-.8,12.71,12.71,0,0,1-2.05-.826,3.35,3.35,0,0,1-2.059-3,2.919,2.919,0,0,1,.552-1.747,3.6,3.6,0,0,1,1.585-1.2,5.967,5.967,0,0,1,2.32-.432,5.432,5.432,0,0,1,2.308.469,3.674,3.674,0,0,1,1.573,1.324,3.464,3.464,0,0,1,.56,1.942h-2.49A1.63,1.63,0,0,0-31.2-9.807a2.15,2.15,0,0,0-1.469-.461,2.3,2.3,0,0,0-1.419.386A1.217,1.217,0,0,0-34.6-8.865,1.166,1.166,0,0,0-34-7.877a6.705,6.705,0,0,0,1.747.747,7.55,7.55,0,0,1,3.1,1.585,3.157,3.157,0,0,1,.971,2.357A2.909,2.909,0,0,1-29.376-.726a5.2,5.2,0,0,1-3.2.892,6.171,6.171,0,0,1-2.54-.51,4.019,4.019,0,0,1-1.747-1.4,3.582,3.582,0,0,1-.6-2.059h2.5q0,2,2.391,2a2.326,2.326,0,0,0,1.386-.361A1.175,1.175,0,0,0-30.688-3.171ZM-24.13,0h-2.407V-8.981h2.407Zm-2.548-11.306a1.181,1.181,0,0,1,.361-.888,1.356,1.356,0,0,1,.984-.349,1.36,1.36,0,0,1,.979.349,1.175,1.175,0,0,1,.365.888,1.178,1.178,0,0,1-.369.9,1.363,1.363,0,0,1-.975.349,1.363,1.363,0,0,1-.975-.349A1.178,1.178,0,0,1-26.679-11.306Zm7.4.116v2.208h1.536v1.76h-1.536v4.482a1.07,1.07,0,0,0,.191.714.959.959,0,0,0,.73.216,3.826,3.826,0,0,0,.706-.058V-.05a4.939,4.939,0,0,1-1.453.216,2.29,2.29,0,0,1-2.573-2.548V-7.222h-1.312v-1.76h1.312v-2.208ZM-11.032-.913A3.008,3.008,0,0,1-13.489.166a2.837,2.837,0,0,1-2.2-.83A3.543,3.543,0,0,1-16.469-3.1V-8.981h2.4v5.809q0,1.4,1.278,1.4a1.732,1.732,0,0,0,1.677-.848V-8.981h2.407V0h-2.258ZM-1.693,0a2.664,2.664,0,0,1-.241-.805A2.9,2.9,0,0,1-4.2.166,3.189,3.189,0,0,1-6.387-.6a2.456,2.456,0,0,1-.867-1.926A2.538,2.538,0,0,1-6.2-4.715a5.222,5.222,0,0,1,3.059-.772h1.1V-6a1.48,1.48,0,0,0-.32-1,1.257,1.257,0,0,0-1.009-.374,1.429,1.429,0,0,0-.95.291.987.987,0,0,0-.344.8h-2.4a2.41,2.41,0,0,1,.481-1.444A3.182,3.182,0,0,1-5.213-8.77a4.961,4.961,0,0,1,1.976-.378A3.92,3.92,0,0,1-.6-8.313,2.918,2.918,0,0,1,.374-5.968v3.893A4.294,4.294,0,0,0,.73-.141V0ZM-3.677-1.668A2.066,2.066,0,0,0-2.7-1.905a1.554,1.554,0,0,0,.664-.635V-4.084h-.9q-1.8,0-1.917,1.245l-.008.141a.96.96,0,0,0,.315.739A1.225,1.225,0,0,0-3.677-1.668Zm9.629-.1a1.573,1.573,0,0,0,1.079-.365A1.28,1.28,0,0,0,7.462-3.1h2.25a3.077,3.077,0,0,1-.5,1.673A3.286,3.286,0,0,1,7.873-.253a4.2,4.2,0,0,1-1.88.419A3.9,3.9,0,0,1,2.955-1.058,4.845,4.845,0,0,1,1.843-4.441V-4.6a4.79,4.79,0,0,1,1.1-3.312,3.854,3.854,0,0,1,3.03-1.237,3.778,3.778,0,0,1,2.7.959A3.4,3.4,0,0,1,9.712-5.636H7.462a1.648,1.648,0,0,0-.432-1.139,1.439,1.439,0,0,0-1.1-.438A1.445,1.445,0,0,0,4.669-6.6,3.541,3.541,0,0,0,4.242-4.62v.249a3.586,3.586,0,0,0,.423,2A1.463,1.463,0,0,0,5.952-1.768ZM13.613,0H11.206V-8.981h2.407ZM11.065-11.306a1.181,1.181,0,0,1,.361-.888,1.356,1.356,0,0,1,.984-.349,1.36,1.36,0,0,1,.979.349,1.175,1.175,0,0,1,.365.888,1.178,1.178,0,0,1-.369.9,1.363,1.363,0,0,1-.975.349,1.363,1.363,0,0,1-.975-.349A1.178,1.178,0,0,1,11.065-11.306Zm4.15,6.732a5.327,5.327,0,0,1,.515-2.382,3.768,3.768,0,0,1,1.482-1.619,4.323,4.323,0,0,1,2.245-.573,4.09,4.09,0,0,1,2.968,1.112,4.464,4.464,0,0,1,1.282,3.021l.017.614A4.694,4.694,0,0,1,22.57-1.083a4.011,4.011,0,0,1-3.1,1.249,4.031,4.031,0,0,1-3.1-1.245,4.777,4.777,0,0,1-1.158-3.387Zm2.4.17A3.357,3.357,0,0,0,18.1-2.446a1.588,1.588,0,0,0,1.378.678,1.592,1.592,0,0,0,1.361-.669,3.674,3.674,0,0,0,.49-2.141,3.324,3.324,0,0,0-.49-1.945,1.592,1.592,0,0,0-1.378-.69,1.566,1.566,0,0,0-1.361.686A3.735,3.735,0,0,0,17.614-4.4ZM19.93-12.75h2.615l-2.3,2.573H18.295Zm7.479,3.769.075,1.038a3.136,3.136,0,0,1,2.582-1.2,2.606,2.606,0,0,1,2.125.838A3.912,3.912,0,0,1,32.9-5.8V0h-2.4V-5.744a1.556,1.556,0,0,0-.332-1.108,1.486,1.486,0,0,0-1.1-.344,1.65,1.65,0,0,0-1.519.863V0h-2.4V-8.981ZM-58.948,20.166a4.409,4.409,0,0,1-3.217-1.212,4.308,4.308,0,0,1-1.241-3.229v-.232a5.426,5.426,0,0,1,.523-2.42A3.838,3.838,0,0,1-61.4,11.429a4.159,4.159,0,0,1,2.187-.577,3.727,3.727,0,0,1,2.9,1.162,4.722,4.722,0,0,1,1.058,3.3v.979h-5.719a2.229,2.229,0,0,0,.7,1.411,2.12,2.12,0,0,0,1.482.531,2.589,2.589,0,0,0,2.167-1l1.179,1.32a3.6,3.6,0,0,1-1.461,1.191A4.793,4.793,0,0,1-58.948,20.166Zm-.274-7.379a1.5,1.5,0,0,0-1.158.484,2.5,2.5,0,0,0-.569,1.384h3.337v-.192a1.786,1.786,0,0,0-.432-1.238A1.547,1.547,0,0,0-59.222,12.787Zm7.579-1.768.075,1a3.156,3.156,0,0,1,2.582-1.17,2.4,2.4,0,0,1,2.382,1.37,3.084,3.084,0,0,1,2.7-1.37,2.679,2.679,0,0,1,2.175.851,3.911,3.911,0,0,1,.714,2.561V20h-2.407V14.272a1.71,1.71,0,0,0-.3-1.116,1.324,1.324,0,0,0-1.054-.353,1.5,1.5,0,0,0-1.494,1.029L-46.264,20h-2.4V14.281a1.689,1.689,0,0,0-.307-1.129,1.337,1.337,0,0,0-1.046-.349,1.555,1.555,0,0,0-1.478.847V20h-2.4V11.019Zm12.094,4.408a5.327,5.327,0,0,1,.515-2.382,3.767,3.767,0,0,1,1.482-1.619,4.323,4.323,0,0,1,2.245-.573,4.09,4.09,0,0,1,2.968,1.112,4.464,4.464,0,0,1,1.282,3.021l.017.614a4.694,4.694,0,0,1-1.154,3.316,4.011,4.011,0,0,1-3.1,1.249,4.031,4.031,0,0,1-3.1-1.245,4.777,4.777,0,0,1-1.158-3.387Zm2.4.17a3.357,3.357,0,0,0,.481,1.958,1.588,1.588,0,0,0,1.378.678,1.592,1.592,0,0,0,1.361-.669,3.674,3.674,0,0,0,.49-2.141,3.324,3.324,0,0,0-.49-1.945,1.592,1.592,0,0,0-1.378-.69,1.566,1.566,0,0,0-1.361.686A3.735,3.735,0,0,0-37.15,15.6Zm11.322,2.635a1.573,1.573,0,0,0,1.079-.365,1.28,1.28,0,0,0,.432-.971h2.25a3.077,3.077,0,0,1-.5,1.673,3.286,3.286,0,0,1-1.341,1.179,4.2,4.2,0,0,1-1.88.419,3.9,3.9,0,0,1-3.038-1.224,4.845,4.845,0,0,1-1.112-3.383V15.4a4.79,4.79,0,0,1,1.1-3.312,3.854,3.854,0,0,1,3.03-1.237,3.778,3.778,0,0,1,2.7.959,3.4,3.4,0,0,1,1.033,2.552h-2.25a1.648,1.648,0,0,0-.432-1.139,1.439,1.439,0,0,0-1.1-.438,1.445,1.445,0,0,0-1.266.611,3.541,3.541,0,0,0-.427,1.983v.249a3.586,3.586,0,0,0,.423,2A1.463,1.463,0,0,0-25.828,18.232ZM-18.166,20h-2.407V11.019h2.407ZM-20.715,8.694a1.181,1.181,0,0,1,.361-.888,1.356,1.356,0,0,1,.984-.349,1.36,1.36,0,0,1,.979.349,1.175,1.175,0,0,1,.365.888,1.178,1.178,0,0,1-.369.9,1.363,1.363,0,0,1-.975.349,1.363,1.363,0,0,1-.975-.349A1.178,1.178,0,0,1-20.715,8.694Zm4.15,6.732a5.327,5.327,0,0,1,.515-2.382,3.768,3.768,0,0,1,1.482-1.619,4.323,4.323,0,0,1,2.245-.573,4.09,4.09,0,0,1,2.968,1.112,4.464,4.464,0,0,1,1.282,3.021l.017.614A4.694,4.694,0,0,1-9.21,18.917a4.011,4.011,0,0,1-3.1,1.249,4.031,4.031,0,0,1-3.1-1.245,4.777,4.777,0,0,1-1.158-3.387Zm2.4.17a3.357,3.357,0,0,0,.481,1.958,1.588,1.588,0,0,0,1.378.678,1.592,1.592,0,0,0,1.361-.669,3.674,3.674,0,0,0,.49-2.141,3.324,3.324,0,0,0-.49-1.945,1.592,1.592,0,0,0-1.378-.69,1.566,1.566,0,0,0-1.361.686A3.735,3.735,0,0,0-14.165,15.6Zm9.795-4.578.075,1.038a3.136,3.136,0,0,1,2.582-1.2,2.606,2.606,0,0,1,2.125.838A3.912,3.912,0,0,1,1.125,14.2V20h-2.4V14.256a1.556,1.556,0,0,0-.332-1.108,1.486,1.486,0,0,0-1.1-.344,1.65,1.65,0,0,0-1.519.863V20h-2.4V11.019ZM8.147,20a2.664,2.664,0,0,1-.241-.805,2.9,2.9,0,0,1-2.266.971A3.189,3.189,0,0,1,3.453,19.4a2.456,2.456,0,0,1-.867-1.926,2.538,2.538,0,0,1,1.058-2.191A5.222,5.222,0,0,1,6.7,14.513h1.1V14a1.48,1.48,0,0,0-.32-1,1.257,1.257,0,0,0-1.009-.374,1.429,1.429,0,0,0-.95.291.987.987,0,0,0-.344.8h-2.4a2.41,2.41,0,0,1,.481-1.444A3.182,3.182,0,0,1,4.628,11.23,4.961,4.961,0,0,1,6.6,10.853a3.92,3.92,0,0,1,2.635.834,2.918,2.918,0,0,1,.975,2.345v3.893a4.294,4.294,0,0,0,.357,1.934V20ZM6.163,18.332a2.066,2.066,0,0,0,.979-.237,1.554,1.554,0,0,0,.664-.635V15.916h-.9q-1.8,0-1.917,1.245l-.008.141a.96.96,0,0,0,.315.739A1.225,1.225,0,0,0,6.163,18.332ZM14.589,20H12.181V7.25h2.407Zm4.225-8.981.075,1a3.156,3.156,0,0,1,2.582-1.17,2.4,2.4,0,0,1,2.382,1.37,3.084,3.084,0,0,1,2.7-1.37,2.679,2.679,0,0,1,2.175.851,3.911,3.911,0,0,1,.714,2.561V20H27.031V14.272a1.71,1.71,0,0,0-.3-1.116,1.324,1.324,0,0,0-1.054-.353,1.5,1.5,0,0,0-1.494,1.029L24.193,20h-2.4V14.281a1.689,1.689,0,0,0-.307-1.129,1.337,1.337,0,0,0-1.046-.349,1.555,1.555,0,0,0-1.478.847V20h-2.4V11.019Zm16.6,9.147A4.409,4.409,0,0,1,32.2,18.954a4.308,4.308,0,0,1-1.241-3.229v-.232a5.426,5.426,0,0,1,.523-2.42,3.838,3.838,0,0,1,1.482-1.644,4.159,4.159,0,0,1,2.187-.577,3.727,3.727,0,0,1,2.9,1.162,4.722,4.722,0,0,1,1.058,3.3v.979H33.39a2.229,2.229,0,0,0,.7,1.411,2.12,2.12,0,0,0,1.482.531,2.589,2.589,0,0,0,2.167-1l1.179,1.32a3.6,3.6,0,0,1-1.461,1.191A4.793,4.793,0,0,1,35.415,20.166Zm-.274-7.379a1.5,1.5,0,0,0-1.158.484,2.5,2.5,0,0,0-.569,1.384h3.337v-.192a1.786,1.786,0,0,0-.432-1.238A1.547,1.547,0,0,0,35.141,12.787Zm7.537-1.768.075,1.038a3.136,3.136,0,0,1,2.582-1.2,2.606,2.606,0,0,1,2.125.838,3.912,3.912,0,0,1,.714,2.507V20h-2.4V14.256a1.556,1.556,0,0,0-.332-1.108,1.486,1.486,0,0,0-1.1-.344,1.65,1.65,0,0,0-1.519.863V20h-2.4V11.019ZM52.864,8.811v2.208H54.4v1.76H52.864v4.482a1.07,1.07,0,0,0,.191.714.959.959,0,0,0,.73.216,3.826,3.826,0,0,0,.706-.058V19.95a4.939,4.939,0,0,1-1.453.216,2.29,2.29,0,0,1-2.573-2.548V12.778H49.153v-1.76h1.312V8.811Zm7.006,11.355a4.409,4.409,0,0,1-3.217-1.212,4.308,4.308,0,0,1-1.241-3.229v-.232a5.426,5.426,0,0,1,.523-2.42,3.838,3.838,0,0,1,1.482-1.644,4.159,4.159,0,0,1,2.187-.577,3.727,3.727,0,0,1,2.9,1.162,4.722,4.722,0,0,1,1.058,3.3v.979H57.844a2.229,2.229,0,0,0,.7,1.411,2.12,2.12,0,0,0,1.482.531,2.589,2.589,0,0,0,2.167-1l1.179,1.32a3.6,3.6,0,0,1-1.461,1.191A4.793,4.793,0,0,1,59.869,20.166ZM59.6,12.787a1.5,1.5,0,0,0-1.158.484,2.5,2.5,0,0,0-.569,1.384h3.337v-.192a1.786,1.786,0,0,0-.432-1.238A1.547,1.547,0,0,0,59.6,12.787ZM-29.459,33.268a6.517,6.517,0,0,0-.863-.066,1.757,1.757,0,0,0-1.785.921V40h-2.4V31.019h2.266l.066,1.071a2.223,2.223,0,0,1,2-1.237,2.514,2.514,0,0,1,.747.108Zm5.13,6.9a4.409,4.409,0,0,1-3.217-1.212,4.308,4.308,0,0,1-1.241-3.229v-.232a5.426,5.426,0,0,1,.523-2.42,3.838,3.838,0,0,1,1.482-1.644,4.159,4.159,0,0,1,2.187-.577,3.727,3.727,0,0,1,2.9,1.162,4.722,4.722,0,0,1,1.058,3.3v.979h-5.719a2.229,2.229,0,0,0,.7,1.411,2.12,2.12,0,0,0,1.482.531,2.589,2.589,0,0,0,2.167-1l1.179,1.32a3.6,3.6,0,0,1-1.461,1.191A4.793,4.793,0,0,1-24.33,40.166Zm-.274-7.379a1.5,1.5,0,0,0-1.158.484,2.5,2.5,0,0,0-.569,1.384h3.337v-.192a1.786,1.786,0,0,0-.432-1.238A1.547,1.547,0,0,0-24.6,32.787ZM-16.743,40H-19.15V27.25h2.407Zm6.109.166a4.409,4.409,0,0,1-3.217-1.212,4.308,4.308,0,0,1-1.241-3.229v-.232a5.426,5.426,0,0,1,.523-2.42,3.838,3.838,0,0,1,1.482-1.644,4.159,4.159,0,0,1,2.187-.577A3.727,3.727,0,0,1-8,32.015a4.722,4.722,0,0,1,1.058,3.3v.979h-5.719a2.229,2.229,0,0,0,.7,1.411,2.12,2.12,0,0,0,1.482.531,2.589,2.589,0,0,0,2.167-1l1.179,1.32a3.6,3.6,0,0,1-1.461,1.191A4.793,4.793,0,0,1-10.633,40.166Zm-.274-7.379a1.5,1.5,0,0,0-1.158.484,2.5,2.5,0,0,0-.569,1.384H-9.3v-.192a1.786,1.786,0,0,0-.432-1.238A1.547,1.547,0,0,0-10.907,32.787Zm8.583,4.283,1.668-6.051H1.851L-1.179,40H-3.47L-6.5,31.019h2.507ZM7.985,40a2.664,2.664,0,0,1-.241-.805,2.9,2.9,0,0,1-2.266.971A3.189,3.189,0,0,1,3.291,39.4a2.456,2.456,0,0,1-.867-1.926,2.538,2.538,0,0,1,1.058-2.191,5.222,5.222,0,0,1,3.059-.772h1.1V34a1.48,1.48,0,0,0-.32-1,1.257,1.257,0,0,0-1.009-.374,1.429,1.429,0,0,0-.95.291.987.987,0,0,0-.344.8h-2.4A2.41,2.41,0,0,1,3.1,32.272,3.182,3.182,0,0,1,4.466,31.23a4.961,4.961,0,0,1,1.976-.378,3.92,3.92,0,0,1,2.635.834,2.918,2.918,0,0,1,.975,2.345v3.893a4.294,4.294,0,0,0,.357,1.934V40ZM6,38.332a2.066,2.066,0,0,0,.979-.237,1.554,1.554,0,0,0,.664-.635V35.916h-.9q-1.8,0-1.917,1.245l-.008.141a.96.96,0,0,0,.315.739A1.225,1.225,0,0,0,6,38.332Zm8.1-7.313.075,1.038a3.136,3.136,0,0,1,2.582-1.2,2.606,2.606,0,0,1,2.125.838A3.912,3.912,0,0,1,19.6,34.2V40H17.2V34.256a1.556,1.556,0,0,0-.332-1.108,1.486,1.486,0,0,0-1.1-.344,1.65,1.65,0,0,0-1.519.863V40h-2.4V31.019Zm10.185-2.208v2.208h1.536v1.76H24.288v4.482a1.07,1.07,0,0,0,.191.714.959.959,0,0,0,.73.216,3.826,3.826,0,0,0,.706-.058V39.95a4.939,4.939,0,0,1-1.453.216,2.29,2.29,0,0,1-2.573-2.548V32.778H20.578v-1.76h1.312V28.811Zm7.006,11.355a4.409,4.409,0,0,1-3.217-1.212,4.308,4.308,0,0,1-1.241-3.229v-.232a5.426,5.426,0,0,1,.523-2.42,3.838,3.838,0,0,1,1.482-1.644,4.159,4.159,0,0,1,2.187-.577,3.727,3.727,0,0,1,2.9,1.162,4.722,4.722,0,0,1,1.058,3.3v.979H29.269a2.229,2.229,0,0,0,.7,1.411,2.12,2.12,0,0,0,1.482.531,2.589,2.589,0,0,0,2.167-1l1.179,1.32a3.6,3.6,0,0,1-1.461,1.191A4.793,4.793,0,0,1,31.294,40.166Zm-.274-7.379a1.5,1.5,0,0,0-1.158.484,2.5,2.5,0,0,0-.569,1.384H32.63v-.192a1.786,1.786,0,0,0-.432-1.238A1.547,1.547,0,0,0,31.02,32.787Z" transform="translate(768.896 5203)" fill="#12263f"/>
    <path id="Path_882992" data-name="Path 882992" d="M-20.619-2.49h-4.366L-25.815,0h-2.648l4.5-12.086h2.308L-17.133,0h-2.648Zm-3.694-2.017h3.021l-1.519-4.524Zm11.887,2.739a1.573,1.573,0,0,0,1.079-.365,1.28,1.28,0,0,0,.432-.971h2.25a3.077,3.077,0,0,1-.5,1.673A3.286,3.286,0,0,1-10.5-.253a4.2,4.2,0,0,1-1.88.419,3.9,3.9,0,0,1-3.038-1.224,4.845,4.845,0,0,1-1.112-3.383V-4.6a4.79,4.79,0,0,1,1.1-3.312A3.854,3.854,0,0,1-12.4-9.147a3.778,3.778,0,0,1,2.7.959A3.4,3.4,0,0,1-8.666-5.636h-2.25a1.648,1.648,0,0,0-.432-1.139,1.439,1.439,0,0,0-1.1-.438,1.445,1.445,0,0,0-1.266.611,3.541,3.541,0,0,0-.427,1.983v.249a3.586,3.586,0,0,0,.423,2A1.463,1.463,0,0,0-12.426-1.768Zm8.865,0a1.573,1.573,0,0,0,1.079-.365A1.28,1.28,0,0,0-2.05-3.1H.2A3.077,3.077,0,0,1-.3-1.432,3.286,3.286,0,0,1-1.639-.253,4.2,4.2,0,0,1-3.52.166,3.9,3.9,0,0,1-6.558-1.058,4.845,4.845,0,0,1-7.67-4.441V-4.6a4.79,4.79,0,0,1,1.1-3.312,3.854,3.854,0,0,1,3.03-1.237,3.778,3.778,0,0,1,2.7.959A3.4,3.4,0,0,1,.2-5.636H-2.05a1.648,1.648,0,0,0-.432-1.139,1.439,1.439,0,0,0-1.1-.438A1.445,1.445,0,0,0-4.844-6.6,3.541,3.541,0,0,0-5.271-4.62v.249a3.586,3.586,0,0,0,.423,2A1.463,1.463,0,0,0-3.561-1.768ZM4.1,0H1.693V-8.981H4.1ZM1.552-11.306a1.181,1.181,0,0,1,.361-.888,1.356,1.356,0,0,1,.984-.349,1.36,1.36,0,0,1,.979.349,1.175,1.175,0,0,1,.365.888,1.178,1.178,0,0,1-.369.9,1.363,1.363,0,0,1-.975.349,1.363,1.363,0,0,1-.975-.349A1.178,1.178,0,0,1,1.552-11.306ZM5.7-4.574a5.327,5.327,0,0,1,.515-2.382A3.768,3.768,0,0,1,7.7-8.575a4.323,4.323,0,0,1,2.245-.573,4.09,4.09,0,0,1,2.968,1.112,4.464,4.464,0,0,1,1.282,3.021l.017.614a4.694,4.694,0,0,1-1.154,3.316A4.011,4.011,0,0,1,9.961.166a4.031,4.031,0,0,1-3.1-1.245A4.777,4.777,0,0,1,5.7-4.466Zm2.4.17a3.357,3.357,0,0,0,.481,1.958,1.588,1.588,0,0,0,1.378.678,1.592,1.592,0,0,0,1.361-.669,3.674,3.674,0,0,0,.49-2.141,3.324,3.324,0,0,0-.49-1.945,1.592,1.592,0,0,0-1.378-.69,1.566,1.566,0,0,0-1.361.686A3.735,3.735,0,0,0,8.1-4.4Zm2.316-8.347h2.615l-2.3,2.573H8.782ZM17.9-8.981l.075,1.038a3.136,3.136,0,0,1,2.582-1.2,2.606,2.606,0,0,1,2.125.838A3.912,3.912,0,0,1,23.392-5.8V0h-2.4V-5.744a1.556,1.556,0,0,0-.332-1.108,1.486,1.486,0,0,0-1.1-.344,1.65,1.65,0,0,0-1.519.863V0h-2.4V-8.981Zm-60.77,24.067a12.739,12.739,0,0,1,.506-3.619,9.551,9.551,0,0,1,1.494-3.042,5.579,5.579,0,0,1,2.142-1.839l.465,1.295a5.778,5.778,0,0,0-1.893,2.772,12.837,12.837,0,0,0-.681,4.383v.257a13.082,13.082,0,0,0,.672,4.4,5.89,5.89,0,0,0,1.9,2.814l-.465,1.27a5.581,5.581,0,0,1-2.1-1.789,9.391,9.391,0,0,1-1.49-2.959,12.663,12.663,0,0,1-.548-3.5Zm10.907-1.818a6.517,6.517,0,0,0-.863-.066,1.757,1.757,0,0,0-1.785.921V20h-2.4V11.019h2.266l.066,1.071a2.223,2.223,0,0,1,2-1.237,2.514,2.514,0,0,1,.747.108Zm5.13,6.9a4.409,4.409,0,0,1-3.217-1.212,4.308,4.308,0,0,1-1.241-3.229v-.232a5.426,5.426,0,0,1,.523-2.42,3.838,3.838,0,0,1,1.482-1.644,4.159,4.159,0,0,1,2.187-.577,3.727,3.727,0,0,1,2.9,1.162,4.722,4.722,0,0,1,1.058,3.3v.979h-5.719a2.229,2.229,0,0,0,.7,1.411,2.12,2.12,0,0,0,1.482.531,2.589,2.589,0,0,0,2.167-1l1.179,1.32a3.6,3.6,0,0,1-1.461,1.191A4.793,4.793,0,0,1-26.836,20.166Zm-.274-7.379a1.5,1.5,0,0,0-1.158.484,2.5,2.5,0,0,0-.569,1.384H-25.5v-.192a1.786,1.786,0,0,0-.432-1.238A1.547,1.547,0,0,0-27.11,12.787Zm10.193,4.731a.773.773,0,0,0-.436-.693,4.95,4.95,0,0,0-1.4-.452q-3.2-.672-3.2-2.723a2.468,2.468,0,0,1,.992-2,4,4,0,0,1,2.594-.8,4.307,4.307,0,0,1,2.735.805,2.538,2.538,0,0,1,1.025,2.092h-2.4a1.161,1.161,0,0,0-.332-.851,1.405,1.405,0,0,0-1.038-.336,1.436,1.436,0,0,0-.938.274.865.865,0,0,0-.332.7.739.739,0,0,0,.378.643A3.885,3.885,0,0,0-18,14.6a10.407,10.407,0,0,1,1.511.4,2.482,2.482,0,0,1,1.9,2.416,2.343,2.343,0,0,1-1.054,1.988,4.548,4.548,0,0,1-2.723.76,4.75,4.75,0,0,1-2-.4,3.363,3.363,0,0,1-1.374-1.1,2.565,2.565,0,0,1-.5-1.515h2.274a1.252,1.252,0,0,0,.473.979,1.877,1.877,0,0,0,1.179.34A1.737,1.737,0,0,0-17.27,18.2.814.814,0,0,0-16.917,17.518Zm11.961-1.926A5.387,5.387,0,0,1-5.9,18.917a3.021,3.021,0,0,1-2.544,1.249,2.8,2.8,0,0,1-2.2-.946v4.233h-2.4V11.019h2.225l.083.88a2.819,2.819,0,0,1,2.274-1.046,3.041,3.041,0,0,1,2.582,1.229,5.532,5.532,0,0,1,.921,3.387Zm-2.4-.174A3.535,3.535,0,0,0-7.8,13.484,1.446,1.446,0,0,0-9.089,12.8a1.571,1.571,0,0,0-1.552.863v3.677a1.6,1.6,0,0,0,1.569.888Q-7.354,18.232-7.354,15.418Zm9.264,3.669A3.008,3.008,0,0,1-.548,20.166a2.837,2.837,0,0,1-2.2-.83A3.543,3.543,0,0,1-3.528,16.9V11.019h2.4v5.809q0,1.4,1.278,1.4a1.732,1.732,0,0,0,1.677-.848V11.019H4.233V20H1.976Zm8.268,1.079A4.409,4.409,0,0,1,6.96,18.954a4.308,4.308,0,0,1-1.241-3.229v-.232a5.426,5.426,0,0,1,.523-2.42,3.838,3.838,0,0,1,1.482-1.644,4.159,4.159,0,0,1,2.187-.577,3.727,3.727,0,0,1,2.9,1.162,4.722,4.722,0,0,1,1.058,3.3v.979H8.151a2.229,2.229,0,0,0,.7,1.411,2.12,2.12,0,0,0,1.482.531,2.589,2.589,0,0,0,2.167-1l1.179,1.32a3.6,3.6,0,0,1-1.461,1.191A4.793,4.793,0,0,1,10.177,20.166ZM9.9,12.787a1.5,1.5,0,0,0-1.158.484,2.5,2.5,0,0,0-.569,1.384h3.337v-.192a1.786,1.786,0,0,0-.432-1.238A1.547,1.547,0,0,0,9.9,12.787ZM20.1,17.518a.773.773,0,0,0-.436-.693,4.95,4.95,0,0,0-1.4-.452q-3.2-.672-3.2-2.723a2.468,2.468,0,0,1,.992-2,4,4,0,0,1,2.594-.8,4.307,4.307,0,0,1,2.735.805A2.538,2.538,0,0,1,22.4,13.75H20a1.161,1.161,0,0,0-.332-.851,1.405,1.405,0,0,0-1.038-.336,1.436,1.436,0,0,0-.938.274.865.865,0,0,0-.332.7.739.739,0,0,0,.378.643,3.885,3.885,0,0,0,1.274.423,10.407,10.407,0,0,1,1.511.4,2.482,2.482,0,0,1,1.9,2.416,2.343,2.343,0,0,1-1.054,1.988,4.548,4.548,0,0,1-2.723.76,4.75,4.75,0,0,1-2-.4,3.363,3.363,0,0,1-1.374-1.1,2.565,2.565,0,0,1-.5-1.515H17.05a1.252,1.252,0,0,0,.473.979,1.877,1.877,0,0,0,1.179.34,1.737,1.737,0,0,0,1.042-.261A.814.814,0,0,0,20.1,17.518Zm6.749-8.708v2.208H28.38v1.76H26.845v4.482a1.07,1.07,0,0,0,.191.714.959.959,0,0,0,.73.216,3.826,3.826,0,0,0,.706-.058V19.95a4.938,4.938,0,0,1-1.453.216,2.29,2.29,0,0,1-2.573-2.548V12.778H23.134v-1.76h1.312V8.811ZM34.921,20a2.664,2.664,0,0,1-.241-.805,2.9,2.9,0,0,1-2.266.971,3.189,3.189,0,0,1-2.187-.764,2.456,2.456,0,0,1-.867-1.926,2.538,2.538,0,0,1,1.058-2.191,5.222,5.222,0,0,1,3.059-.772h1.1V14a1.48,1.48,0,0,0-.32-1,1.257,1.257,0,0,0-1.009-.374,1.429,1.429,0,0,0-.95.291.987.987,0,0,0-.344.8h-2.4a2.41,2.41,0,0,1,.481-1.444A3.182,3.182,0,0,1,31.4,11.23a4.961,4.961,0,0,1,1.976-.378,3.92,3.92,0,0,1,2.635.834,2.918,2.918,0,0,1,.975,2.345v3.893a4.294,4.294,0,0,0,.357,1.934V20Zm-1.984-1.668a2.066,2.066,0,0,0,.979-.237,1.554,1.554,0,0,0,.664-.635V15.916h-.9q-1.8,0-1.917,1.245l-.008.141a.96.96,0,0,0,.315.739A1.225,1.225,0,0,0,32.938,18.332Zm10.027-3.055a12.088,12.088,0,0,1-.54,3.611,9.8,9.8,0,0,1-1.552,3.063,5.592,5.592,0,0,1-2.167,1.826l-.465-1.27A5.837,5.837,0,0,0,40.1,19.768a12.685,12.685,0,0,0,.706-4.258v-.44a12.972,12.972,0,0,0-.677-4.375,6.084,6.084,0,0,0-1.888-2.839l.465-1.27a5.594,5.594,0,0,1,2.129,1.776,9.675,9.675,0,0,1,1.552,3,12,12,0,0,1,.577,3.544Z" transform="translate(610.642 5371.032)" fill="#12263f"/>
    <path id="Path_882993" data-name="Path 882993" d="M-27.92-4.026A4.277,4.277,0,0,1-29.36-.955,5.058,5.058,0,0,1-32.784.166,4.548,4.548,0,0,1-36.44-1.4a6.416,6.416,0,0,1-1.332-4.3v-.739A7.245,7.245,0,0,1-37.158-9.5,4.6,4.6,0,0,1-35.4-11.542a4.918,4.918,0,0,1,2.652-.71,4.927,4.927,0,0,1,3.37,1.121A4.6,4.6,0,0,1-27.9-7.985h-2.49a2.524,2.524,0,0,0-.652-1.7,2.413,2.413,0,0,0-1.706-.527,2.116,2.116,0,0,0-1.864.892,5,5,0,0,0-.635,2.768v.913a5.352,5.352,0,0,0,.594,2.864,2.077,2.077,0,0,0,1.872.9,2.458,2.458,0,0,0,1.722-.527,2.381,2.381,0,0,0,.652-1.631Zm1.1-.548A5.327,5.327,0,0,1-26.3-6.956a3.768,3.768,0,0,1,1.482-1.619,4.323,4.323,0,0,1,2.245-.573,4.09,4.09,0,0,1,2.968,1.112,4.464,4.464,0,0,1,1.282,3.021l.017.614a4.694,4.694,0,0,1-1.154,3.316,4.011,4.011,0,0,1-3.1,1.249,4.031,4.031,0,0,1-3.1-1.245,4.777,4.777,0,0,1-1.158-3.387Zm2.4.17a3.357,3.357,0,0,0,.481,1.958,1.588,1.588,0,0,0,1.378.678A1.592,1.592,0,0,0-21.2-2.437a3.674,3.674,0,0,0,.49-2.141,3.324,3.324,0,0,0-.49-1.945,1.592,1.592,0,0,0-1.378-.69,1.566,1.566,0,0,0-1.361.686A3.735,3.735,0,0,0-24.417-4.4Zm7.238-.154a5.264,5.264,0,0,1,.984-3.329,3.187,3.187,0,0,1,2.652-1.262,2.8,2.8,0,0,1,2.3,1.013l.1-.847h2.175V-.3A3.839,3.839,0,0,1-9.5,1.751,3.439,3.439,0,0,1-11.011,3.08a5.3,5.3,0,0,1-2.274.457,4.925,4.925,0,0,1-1.926-.394,3.418,3.418,0,0,1-1.419-1.017L-15.568.664a2.81,2.81,0,0,0,2.175,1,2.057,2.057,0,0,0,1.486-.51,1.915,1.915,0,0,0,.531-1.448V-.772a2.775,2.775,0,0,1-2.183.938A3.179,3.179,0,0,1-16.178-1.1a5.262,5.262,0,0,1-1-3.358Zm2.4.179a3.278,3.278,0,0,0,.49,1.916,1.558,1.558,0,0,0,1.345.694,1.666,1.666,0,0,0,1.569-.823V-6.374A1.662,1.662,0,0,0-12.928-7.2a1.568,1.568,0,0,0-1.357.707A3.694,3.694,0,0,0-14.78-4.379Zm9.861-4.6.075,1.038a3.136,3.136,0,0,1,2.582-1.2,2.606,2.606,0,0,1,2.125.838A3.912,3.912,0,0,1,.577-5.8V0h-2.4V-5.744a1.556,1.556,0,0,0-.332-1.108,1.486,1.486,0,0,0-1.1-.344,1.65,1.65,0,0,0-1.519.863V0h-2.4V-8.981ZM4.927,0H2.519V-8.981H4.927ZM2.378-11.306a1.181,1.181,0,0,1,.361-.888,1.356,1.356,0,0,1,.984-.349,1.36,1.36,0,0,1,.979.349,1.175,1.175,0,0,1,.365.888,1.178,1.178,0,0,1-.369.9,1.363,1.363,0,0,1-.975.349,1.363,1.363,0,0,1-.975-.349A1.178,1.178,0,0,1,2.378-11.306Zm8.259,9.538a1.573,1.573,0,0,0,1.079-.365,1.28,1.28,0,0,0,.432-.971H14.4a3.077,3.077,0,0,1-.5,1.673A3.286,3.286,0,0,1,12.559-.253a4.2,4.2,0,0,1-1.88.419A3.9,3.9,0,0,1,7.641-1.058,4.845,4.845,0,0,1,6.529-4.441V-4.6a4.79,4.79,0,0,1,1.1-3.312,3.854,3.854,0,0,1,3.03-1.237,3.778,3.778,0,0,1,2.7.959A3.4,3.4,0,0,1,14.4-5.636h-2.25a1.648,1.648,0,0,0-.432-1.139,1.439,1.439,0,0,0-1.1-.438A1.445,1.445,0,0,0,9.355-6.6,3.541,3.541,0,0,0,8.927-4.62v.249a3.586,3.586,0,0,0,.423,2A1.463,1.463,0,0,0,10.637-1.768ZM18.3,0H15.892V-8.981H18.3ZM15.751-11.306a1.181,1.181,0,0,1,.361-.888,1.356,1.356,0,0,1,.984-.349,1.36,1.36,0,0,1,.979.349,1.175,1.175,0,0,1,.365.888,1.178,1.178,0,0,1-.369.9,1.363,1.363,0,0,1-.975.349,1.363,1.363,0,0,1-.975-.349A1.178,1.178,0,0,1,15.751-11.306ZM19.9-4.574a5.327,5.327,0,0,1,.515-2.382A3.768,3.768,0,0,1,21.9-8.575a4.323,4.323,0,0,1,2.245-.573A4.09,4.09,0,0,1,27.11-8.035a4.464,4.464,0,0,1,1.282,3.021l.017.614a4.694,4.694,0,0,1-1.154,3.316,4.011,4.011,0,0,1-3.1,1.249,4.031,4.031,0,0,1-3.1-1.245A4.777,4.777,0,0,1,19.9-4.466Zm2.4.17a3.357,3.357,0,0,0,.481,1.958,1.588,1.588,0,0,0,1.378.678,1.592,1.592,0,0,0,1.361-.669,3.674,3.674,0,0,0,.49-2.141,3.324,3.324,0,0,0-.49-1.945,1.592,1.592,0,0,0-1.378-.69,1.566,1.566,0,0,0-1.361.686A3.735,3.735,0,0,0,22.3-4.4Zm2.316-8.347h2.615l-2.3,2.573H22.981Zm7.479,3.769.075,1.038a3.136,3.136,0,0,1,2.582-1.2,2.606,2.606,0,0,1,2.125.838A3.912,3.912,0,0,1,37.59-5.8V0h-2.4V-5.744a1.556,1.556,0,0,0-.332-1.108,1.486,1.486,0,0,0-1.1-.344,1.65,1.65,0,0,0-1.519.863V0h-2.4V-8.981Z" transform="translate(768.896 5537.5)" fill="#12263f"/>
    <path id="Path_882994" data-name="Path 882994" d="M-24.848-5.238H-29.63V-2h5.611V0h-8.1V-12.086h8.085v2.017H-29.63v2.88h4.781Zm4.383-3.744.075,1a3.156,3.156,0,0,1,2.582-1.17,2.4,2.4,0,0,1,2.382,1.37,3.084,3.084,0,0,1,2.7-1.37,2.679,2.679,0,0,1,2.175.851,3.911,3.911,0,0,1,.714,2.561V0h-2.407V-5.728a1.71,1.71,0,0,0-.3-1.116A1.324,1.324,0,0,0-13.6-7.2a1.5,1.5,0,0,0-1.494,1.029L-15.087,0h-2.4V-5.719a1.689,1.689,0,0,0-.307-1.129A1.337,1.337,0,0,0-18.839-7.2a1.555,1.555,0,0,0-1.478.847V0h-2.4V-8.981ZM-8.371-4.574a5.327,5.327,0,0,1,.515-2.382A3.768,3.768,0,0,1-6.375-8.575,4.323,4.323,0,0,1-4.13-9.147,4.09,4.09,0,0,1-1.162-8.035,4.464,4.464,0,0,1,.12-5.014L.137-4.4A4.694,4.694,0,0,1-1.017-1.083,4.011,4.011,0,0,1-4.113.166a4.031,4.031,0,0,1-3.1-1.245A4.777,4.777,0,0,1-8.371-4.466Zm2.4.17a3.357,3.357,0,0,0,.481,1.958,1.588,1.588,0,0,0,1.378.678,1.592,1.592,0,0,0,1.361-.669,3.674,3.674,0,0,0,.49-2.141,3.324,3.324,0,0,0-.49-1.945,1.592,1.592,0,0,0-1.378-.69,1.566,1.566,0,0,0-1.361.686A3.735,3.735,0,0,0-5.972-4.4ZM5.35-1.768a1.573,1.573,0,0,0,1.079-.365A1.28,1.28,0,0,0,6.861-3.1H9.11a3.077,3.077,0,0,1-.5,1.673A3.286,3.286,0,0,1,7.271-.253a4.2,4.2,0,0,1-1.88.419A3.9,3.9,0,0,1,2.353-1.058,4.845,4.845,0,0,1,1.241-4.441V-4.6a4.79,4.79,0,0,1,1.1-3.312,3.854,3.854,0,0,1,3.03-1.237,3.778,3.778,0,0,1,2.7.959A3.4,3.4,0,0,1,9.11-5.636H6.861a1.648,1.648,0,0,0-.432-1.139,1.439,1.439,0,0,0-1.1-.438A1.445,1.445,0,0,0,4.067-6.6,3.541,3.541,0,0,0,3.64-4.62v.249a3.586,3.586,0,0,0,.423,2A1.463,1.463,0,0,0,5.35-1.768ZM13.011,0H10.6V-8.981h2.407ZM10.463-11.306a1.181,1.181,0,0,1,.361-.888,1.356,1.356,0,0,1,.984-.349,1.36,1.36,0,0,1,.979.349,1.175,1.175,0,0,1,.365.888,1.178,1.178,0,0,1-.369.9,1.363,1.363,0,0,1-.975.349,1.363,1.363,0,0,1-.975-.349A1.178,1.178,0,0,1,10.463-11.306Zm4.15,6.732a5.327,5.327,0,0,1,.515-2.382A3.768,3.768,0,0,1,16.61-8.575a4.323,4.323,0,0,1,2.245-.573,4.09,4.09,0,0,1,2.968,1.112,4.464,4.464,0,0,1,1.282,3.021l.017.614a4.694,4.694,0,0,1-1.154,3.316,4.011,4.011,0,0,1-3.1,1.249,4.031,4.031,0,0,1-3.1-1.245,4.777,4.777,0,0,1-1.158-3.387Zm2.4.17a3.357,3.357,0,0,0,.481,1.958,1.588,1.588,0,0,0,1.378.678,1.592,1.592,0,0,0,1.361-.669,3.674,3.674,0,0,0,.49-2.141,3.324,3.324,0,0,0-.49-1.945,1.592,1.592,0,0,0-1.378-.69,1.566,1.566,0,0,0-1.361.686A3.735,3.735,0,0,0,17.012-4.4Zm2.316-8.347h2.615l-2.3,2.573H17.693Zm7.479,3.769.075,1.038a3.136,3.136,0,0,1,2.582-1.2,2.606,2.606,0,0,1,2.125.838A3.912,3.912,0,0,1,32.3-5.8V0H29.9V-5.744a1.556,1.556,0,0,0-.332-1.108,1.486,1.486,0,0,0-1.1-.344,1.65,1.65,0,0,0-1.519.863V0h-2.4V-8.981Z" transform="translate(935.896 5383.032)" fill="#12263f"/>
    <path id="Path_882995" data-name="Path 882995" d="M8260,11749h-16l28.5-34,28.5,34h-15v30.21a65.065,65.065,0,0,0-26,.2Z" transform="translate(12629.104 -3057) rotate(90)" fill="#f6c3c4"/>
    <path id="Path_882996" data-name="Path 882996" d="M8260,11749h-16l28.5-34,28.5,34h-15v30.21a65.065,65.065,0,0,0-26,.2Z" transform="translate(-1600.96 19613.117) rotate(-135)" fill="#d1eeee"/>
    <path id="Path_882997" data-name="Path 882997" d="M16,30.414H0l28.5,34,28.5-34H42V.2A64.808,64.808,0,0,1,29.5,1.416,64.8,64.8,0,0,1,16,0Z" transform="translate(718.542 5454.667) rotate(135)" fill="#cadbf3"/>
    <path id="Path_882998" data-name="Path 882998" d="M16,30.414H0l28.5,34,28.5-34H42V.2A64.808,64.808,0,0,1,29.5,1.416,64.8,64.8,0,0,1,16,0Z" transform="translate(526.556 5494.972) rotate(-135)" fill="#7baeac"/>
    <path id="Path_882999" data-name="Path 882999" d="M8260,11749h-16l28.5-34,28.5,34h-15v30.21a65.065,65.065,0,0,0-26,.2Z" transform="translate(-1446.455 19451.922) rotate(-135)" fill="#7baeac"/>
    <path id="Path_883000" data-name="Path 883000" d="M16,30.414H0l28.5,34,28.5-34H42V.2A64.808,64.808,0,0,1,29.5,1.416,64.8,64.8,0,0,1,16,0Z" transform="translate(572.956 5298.472) rotate(135)" fill="#ebe3d0"/>
    <path id="Path_883001" data-name="Path 883001" d="M8260,11749h-16l28.5-34,28.5,34h-15v30.21a65.065,65.065,0,0,0-26,.2Z" transform="translate(12412.104 -3057) rotate(90)" fill="#7baeac"/>
    <path id="Path_883002" data-name="Path 883002" d="M8260,11749h-16l28.5-34,28.5,34h-15v30.21a65.065,65.065,0,0,0-26,.2Z" transform="translate(15147.583 6759.665) rotate(131)" fill="#f6c3c4"/>
    <path id="Path_883003" data-name="Path 883003" d="M16,30.414H0l28.5,34,28.5-34H42V.2A64.808,64.808,0,0,1,29.5,1.416,64.8,64.8,0,0,1,16,0Z" transform="translate(683.339 5339.065) rotate(-135)" fill="#ebe3d0"/>
    <path id="Path_883004" data-name="Path 883004" d="M8260,11749h-16l28.5-34,28.5,34h-15v30.21a65.065,65.065,0,0,0-26,.2Z" transform="translate(-11082.311 13804) rotate(-90)" fill="#cadbf3"/>
    <g id="Path_883005" data-name="Path 883005" transform="translate(916.104 5177.5)" fill="#3d5756">
      <path d="M 240 75.5 L 38 75.5 C 32.93732070922852 75.5 28.02632141113281 74.50856781005859 23.40346336364746 72.55328369140625 C 18.93803596496582 70.66457366943359 14.92760753631592 67.96060943603516 11.48349952697754 64.51650238037109 C 8.039392471313477 61.07239151000977 5.335428714752197 57.06196594238281 3.446714401245117 52.59653472900391 C 1.49142861366272 47.97367858886719 0.5 43.06267929077148 0.5 38 C 0.5 32.93732070922852 1.49142861366272 28.02632141113281 3.446714401245117 23.40346336364746 C 5.335428714752197 18.93803596496582 8.039392471313477 14.92760753631592 11.48349952697754 11.48349952697754 C 14.92760753631592 8.039392471313477 18.93803596496582 5.335428714752197 23.40346336364746 3.446714401245117 C 28.02632141113281 1.49142861366272 32.93732070922852 0.5 38 0.5 L 240 0.5 C 245.0626831054688 0.5 249.9736785888672 1.49142861366272 254.5965423583984 3.446714401245117 C 259.0619506835938 5.335428714752197 263.0723876953125 8.039392471313477 266.5165100097656 11.48349952697754 C 269.9606018066406 14.92760753631592 272.6645812988281 18.93803596496582 274.5532836914062 23.40346336364746 C 276.5085754394531 28.02632141113281 277.5 32.93732070922852 277.5 38 C 277.5 43.06267929077148 276.5085754394531 47.97367858886719 274.5532836914062 52.59653472900391 C 272.6645812988281 57.06196594238281 269.9606018066406 61.07239151000977 266.5165100097656 64.51650238037109 C 263.0723876953125 67.96060943603516 259.0619506835938 70.66457366943359 254.5965423583984 72.55328369140625 C 249.9736785888672 74.50856781005859 245.0626831054688 75.5 240 75.5 Z" stroke="none"/>
      <path d="M 38 1 C 33.00460815429688 1 28.15914916992188 1.978141784667969 23.59825134277344 3.907249450683594 C 19.19241333007812 5.770751953125 15.23538208007812 8.438713073730469 11.8370361328125 11.8370361328125 C 8.438720703125 15.23539352416992 5.770751953125 19.19242858886719 3.907257080078125 23.59825134277344 C 1.9781494140625 28.15914154052734 1 33.00460815429688 1 38 C 1 42.99539184570312 1.9781494140625 47.84085845947266 3.907257080078125 52.40174865722656 C 5.770751953125 56.80757141113281 8.438720703125 60.76460647583008 11.8370361328125 64.1629638671875 C 15.23538208007812 67.56128692626953 19.19241333007812 70.229248046875 23.59825134277344 72.09275054931641 C 28.15914916992188 74.02185821533203 33.00460815429688 75 38 75 L 240 75 C 244.9953918457031 75 249.8408508300781 74.02185821533203 254.4017486572266 72.09275054931641 C 258.8075561523438 70.229248046875 262.7646179199219 67.56128692626953 266.1629638671875 64.1629638671875 C 269.561279296875 60.76460647583008 272.229248046875 56.80757141113281 274.0927429199219 52.40174865722656 C 276.0218505859375 47.84085845947266 277 42.99539184570312 277 38 C 277 33.00460815429688 276.0218505859375 28.15914154052734 274.0927429199219 23.59825134277344 C 272.229248046875 19.19242858886719 269.561279296875 15.23539352416992 266.1629638671875 11.8370361328125 C 262.7646179199219 8.438713073730469 258.8075561523438 5.770751953125 254.4017486572266 3.907249450683594 C 249.8408508300781 1.978141784667969 244.9953918457031 1 240 1 L 38 1 M 38 0 L 240 0 C 260.98681640625 0 278 17.01317977905273 278 38 C 278 58.98682403564453 260.98681640625 76 240 76 L 38 76 C 17.01318359375 76 0 58.98682403564453 0 38 C 0 17.01317977905273 17.01318359375 0 38 0 Z" stroke="none" fill="#707070"/>
    </g>
    <g id="Path_883006" data-name="Path 883006" transform="translate(346.896 5177.5)" fill="#3d5756">
      <path d="M 240 75.5 L 38 75.5 C 32.93732070922852 75.5 28.02632141113281 74.50856781005859 23.40346336364746 72.55328369140625 C 18.93803596496582 70.66457366943359 14.92760753631592 67.96060943603516 11.48349952697754 64.51650238037109 C 8.039392471313477 61.07239151000977 5.335428714752197 57.06196594238281 3.446714401245117 52.59653472900391 C 1.49142861366272 47.97367858886719 0.5 43.06267929077148 0.5 38 C 0.5 32.93732070922852 1.49142861366272 28.02632141113281 3.446714401245117 23.40346336364746 C 5.335428714752197 18.93803596496582 8.039392471313477 14.92760753631592 11.48349952697754 11.48349952697754 C 14.92760753631592 8.039392471313477 18.93803596496582 5.335428714752197 23.40346336364746 3.446714401245117 C 28.02632141113281 1.49142861366272 32.93732070922852 0.5 38 0.5 L 240 0.5 C 245.0626831054688 0.5 249.9736785888672 1.49142861366272 254.5965423583984 3.446714401245117 C 259.0619506835938 5.335428714752197 263.0723876953125 8.039392471313477 266.5165100097656 11.48349952697754 C 269.9606018066406 14.92760753631592 272.6645812988281 18.93803596496582 274.5532836914062 23.40346336364746 C 276.5085754394531 28.02632141113281 277.5 32.93732070922852 277.5 38 C 277.5 43.06267929077148 276.5085754394531 47.97367858886719 274.5532836914062 52.59653472900391 C 272.6645812988281 57.06196594238281 269.9606018066406 61.07239151000977 266.5165100097656 64.51650238037109 C 263.0723876953125 67.96060943603516 259.0619506835938 70.66457366943359 254.5965423583984 72.55328369140625 C 249.9736785888672 74.50856781005859 245.0626831054688 75.5 240 75.5 Z" stroke="none"/>
      <path d="M 38 1 C 33.00460815429688 1 28.15914916992188 1.978141784667969 23.59825134277344 3.907249450683594 C 19.19241333007812 5.770751953125 15.23538208007812 8.438713073730469 11.8370361328125 11.8370361328125 C 8.438720703125 15.23539352416992 5.770751953125 19.19242858886719 3.907257080078125 23.59825134277344 C 1.9781494140625 28.15914154052734 1 33.00460815429688 1 38 C 1 42.99539184570312 1.9781494140625 47.84085845947266 3.907257080078125 52.40174865722656 C 5.770751953125 56.80757141113281 8.438720703125 60.76460647583008 11.8370361328125 64.1629638671875 C 15.23538208007812 67.56128692626953 19.19241333007812 70.229248046875 23.59825134277344 72.09275054931641 C 28.15914916992188 74.02185821533203 33.00460815429688 75 38 75 L 240 75 C 244.9953918457031 75 249.8408508300781 74.02185821533203 254.4017486572266 72.09275054931641 C 258.8075561523438 70.229248046875 262.7646179199219 67.56128692626953 266.1629638671875 64.1629638671875 C 269.561279296875 60.76460647583008 272.229248046875 56.80757141113281 274.0927429199219 52.40174865722656 C 276.0218505859375 47.84085845947266 277 42.99539184570312 277 38 C 277 33.00460815429688 276.0218505859375 28.15914154052734 274.0927429199219 23.59825134277344 C 272.229248046875 19.19242858886719 269.561279296875 15.23539352416992 266.1629638671875 11.8370361328125 C 262.7646179199219 8.438713073730469 258.8075561523438 5.770751953125 254.4017486572266 3.907249450683594 C 249.8408508300781 1.978141784667969 244.9953918457031 1 240 1 L 38 1 M 38 0 L 240 0 C 260.98681640625 0 278 17.01317977905273 278 38 C 278 58.98682403564453 260.98681640625 76 240 76 L 38 76 C 17.01318359375 76 0 58.98682403564453 0 38 C 0 17.01317977905273 17.01318359375 0 38 0 Z" stroke="none" fill="#707070"/>
    </g>
    <g id="Path_883007" data-name="Path 883007" transform="translate(343.896 5493.5)" fill="#3d5756">
      <path d="M 240 75.5 L 38 75.5 C 32.93732070922852 75.5 28.02632141113281 74.50856781005859 23.40346336364746 72.55328369140625 C 18.93803596496582 70.66457366943359 14.92760753631592 67.96060943603516 11.48349952697754 64.51650238037109 C 8.039392471313477 61.07239151000977 5.335428714752197 57.06196594238281 3.446714401245117 52.59653472900391 C 1.49142861366272 47.97367858886719 0.5 43.06267929077148 0.5 38 C 0.5 32.93732070922852 1.49142861366272 28.02632141113281 3.446714401245117 23.40346336364746 C 5.335428714752197 18.93803596496582 8.039392471313477 14.92760753631592 11.48349952697754 11.48349952697754 C 14.92760753631592 8.039392471313477 18.93803596496582 5.335428714752197 23.40346336364746 3.446714401245117 C 28.02632141113281 1.49142861366272 32.93732070922852 0.5 38 0.5 L 240 0.5 C 245.0626831054688 0.5 249.9736785888672 1.49142861366272 254.5965423583984 3.446714401245117 C 259.0619506835938 5.335428714752197 263.0723876953125 8.039392471313477 266.5165100097656 11.48349952697754 C 269.9606018066406 14.92760753631592 272.6645812988281 18.93803596496582 274.5532836914062 23.40346336364746 C 276.5085754394531 28.02632141113281 277.5 32.93732070922852 277.5 38 C 277.5 43.06267929077148 276.5085754394531 47.97367858886719 274.5532836914062 52.59653472900391 C 272.6645812988281 57.06196594238281 269.9606018066406 61.07239151000977 266.5165100097656 64.51650238037109 C 263.0723876953125 67.96060943603516 259.0619506835938 70.66457366943359 254.5965423583984 72.55328369140625 C 249.9736785888672 74.50856781005859 245.0626831054688 75.5 240 75.5 Z" stroke="none"/>
      <path d="M 38 1 C 33.00460815429688 1 28.15914916992188 1.978141784667969 23.59825134277344 3.907249450683594 C 19.19241333007812 5.770751953125 15.23538208007812 8.438713073730469 11.8370361328125 11.8370361328125 C 8.438720703125 15.23539352416992 5.770751953125 19.19242858886719 3.907257080078125 23.59825134277344 C 1.9781494140625 28.15914154052734 1 33.00460815429688 1 38 C 1 42.99539184570312 1.9781494140625 47.84085845947266 3.907257080078125 52.40174865722656 C 5.770751953125 56.80757141113281 8.438720703125 60.76460647583008 11.8370361328125 64.1629638671875 C 15.23538208007812 67.56128692626953 19.19241333007812 70.229248046875 23.59825134277344 72.09275054931641 C 28.15914916992188 74.02185821533203 33.00460815429688 75 38 75 L 240 75 C 244.9953918457031 75 249.8408508300781 74.02185821533203 254.4017486572266 72.09275054931641 C 258.8075561523438 70.229248046875 262.7646179199219 67.56128692626953 266.1629638671875 64.1629638671875 C 269.561279296875 60.76460647583008 272.229248046875 56.80757141113281 274.0927429199219 52.40174865722656 C 276.0218505859375 47.84085845947266 277 42.99539184570312 277 38 C 277 33.00460815429688 276.0218505859375 28.15914154052734 274.0927429199219 23.59825134277344 C 272.229248046875 19.19242858886719 269.561279296875 15.23539352416992 266.1629638671875 11.8370361328125 C 262.7646179199219 8.438713073730469 258.8075561523438 5.770751953125 254.4017486572266 3.907249450683594 C 249.8408508300781 1.978141784667969 244.9953918457031 1 240 1 L 38 1 M 38 0 L 240 0 C 260.98681640625 0 278 17.01317977905273 278 38 C 278 58.98682403564453 260.98681640625 76 240 76 L 38 76 C 17.01318359375 76 0 58.98682403564453 0 38 C 0 17.01317977905273 17.01318359375 0 38 0 Z" stroke="none" fill="#707070"/>
    </g>
    <path id="Path_883008" data-name="Path 883008" d="M6.126,16a2.664,2.664,0,0,1-.241-.805,2.9,2.9,0,0,1-2.266.971A3.189,3.189,0,0,1,1.432,15.4a2.456,2.456,0,0,1-.867-1.926,2.538,2.538,0,0,1,1.058-2.191,5.222,5.222,0,0,1,3.059-.772h1.1V10a1.48,1.48,0,0,0-.32-1,1.257,1.257,0,0,0-1.009-.374,1.429,1.429,0,0,0-.95.291.987.987,0,0,0-.344.8H.764a2.41,2.41,0,0,1,.481-1.444A3.182,3.182,0,0,1,2.606,7.23a4.961,4.961,0,0,1,1.976-.378,3.92,3.92,0,0,1,2.635.834,2.918,2.918,0,0,1,.975,2.345v3.893a4.294,4.294,0,0,0,.357,1.934V16ZM4.142,14.332a2.066,2.066,0,0,0,.979-.237,1.554,1.554,0,0,0,.664-.635V11.916h-.9q-1.8,0-1.917,1.245l-.008.141a.96.96,0,0,0,.315.739A1.225,1.225,0,0,0,4.142,14.332Zm6.018.49a1.208,1.208,0,0,1,.386-.93,1.5,1.5,0,0,1,1.942,0,1.208,1.208,0,0,1,.386.93,1.191,1.191,0,0,1-.382.917,1.525,1.525,0,0,1-1.951,0A1.191,1.191,0,0,1,10.16,14.821Zm15.473-1.992a1.278,1.278,0,0,0-.5-1.083,6.533,6.533,0,0,0-1.793-.8,12.71,12.71,0,0,1-2.05-.826,3.35,3.35,0,0,1-2.059-3,2.919,2.919,0,0,1,.552-1.747,3.6,3.6,0,0,1,1.585-1.2,5.967,5.967,0,0,1,2.32-.432A5.432,5.432,0,0,1,26,4.217a3.674,3.674,0,0,1,1.573,1.324,3.464,3.464,0,0,1,.56,1.942h-2.49a1.63,1.63,0,0,0-.523-1.291,2.15,2.15,0,0,0-1.469-.461,2.3,2.3,0,0,0-1.419.386,1.217,1.217,0,0,0-.506,1.017,1.166,1.166,0,0,0,.594.988,6.705,6.705,0,0,0,1.747.747,7.55,7.55,0,0,1,3.1,1.585,3.157,3.157,0,0,1,.971,2.357,2.909,2.909,0,0,1-1.187,2.461,5.2,5.2,0,0,1-3.2.892,6.171,6.171,0,0,1-2.54-.51,4.019,4.019,0,0,1-1.747-1.4,3.582,3.582,0,0,1-.6-2.059h2.5q0,2,2.391,2a2.326,2.326,0,0,0,1.386-.361A1.175,1.175,0,0,0,25.633,12.829Zm8.16,3.337a4.409,4.409,0,0,1-3.217-1.212,4.308,4.308,0,0,1-1.241-3.229v-.232a5.426,5.426,0,0,1,.523-2.42A3.838,3.838,0,0,1,31.34,7.429a4.159,4.159,0,0,1,2.187-.577,3.727,3.727,0,0,1,2.9,1.162,4.722,4.722,0,0,1,1.058,3.3v.979H31.767a2.229,2.229,0,0,0,.7,1.411,2.12,2.12,0,0,0,1.482.531,2.589,2.589,0,0,0,2.167-1l1.179,1.32a3.6,3.6,0,0,1-1.461,1.191A4.793,4.793,0,0,1,33.792,16.166Zm-.274-7.379a1.5,1.5,0,0,0-1.158.484,2.5,2.5,0,0,0-.569,1.384h3.337v-.192A1.786,1.786,0,0,0,34.7,9.224,1.547,1.547,0,0,0,33.519,8.787ZM41.379,16H38.972V3.25h2.407Zm6.109.166a4.409,4.409,0,0,1-3.217-1.212,4.308,4.308,0,0,1-1.241-3.229v-.232a5.426,5.426,0,0,1,.523-2.42,3.838,3.838,0,0,1,1.482-1.644,4.159,4.159,0,0,1,2.187-.577,3.727,3.727,0,0,1,2.9,1.162,4.722,4.722,0,0,1,1.058,3.3v.979H45.463a2.229,2.229,0,0,0,.7,1.411,2.12,2.12,0,0,0,1.482.531,2.589,2.589,0,0,0,2.167-1l1.179,1.32a3.6,3.6,0,0,1-1.461,1.191A4.793,4.793,0,0,1,47.489,16.166Zm-.274-7.379a1.5,1.5,0,0,0-1.158.484,2.5,2.5,0,0,0-.569,1.384h3.337v-.192a1.786,1.786,0,0,0-.432-1.238A1.547,1.547,0,0,0,47.215,8.787Zm9.064,5.445a1.573,1.573,0,0,0,1.079-.365,1.28,1.28,0,0,0,.432-.971h2.25a3.077,3.077,0,0,1-.5,1.673A3.286,3.286,0,0,1,58.2,15.747a4.2,4.2,0,0,1-1.88.419,3.9,3.9,0,0,1-3.038-1.224,4.845,4.845,0,0,1-1.112-3.383V11.4a4.79,4.79,0,0,1,1.1-3.312A3.854,3.854,0,0,1,56.3,6.853a3.778,3.778,0,0,1,2.7.959,3.4,3.4,0,0,1,1.033,2.552H57.79a1.648,1.648,0,0,0-.432-1.139A1.6,1.6,0,0,0,55,9.4a3.541,3.541,0,0,0-.427,1.983v.249a3.586,3.586,0,0,0,.423,2A1.463,1.463,0,0,0,56.279,14.232Zm8.865,0a1.573,1.573,0,0,0,1.079-.365,1.28,1.28,0,0,0,.432-.971H68.9a3.077,3.077,0,0,1-.5,1.673,3.286,3.286,0,0,1-1.341,1.179,4.2,4.2,0,0,1-1.88.419,3.9,3.9,0,0,1-3.038-1.224,4.845,4.845,0,0,1-1.112-3.383V11.4a4.79,4.79,0,0,1,1.1-3.312,3.854,3.854,0,0,1,3.03-1.237,3.778,3.778,0,0,1,2.7.959A3.4,3.4,0,0,1,68.9,10.364h-2.25a1.648,1.648,0,0,0-.432-1.139,1.6,1.6,0,0,0-2.362.173,3.541,3.541,0,0,0-.427,1.983v.249a3.586,3.586,0,0,0,.423,2A1.463,1.463,0,0,0,65.145,14.232ZM72.806,16H70.4V7.019h2.407ZM70.258,4.694a1.181,1.181,0,0,1,.361-.888,1.556,1.556,0,0,1,1.963,0,1.175,1.175,0,0,1,.365.888,1.178,1.178,0,0,1-.369.9,1.539,1.539,0,0,1-1.951,0A1.178,1.178,0,0,1,70.258,4.694Zm4.15,6.732a5.326,5.326,0,0,1,.515-2.382A3.768,3.768,0,0,1,76.4,7.425a4.323,4.323,0,0,1,2.245-.573,4.09,4.09,0,0,1,2.968,1.112A4.464,4.464,0,0,1,82.9,10.986l.017.614a4.694,4.694,0,0,1-1.154,3.316,4.472,4.472,0,0,1-6.2,0,4.777,4.777,0,0,1-1.158-3.387Zm2.4.17a3.357,3.357,0,0,0,.481,1.958,1.73,1.73,0,0,0,2.739.008,3.674,3.674,0,0,0,.49-2.141,3.324,3.324,0,0,0-.49-1.945,1.592,1.592,0,0,0-1.378-.69,1.566,1.566,0,0,0-1.361.686A3.736,3.736,0,0,0,76.807,11.6ZM79.123,3.25h2.615l-2.3,2.573H77.488ZM86.6,7.019l.075,1.038a3.136,3.136,0,0,1,2.582-1.2,2.606,2.606,0,0,1,2.125.838A3.912,3.912,0,0,1,92.1,10.2V16H89.7V10.256a1.556,1.556,0,0,0-.332-1.108,1.486,1.486,0,0,0-1.1-.344,1.65,1.65,0,0,0-1.519.863V16h-2.4V7.019Zm11.173,4.424A5.413,5.413,0,0,1,98.717,8.1a3.057,3.057,0,0,1,2.577-1.245,2.751,2.751,0,0,1,2.167.979V3.25h2.407V16H103.7l-.116-.955a2.823,2.823,0,0,1-2.308,1.121,3.049,3.049,0,0,1-2.544-1.249A5.587,5.587,0,0,1,97.775,11.443Zm2.4.179a3.546,3.546,0,0,0,.44,1.937,1.433,1.433,0,0,0,1.278.673,1.605,1.605,0,0,0,1.569-.939V9.743a1.582,1.582,0,0,0-1.552-.939Q100.174,8.8,100.174,11.621Zm11.688,4.545a4.409,4.409,0,0,1-3.217-1.212,4.308,4.308,0,0,1-1.241-3.229v-.232a5.426,5.426,0,0,1,.523-2.42,3.838,3.838,0,0,1,1.482-1.644,4.159,4.159,0,0,1,2.187-.577,3.727,3.727,0,0,1,2.9,1.162,4.722,4.722,0,0,1,1.058,3.3v.979h-5.719a2.229,2.229,0,0,0,.7,1.411,2.12,2.12,0,0,0,1.482.531,2.589,2.589,0,0,0,2.167-1l1.179,1.32a3.6,3.6,0,0,1-1.461,1.191A4.793,4.793,0,0,1,111.861,16.166Zm-.274-7.379a1.5,1.5,0,0,0-1.158.484,2.5,2.5,0,0,0-.569,1.384H113.2v-.192a1.786,1.786,0,0,0-.432-1.238A1.547,1.547,0,0,0,111.587,8.787ZM123.682,16h-2.407V3.25h2.407Zm7.18,0a2.664,2.664,0,0,1-.241-.805,2.9,2.9,0,0,1-2.266.971,3.189,3.189,0,0,1-2.187-.764,2.456,2.456,0,0,1-.867-1.926,2.538,2.538,0,0,1,1.058-2.191,5.222,5.222,0,0,1,3.059-.772h1.1V10a1.48,1.48,0,0,0-.32-1,1.257,1.257,0,0,0-1.009-.374,1.429,1.429,0,0,0-.95.291.987.987,0,0,0-.344.8h-2.4a2.41,2.41,0,0,1,.481-1.444,3.182,3.182,0,0,1,1.361-1.042,4.961,4.961,0,0,1,1.976-.378,3.92,3.92,0,0,1,2.635.834,2.918,2.918,0,0,1,.975,2.345v3.893a4.294,4.294,0,0,0,.357,1.934V16Zm-1.984-1.668a2.066,2.066,0,0,0,.979-.237,1.554,1.554,0,0,0,.664-.635V11.916h-.9q-1.8,0-1.917,1.245l-.008.141a.96.96,0,0,0,.315.739A1.225,1.225,0,0,0,128.878,14.332Zm14.991-.813a.773.773,0,0,0-.436-.693,4.95,4.95,0,0,0-1.4-.452q-3.2-.672-3.2-2.723a2.468,2.468,0,0,1,.992-2,4,4,0,0,1,2.594-.8,4.307,4.307,0,0,1,2.735.805,2.538,2.538,0,0,1,1.025,2.092h-2.4a1.161,1.161,0,0,0-.332-.851,1.405,1.405,0,0,0-1.038-.336,1.436,1.436,0,0,0-.938.274.865.865,0,0,0-.332.7.739.739,0,0,0,.378.643,3.885,3.885,0,0,0,1.274.423,10.407,10.407,0,0,1,1.511.4,2.482,2.482,0,0,1,1.9,2.416,2.343,2.343,0,0,1-1.054,1.988,4.548,4.548,0,0,1-2.723.76,4.75,4.75,0,0,1-2-.4,3.363,3.363,0,0,1-1.374-1.1,2.565,2.565,0,0,1-.5-1.515h2.274a1.252,1.252,0,0,0,.473.979,1.877,1.877,0,0,0,1.179.34,1.737,1.737,0,0,0,1.042-.261A.814.814,0,0,0,143.869,13.518ZM150.277,16H147.87V7.019h2.407ZM147.729,4.694a1.181,1.181,0,0,1,.361-.888,1.556,1.556,0,0,1,1.963,0,1.175,1.175,0,0,1,.365.888,1.178,1.178,0,0,1-.369.9,1.539,1.539,0,0,1-1.951,0A1.178,1.178,0,0,1,147.729,4.694Zm7.4.116V7.019h1.536v1.76h-1.536v4.482a1.07,1.07,0,0,0,.191.714.959.959,0,0,0,.73.216,3.826,3.826,0,0,0,.706-.058V15.95a4.939,4.939,0,0,1-1.453.216,2.29,2.29,0,0,1-2.573-2.548V8.778h-1.312V7.019h1.312V4.811Zm8.251,10.276a3.008,3.008,0,0,1-2.457,1.079,2.837,2.837,0,0,1-2.2-.83,3.543,3.543,0,0,1-.776-2.432V7.019h2.4v5.809q0,1.4,1.278,1.4a1.732,1.732,0,0,0,1.677-.848V7.019H165.7V16h-2.258Zm9.338.913a2.664,2.664,0,0,1-.241-.805,2.9,2.9,0,0,1-2.266.971,3.189,3.189,0,0,1-2.187-.764,2.456,2.456,0,0,1-.867-1.926,2.538,2.538,0,0,1,1.058-2.191,5.222,5.222,0,0,1,3.059-.772h1.1V10a1.48,1.48,0,0,0-.32-1,1.257,1.257,0,0,0-1.009-.374,1.429,1.429,0,0,0-.95.291.987.987,0,0,0-.344.8h-2.4a2.41,2.41,0,0,1,.481-1.444,3.182,3.182,0,0,1,1.361-1.042,4.961,4.961,0,0,1,1.976-.378,3.92,3.92,0,0,1,2.635.834,2.918,2.918,0,0,1,.975,2.345v3.893a4.294,4.294,0,0,0,.357,1.934V16Zm-1.984-1.668a2.066,2.066,0,0,0,.979-.237,1.554,1.554,0,0,0,.664-.635V11.916h-.9q-1.8,0-1.917,1.245l-.008.141a.96.96,0,0,0,.315.739A1.225,1.225,0,0,0,170.73,14.332Zm9.629-.1a1.573,1.573,0,0,0,1.079-.365,1.28,1.28,0,0,0,.432-.971h2.25a3.077,3.077,0,0,1-.5,1.673,3.286,3.286,0,0,1-1.341,1.179,4.2,4.2,0,0,1-1.88.419,3.9,3.9,0,0,1-3.038-1.224,4.845,4.845,0,0,1-1.112-3.383V11.4a4.79,4.79,0,0,1,1.1-3.312,3.854,3.854,0,0,1,3.03-1.237,3.778,3.778,0,0,1,2.7.959,3.4,3.4,0,0,1,1.033,2.552h-2.25a1.648,1.648,0,0,0-.432-1.139,1.6,1.6,0,0,0-2.362.173,3.541,3.541,0,0,0-.427,1.983v.249a3.586,3.586,0,0,0,.423,2A1.463,1.463,0,0,0,180.359,14.232ZM188.021,16h-2.407V7.019h2.407ZM185.473,4.694a1.181,1.181,0,0,1,.361-.888,1.556,1.556,0,0,1,1.963,0,1.175,1.175,0,0,1,.365.888,1.178,1.178,0,0,1-.369.9,1.539,1.539,0,0,1-1.951,0A1.178,1.178,0,0,1,185.473,4.694Zm4.15,6.732a5.327,5.327,0,0,1,.515-2.382,3.767,3.767,0,0,1,1.482-1.619,4.323,4.323,0,0,1,2.245-.573,4.09,4.09,0,0,1,2.968,1.112,4.464,4.464,0,0,1,1.282,3.021l.017.614a4.694,4.694,0,0,1-1.154,3.316,4.472,4.472,0,0,1-6.2,0,4.777,4.777,0,0,1-1.158-3.387Zm2.4.17a3.357,3.357,0,0,0,.481,1.958,1.73,1.73,0,0,0,2.739.008,3.674,3.674,0,0,0,.49-2.141,3.324,3.324,0,0,0-.49-1.945,1.592,1.592,0,0,0-1.378-.69,1.566,1.566,0,0,0-1.361.686A3.735,3.735,0,0,0,192.022,11.6Zm2.316-8.347h2.615l-2.3,2.573H192.7Zm7.479,3.769.075,1.038a3.136,3.136,0,0,1,2.582-1.2,2.606,2.606,0,0,1,2.125.838,3.912,3.912,0,0,1,.714,2.507V16h-2.4V10.256a1.556,1.556,0,0,0-.332-1.108,1.486,1.486,0,0,0-1.1-.344,1.65,1.65,0,0,0-1.519.863V16h-2.4V7.019ZM9.015,35.592a5.439,5.439,0,0,1-.921,3.366A3.052,3.052,0,0,1,5.52,40.166a2.8,2.8,0,0,1-2.333-1.121L3.08,40H.921V27.25h2.4v4.574A2.732,2.732,0,0,1,5.5,30.853,3.077,3.077,0,0,1,8.081,32.06a5.446,5.446,0,0,1,.934,3.4Zm-2.4-.174a3.573,3.573,0,0,0-.432-1.988A1.46,1.46,0,0,0,4.9,32.8a1.582,1.582,0,0,0-1.577.938v3.544a1.6,1.6,0,0,0,1.594.946,1.481,1.481,0,0,0,1.527-1.146A5.909,5.909,0,0,0,6.616,35.418Zm4,3.4a1.208,1.208,0,0,1,.386-.93,1.5,1.5,0,0,1,1.942,0,1.208,1.208,0,0,1,.386.93,1.191,1.191,0,0,1-.382.917,1.525,1.525,0,0,1-1.951,0A1.191,1.191,0,0,1,10.617,38.821ZM23.076,27.914l3.1,8.766,3.088-8.766h3.271V40h-2.5V36.7l.249-5.7L27.027,40h-1.71l-3.254-9,.249,5.694V40h-2.49V27.914Zm11.106,7.512a5.327,5.327,0,0,1,.515-2.382,3.767,3.767,0,0,1,1.482-1.619,4.323,4.323,0,0,1,2.245-.573,4.09,4.09,0,0,1,2.968,1.112,4.464,4.464,0,0,1,1.282,3.021l.017.614a4.694,4.694,0,0,1-1.154,3.316,4.472,4.472,0,0,1-6.2,0,4.777,4.777,0,0,1-1.158-3.387Zm2.4.17a3.357,3.357,0,0,0,.481,1.958,1.73,1.73,0,0,0,2.739.008,3.674,3.674,0,0,0,.49-2.141,3.324,3.324,0,0,0-.49-1.945,1.592,1.592,0,0,0-1.378-.69,1.566,1.566,0,0,0-1.361.686A3.735,3.735,0,0,0,36.582,35.6Zm7.213-.154a5.413,5.413,0,0,1,.942-3.345,3.057,3.057,0,0,1,2.577-1.245,2.751,2.751,0,0,1,2.167.979V27.25h2.407V40H49.722l-.116-.955A2.823,2.823,0,0,1,47.3,40.166a3.049,3.049,0,0,1-2.544-1.249A5.587,5.587,0,0,1,43.795,35.443Zm2.4.179a3.546,3.546,0,0,0,.44,1.937,1.433,1.433,0,0,0,1.278.673,1.605,1.605,0,0,0,1.569-.939v-3.55a1.582,1.582,0,0,0-1.552-.939Q46.194,32.8,46.194,35.621ZM56.279,40H53.872V31.019h2.407ZM53.731,28.694a1.181,1.181,0,0,1,.361-.888,1.556,1.556,0,0,1,1.963,0,1.268,1.268,0,0,1,0,1.785,1.539,1.539,0,0,1-1.951,0A1.178,1.178,0,0,1,53.731,28.694ZM58.836,40V32.778H57.5v-1.76h1.336V30.6a3.368,3.368,0,0,1,1.042-2.611,4.191,4.191,0,0,1,2.893-.917,9.6,9.6,0,0,1,2.723.49l-.349,1.984a10.622,10.622,0,0,0-1.262-.311,6.2,6.2,0,0,0-.963-.071q-1.677,0-1.677,1.486v.365h1.768v1.76H61.243V40Zm7.778,0H64.207V31.019h2.407Zm5.719-1.768a1.573,1.573,0,0,0,1.079-.365,1.28,1.28,0,0,0,.432-.971h2.25a3.077,3.077,0,0,1-.5,1.673,3.286,3.286,0,0,1-1.341,1.179,4.2,4.2,0,0,1-1.88.419,3.9,3.9,0,0,1-3.038-1.224,4.845,4.845,0,0,1-1.112-3.383V35.4a4.79,4.79,0,0,1,1.1-3.312,3.854,3.854,0,0,1,3.03-1.237,3.778,3.778,0,0,1,2.7.959,3.4,3.4,0,0,1,1.033,2.552h-2.25a1.648,1.648,0,0,0-.432-1.139,1.6,1.6,0,0,0-2.362.173,3.541,3.541,0,0,0-.427,1.983v.249a3.586,3.586,0,0,0,.423,2A1.463,1.463,0,0,0,72.333,38.232ZM82.667,40a2.664,2.664,0,0,1-.241-.805,2.9,2.9,0,0,1-2.266.971,3.189,3.189,0,0,1-2.187-.764,2.456,2.456,0,0,1-.867-1.926,2.538,2.538,0,0,1,1.058-2.191,5.222,5.222,0,0,1,3.059-.772h1.1V34a1.48,1.48,0,0,0-.32-1A1.257,1.257,0,0,0,81,32.629a1.429,1.429,0,0,0-.95.291.987.987,0,0,0-.344.8h-2.4a2.41,2.41,0,0,1,.481-1.444,3.182,3.182,0,0,1,1.361-1.042,4.961,4.961,0,0,1,1.976-.378,3.92,3.92,0,0,1,2.635.834,2.918,2.918,0,0,1,.975,2.345v3.893a4.294,4.294,0,0,0,.357,1.934V40Zm-1.984-1.668a2.066,2.066,0,0,0,.979-.237,1.554,1.554,0,0,0,.664-.635V35.916h-.9q-1.8,0-1.917,1.245L79.5,37.3a.96.96,0,0,0,.315.739A1.225,1.225,0,0,0,80.684,38.332Zm9.629-.1a1.573,1.573,0,0,0,1.079-.365,1.28,1.28,0,0,0,.432-.971h2.25a3.077,3.077,0,0,1-.5,1.673,3.286,3.286,0,0,1-1.341,1.179,4.2,4.2,0,0,1-1.88.419,3.9,3.9,0,0,1-3.038-1.224A4.845,4.845,0,0,1,86.2,35.559V35.4a4.79,4.79,0,0,1,1.1-3.312,3.854,3.854,0,0,1,3.03-1.237,3.778,3.778,0,0,1,2.7.959,3.4,3.4,0,0,1,1.033,2.552h-2.25a1.648,1.648,0,0,0-.432-1.139,1.6,1.6,0,0,0-2.362.173A3.541,3.541,0,0,0,88.6,35.38v.249a3.586,3.586,0,0,0,.423,2A1.463,1.463,0,0,0,90.313,38.232ZM97.974,40H95.567V31.019h2.407ZM95.426,28.694a1.181,1.181,0,0,1,.361-.888,1.556,1.556,0,0,1,1.963,0,1.268,1.268,0,0,1,0,1.785,1.539,1.539,0,0,1-1.951,0A1.178,1.178,0,0,1,95.426,28.694Zm4.15,6.732a5.326,5.326,0,0,1,.515-2.382,3.768,3.768,0,0,1,1.482-1.619,4.323,4.323,0,0,1,2.245-.573,4.09,4.09,0,0,1,2.968,1.112,4.464,4.464,0,0,1,1.282,3.021l.017.614a4.694,4.694,0,0,1-1.154,3.316,4.472,4.472,0,0,1-6.2,0,4.777,4.777,0,0,1-1.158-3.387Zm2.4.17a3.357,3.357,0,0,0,.481,1.958,1.73,1.73,0,0,0,2.739.008,3.674,3.674,0,0,0,.49-2.141,3.324,3.324,0,0,0-.49-1.945,1.592,1.592,0,0,0-1.378-.69,1.566,1.566,0,0,0-1.361.686A3.735,3.735,0,0,0,101.975,35.6Zm2.316-8.347h2.615l-2.3,2.573h-1.951Zm7.479,3.769.075,1.038a3.136,3.136,0,0,1,2.582-1.2,2.606,2.606,0,0,1,2.125.838,3.912,3.912,0,0,1,.714,2.507V40h-2.4V34.256a1.556,1.556,0,0,0-.332-1.108,1.486,1.486,0,0,0-1.1-.344,1.65,1.65,0,0,0-1.519.863V40h-2.4V31.019Zm11.173,4.424a5.413,5.413,0,0,1,.942-3.345,3.057,3.057,0,0,1,2.577-1.245,2.751,2.751,0,0,1,2.167.979V27.25h2.407V40H128.87l-.116-.955a2.823,2.823,0,0,1-2.308,1.121,3.049,3.049,0,0,1-2.544-1.249A5.587,5.587,0,0,1,122.943,35.443Zm2.4.179a3.546,3.546,0,0,0,.44,1.937,1.433,1.433,0,0,0,1.278.673,1.605,1.605,0,0,0,1.569-.939v-3.55a1.582,1.582,0,0,0-1.552-.939Q125.342,32.8,125.342,35.621Zm11.688,4.545a4.409,4.409,0,0,1-3.217-1.212,4.308,4.308,0,0,1-1.241-3.229v-.232a5.426,5.426,0,0,1,.523-2.42,3.838,3.838,0,0,1,1.482-1.644,4.159,4.159,0,0,1,2.187-.577,3.727,3.727,0,0,1,2.9,1.162,4.722,4.722,0,0,1,1.058,3.3v.979H135a2.228,2.228,0,0,0,.7,1.411,2.12,2.12,0,0,0,1.482.531,2.589,2.589,0,0,0,2.167-1l1.179,1.32a3.6,3.6,0,0,1-1.461,1.191A4.793,4.793,0,0,1,137.029,40.166Zm-.274-7.379a1.5,1.5,0,0,0-1.158.484,2.5,2.5,0,0,0-.569,1.384h3.337v-.192a1.786,1.786,0,0,0-.432-1.238A1.547,1.547,0,0,0,136.755,32.787ZM148.85,40h-2.407V27.25h2.407Zm7.18,0a2.664,2.664,0,0,1-.241-.805,2.9,2.9,0,0,1-2.266.971,3.189,3.189,0,0,1-2.187-.764,2.456,2.456,0,0,1-.867-1.926,2.538,2.538,0,0,1,1.058-2.191,5.222,5.222,0,0,1,3.059-.772h1.1V34a1.48,1.48,0,0,0-.32-1,1.257,1.257,0,0,0-1.009-.374,1.429,1.429,0,0,0-.95.291.987.987,0,0,0-.344.8h-2.4a2.41,2.41,0,0,1,.481-1.444,3.182,3.182,0,0,1,1.361-1.042,4.961,4.961,0,0,1,1.976-.378,3.92,3.92,0,0,1,2.635.834,2.918,2.918,0,0,1,.975,2.345v3.893a4.294,4.294,0,0,0,.357,1.934V40Zm-1.984-1.668a2.066,2.066,0,0,0,.979-.237,1.554,1.554,0,0,0,.664-.635V35.916h-.9q-1.8,0-1.917,1.245l-.008.141a.96.96,0,0,0,.315.739A1.225,1.225,0,0,0,154.046,38.332Zm14.991-.813a.773.773,0,0,0-.436-.693,4.95,4.95,0,0,0-1.4-.452Q164,35.7,164,33.65a2.468,2.468,0,0,1,.992-2,4,4,0,0,1,2.594-.8,4.307,4.307,0,0,1,2.735.805,2.538,2.538,0,0,1,1.025,2.092h-2.4a1.161,1.161,0,0,0-.332-.851,1.405,1.405,0,0,0-1.038-.336,1.436,1.436,0,0,0-.938.274.865.865,0,0,0-.332.7.739.739,0,0,0,.378.643,3.885,3.885,0,0,0,1.274.423,10.407,10.407,0,0,1,1.511.4,2.482,2.482,0,0,1,1.9,2.416,2.343,2.343,0,0,1-1.054,1.988,4.548,4.548,0,0,1-2.723.76,4.75,4.75,0,0,1-2-.4,3.363,3.363,0,0,1-1.374-1.1,2.565,2.565,0,0,1-.5-1.515h2.274a1.252,1.252,0,0,0,.473.979,1.877,1.877,0,0,0,1.179.34,1.737,1.737,0,0,0,1.042-.261A.814.814,0,0,0,169.037,37.518ZM175.445,40h-2.407V31.019h2.407ZM172.9,28.694a1.181,1.181,0,0,1,.361-.888,1.556,1.556,0,0,1,1.963,0,1.268,1.268,0,0,1,0,1.785,1.539,1.539,0,0,1-1.951,0A1.178,1.178,0,0,1,172.9,28.694Zm7.4.116v2.208h1.536v1.76h-1.536v4.482a1.07,1.07,0,0,0,.191.714.959.959,0,0,0,.73.216,3.826,3.826,0,0,0,.706-.058V39.95a4.939,4.939,0,0,1-1.453.216,2.29,2.29,0,0,1-2.573-2.548V32.778h-1.312v-1.76h1.312V28.811Zm8.251,10.276a3.008,3.008,0,0,1-2.457,1.079,2.837,2.837,0,0,1-2.2-.83,3.543,3.543,0,0,1-.776-2.432V31.019h2.4v5.809q0,1.4,1.278,1.4a1.732,1.732,0,0,0,1.677-.848V31.019h2.407V40H188.61Zm9.338.913a2.664,2.664,0,0,1-.241-.805,2.9,2.9,0,0,1-2.266.971,3.189,3.189,0,0,1-2.187-.764,2.456,2.456,0,0,1-.867-1.926,2.538,2.538,0,0,1,1.058-2.191,5.222,5.222,0,0,1,3.059-.772h1.1V34a1.48,1.48,0,0,0-.32-1,1.257,1.257,0,0,0-1.009-.374,1.429,1.429,0,0,0-.95.291.987.987,0,0,0-.344.8h-2.4A2.41,2.41,0,0,1,193,32.272a3.182,3.182,0,0,1,1.361-1.042,4.961,4.961,0,0,1,1.976-.378,3.92,3.92,0,0,1,2.635.834,2.918,2.918,0,0,1,.975,2.345v3.893a4.294,4.294,0,0,0,.357,1.934V40ZM195.9,38.332a2.066,2.066,0,0,0,.979-.237,1.554,1.554,0,0,0,.664-.635V35.916h-.9q-1.8,0-1.917,1.245l-.008.141a.96.96,0,0,0,.315.739A1.225,1.225,0,0,0,195.9,38.332Zm9.629-.1a1.573,1.573,0,0,0,1.079-.365,1.28,1.28,0,0,0,.432-.971h2.25a3.077,3.077,0,0,1-.5,1.673,3.286,3.286,0,0,1-1.341,1.179,4.2,4.2,0,0,1-1.88.419,3.9,3.9,0,0,1-3.038-1.224,4.845,4.845,0,0,1-1.112-3.383V35.4a4.79,4.79,0,0,1,1.1-3.312,3.854,3.854,0,0,1,3.03-1.237,3.778,3.778,0,0,1,2.7.959,3.4,3.4,0,0,1,1.033,2.552h-2.25a1.648,1.648,0,0,0-.432-1.139,1.6,1.6,0,0,0-2.362.173,3.541,3.541,0,0,0-.427,1.983v.249a3.586,3.586,0,0,0,.423,2A1.463,1.463,0,0,0,205.527,38.232ZM213.189,40h-2.407V31.019h2.407Zm-2.548-11.306a1.181,1.181,0,0,1,.361-.888,1.556,1.556,0,0,1,1.963,0,1.268,1.268,0,0,1,0,1.785,1.539,1.539,0,0,1-1.951,0A1.178,1.178,0,0,1,210.641,28.694Zm4.15,6.732a5.327,5.327,0,0,1,.515-2.382,3.767,3.767,0,0,1,1.482-1.619,4.323,4.323,0,0,1,2.245-.573A4.09,4.09,0,0,1,222,31.965a4.464,4.464,0,0,1,1.282,3.021l.017.614a4.694,4.694,0,0,1-1.154,3.316,4.472,4.472,0,0,1-6.2,0,4.777,4.777,0,0,1-1.158-3.387Zm2.4.17a3.357,3.357,0,0,0,.481,1.958,1.73,1.73,0,0,0,2.739.008,3.674,3.674,0,0,0,.49-2.141,3.324,3.324,0,0,0-.49-1.945,1.592,1.592,0,0,0-1.378-.69,1.566,1.566,0,0,0-1.361.686A3.735,3.735,0,0,0,217.19,35.6Zm2.316-8.347h2.615l-2.3,2.573h-1.951Zm7.479,3.769.075,1.038a3.136,3.136,0,0,1,2.582-1.2,2.606,2.606,0,0,1,2.125.838,3.912,3.912,0,0,1,.714,2.507V40h-2.4V34.256a1.556,1.556,0,0,0-.332-1.108,1.486,1.486,0,0,0-1.1-.344,1.65,1.65,0,0,0-1.519.863V40h-2.4V31.019Z" transform="translate(943.104 5193.5)" fill="#fff"/>
    <path id="Path_883009" data-name="Path 883009" d="M4.333,3.914l3.1,8.766,3.088-8.766H13.8V16H11.3V12.7l.249-5.7L8.284,16H6.574L3.32,7,3.569,12.7V16H1.079V3.914Zm11.106,7.512a5.327,5.327,0,0,1,.515-2.382,3.768,3.768,0,0,1,1.482-1.619,4.323,4.323,0,0,1,2.245-.573,4.09,4.09,0,0,1,2.968,1.112,4.464,4.464,0,0,1,1.282,3.021l.017.614a4.694,4.694,0,0,1-1.154,3.316,4.011,4.011,0,0,1-3.1,1.249,4.031,4.031,0,0,1-3.1-1.245,4.777,4.777,0,0,1-1.158-3.387Zm2.4.17a3.357,3.357,0,0,0,.481,1.958,1.73,1.73,0,0,0,2.739.008,3.674,3.674,0,0,0,.49-2.141,3.324,3.324,0,0,0-.49-1.945,1.592,1.592,0,0,0-1.378-.69,1.566,1.566,0,0,0-1.361.686A3.735,3.735,0,0,0,17.838,11.6Zm7.213-.154A5.413,5.413,0,0,1,25.994,8.1a3.057,3.057,0,0,1,2.577-1.245,2.751,2.751,0,0,1,2.167.979V3.25h2.407V16H30.979l-.116-.955a2.823,2.823,0,0,1-2.308,1.121,3.049,3.049,0,0,1-2.544-1.249A5.587,5.587,0,0,1,25.052,11.443Zm2.4.179a3.546,3.546,0,0,0,.44,1.937,1.433,1.433,0,0,0,1.278.673,1.605,1.605,0,0,0,1.569-.939V9.743A1.582,1.582,0,0,0,29.186,8.8Q27.451,8.8,27.451,11.621Zm12.933,3.465a3.008,3.008,0,0,1-2.457,1.079,2.837,2.837,0,0,1-2.2-.83,3.543,3.543,0,0,1-.776-2.432V7.019h2.4v5.809q0,1.4,1.278,1.4a1.732,1.732,0,0,0,1.677-.848V7.019h2.407V16H40.45ZM47.049,16H44.642V3.25h2.407Zm7.18,0a2.664,2.664,0,0,1-.241-.805,2.9,2.9,0,0,1-2.266.971,3.189,3.189,0,0,1-2.187-.764,2.456,2.456,0,0,1-.867-1.926,2.538,2.538,0,0,1,1.058-2.191,5.222,5.222,0,0,1,3.059-.772h1.1V10a1.48,1.48,0,0,0-.32-1,1.257,1.257,0,0,0-1.009-.374,1.429,1.429,0,0,0-.95.291.987.987,0,0,0-.344.8h-2.4a2.41,2.41,0,0,1,.481-1.444A3.182,3.182,0,0,1,50.709,7.23a4.961,4.961,0,0,1,1.976-.378,3.92,3.92,0,0,1,2.635.834,2.918,2.918,0,0,1,.975,2.345v3.893a4.294,4.294,0,0,0,.357,1.934V16Zm-1.984-1.668a2.066,2.066,0,0,0,.979-.237,1.554,1.554,0,0,0,.664-.635V11.916h-.9q-1.8,0-1.917,1.245l-.008.141a.96.96,0,0,0,.315.739A1.225,1.225,0,0,0,52.245,14.332Zm9.629-.1a1.573,1.573,0,0,0,1.079-.365,1.28,1.28,0,0,0,.432-.971h2.25a3.077,3.077,0,0,1-.5,1.673A3.286,3.286,0,0,1,63.8,15.747a4.2,4.2,0,0,1-1.88.419,3.9,3.9,0,0,1-3.038-1.224,4.845,4.845,0,0,1-1.112-3.383V11.4a4.79,4.79,0,0,1,1.1-3.312A3.854,3.854,0,0,1,61.9,6.853a3.778,3.778,0,0,1,2.7.959,3.4,3.4,0,0,1,1.033,2.552h-2.25a1.648,1.648,0,0,0-.432-1.139,1.6,1.6,0,0,0-2.362.173,3.541,3.541,0,0,0-.427,1.983v.249a3.586,3.586,0,0,0,.423,2A1.463,1.463,0,0,0,61.874,14.232ZM69.536,16H67.128V7.019h2.407ZM66.987,4.694a1.181,1.181,0,0,1,.361-.888,1.556,1.556,0,0,1,1.963,0,1.175,1.175,0,0,1,.365.888,1.178,1.178,0,0,1-.369.9,1.539,1.539,0,0,1-1.951,0A1.178,1.178,0,0,1,66.987,4.694Zm4.15,6.732a5.326,5.326,0,0,1,.515-2.382,3.768,3.768,0,0,1,1.482-1.619,4.323,4.323,0,0,1,2.245-.573,4.09,4.09,0,0,1,2.968,1.112,4.464,4.464,0,0,1,1.282,3.021l.017.614a4.694,4.694,0,0,1-1.154,3.316,4.472,4.472,0,0,1-6.2,0,4.777,4.777,0,0,1-1.158-3.387Zm2.4.17a3.357,3.357,0,0,0,.481,1.958,1.73,1.73,0,0,0,2.739.008,3.674,3.674,0,0,0,.49-2.141,3.324,3.324,0,0,0-.49-1.945,1.592,1.592,0,0,0-1.378-.69,1.566,1.566,0,0,0-1.361.686A3.736,3.736,0,0,0,73.537,11.6ZM75.853,3.25h2.615l-2.3,2.573H74.217Zm7.479,3.769.075,1.038a3.136,3.136,0,0,1,2.582-1.2,2.606,2.606,0,0,1,2.125.838,3.912,3.912,0,0,1,.714,2.507V16h-2.4V10.256A1.556,1.556,0,0,0,86.1,9.148a1.486,1.486,0,0,0-1.1-.344,1.65,1.65,0,0,0-1.519.863V16h-2.4V7.019ZM94.5,11.443A5.413,5.413,0,0,1,95.447,8.1a3.057,3.057,0,0,1,2.577-1.245,2.751,2.751,0,0,1,2.167.979V3.25H102.6V16h-2.167l-.116-.955a2.823,2.823,0,0,1-2.308,1.121,3.049,3.049,0,0,1-2.544-1.249A5.587,5.587,0,0,1,94.5,11.443Zm2.4.179a3.546,3.546,0,0,0,.44,1.937,1.433,1.433,0,0,0,1.278.673,1.605,1.605,0,0,0,1.569-.939V9.743A1.582,1.582,0,0,0,98.638,8.8Q96.9,8.8,96.9,11.621Zm11.688,4.545a4.409,4.409,0,0,1-3.217-1.212,4.308,4.308,0,0,1-1.241-3.229v-.232a5.426,5.426,0,0,1,.523-2.42,3.838,3.838,0,0,1,1.482-1.644,4.159,4.159,0,0,1,2.187-.577,3.727,3.727,0,0,1,2.9,1.162,4.722,4.722,0,0,1,1.058,3.3v.979h-5.719a2.229,2.229,0,0,0,.7,1.411,2.12,2.12,0,0,0,1.482.531,2.589,2.589,0,0,0,2.167-1l1.179,1.32a3.6,3.6,0,0,1-1.461,1.191A4.793,4.793,0,0,1,108.591,16.166Zm-.274-7.379a1.5,1.5,0,0,0-1.158.484,2.5,2.5,0,0,0-.569,1.384h3.337v-.192a1.786,1.786,0,0,0-.432-1.238A1.547,1.547,0,0,0,108.317,8.787ZM120.411,16H118V3.25h2.407Zm7.18,0a2.664,2.664,0,0,1-.241-.805,2.9,2.9,0,0,1-2.266.971A3.189,3.189,0,0,1,122.9,15.4a2.456,2.456,0,0,1-.867-1.926,2.538,2.538,0,0,1,1.058-2.191,5.222,5.222,0,0,1,3.059-.772h1.1V10a1.48,1.48,0,0,0-.32-1,1.257,1.257,0,0,0-1.009-.374,1.429,1.429,0,0,0-.95.291.987.987,0,0,0-.344.8h-2.4a2.41,2.41,0,0,1,.481-1.444,3.182,3.182,0,0,1,1.361-1.042,4.961,4.961,0,0,1,1.976-.378,3.92,3.92,0,0,1,2.635.834,2.918,2.918,0,0,1,.975,2.345v3.893a4.294,4.294,0,0,0,.357,1.934V16Zm-1.984-1.668a2.066,2.066,0,0,0,.979-.237,1.554,1.554,0,0,0,.664-.635V11.916h-.9q-1.8,0-1.917,1.245l-.008.141a.96.96,0,0,0,.315.739A1.225,1.225,0,0,0,125.607,14.332Zm15.174-5.063a6.517,6.517,0,0,0-.863-.066,1.757,1.757,0,0,0-1.785.921V16h-2.4V7.019H138l.066,1.071a2.223,2.223,0,0,1,2-1.237,2.514,2.514,0,0,1,.747.108Zm5.13,6.9a4.409,4.409,0,0,1-3.217-1.212,4.308,4.308,0,0,1-1.241-3.229v-.232a5.426,5.426,0,0,1,.523-2.42,3.838,3.838,0,0,1,1.482-1.644,4.159,4.159,0,0,1,2.187-.577,3.727,3.727,0,0,1,2.9,1.162,4.722,4.722,0,0,1,1.058,3.3v.979h-5.719a2.228,2.228,0,0,0,.7,1.411,2.12,2.12,0,0,0,1.482.531,2.589,2.589,0,0,0,2.167-1l1.179,1.32a3.6,3.6,0,0,1-1.461,1.191A4.793,4.793,0,0,1,145.911,16.166Zm-.274-7.379a1.5,1.5,0,0,0-1.158.484,2.5,2.5,0,0,0-.569,1.384h3.337v-.192a1.786,1.786,0,0,0-.432-1.238A1.547,1.547,0,0,0,145.637,8.787Zm10.193,4.731a.773.773,0,0,0-.436-.693,4.95,4.95,0,0,0-1.4-.452q-3.2-.672-3.2-2.723a2.468,2.468,0,0,1,.992-2,4,4,0,0,1,2.594-.8,4.307,4.307,0,0,1,2.735.805,2.538,2.538,0,0,1,1.025,2.092h-2.4a1.161,1.161,0,0,0-.332-.851,1.405,1.405,0,0,0-1.038-.336,1.436,1.436,0,0,0-.938.274.865.865,0,0,0-.332.7.739.739,0,0,0,.378.643,3.885,3.885,0,0,0,1.274.423,10.407,10.407,0,0,1,1.511.4,2.482,2.482,0,0,1,1.9,2.416,2.343,2.343,0,0,1-1.054,1.988,4.548,4.548,0,0,1-2.723.76,4.75,4.75,0,0,1-2-.4,3.363,3.363,0,0,1-1.374-1.1,2.565,2.565,0,0,1-.5-1.515h2.274a1.252,1.252,0,0,0,.473.979,1.877,1.877,0,0,0,1.179.34,1.737,1.737,0,0,0,1.042-.261A.814.814,0,0,0,155.831,13.518Zm11.961-1.926a5.387,5.387,0,0,1-.942,3.324,3.021,3.021,0,0,1-2.544,1.249,2.8,2.8,0,0,1-2.2-.946v4.233h-2.4V7.019h2.225l.083.88a2.819,2.819,0,0,1,2.274-1.046,3.041,3.041,0,0,1,2.582,1.229,5.532,5.532,0,0,1,.921,3.387Zm-2.4-.174a3.535,3.535,0,0,0-.444-1.934,1.446,1.446,0,0,0-1.291-.681,1.571,1.571,0,0,0-1.552.863v3.677a1.6,1.6,0,0,0,1.569.888Q165.393,14.232,165.393,11.418Zm9.264,3.669a3.008,3.008,0,0,1-2.457,1.079,2.837,2.837,0,0,1-2.2-.83,3.543,3.543,0,0,1-.776-2.432V7.019h2.4v5.809q0,1.4,1.278,1.4a1.732,1.732,0,0,0,1.677-.848V7.019h2.407V16h-2.258Zm8.268,1.079a4.409,4.409,0,0,1-3.217-1.212,4.308,4.308,0,0,1-1.241-3.229v-.232a5.426,5.426,0,0,1,.523-2.42,3.838,3.838,0,0,1,1.482-1.644,4.159,4.159,0,0,1,2.187-.577,3.727,3.727,0,0,1,2.9,1.162,4.722,4.722,0,0,1,1.058,3.3v.979H180.9a2.228,2.228,0,0,0,.7,1.411,2.12,2.12,0,0,0,1.482.531,2.589,2.589,0,0,0,2.167-1l1.179,1.32a3.6,3.6,0,0,1-1.461,1.191A4.793,4.793,0,0,1,182.924,16.166Zm-.274-7.379a1.5,1.5,0,0,0-1.158.484,2.5,2.5,0,0,0-.569,1.384h3.337v-.192a1.786,1.786,0,0,0-.432-1.238A1.547,1.547,0,0,0,182.65,8.787Zm10.193,4.731a.773.773,0,0,0-.436-.693,4.95,4.95,0,0,0-1.4-.452q-3.2-.672-3.2-2.723a2.468,2.468,0,0,1,.992-2,4,4,0,0,1,2.594-.8,4.307,4.307,0,0,1,2.735.805,2.538,2.538,0,0,1,1.025,2.092h-2.4a1.161,1.161,0,0,0-.332-.851,1.405,1.405,0,0,0-1.038-.336,1.436,1.436,0,0,0-.938.274.865.865,0,0,0-.332.7.739.739,0,0,0,.378.643,3.885,3.885,0,0,0,1.274.423,10.407,10.407,0,0,1,1.511.4,2.482,2.482,0,0,1,1.9,2.416,2.343,2.343,0,0,1-1.054,1.988,4.548,4.548,0,0,1-2.723.76,4.75,4.75,0,0,1-2-.4,3.363,3.363,0,0,1-1.374-1.1,2.565,2.565,0,0,1-.5-1.515H189.8a1.252,1.252,0,0,0,.473.979,1.877,1.877,0,0,0,1.179.34,1.737,1.737,0,0,0,1.042-.261A.814.814,0,0,0,192.844,13.518Zm6.749-8.708V7.019h1.536v1.76h-1.536v4.482a1.07,1.07,0,0,0,.191.714.959.959,0,0,0,.73.216,3.826,3.826,0,0,0,.706-.058V15.95a4.939,4.939,0,0,1-1.453.216,2.29,2.29,0,0,1-2.573-2.548V8.778h-1.312V7.019h1.312V4.811ZM207.669,16a2.664,2.664,0,0,1-.241-.805,2.9,2.9,0,0,1-2.266.971,3.189,3.189,0,0,1-2.187-.764,2.456,2.456,0,0,1-.867-1.926,2.538,2.538,0,0,1,1.058-2.191,5.222,5.222,0,0,1,3.059-.772h1.1V10a1.48,1.48,0,0,0-.32-1A1.257,1.257,0,0,0,206,8.629a1.429,1.429,0,0,0-.95.291.987.987,0,0,0-.344.8h-2.4a2.41,2.41,0,0,1,.481-1.444,3.182,3.182,0,0,1,1.361-1.042,4.961,4.961,0,0,1,1.976-.378,3.92,3.92,0,0,1,2.635.834,2.918,2.918,0,0,1,.975,2.345v3.893a4.294,4.294,0,0,0,.357,1.934V16Zm-1.984-1.668a2.066,2.066,0,0,0,.979-.237,1.554,1.554,0,0,0,.664-.635V11.916h-.9q-1.8,0-1.917,1.245l-.008.141a.96.96,0,0,0,.315.739A1.225,1.225,0,0,0,205.685,14.332Z" transform="translate(373.896 5205.5)" fill="#fff"/>
    <path id="Path_883010" data-name="Path 883010" d="M10.359,16a2.664,2.664,0,0,1-.241-.805,2.9,2.9,0,0,1-2.266.971A3.189,3.189,0,0,1,5.665,15.4,2.456,2.456,0,0,1,4.8,13.477a2.538,2.538,0,0,1,1.058-2.191,5.222,5.222,0,0,1,3.059-.772h1.1V10A1.48,1.48,0,0,0,9.7,9a1.257,1.257,0,0,0-1.009-.374,1.429,1.429,0,0,0-.95.291.987.987,0,0,0-.344.8H5a2.41,2.41,0,0,1,.481-1.444A3.182,3.182,0,0,1,6.84,7.23a4.961,4.961,0,0,1,1.976-.378,3.92,3.92,0,0,1,2.635.834,2.918,2.918,0,0,1,.975,2.345v3.893a4.294,4.294,0,0,0,.357,1.934V16ZM8.375,14.332a2.066,2.066,0,0,0,.979-.237,1.554,1.554,0,0,0,.664-.635V11.916h-.9q-1.8,0-1.917,1.245L7.2,13.3a.96.96,0,0,0,.315.739A1.225,1.225,0,0,0,8.375,14.332Zm6.018.49a1.208,1.208,0,0,1,.386-.93,1.5,1.5,0,0,1,1.942,0,1.208,1.208,0,0,1,.386.93,1.191,1.191,0,0,1-.382.917,1.525,1.525,0,0,1-1.951,0A1.191,1.191,0,0,1,14.394,14.821ZM23.6,16V3.914h3.719a5.647,5.647,0,0,1,2.851.718,5.007,5.007,0,0,1,1.963,2.042,6.3,6.3,0,0,1,.706,3.009v.556a6.316,6.316,0,0,1-.693,3A4.964,4.964,0,0,1,30.19,15.27a5.69,5.69,0,0,1-2.847.73Zm2.49-10.069V14h1.2a2.7,2.7,0,0,0,2.233-.955,4.314,4.314,0,0,0,.789-2.731V9.675a4.382,4.382,0,0,0-.764-2.793,2.7,2.7,0,0,0-2.233-.95ZM38.624,16.166a4.409,4.409,0,0,1-3.217-1.212,4.308,4.308,0,0,1-1.241-3.229v-.232a5.426,5.426,0,0,1,.523-2.42,3.838,3.838,0,0,1,1.482-1.644,4.159,4.159,0,0,1,2.187-.577,3.727,3.727,0,0,1,2.9,1.162,4.722,4.722,0,0,1,1.058,3.3v.979H36.6a2.229,2.229,0,0,0,.7,1.411,2.12,2.12,0,0,0,1.482.531,2.589,2.589,0,0,0,2.167-1l1.179,1.32a3.6,3.6,0,0,1-1.461,1.191A4.793,4.793,0,0,1,38.624,16.166ZM38.35,8.787a1.5,1.5,0,0,0-1.158.484,2.5,2.5,0,0,0-.569,1.384H39.96v-.192a1.786,1.786,0,0,0-.432-1.238A1.547,1.547,0,0,0,38.35,8.787Zm10.193,4.731a.773.773,0,0,0-.436-.693,4.95,4.95,0,0,0-1.4-.452Q43.5,11.7,43.5,9.65a2.468,2.468,0,0,1,.992-2,4,4,0,0,1,2.594-.8,4.307,4.307,0,0,1,2.735.805A2.538,2.538,0,0,1,50.851,9.75h-2.4A1.161,1.161,0,0,0,48.12,8.9a1.405,1.405,0,0,0-1.038-.336,1.436,1.436,0,0,0-.938.274.865.865,0,0,0-.332.7.739.739,0,0,0,.378.643,3.885,3.885,0,0,0,1.274.423,10.407,10.407,0,0,1,1.511.4,2.482,2.482,0,0,1,1.9,2.416,2.343,2.343,0,0,1-1.054,1.988,4.548,4.548,0,0,1-2.723.76,4.75,4.75,0,0,1-2-.4,3.363,3.363,0,0,1-1.374-1.1,2.565,2.565,0,0,1-.5-1.515H45.5a1.252,1.252,0,0,0,.473.979,1.877,1.877,0,0,0,1.179.34A1.737,1.737,0,0,0,48.19,14.2.814.814,0,0,0,48.543,13.518ZM60.5,11.592a5.387,5.387,0,0,1-.942,3.324,3.021,3.021,0,0,1-2.544,1.249,2.8,2.8,0,0,1-2.2-.946v4.233h-2.4V7.019h2.225l.083.88A2.819,2.819,0,0,1,57,6.853a3.041,3.041,0,0,1,2.582,1.229,5.532,5.532,0,0,1,.921,3.387Zm-2.4-.174a3.535,3.535,0,0,0-.444-1.934A1.446,1.446,0,0,0,56.371,8.8a1.571,1.571,0,0,0-1.552.863v3.677a1.6,1.6,0,0,0,1.569.888Q58.105,14.232,58.105,11.418ZM64.522,16H62.115V3.25h2.407Zm4.507,0H66.622V7.019h2.407ZM66.481,4.694a1.181,1.181,0,0,1,.361-.888,1.556,1.556,0,0,1,1.963,0,1.175,1.175,0,0,1,.365.888,1.178,1.178,0,0,1-.369.9,1.539,1.539,0,0,1-1.951,0A1.178,1.178,0,0,1,66.481,4.694Zm8.658,11.472a4.409,4.409,0,0,1-3.217-1.212,4.308,4.308,0,0,1-1.241-3.229v-.232a5.426,5.426,0,0,1,.523-2.42,3.838,3.838,0,0,1,1.482-1.644,4.159,4.159,0,0,1,2.187-.577,3.727,3.727,0,0,1,2.9,1.162,4.722,4.722,0,0,1,1.058,3.3v.979H73.113a2.229,2.229,0,0,0,.7,1.411,2.12,2.12,0,0,0,1.482.531,2.589,2.589,0,0,0,2.167-1l1.179,1.32a3.6,3.6,0,0,1-1.461,1.191A4.793,4.793,0,0,1,75.139,16.166Zm-.274-7.379a1.5,1.5,0,0,0-1.158.484,2.5,2.5,0,0,0-.569,1.384h3.337v-.192a1.786,1.786,0,0,0-.432-1.238A1.547,1.547,0,0,0,74.865,8.787Zm4.98,2.656a5.264,5.264,0,0,1,.984-3.329,3.187,3.187,0,0,1,2.652-1.262,2.8,2.8,0,0,1,2.3,1.013l.1-.847h2.175V15.7a3.839,3.839,0,0,1-.535,2.05,3.439,3.439,0,0,1-1.507,1.328,5.3,5.3,0,0,1-2.274.457,4.925,4.925,0,0,1-1.926-.394,3.418,3.418,0,0,1-1.419-1.017l1.063-1.461a2.81,2.81,0,0,0,2.175,1,2.057,2.057,0,0,0,1.486-.51,1.915,1.915,0,0,0,.531-1.448v-.481a2.775,2.775,0,0,1-2.183.938A3.179,3.179,0,0,1,80.845,14.9a5.262,5.262,0,0,1-1-3.358Zm2.4.179a3.278,3.278,0,0,0,.49,1.916,1.558,1.558,0,0,0,1.345.694,1.666,1.666,0,0,0,1.569-.823V9.626A1.662,1.662,0,0,0,84.1,8.8a1.568,1.568,0,0,0-1.357.707A3.694,3.694,0,0,0,82.244,11.621Zm13.032,3.465a3.008,3.008,0,0,1-2.457,1.079,2.837,2.837,0,0,1-2.2-.83,3.543,3.543,0,0,1-.776-2.432V7.019h2.4v5.809q0,1.4,1.278,1.4a1.732,1.732,0,0,0,1.677-.848V7.019H97.6V16H95.343Zm8.268,1.079a4.409,4.409,0,0,1-3.217-1.212,4.308,4.308,0,0,1-1.241-3.229v-.232a5.426,5.426,0,0,1,.523-2.42,3.838,3.838,0,0,1,1.482-1.644,4.159,4.159,0,0,1,2.187-.577,3.727,3.727,0,0,1,2.9,1.162,4.722,4.722,0,0,1,1.058,3.3v.979h-5.719a2.229,2.229,0,0,0,.7,1.411,2.12,2.12,0,0,0,1.482.531,2.589,2.589,0,0,0,2.167-1l1.179,1.32a3.6,3.6,0,0,1-1.461,1.191A4.793,4.793,0,0,1,103.544,16.166Zm-.274-7.379a1.5,1.5,0,0,0-1.158.484,2.5,2.5,0,0,0-.569,1.384h3.337v-.192a1.786,1.786,0,0,0-.432-1.238A1.547,1.547,0,0,0,103.27,8.787ZM118.037,16a2.664,2.664,0,0,1-.241-.805,2.9,2.9,0,0,1-2.266.971,3.189,3.189,0,0,1-2.187-.764,2.456,2.456,0,0,1-.867-1.926,2.538,2.538,0,0,1,1.058-2.191,5.222,5.222,0,0,1,3.059-.772h1.1V10a1.48,1.48,0,0,0-.32-1,1.257,1.257,0,0,0-1.009-.374,1.429,1.429,0,0,0-.95.291.987.987,0,0,0-.344.8h-2.4a2.41,2.41,0,0,1,.481-1.444,3.182,3.182,0,0,1,1.361-1.042,4.961,4.961,0,0,1,1.976-.378,3.92,3.92,0,0,1,2.635.834,2.918,2.918,0,0,1,.975,2.345v3.893a4.294,4.294,0,0,0,.357,1.934V16Zm-1.984-1.668a2.066,2.066,0,0,0,.979-.237,1.554,1.554,0,0,0,.664-.635V11.916h-.9q-1.8,0-1.917,1.245l-.008.141a.96.96,0,0,0,.315.739A1.225,1.225,0,0,0,116.053,14.332Zm8.766-9.521V7.019h1.536v1.76h-1.536v4.482a1.07,1.07,0,0,0,.191.714.959.959,0,0,0,.73.216,3.826,3.826,0,0,0,.706-.058V15.95a4.938,4.938,0,0,1-1.453.216,2.29,2.29,0,0,1-2.573-2.548V8.778h-1.312V7.019h1.312V4.811Zm7.006,11.355a4.409,4.409,0,0,1-3.217-1.212,4.308,4.308,0,0,1-1.241-3.229v-.232a5.426,5.426,0,0,1,.523-2.42,3.838,3.838,0,0,1,1.482-1.644,4.159,4.159,0,0,1,2.187-.577,3.727,3.727,0,0,1,2.9,1.162,4.722,4.722,0,0,1,1.058,3.3v.979H129.8a2.228,2.228,0,0,0,.7,1.411,2.12,2.12,0,0,0,1.482.531,2.589,2.589,0,0,0,2.167-1l1.179,1.32a3.6,3.6,0,0,1-1.461,1.191A4.793,4.793,0,0,1,131.825,16.166Zm-.274-7.379a1.5,1.5,0,0,0-1.158.484,2.5,2.5,0,0,0-.569,1.384h3.337v-.192a1.786,1.786,0,0,0-.432-1.238A1.547,1.547,0,0,0,131.551,8.787Zm7.537-1.768.075,1.038a3.136,3.136,0,0,1,2.582-1.2,2.606,2.606,0,0,1,2.125.838,3.912,3.912,0,0,1,.714,2.507V16h-2.4V10.256a1.556,1.556,0,0,0-.332-1.108,1.486,1.486,0,0,0-1.1-.344,1.65,1.65,0,0,0-1.519.863V16h-2.4V7.019Zm11.048,7.213a1.573,1.573,0,0,0,1.079-.365,1.28,1.28,0,0,0,.432-.971h2.25a3.077,3.077,0,0,1-.5,1.673,3.286,3.286,0,0,1-1.341,1.179,4.2,4.2,0,0,1-1.88.419,3.9,3.9,0,0,1-3.038-1.224,4.845,4.845,0,0,1-1.112-3.383V11.4a4.79,4.79,0,0,1,1.1-3.312,3.854,3.854,0,0,1,3.03-1.237,3.778,3.778,0,0,1,2.7.959,3.4,3.4,0,0,1,1.033,2.552h-2.25a1.648,1.648,0,0,0-.432-1.139,1.6,1.6,0,0,0-2.362.173,3.541,3.541,0,0,0-.427,1.983v.249a3.586,3.586,0,0,0,.423,2A1.463,1.463,0,0,0,150.136,14.232ZM157.8,16h-2.407V7.019H157.8ZM155.25,4.694a1.181,1.181,0,0,1,.361-.888,1.556,1.556,0,0,1,1.963,0,1.175,1.175,0,0,1,.365.888,1.178,1.178,0,0,1-.369.9,1.539,1.539,0,0,1-1.951,0A1.178,1.178,0,0,1,155.25,4.694Zm4.15,6.732a5.327,5.327,0,0,1,.515-2.382A3.767,3.767,0,0,1,161.4,7.425a4.323,4.323,0,0,1,2.245-.573,4.09,4.09,0,0,1,2.968,1.112,4.464,4.464,0,0,1,1.282,3.021l.017.614a4.694,4.694,0,0,1-1.154,3.316,4.472,4.472,0,0,1-6.2,0,4.777,4.777,0,0,1-1.158-3.387Zm2.4.17a3.357,3.357,0,0,0,.481,1.958,1.73,1.73,0,0,0,2.739.008,3.674,3.674,0,0,0,.49-2.141,3.324,3.324,0,0,0-.49-1.945,1.592,1.592,0,0,0-1.378-.69,1.566,1.566,0,0,0-1.361.686A3.735,3.735,0,0,0,161.8,11.6Zm9.795-4.578.075,1.038a3.136,3.136,0,0,1,2.582-1.2,2.606,2.606,0,0,1,2.125.838,3.912,3.912,0,0,1,.714,2.507V16h-2.4V10.256a1.556,1.556,0,0,0-.332-1.108,1.486,1.486,0,0,0-1.1-.344,1.65,1.65,0,0,0-1.519.863V16h-2.4V7.019ZM184.111,16a2.664,2.664,0,0,1-.241-.805,2.9,2.9,0,0,1-2.266.971,3.189,3.189,0,0,1-2.187-.764,2.456,2.456,0,0,1-.867-1.926,2.538,2.538,0,0,1,1.058-2.191,5.222,5.222,0,0,1,3.059-.772h1.1V10a1.48,1.48,0,0,0-.32-1,1.257,1.257,0,0,0-1.009-.374,1.429,1.429,0,0,0-.95.291.987.987,0,0,0-.344.8h-2.4a2.41,2.41,0,0,1,.481-1.444,3.182,3.182,0,0,1,1.361-1.042,4.961,4.961,0,0,1,1.976-.378,3.92,3.92,0,0,1,2.635.834,2.918,2.918,0,0,1,.975,2.345v3.893a4.294,4.294,0,0,0,.357,1.934V16Zm-1.984-1.668a2.066,2.066,0,0,0,.979-.237,1.554,1.554,0,0,0,.664-.635V11.916h-.9q-1.8,0-1.917,1.245l-.008.141a.96.96,0,0,0,.315.739A1.225,1.225,0,0,0,182.127,14.332ZM190.553,16h-2.407V3.25h2.407ZM13.248,35.592a5.439,5.439,0,0,1-.921,3.366,3.052,3.052,0,0,1-2.573,1.208,2.8,2.8,0,0,1-2.333-1.121L7.313,40H5.155V27.25h2.4v4.574a2.732,2.732,0,0,1,2.183-.971,3.077,3.077,0,0,1,2.577,1.208,5.446,5.446,0,0,1,.934,3.4Zm-2.4-.174a3.573,3.573,0,0,0-.432-1.988A1.46,1.46,0,0,0,9.131,32.8a1.582,1.582,0,0,0-1.577.938v3.544a1.6,1.6,0,0,0,1.594.946,1.481,1.481,0,0,0,1.527-1.146A5.909,5.909,0,0,0,10.849,35.418Zm4,3.4a1.208,1.208,0,0,1,.386-.93,1.5,1.5,0,0,1,1.942,0,1.208,1.208,0,0,1,.386.93,1.191,1.191,0,0,1-.382.917,1.525,1.525,0,0,1-1.951,0A1.191,1.191,0,0,1,14.85,38.821Zm18.693-2.847a4.277,4.277,0,0,1-1.44,3.071,5.058,5.058,0,0,1-3.424,1.121A4.548,4.548,0,0,1,25.023,38.6a6.416,6.416,0,0,1-1.332-4.3v-.739A7.245,7.245,0,0,1,24.3,30.5a4.6,4.6,0,0,1,1.756-2.038,4.918,4.918,0,0,1,2.652-.71,4.927,4.927,0,0,1,3.37,1.121,4.6,4.6,0,0,1,1.478,3.146H31.07a2.524,2.524,0,0,0-.652-1.7,2.413,2.413,0,0,0-1.706-.527,2.116,2.116,0,0,0-1.864.892,5,5,0,0,0-.635,2.768v.913a5.352,5.352,0,0,0,.594,2.864,2.077,2.077,0,0,0,1.872.9,2.458,2.458,0,0,0,1.722-.527,2.381,2.381,0,0,0,.652-1.631ZM40.226,40a2.664,2.664,0,0,1-.241-.805,2.9,2.9,0,0,1-2.266.971,3.189,3.189,0,0,1-2.187-.764,2.456,2.456,0,0,1-.867-1.926,2.538,2.538,0,0,1,1.058-2.191,5.222,5.222,0,0,1,3.059-.772h1.1V34a1.48,1.48,0,0,0-.32-1,1.257,1.257,0,0,0-1.009-.374,1.429,1.429,0,0,0-.95.291.987.987,0,0,0-.344.8h-2.4a2.41,2.41,0,0,1,.481-1.444,3.182,3.182,0,0,1,1.361-1.042,4.961,4.961,0,0,1,1.976-.378,3.92,3.92,0,0,1,2.635.834,2.918,2.918,0,0,1,.975,2.345v3.893a4.294,4.294,0,0,0,.357,1.934V40Zm-1.984-1.668a2.066,2.066,0,0,0,.979-.237,1.554,1.554,0,0,0,.664-.635V35.916h-.9q-1.8,0-1.917,1.245l-.008.141a.96.96,0,0,0,.315.739A1.225,1.225,0,0,0,38.242,38.332Zm8.143-7.313.075,1a3.156,3.156,0,0,1,2.582-1.17,2.4,2.4,0,0,1,2.382,1.37,3.084,3.084,0,0,1,2.7-1.37A2.679,2.679,0,0,1,56.3,31.7a3.911,3.911,0,0,1,.714,2.561V40H54.6V34.272a1.71,1.71,0,0,0-.3-1.116A1.324,1.324,0,0,0,53.25,32.8a1.5,1.5,0,0,0-1.494,1.029L51.764,40h-2.4V34.281a1.689,1.689,0,0,0-.307-1.129,1.337,1.337,0,0,0-1.046-.349,1.555,1.555,0,0,0-1.478.847V40h-2.4V31.019Zm20.561,4.574a5.439,5.439,0,0,1-.921,3.366,3.052,3.052,0,0,1-2.573,1.208,2.8,2.8,0,0,1-2.333-1.121L61.011,40H58.853V27.25h2.4v4.574a2.732,2.732,0,0,1,2.183-.971,3.077,3.077,0,0,1,2.577,1.208,5.446,5.446,0,0,1,.934,3.4Zm-2.4-.174a3.573,3.573,0,0,0-.432-1.988,1.46,1.46,0,0,0-1.287-.627,1.582,1.582,0,0,0-1.577.938v3.544a1.6,1.6,0,0,0,1.594.946,1.481,1.481,0,0,0,1.527-1.146A5.909,5.909,0,0,0,64.547,35.418ZM70.955,40H68.548V31.019h2.407ZM68.407,28.694a1.181,1.181,0,0,1,.361-.888,1.556,1.556,0,0,1,1.963,0,1.268,1.268,0,0,1,0,1.785,1.539,1.539,0,0,1-1.951,0A1.178,1.178,0,0,1,68.407,28.694Zm4.15,6.732a5.326,5.326,0,0,1,.515-2.382,3.768,3.768,0,0,1,1.482-1.619,4.323,4.323,0,0,1,2.245-.573,4.09,4.09,0,0,1,2.968,1.112,4.464,4.464,0,0,1,1.282,3.021l.017.614a4.694,4.694,0,0,1-1.154,3.316,4.472,4.472,0,0,1-6.2,0,4.777,4.777,0,0,1-1.158-3.387Zm2.4.17a3.357,3.357,0,0,0,.481,1.958,1.73,1.73,0,0,0,2.739.008,3.674,3.674,0,0,0,.49-2.141,3.324,3.324,0,0,0-.49-1.945,1.592,1.592,0,0,0-1.378-.69,1.566,1.566,0,0,0-1.361.686A3.735,3.735,0,0,0,74.956,35.6Zm15.556,2.635a1.573,1.573,0,0,0,1.079-.365,1.28,1.28,0,0,0,.432-.971h2.25a3.077,3.077,0,0,1-.5,1.673,3.286,3.286,0,0,1-1.341,1.179,4.2,4.2,0,0,1-1.88.419,3.9,3.9,0,0,1-3.038-1.224A4.845,4.845,0,0,1,86.4,35.559V35.4a4.79,4.79,0,0,1,1.1-3.312,3.854,3.854,0,0,1,3.03-1.237,3.778,3.778,0,0,1,2.7.959,3.4,3.4,0,0,1,1.033,2.552h-2.25a1.648,1.648,0,0,0-.432-1.139,1.6,1.6,0,0,0-2.362.173A3.541,3.541,0,0,0,88.8,35.38v.249a3.586,3.586,0,0,0,.423,2A1.463,1.463,0,0,0,90.512,38.232Zm4.756-2.806a5.326,5.326,0,0,1,.515-2.382,3.768,3.768,0,0,1,1.482-1.619,4.323,4.323,0,0,1,2.245-.573,4.09,4.09,0,0,1,2.968,1.112,4.464,4.464,0,0,1,1.282,3.021l.017.614a4.694,4.694,0,0,1-1.154,3.316,4.472,4.472,0,0,1-6.2,0,4.777,4.777,0,0,1-1.158-3.387Zm2.4.17a3.357,3.357,0,0,0,.481,1.958,1.73,1.73,0,0,0,2.739.008,3.674,3.674,0,0,0,.49-2.141,3.324,3.324,0,0,0-.49-1.945,1.592,1.592,0,0,0-1.378-.69,1.566,1.566,0,0,0-1.361.686A3.735,3.735,0,0,0,97.667,35.6Zm7.238-.154a5.264,5.264,0,0,1,.984-3.329,3.187,3.187,0,0,1,2.652-1.262,2.8,2.8,0,0,1,2.3,1.013l.1-.847h2.175V39.7a3.839,3.839,0,0,1-.535,2.05,3.439,3.439,0,0,1-1.507,1.328,5.3,5.3,0,0,1-2.274.457,4.925,4.925,0,0,1-1.926-.394,3.418,3.418,0,0,1-1.419-1.017l1.063-1.461a2.81,2.81,0,0,0,2.175,1,2.057,2.057,0,0,0,1.486-.51,1.915,1.915,0,0,0,.531-1.448v-.481a2.775,2.775,0,0,1-2.183.938,3.179,3.179,0,0,1-2.619-1.266,5.262,5.262,0,0,1-1-3.358Zm2.4.179a3.278,3.278,0,0,0,.49,1.916,1.558,1.558,0,0,0,1.345.694,1.666,1.666,0,0,0,1.569-.823V33.626a1.662,1.662,0,0,0-1.552-.823,1.568,1.568,0,0,0-1.357.707A3.694,3.694,0,0,0,107.3,35.621Zm9.861-4.6.075,1.038a3.136,3.136,0,0,1,2.582-1.2,2.606,2.606,0,0,1,2.125.838,3.912,3.912,0,0,1,.714,2.507V40h-2.4V34.256a1.556,1.556,0,0,0-.332-1.108,1.486,1.486,0,0,0-1.1-.344,1.65,1.65,0,0,0-1.519.863V40h-2.4V31.019ZM127.01,40H124.6V31.019h2.407Zm-2.548-11.306a1.181,1.181,0,0,1,.361-.888,1.556,1.556,0,0,1,1.963,0,1.268,1.268,0,0,1,0,1.785,1.539,1.539,0,0,1-1.951,0A1.178,1.178,0,0,1,124.462,28.694Zm7.4.116v2.208h1.536v1.76h-1.536v4.482a1.07,1.07,0,0,0,.191.714.959.959,0,0,0,.73.216,3.826,3.826,0,0,0,.706-.058V39.95a4.939,4.939,0,0,1-1.453.216,2.29,2.29,0,0,1-2.573-2.548V32.778h-1.312v-1.76h1.312V28.811ZM137.262,40h-2.407V31.019h2.407Zm-2.548-11.306a1.181,1.181,0,0,1,.361-.888,1.556,1.556,0,0,1,1.963,0,1.268,1.268,0,0,1,0,1.785,1.539,1.539,0,0,1-1.951,0A1.178,1.178,0,0,1,134.713,28.694ZM142.6,37.07l1.668-6.051h2.507L143.745,40h-2.291l-3.03-8.981h2.507Zm4.731-1.644a5.327,5.327,0,0,1,.515-2.382,3.767,3.767,0,0,1,1.482-1.619,4.323,4.323,0,0,1,2.245-.573,4.09,4.09,0,0,1,2.968,1.112,4.464,4.464,0,0,1,1.282,3.021l.017.614a4.694,4.694,0,0,1-1.154,3.316,4.472,4.472,0,0,1-6.2,0,4.777,4.777,0,0,1-1.158-3.387Zm2.4.17a3.357,3.357,0,0,0,.481,1.958,1.73,1.73,0,0,0,2.739.008,3.674,3.674,0,0,0,.49-2.141,3.324,3.324,0,0,0-.49-1.945,1.592,1.592,0,0,0-1.378-.69,1.566,1.566,0,0,0-1.361.686A3.735,3.735,0,0,0,149.729,35.6Z" transform="translate(370.896 5509.5)" fill="#fff"/>
  </g>
</svg>
