<svg xmlns="http://www.w3.org/2000/svg" xmlns:xlink="http://www.w3.org/1999/xlink" width="62.504" height="62.504" viewBox="0 0 62.504 62.504">
  <defs>
    <clipPath id="clip-path">
      <rect id="Rectangle_405180" data-name="Rectangle 405180" width="30" height="30" fill="#fff"/>
    </clipPath>
  </defs>
  <g id="Group_1101902" data-name="Group 1101902" transform="translate(-279.82 -1198.717)">
    <g id="Group_1072053" data-name="Group 1072053" transform="translate(279.82 1198.717)">
      <circle id="Ellipse_4742" data-name="Ellipse 4742" cx="31.252" cy="31.252" r="31.252" transform="translate(0)" fill="#7d420e"/>
    </g>
    <g id="Group_1102747" data-name="Group 1102747" transform="translate(296.82 1215.717)">
      <g id="Group_1102746" data-name="Group 1102746" clip-path="url(#clip-path)">
        <path id="Path_882973" data-name="Path 882973" d="M11.3,6.209c-.415-.422-.822-.853-1.247-1.265C9.283,4.2,8.5,3.456,7.723,2.718a1.585,1.585,0,0,1-.609-1.292A1.444,1.444,0,0,1,8.033.152,1.561,1.561,0,0,1,9.616.295a1.941,1.941,0,0,1,.255.211Q12.3,2.814,14.718,5.125a3.161,3.161,0,0,1,.239.29c.1-.085.146-.126.193-.17Q17.586,2.924,20.02.6A1.856,1.856,0,0,1,21.032.029,1.555,1.555,0,0,1,22.6.651a1.337,1.337,0,0,1,.064,1.619,2.41,2.41,0,0,1-.382.449Q20.642,4.284,19,5.84c-.114.108-.233.21-.372.336l1.063.146a23.068,23.068,0,0,1,3.2.653,12.585,12.585,0,0,1,2.943,1.2,6.8,6.8,0,0,1,2.409,2.5,12.2,12.2,0,0,1,1.42,3.871,17.863,17.863,0,0,1,.226,5.488,13.222,13.222,0,0,1-1.448,4.949,7.137,7.137,0,0,1-2.445,2.748,11.552,11.552,0,0,1-2.889,1.234,23.359,23.359,0,0,1-3.881.774,34.859,34.859,0,0,1-4.946.254,34.91,34.91,0,0,1-3.807-.306A23.127,23.127,0,0,1,6.749,28.9,11.173,11.173,0,0,1,3.93,27.678,6.829,6.829,0,0,1,1.8,25.4,11.951,11.951,0,0,1,.342,21.472,17.759,17.759,0,0,1,.063,16.5a14.533,14.533,0,0,1,1.13-4.719A8,8,0,0,1,3.451,8.669,8.117,8.117,0,0,1,5.516,7.52,18.523,18.523,0,0,1,9.44,6.46c.6-.1,1.214-.176,1.821-.263.031,0,.061-.014.091-.021l-.051.034m-.093,11.8q0,1.475,0,2.951a1.208,1.208,0,0,0,1.112,1.144,1.9,1.9,0,0,0,1.006-.221q1.425-.686,2.855-1.364c1-.474,2-.94,3-1.42a1.273,1.273,0,0,0,.405-.308,1.22,1.22,0,0,0-.511-1.951c-1.949-.929-3.9-1.848-5.855-2.775a2.041,2.041,0,0,0-.8-.171,1.21,1.21,0,0,0-1.212,1.181c.01.978,0,1.956,0,2.935" transform="translate(0 -0.001)" fill="#fff"/>
      </g>
    </g>
  </g>
</svg>
