<svg xmlns="http://www.w3.org/2000/svg" xmlns:xlink="http://www.w3.org/1999/xlink" width="145" height="145" viewBox="0 0 145 145">
  <defs>
    <linearGradient id="linear-gradient" x1="0.17" y1="0.896" x2="0.791" y2="0.048" gradientUnits="objectBoundingBox">
      <stop offset="0" stop-color="#4e5661"/>
      <stop offset="1" stop-color="#4a71ab"/>
    </linearGradient>
    <clipPath id="clip-path">
      <rect id="Rectangle_401159" data-name="Rectangle 401159" width="145" height="145" fill="url(#linear-gradient)"/>
    </clipPath>
    <clipPath id="clip-path-2">
      <rect id="Rectangle_403327" data-name="Rectangle 403327" width="77" height="76" transform="translate(212.106 8144.092)" fill="#fff" stroke="#707070" stroke-width="1"/>
    </clipPath>
    <clipPath id="clip-path-3">
      <rect id="Rectangle_403328" data-name="Rectangle 403328" width="73.163" height="73.113" fill="#fff"/>
    </clipPath>
  </defs>
  <g id="Group_1102793" data-name="Group 1102793" transform="translate(-1148 -7610)">
    <g id="Group_1101941" data-name="Group 1101941" transform="translate(968 -500)">
      <g id="Group_1099650" data-name="Group 1099650" transform="translate(180 8110)">
        <g id="Group_1099585" data-name="Group 1099585">
          <g id="Group_1099584" data-name="Group 1099584" clip-path="url(#clip-path)">
            <path id="Path_873472" data-name="Path 873472" d="M41.364,27.776l.566.252c-.355.366-.681.654-.948.991s-.5.746-.746,1.121a.947.947,0,0,0,1.363.139,30.288,30.288,0,0,1,3.641-2.463A16.123,16.123,0,0,0,47.867,26.2c.6-.508,1.358-.7,1.908-1.247a.34.34,0,0,1,.236-.118,1.117,1.117,0,0,0,1.13-.433c.153-.181.357-.148.545.006.323.265.594.193.887-.1a1.377,1.377,0,0,1,1.72-.3c-.032.493-.032.493-.509.827a2.122,2.122,0,0,0-.412-.174.65.65,0,0,0-.7.836c.1.277.294.2.5.131a15.3,15.3,0,0,1,1.81-.543c1.174-.225,2.36-.383,3.541-.569q1.941-.306,3.882-.614a29.323,29.323,0,0,1,4.642-.5c3.276.01,6.551-.03,9.827-.053a1.718,1.718,0,0,0,.669-.059,6.172,6.172,0,0,1,2.166-.276c.226-.018.437-.243.714-.409.257.27.778-.381,1.092.169-.227.433-.845-.093-.968.548a2.247,2.247,0,0,0,.493.284,11.851,11.851,0,0,0,3.727.59c2.232-.083,4.468-.1,6.7-.108a15.911,15.911,0,0,1,3.936.512c.85.212,1.721.336,2.579.518a2.409,2.409,0,0,1,.616.253c.2.107.373.263.571.372a3.6,3.6,0,0,1,1.465,1.377,1.435,1.435,0,0,0,.953.712,1.483,1.483,0,0,1,.6.3,7.818,7.818,0,0,0,1.922,1.248,7.679,7.679,0,0,1,1.354.87,20,20,0,0,0,2.077,1.262c.908.494,1.84.939,2.76,1.411a1.337,1.337,0,0,1,.394.261,1.357,1.357,0,0,0,1.1.44,1.538,1.538,0,0,1,1.166.6,7.1,7.1,0,0,0,.672.551,2.059,2.059,0,0,1,.229.146,39.072,39.072,0,0,0,3.424,2.562.8.8,0,0,0,.771.251c0-.157.012-.31,0-.46-.033-.343-.111-.685-.114-1.028a1.55,1.55,0,0,1,1.57-1.629,4.21,4.21,0,0,1,2.357.451,7.316,7.316,0,0,0,1.639.567,1.041,1.041,0,0,1,.194.06c.744.427,1.487.859,2.23,1.288.331.191.651.405,1,.562a19.226,19.226,0,0,1,2.955,2.034,21.505,21.505,0,0,1,3.469,3.356c.137.152.285.293.432.434a8.887,8.887,0,0,1,1.571,2.14,9.03,9.03,0,0,0,1.009,1.375,22.542,22.542,0,0,1,2.707,4.355,19.014,19.014,0,0,1,1.017,2.23c.283.8.449,1.639.662,2.462a7.028,7.028,0,0,0,.2.8,9.668,9.668,0,0,1,.407,2.649,1.416,1.416,0,0,1-.018.413c-.093.462-.441.607-.8.315a2.03,2.03,0,0,1-.434-.524c-.425-.7-.817-1.427-1.251-2.123a29.938,29.938,0,0,0-2.246-3.345c-1-1.21-1.928-2.485-2.875-3.741-.4-.527-.758-1.082-1.147-1.615a3.019,3.019,0,0,0-.348-.319,4.244,4.244,0,0,1-.511-.534,3.723,3.723,0,0,0-1.583-1.426c-.218-.091-.363-.388-.517-.608-.167-.238-.306-.5-.413-.675l-1.154.218a1.025,1.025,0,0,0,.764.872c.16.048.379.115.442.241a15.973,15.973,0,0,0,1.831,2.283c.668.9,1.4,1.742,2.051,2.648.852,1.183,1.695,2.377,2.463,3.618s1.448,2.538,2.145,3.823a.754.754,0,0,1-.064.941c-.065-.006-.135.006-.149-.017a13.289,13.289,0,0,1-1.314-1.888,3.209,3.209,0,0,0-1.559-1.829,10.441,10.441,0,0,1-1.062-.67s-.058-.018-.089,0c-.492.336-.672.3-1.066-.131-.151-.167-.184-.507-.633-.421a3.982,3.982,0,0,0,.251.67,7.877,7.877,0,0,1,.639.947c.273.67.46,1.377.694,2.065.183.538.4,1.064.573,1.6a5.935,5.935,0,0,0,.718,1.7,1.933,1.933,0,0,1,.188.586c.089.308.087.308.485.555a.453.453,0,0,0-.112.639,8.869,8.869,0,0,1,.518,1.4q.385,1.178.742,2.365a7.653,7.653,0,0,1,.238,1,7.029,7.029,0,0,0,.768,2.692,1.514,1.514,0,0,0,.273.392,3.808,3.808,0,0,1,1.022,2.13c.252.883.457,1.782.749,2.651.313.931.708,1.833,1.058,2.752a16.819,16.819,0,0,1,.872,4.11.87.87,0,0,1-.065.538,1.687,1.687,0,0,0-.172,1.26c.1.831-.052,1.015-.936,1.109a2.806,2.806,0,0,0-.038.493c.144,1.584.3,3.167.445,4.752.055.6.073,1.2.134,1.793a3.623,3.623,0,0,1-.065,1.63,5.178,5.178,0,0,0-.131,1.509.53.53,0,0,0,.43.614c.443.078.567.408.609.8.017.16.016.322.022.484.045,1.152.128,2.3.125,3.456,0,1.267-.084,2.534-.139,3.8-.02.461-.045.923-.1,1.38-.042.363-.125.722-.2,1.081a5.6,5.6,0,0,0-.176.738,10.561,10.561,0,0,1-1.314,4.037,3.166,3.166,0,0,0-.236.571,3.73,3.73,0,0,1-1.169,1.578c-.386.386-.7.234-.73-.309a.76.76,0,0,0-.38-.682c-.93-.535-.84-1.45-.781-2.307.061-.894.24-1.778.355-2.669a5.4,5.4,0,0,0,0-.653l-.608-.038c-.037-.052-.092-.1-.084-.123a4.3,4.3,0,0,1,.665-1.643,4.43,4.43,0,0,0,.935-2.333,14.412,14.412,0,0,0,.27-2.744,1.3,1.3,0,0,1,.32-1.026.645.645,0,0,0,.107-.711,3.222,3.222,0,0,1,.029-1.693,6.509,6.509,0,0,0,.089-2.835l-.8.585a.809.809,0,0,1-.4-.821c0-.6.047-1.2.105-1.791a2.739,2.739,0,0,0-.45-2.089,4.906,4.906,0,0,1-.6-1.6c-.084-.293-.158-.523-.517-.549-.3.222-.225.569-.236.875-.036.991-.01,1.987-.092,2.974-.108,1.284-.242,2.572-.465,3.839-.243,1.38-.69,2.726-.884,4.111-.219,1.562-.789,3.02-1.1,4.55a14.134,14.134,0,0,1-.678,1.952c-.323.885-.644,1.77-.983,2.648-.256.664-.514,1.328-.813,1.972-.562,1.213-1.131,2.424-1.74,3.613-.55,1.075-1.12,2.143-1.749,3.171-.821,1.34-1.771,2.6-2.553,3.962a38.089,38.089,0,0,0-2.641,4.8,30.834,30.834,0,0,1-1.608,2.945c-1.056,1.989-2.479,3.721-3.718,5.582-.2.3-.479.549-.7.839s-.409.6-.61.9a1.738,1.738,0,0,1-.143.23c-.947,1.014-1.878,2.044-2.852,3.031a23.363,23.363,0,0,1-1.969,1.779,29.419,29.419,0,0,1-2.562,1.884,6.24,6.24,0,0,1-1.892.882,2.873,2.873,0,0,0-1.75,1.092,1.8,1.8,0,0,1-.371.307l-.1-.094.239-.573a2.05,2.05,0,0,0-.5-.188,2.27,2.27,0,0,1-1.159-.515c-.512-.383-.506-.833.078-1.149.436-.236.907-.406,1.361-.61a2.518,2.518,0,0,0,1.334-1.082,8.378,8.378,0,0,0-2.1.611q-1.3.468-2.6.947-3.084,1.14-6.165,2.287-2.575.958-5.15,1.919a8.954,8.954,0,0,0-.887.333,12.273,12.273,0,0,1-4.016.874c-1.073.142-2.136.357-3.206.529-.532.085-1.068.145-1.6.219-.758.105-1.517.213-2.275.319a4.106,4.106,0,0,1-.8.1,18.97,18.97,0,0,0-3.508.243c-1.1.133-2.2.24-3.3.3a5.663,5.663,0,0,1-1.393-.187c-1.195-.246-2.386-.508-3.576-.777-.794-.179-1.58-.395-2.375-.565a5.473,5.473,0,0,0-1.4-.19,22.363,22.363,0,0,1-2.725-.264,10.97,10.97,0,0,1-3.67-.821,4.259,4.259,0,0,0-1.743-.486,9.581,9.581,0,0,1-2.045-.569,2.287,2.287,0,0,1-1.066-.347c-.123-.1-.427,0-.637.053A1.732,1.732,0,0,1,47,146.307a2.257,2.257,0,0,1-1.466.115.335.335,0,0,1-.21-.163,1.523,1.523,0,0,1-.09-.348.809.809,0,0,1,.3-.036.825.825,0,0,0,.438.089,2.176,2.176,0,0,0-.2-.2,1.4,1.4,0,0,1-.654-.9c-.029-.189-.212-.353-.308-.5-.666.213-.213,1.066-.9,1.225-.289-.178-.53-.558-.987-.553-.076,0-.263-.361-.216-.443.319-.549-.06-.964-.206-1.423a.491.491,0,0,0-.257-.319,2.607,2.607,0,0,1-.01.57c-.031.136-.137.327-.243.354a.473.473,0,0,1-.38-.193,1.607,1.607,0,0,1-.17-.464l-.951-.458c-.045-.257-.083-.48-.132-.76a.745.745,0,0,1-.939-.122c-.212-.181-.364-.054-.492.25l1.2.434c.016.327.122.719-.337.955a.9.9,0,0,1-.37-.912c-.274-.089-.428-.091-.483.258-.074.471-.2.518-.795.394l.641-.955-.709.162c-.2-.278-.04-.807-.622-.831-.2.139-.406.53-.856.132a8.128,8.128,0,0,1,.514-.66.337.337,0,0,0,.037-.526,2.014,2.014,0,0,1-.177-.646l-.476-.06c.055-.053.2-.136.24-.255.022-.069-.118-.251-.217-.285a4.062,4.062,0,0,0-.783-.168c-.26-.035-.658.355-.537.564.262.452-.066.772-.11,1.168-.412-.239-.337-.64-.4-.991s-.14-.7.319-.819c-.266-.551-.378-.653-1.23-1.149a1.5,1.5,0,0,0-.391.225c-.144.151-.152.307.089.42a2.6,2.6,0,0,1,.455.371l-.7.428-.518-1.5.627.036c0-.133.037-.306-.006-.33a2.61,2.61,0,0,1-.867-.913c-.1-.15-.43-.142-.725-.225l.1-.523a.85.85,0,0,1-.915-.615.87.87,0,0,1,.019-.783.787.787,0,0,0-.036-.848c-.375-.627-.782-1.234-1.187-1.842-.057-.086-.171-.132-.31-.233a1.641,1.641,0,0,0-.226.418,5.807,5.807,0,0,0-.1.961.793.793,0,0,0,.148.433c.234.335.505.642.741.976.514.726.481,1.038-.186,1.806-.463-.295-.933-.421-1.246.183.171.446.341.868.5,1.3a.741.741,0,0,0,.537.464c.445.151.465.276.2.792a3.526,3.526,0,0,1-.3-.239c-.114-.111-.19-.281-.321-.349a1.827,1.827,0,0,1-.99-2.215c.112-.564-.218-.85-1.036-.9a3.689,3.689,0,0,0,.173.423,4.567,4.567,0,0,0,.281.395c-.2.216-.385.221-.548.052a2.576,2.576,0,0,1-.964-1.515c-.041-.4-.266-.5-.9-.5a6.178,6.178,0,0,0-1.8-2.057c-1.481-1.271-3.226-2.189-4.58-3.617-.8-.839-1.56-1.708-2.33-2.572-.5-.56-1.014-1.11-1.464-1.711-.806-1.075-1.582-2.176-2.345-3.284-.582-.846-1.162-1.7-1.674-2.587q-1.212-2.1-2.32-4.27a3.667,3.667,0,0,1-.522-1.839,1.1,1.1,0,0,0-.1-.536,24.18,24.18,0,0,1-1.4-4.016,8.472,8.472,0,0,1-.372-1.106,17.016,17.016,0,0,1-.147-1.769c0-.06.1-.127.188-.227l2.6,4.641a2.834,2.834,0,0,0,.2-.617c.01-.344-.043-.691-.034-1.035.012-.442.212-.573.615-.431.192.067.374.165.569.222.341.1.462.018.516-.324a.967.967,0,0,0,.008-.276c-.189-1.459-.459-2.9-.517-4.385-.044-1.124-.288-2.239-.34-3.364-.046-.986.058-1.979.081-2.97.015-.644.021-1.29,0-1.933a5.831,5.831,0,0,0-.773-2.19,21.453,21.453,0,0,1-.886-2.3c-.177-.557-.176-.668-.553-.989A.784.784,0,0,0,7.7,89.5a1.2,1.2,0,0,1-.051,1.574,2.948,2.948,0,0,0-.252.514,3.7,3.7,0,0,0,.4.275c.446.226.572.447.44.913a8.177,8.177,0,0,1-.358.851,2.747,2.747,0,0,1-.3-.5c-.222-.8-.428-1.6-.64-2.394a.759.759,0,0,0-.075-.263,2.906,2.906,0,0,1-.4-1.509,7.449,7.449,0,0,0-.457-2.293,2.23,2.23,0,0,1-.076-.68c-.015-.134,0-.313-.075-.393-.442-.462-.365-1.074-.462-1.624-.119-.679-.168-1.373-.22-2.063a.744.744,0,0,0-.377-.681.781.781,0,0,1-.362-1,1.4,1.4,0,0,1,.076-.336,1.369,1.369,0,0,0-.117-1.432.867.867,0,0,1-.043-.848.759.759,0,0,0,.038-.529A4.95,4.95,0,0,1,4.3,75.1c-.007-.874-.029-1.748-.028-2.622a5.361,5.361,0,0,1,.338-2.5,6.09,6.09,0,0,0,.31-1.2,3.563,3.563,0,0,1,.137-.358,2.007,2.007,0,0,1,.513.973,20.975,20.975,0,0,1,.81,3.552,9.106,9.106,0,0,1,.086.961c.074.638.165,1.274.239,1.913.079.687.154,1.374.217,2.063a.963.963,0,0,0,.381.845c.216-.7.406-1.427,1.258-1.666.478.378.292,1.1.63,1.739a2.159,2.159,0,0,0,.265-.548c.111-1.029.209-2.06.285-3.092a2.212,2.212,0,0,0-.143-.595,7.821,7.821,0,0,1-.3-1.4c-.051-1.383-.05-2.768-.043-4.153,0-.316.136-.629.158-.948.02-.286.074-.664-.072-.849a2.972,2.972,0,0,1-.475-1.7,8.936,8.936,0,0,1,.066-1.793,3.147,3.147,0,0,1,.511-1.486,6.422,6.422,0,0,0,.348-.746,3.828,3.828,0,0,1,.427-.7.44.44,0,0,1,.4-.122c.108.047.17.24.217.381.025.077-.031.178-.04.27a2.386,2.386,0,0,0,.44,1.767,1.02,1.02,0,0,1,.072,1.211,1.486,1.486,0,0,0-.193.648,4.742,4.742,0,0,1-.63,2.085,4.492,4.492,0,0,0-.022,2.822,2.952,2.952,0,0,0,.428-.509,3.1,3.1,0,0,0,.188-.66c.251-1.216.495-2.434.743-3.652.128-.631.254-1.262.391-1.891.3-1.394.582-2.8.931-4.177.263-1.041.6-2.063.939-3.081s.712-2.042,1.092-3.054c.444-1.181.845-2.386,1.389-3.518A32.026,32.026,0,0,1,18.551,45.8c.892-1.378,1.827-2.735,2.848-4.015.792-.992,1.746-1.849,2.625-2.771.518-.543,1.043-1.081,1.537-1.647a4.049,4.049,0,0,1,1.6-1.341c.215-.078.375-.322.551-.5.322-.323.627-.665.96-.977.5-.464.809-.372,1.008.271a1.889,1.889,0,0,0,.105.25c.008.017.035.025.1.066a2.363,2.363,0,0,0,1.15-.84,7.61,7.61,0,0,1,3.741-2.591,6.927,6.927,0,0,0,1.615-.975c.388-.262.895-.29,1.223-.68.054-.064.3,0,.432.053a.942.942,0,0,0,1.067-.217c.449-.41.854-.87,1.311-1.343l-.409-.482c.625-.291.987-.93,1.71-1.106l-.342.839a1.564,1.564,0,0,0-.386.068c-.083.036-.187.146-.187.223a.263.263,0,0,0,.463.138,1.684,1.684,0,0,0,.091-.447m92.883,47.43a1.38,1.38,0,0,0,.293-1.256,14.918,14.918,0,0,0-.6-3.18,1.617,1.617,0,0,1-.027-1.215,1.908,1.908,0,0,0-.177-1.657c-.085-.161-.231-.324-.233-.489a6.575,6.575,0,0,0-.5-1.767,10.888,10.888,0,0,0-.981-2.265c-.412-.737-.866-1.449-1.273-2.189-.359-.654-.638-1.355-1.023-1.991-.636-1.05-1.327-2.066-2-3.093-.262-.4-.528-.8-.812-1.184a1.74,1.74,0,0,0-.961-.767c.072.251.106.413.165.564.091.233.191.463.3.687.171.341.354.677.535,1.013a8.037,8.037,0,0,1,.484.9c.26.677.431,1.393.727,2.051.364.812.815,1.585,1.234,2.372A38.549,38.549,0,0,1,131.773,67c.359,1.016.813,2,1.114,3.035.456,1.564.816,3.158,1.219,4.74.027.106.067.208.141.434M25.116,127.665a1.51,1.51,0,0,0-.56-1.81,4.157,4.157,0,0,1-1.868-2,4.7,4.7,0,0,0-.835-1.152,4.828,4.828,0,0,0-1.556-1.277,6.231,6.231,0,0,0,.54,1.216c.385.648.823,1.265,1.2,1.918.295.511.475,1.1.8,1.581a19.124,19.124,0,0,0,2.248,3c.66.65,1.217,1.408,1.828,2.111.216.249.456.476.742.773a11.62,11.62,0,0,0-2.544-4.353M135.088,78.123a5.359,5.359,0,0,0-.044.862c.147,1.212.306,2.422.488,3.628a2.532,2.532,0,0,0,.3.643c.658-.484.78-.786.551-1.314a11.684,11.684,0,0,1-.911-3.167.734.734,0,0,0-.384-.652M8.122,86.315c-.049-.993-.09-1.855-.135-2.718a.447.447,0,0,0-.306-.442c-.049.036-.075.045-.083.063a3.915,3.915,0,0,0,.047,2.743c.033.123.253.193.478.353m86.9-60.864a8.3,8.3,0,0,0,1.248.486,2.625,2.625,0,0,1,1.056.394.869.869,0,0,0,1.089,0,7.529,7.529,0,0,0-.711-.446c-.648-.309-1.412-.243-2.036-.667-.164-.111-.437-.107-.646.232m39.569,43.5a.859.859,0,0,0,.164.983c.237-.549.225-.62-.164-.983M46.966,145.2c-.4.25-.417.31-.188.8.3-.324.3-.324.188-.8m-12.616-7.63c-.039.547.478.4.61.794.074-.553.066-.562-.61-.794m-5.759-7.187a.651.651,0,0,0,.269.881c.149-.376.163-.649-.269-.881M134.8,76.853c.119-.334.205-.542-.108-.726-.168.249-.137.436.108.726m-96.311,64.4c-.081-.356-.15-.593-.558-.53.047.315.187.469.558.53" transform="translate(-2.667 -14.005)" fill="url(#linear-gradient)"/>
            <path id="Path_873473" data-name="Path 873473" d="M85.908,15.945c-.168-.013-.3-.018-.438-.033-.673-.074-.951-.429-.851-1.122a2.174,2.174,0,0,1,.806-1.4c.7-.574,1.435-1.106,2.11-1.709A29.891,29.891,0,0,1,91.3,9.145a15.677,15.677,0,0,1,3.609-1.827,18.758,18.758,0,0,0,1.716-.792,13.351,13.351,0,0,1,1.305-.533c.769-.251,1.548-.467,2.325-.692.26-.075.525-.135.788-.2a.9.9,0,0,1,.393-.067.537.537,0,0,1,.35.258.463.463,0,0,1-.152.4c-.345.255-.718.472-1.084.7a13.986,13.986,0,0,1-2.1,1.228c-.554.215-.993.6-1.53.825a7.708,7.708,0,0,0-1.537.979c-.668.5-1.3,1.055-1.952,1.576a2.4,2.4,0,0,1-.364.168,3.05,3.05,0,0,0-.695.411,27.616,27.616,0,0,1-3.638,2.685c-.346.243-.632.577-.981.813-.578.39-1.049,1.046-1.848.869" transform="translate(-53.207 -3.123)" fill="url(#linear-gradient)"/>
            <path id="Path_873474" data-name="Path 873474" d="M344.167,266.333c-.19-.227-.422-.382-.459-.577a1.718,1.718,0,0,1,.014-1.054,11.2,11.2,0,0,0,1.132-3.058,26.312,26.312,0,0,1,1.007-2.838c.055-.15.142-.29.182-.443a.671.671,0,0,1,.541-.553.743.743,0,0,0,.664-.823c-.02-.544.354-.827.628-1.171.19-.239.44-.149.574.152a.9.9,0,0,1-.091.978,2.534,2.534,0,0,0-.471,1.553c-.01.23-.044.46-.041.69a13.829,13.829,0,0,1-.723,4.264c-.24.783-.417,1.586-.629,2.378-.065.243-.176.475-.224.72a3.884,3.884,0,0,0-.141,1.078,1.2,1.2,0,0,1-.5,1.254,3.5,3.5,0,0,0-.615.724,3.486,3.486,0,0,1-.38.483.628.628,0,0,1-1.109-.387,3.6,3.6,0,0,0-.338-1.247.925.925,0,0,1,.148-.976c.258-.373.53-.734.829-1.146" transform="translate(-215.789 -158.788)" fill="url(#linear-gradient)"/>
            <path id="Path_873475" data-name="Path 873475" d="M181.733,17.766a.643.643,0,0,1-.5-.681,5.5,5.5,0,0,1,.048-.9,1.813,1.813,0,0,0-.112-1.14c-.2-.434-.066-.64.389-.712a30.545,30.545,0,0,1,7.077-.219,6.743,6.743,0,0,0,.731-.022,1.073,1.073,0,0,1,.33,0,20.941,20.941,0,0,0,3.683.411,1.744,1.744,0,0,0,1.105-.231,1.321,1.321,0,0,1,1.612.7.531.531,0,0,1-.534.694c-1.054.009-2.109-.02-3.162.014a11.714,11.714,0,0,0-1.465.224c-1.068.173-2.131.4-3.2.5a4.467,4.467,0,0,0-1.268.286,2.916,2.916,0,0,1-1,.082,3.287,3.287,0,0,0-1.516.279,2.036,2.036,0,0,1-.922.175c-.516-.009-.991.017-1.289.544" transform="translate(-113.888 -8.701)" fill="url(#linear-gradient)"/>
            <path id="Path_873476" data-name="Path 873476" d="M152.431,6.708,152.943,6a.836.836,0,0,0-.851-.006A15.146,15.146,0,0,1,148.666,7a.9.9,0,0,1-1.053-.891,1.584,1.584,0,0,1,.26-.961,3.13,3.13,0,0,1,1.718-1.022c.944-.21,1.879-.466,2.817-.707.24-.061.473-.164.716-.2,1.536-.239,3.071-.488,4.612-.685.667-.085,1.348-.056,2.023-.078a.576.576,0,0,1,.622.365c-.2.451-.6.482-1.008.434a.594.594,0,0,0-.607.179,5.636,5.636,0,0,1-2.477,1.462c-.082.032-.167.056-.334.113.782.365,1.468-.074,2.171-.044.158.282.051.468-.2.544a6.157,6.157,0,0,1-1.176.268,4.01,4.01,0,0,0-1.476.384,10.185,10.185,0,0,1-2.127.634,2.4,2.4,0,0,1-.721-.082M154.8,5.35c0,.043,0,.086,0,.129l.382-.041-.011-.119-.369.03" transform="translate(-92.838 -1.521)" fill="url(#linear-gradient)"/>
            <path id="Path_873477" data-name="Path 873477" d="M201.8,7.889a.8.8,0,0,1-.827.394,4.842,4.842,0,0,0-.606-.021c-.292.025-.527.13-.506.506.012.226-.062.424-.321.443a.509.509,0,0,1-.546-.322c-.07-.158-.155-.309-.278-.552a2.473,2.473,0,0,0-.259.391.49.49,0,0,1-.513.346c-1.554.063-3.106.166-4.659.216a3.812,3.812,0,0,1-1.19-.2.564.564,0,0,1-.46-.6,1.047,1.047,0,0,1,.405-.583,1.547,1.547,0,0,1,.7-.218c1-.122,2.012-.227,3.019-.327a15.372,15.372,0,0,1,3.37-.121c.556.067,1.125.017,1.687.045a1.119,1.119,0,0,1,.987.6" transform="translate(-120.518 -4.463)" fill="url(#linear-gradient)"/>
            <path id="Path_873478" data-name="Path 873478" d="M76.292,339.922l-1.2-.432c-.317-.115-.63-.239-.949-.346a5.187,5.187,0,0,1-2.56-2.253A5.473,5.473,0,0,1,71.08,336a.662.662,0,0,1,.119-.827.9.9,0,0,1,.761-.069,19.64,19.64,0,0,1,2.737,1.31,12.288,12.288,0,0,1,1.58,1.245,2.608,2.608,0,0,1,.765,1.719c.041.356-.227.512-.751.545" transform="translate(-44.65 -208.08)" fill="url(#linear-gradient)"/>
            <path id="Path_873479" data-name="Path 873479" d="M2.939,214.2c.036.687.075,1.373.107,2.06.016.337.1.692-.223,1.011a1.921,1.921,0,0,1-.378-.223c-.61-.577-1.206-1.132-1.042-2.146a3.8,3.8,0,0,0-.32-1.453A12.046,12.046,0,0,1,.4,210.516c-.008-.843-.219-1.682-.309-2.526a4.529,4.529,0,0,1-.016-1.68c.148.193.269.288.308.41.129.414.207.845.344,1.255.2.607.46,1.2.66,1.8.256.781.478,1.573.725,2.4l.6.108a1.586,1.586,0,0,1-.042.351c-.234.627-.184.761.441.993.254.094.4.261.309.516-.1.269-.315.182-.5.07l-.142-.243-.072.072.233.155" transform="translate(0 -128.128)" fill="url(#linear-gradient)"/>
            <path id="Path_873480" data-name="Path 873480" d="M379.722,146.37a2.018,2.018,0,0,1-.2-.414c-.091-.614-.168-1.229-.249-1.844-.018-.137-.024-.277-.055-.411-.267-1.187-.553-2.37-.8-3.561-.161-.765-.277-1.539-.407-2.31a1.67,1.67,0,0,1-.006-.345.453.453,0,0,1,.4-.481c.236-.034.375.117.45.334.137.39.277.779.409,1.171.066.2.107.4.173.6a16.51,16.51,0,0,1,.83,5.57,3.665,3.665,0,0,1-.542,1.7" transform="translate(-237.734 -85.083)" fill="url(#linear-gradient)"/>
            <path id="Path_873481" data-name="Path 873481" d="M175.924,370.226c.213-.725.714-.69,1.261-.549.218.056.452.057.662.132.32.114.386.5.1.627a11.84,11.84,0,0,1-1.4.466.351.351,0,0,1-.264-.028c-.813-.534-1.745-.269-2.615-.42a2.58,2.58,0,0,1-.4-.029,1.014,1.014,0,0,0-1.128.18c-.069.063-.24.009-.486.009l.611-.418c-.214-.154-.422-.237-.521-.392a1.006,1.006,0,0,1-.151-.617c.012-.1.263-.207.419-.234a1.715,1.715,0,0,1,.606.026,8.3,8.3,0,0,1,2.465.67c.27.146.514.346.85.578" transform="translate(-107.911 -229.125)" fill="url(#linear-gradient)"/>
            <path id="Path_873482" data-name="Path 873482" d="M214.022,379.036c-.292-.017-.587-.014-.876-.056a.846.846,0,0,1-.734-.706.871.871,0,0,1,.5-.873,4.038,4.038,0,0,1,2.538-.533c.4.037.767.111.91.569a1,1,0,0,1-.428,1.065,2.834,2.834,0,0,1-1.914.535" transform="translate(-133.586 -234.037)" fill="url(#linear-gradient)"/>
            <path id="Path_873483" data-name="Path 873483" d="M155.079,16.905a1.887,1.887,0,0,1-.238.429c-.106.11-.332.128-.395.248-.4.774-1.2.866-1.871,1.174-.02.009-.037.034-.057.036a4.763,4.763,0,0,0-1.461.271c-.2.088-.392-.2-.359-.457a.705.705,0,0,1,.661-.667,5.086,5.086,0,0,0,2.815-.992.774.774,0,0,1,.9-.043" transform="translate(-94.776 -10.42)" fill="url(#linear-gradient)"/>
            <path id="Path_873484" data-name="Path 873484" d="M224.436,7.568l.363.493h.717c-.041.22-.075.4-.115.615l.57.348c.025.362-.2.433-.458.477-.62.108-1.239.221-1.86.327-.361.061-.5-.112-.379-.481a2.891,2.891,0,0,1,.227-.418,2.561,2.561,0,0,0,.3-.6,1.193,1.193,0,0,1,.631-.766" transform="translate(-140.396 -4.7)" fill="url(#linear-gradient)"/>
            <path id="Path_873485" data-name="Path 873485" d="M16.069,214.9c-.456-1.06-1.046-1.921-.93-3.015.013-.119.1-.323.154-.325.132,0,.361.062.386.149.266.931.812,1.8.61,2.837-.015.078-.088.144-.221.354" transform="translate(-9.512 -131.39)" fill="url(#linear-gradient)"/>
            <path id="Path_873486" data-name="Path 873486" d="M211.777,1.438c-.055.418-.238.507-.494.47a2.386,2.386,0,0,1-.525-.126,2.171,2.171,0,0,0-1.513-.007,1.151,1.151,0,0,1-1.041-.112c-.128-.087-.338-.042-.507-.072a2.528,2.528,0,0,1-.33-.106.7.7,0,0,1,.052-.115,6.2,6.2,0,0,0,1.8-.3c.088-.011.205-.041.263,0,.5.377,1.079.188,1.623.236a6.345,6.345,0,0,1,.67.131" transform="translate(-130.42 -0.651)" fill="url(#linear-gradient)"/>
            <path id="Path_873487" data-name="Path 873487" d="M233.587,3.86c.422.075.8.137,1.167.209.109.021.251.038.311.113a.739.739,0,0,1,.211.458.547.547,0,0,1-.336.345.924.924,0,0,1-.513-.054c-.192-.059-.367-.172-.555-.248-.49-.2-.5-.232-.285-.823" transform="translate(-146.825 -2.397)" fill="url(#linear-gradient)"/>
            <path id="Path_873488" data-name="Path 873488" d="M370.51,95.763a7.98,7.98,0,0,1-1.264-1.976c.272-.239.517-.176.65.008a10.363,10.363,0,0,1,.816,1.323c.078.151.012.38.012.573l-.214.072" transform="translate(-232.23 -58.15)" fill="url(#linear-gradient)"/>
            <path id="Path_873489" data-name="Path 873489" d="M296.61,48.223c-.081-.014-.187,0-.238-.048-.446-.411-.893-.823-1.317-1.257-.209-.214-.375-.478-.034-.8.85.416,1.068,1.371,1.731,1.936l-.142.164" transform="translate(-185.425 -28.644)" fill="url(#linear-gradient)"/>
            <path id="Path_873490" data-name="Path 873490" d="M365.495,124.228c.158.036.368.021.465.12a2.216,2.216,0,0,1,.449.682c.182.44.317.9.462,1.357.015.048-.035.118-.083.264-.491-.833-1.287-1.4-1.282-2.438Z" transform="translate(-229.871 -77.142)" fill="url(#linear-gradient)"/>
            <path id="Path_873491" data-name="Path 873491" d="M353.225,111.438a2.8,2.8,0,0,1,.38.362,7.325,7.325,0,0,1,.521.862.463.463,0,0,1,0,.409.418.418,0,0,1-.408.031,2,2,0,0,1-.74-1.259c-.022-.091.136-.227.251-.405" transform="translate(-221.995 -69.208)" fill="url(#linear-gradient)"/>
            <path id="Path_873492" data-name="Path 873492" d="M188.337,2.111a2.051,2.051,0,0,1-.477.03.446.446,0,0,1-.282-.212c-.026-.046.082-.246.144-.254a8.977,8.977,0,0,1,1.332-.1c.1,0,.187.256.28.394a1.522,1.522,0,0,1-.4.174,3.292,3.292,0,0,1-.6-.036" transform="translate(-117.971 -0.98)" fill="url(#linear-gradient)"/>
            <path id="Path_873493" data-name="Path 873493" d="M11.627,155.921a9.234,9.234,0,0,1-.207-1.195.573.573,0,0,1,.277-.46c.224-.07.337.16.382.372.1.474.2.95-.452,1.283" transform="translate(-7.182 -95.798)" fill="url(#linear-gradient)"/>
            <path id="Path_873494" data-name="Path 873494" d="M332.113,293.852c.328.725.2,1.09-.6,1.542-.03-.156-.11-.306-.069-.405.143-.355.323-.694.5-1.034.026-.05.109-.069.167-.1" transform="translate(-208.45 -182.495)" fill="url(#linear-gradient)"/>
            <path id="Path_873495" data-name="Path 873495" d="M227.445,3.1c-.518.58-.923.561-1.328-.031.431-.358.843-.259,1.328.031" transform="translate(-142.212 -1.76)" fill="url(#linear-gradient)"/>
            <path id="Path_873496" data-name="Path 873496" d="M134.068,20.285c-.693.291-1.393.146-2.076.592a1.586,1.586,0,0,1,2.076-.592" transform="translate(-83.014 -12.495)" fill="url(#linear-gradient)"/>
            <path id="Path_873497" data-name="Path 873497" d="M192.177,371.558c-.334.468-.744.487-1.25.059a.744.744,0,0,1,1.25-.059" transform="translate(-120.08 -230.56)" fill="url(#linear-gradient)"/>
            <path id="Path_873498" data-name="Path 873498" d="M221.876,2.851c-.393.011-.731-.252-.735-.519a.393.393,0,0,1,.2-.291.641.641,0,0,1,.75.5c0,.125-.173.247-.219.307" transform="translate(-139.082 -1.253)" fill="url(#linear-gradient)"/>
            <path id="Path_873499" data-name="Path 873499" d="M13.987,158.723a5.818,5.818,0,0,1,.021.857.506.506,0,0,1-.271.325.358.358,0,0,1-.344-.085.468.468,0,0,1,.019-.373c.115-.263.263-.51.4-.764l.177.04" transform="translate(-8.403 -98.549)" fill="url(#linear-gradient)"/>
            <path id="Path_873500" data-name="Path 873500" d="M140.756,1.748c-.195.114-.368.23-.554.319a.274.274,0,0,1-.424-.179.411.411,0,0,1,.271-.536c.219-.053.4.036.708.4" transform="translate(-87.896 -0.831)" fill="url(#linear-gradient)"/>
            <path id="Path_873501" data-name="Path 873501" d="M241.093,6.067a.851.851,0,0,1,.966-.352.364.364,0,0,1,.208.292.37.37,0,0,1-.273.243,6.962,6.962,0,0,1-.9-.183" transform="translate(-151.631 -3.531)" fill="url(#linear-gradient)"/>
            <path id="Path_873502" data-name="Path 873502" d="M6.425,190.312c.364.5.362.522-.019.988-.417-.416-.418-.49.019-.988" transform="translate(-3.833 -118.192)" fill="url(#linear-gradient)"/>
            <path id="Path_873503" data-name="Path 873503" d="M142.173,25.73c.048.412-.28.5-.476.681-.319-.2-.246-.379-.114-.563a.37.37,0,0,1,.591-.118" transform="translate(-88.975 -15.917)" fill="url(#linear-gradient)"/>
            <path id="Path_873504" data-name="Path 873504" d="M5.814,217.981c.58.014.722.2.594.789a.976.976,0,0,1-.594-.789" transform="translate(-3.657 -135.376)" fill="url(#linear-gradient)"/>
            <path id="Path_873505" data-name="Path 873505" d="M17.466,241.221c-.426-.5.226-.706.107-1.146l.524.213-.631.933" transform="translate(-10.893 -149.097)" fill="url(#linear-gradient)"/>
            <path id="Path_873506" data-name="Path 873506" d="M385.519,122.442a.676.676,0,0,1,.265.839.253.253,0,0,1-.189.15.246.246,0,0,1-.2-.134c-.05-.282-.141-.582.122-.856" transform="translate(-242.353 -76.042)" fill="url(#linear-gradient)"/>
            <path id="Path_873507" data-name="Path 873507" d="M373.871,100.462a.986.986,0,0,1,.6.661.323.323,0,0,1-.09.288.291.291,0,0,1-.285-.071c-.147-.242-.256-.508-.38-.765l.156-.113" transform="translate(-235.041 -62.391)" fill="url(#linear-gradient)"/>
            <path id="Path_873508" data-name="Path 873508" d="M116.127,29.918c.039-.174.021-.427.128-.508.258-.193.533-.055.819.072-.164.414-.55.325-.753.552Z" transform="translate(-73.036 -18.206)" fill="url(#linear-gradient)"/>
            <path id="Path_873509" data-name="Path 873509" d="M339.247,284.917a.7.7,0,0,1,.1.792.236.236,0,0,1-.458-.033.621.621,0,0,1,.359-.759" transform="translate(-213.126 -176.946)" fill="url(#linear-gradient)"/>
            <path id="Path_873510" data-name="Path 873510" d="M389.6,136.567l-.394.341a1.679,1.679,0,0,1-.282-.463c-.041-.18.073-.4.281-.347.138.038.227.259.4.469" transform="translate(-244.602 -84.517)" fill="url(#linear-gradient)"/>
            <path id="Path_873511" data-name="Path 873511" d="M221.5,8.689c-.1.144-.159.314-.246.332a1.369,1.369,0,0,1-.568-.032c-.044-.01-.084-.274-.067-.282a2.024,2.024,0,0,1,.544-.168c.089-.011.19.08.337.15" transform="translate(-138.752 -5.302)" fill="url(#linear-gradient)"/>
            <path id="Path_873512" data-name="Path 873512" d="M381.1,112.916c-.263-.311-.62-.567-.578-1.057a1.617,1.617,0,0,1,.578,1.057" transform="translate(-239.322 -69.469)" fill="url(#linear-gradient)"/>
            <path id="Path_873513" data-name="Path 873513" d="M357.72,118.506c.426.024.511.256.44.566a.292.292,0,0,1-.24.157c-.244-.03-.307-.277-.2-.723" transform="translate(-224.95 -73.597)" fill="url(#linear-gradient)"/>
            <path id="Path_873514" data-name="Path 873514" d="M89.116,332.855a1.969,1.969,0,0,1,.524.319c.049.055-.09.285-.143.436l-.163.011-.319-.658.1-.108" transform="translate(-55.984 -206.718)" fill="url(#linear-gradient)"/>
            <path id="Path_873515" data-name="Path 873515" d="M75.628,321.81l.6.3-.293.307-.419-.511.112-.093" transform="translate(-47.494 -199.858)" fill="url(#linear-gradient)"/>
            <path id="Path_873516" data-name="Path 873516" d="M147.958,20.175c.172.4.2.623-.049.795a.179.179,0,0,1-.173-.042c-.168-.277.024-.442.222-.753" transform="translate(-92.875 -12.53)" fill="url(#linear-gradient)"/>
            <path id="Path_873517" data-name="Path 873517" d="M381.048,170.681c-.09-.232-.181-.351-.161-.445s.144-.188.223-.28c.073.091.211.189.2.272-.011.122-.128.233-.264.453" transform="translate(-239.55 -105.55)" fill="url(#linear-gradient)"/>
            <path id="Path_873518" data-name="Path 873518" d="M291.136,36.792c-.151.127-.239.258-.331.261s-.176-.13-.265-.2c.08-.086.149-.224.242-.244s.192.1.355.187" transform="translate(-182.729 -22.732)" fill="url(#linear-gradient)"/>
            <path id="Path_873519" data-name="Path 873519" d="M108.794,22.023c.02.313-.034.5-.375.513-.1-.346.081-.436.375-.513" transform="translate(-68.171 -13.677)" fill="url(#linear-gradient)"/>
            <path id="Path_873520" data-name="Path 873520" d="M152.291,0c-.2.353-.37.383-.749.235L152.291,0" transform="translate(-95.309)" fill="url(#linear-gradient)"/>
            <path id="Path_873521" data-name="Path 873521" d="M196.076,371.588c-.12.1-.193.212-.27.214s-.174-.094-.261-.147c.074-.093.133-.218.229-.266.046-.023.161.1.3.2" transform="translate(-122.984 -230.648)" fill="url(#linear-gradient)"/>
            <path id="Path_873522" data-name="Path 873522" d="M330.121,298.741l-.315.292-.106-.1.267-.335.154.141" transform="translate(-207.359 -185.444)" fill="url(#linear-gradient)"/>
            <path id="Path_873523" data-name="Path 873523" d="M386.84,125.975a.468.468,0,0,1,.267.677c-.3-.153-.312-.355-.267-.677" transform="translate(-243.283 -78.236)" fill="url(#linear-gradient)"/>
            <path id="Path_873524" data-name="Path 873524" d="M365,122.855c-.067-.26-.425-.417-.272-.828a.876.876,0,0,1,.263.842l.009-.014" transform="translate(-229.364 -75.784)" fill="url(#linear-gradient)"/>
            <path id="Path_873525" data-name="Path 873525" d="M80.367,334.77c.384.12.476.249.38.449-.025.052-.142.057-.218.083l-.162-.533" transform="translate(-50.545 -207.907)" fill="url(#linear-gradient)"/>
            <path id="Path_873526" data-name="Path 873526" d="M384.361,120.312a3.485,3.485,0,0,1,.176.338c.006.013-.128.107-.132.1-.086-.092-.162-.2-.24-.3l.2-.145" transform="translate(-241.613 -74.719)" fill="url(#linear-gradient)"/>
            <path id="Path_873527" data-name="Path 873527" d="M176.067,11.614c-.092.03-.163.077-.2.058s-.057-.1-.071-.161c0-.007.082-.058.106-.046a.856.856,0,0,1,.161.15" transform="translate(-110.566 -7.119)" fill="url(#linear-gradient)"/>
            <path id="Path_873528" data-name="Path 873528" d="M3.1,204.574a.889.889,0,0,1-.15-.218c-.009-.028.1-.128.112-.12a.427.427,0,0,1,.165.156c.012.021-.062.092-.127.182" transform="translate(-1.856 -126.839)" fill="url(#linear-gradient)"/>
            <path id="Path_873529" data-name="Path 873529" d="M100.884,342.275a.97.97,0,0,1-.238.109c-.024,0-.1-.122-.088-.133a.547.547,0,0,1,.19-.14c.015-.006.069.082.137.165" transform="translate(-63.243 -212.466)" fill="url(#linear-gradient)"/>
            <path id="Path_873530" data-name="Path 873530" d="M111.133,34.116l-.177-.1c.035-.043.066-.117.105-.122s.11.041.166.064l-.094.161" transform="translate(-69.784 -21.047)" fill="url(#linear-gradient)"/>
            <path id="Path_873531" data-name="Path 873531" d="M19.041,233.6l-.127.155-.145-.154c.043-.039.083-.1.131-.11s.084.062.142.11" transform="translate(-11.804 -145.01)" fill="url(#linear-gradient)"/>
            <path id="Path_873532" data-name="Path 873532" d="M198.553,2.457c-.029.028-.057.077-.087.078s-.056-.051-.084-.079c.029-.028.057-.077.088-.078s.055.051.083.08" transform="translate(-124.769 -1.476)" fill="url(#linear-gradient)"/>
          </g>
        </g>
      </g>
    </g>
    <g id="Mask_Group_1098706" data-name="Mask Group 1098706" transform="translate(964.894 -501.092)" clip-path="url(#clip-path-2)">
      <g id="Group_1101949" data-name="Group 1101949" transform="translate(214.107 8145.092)">
        <g id="Group_1101948" data-name="Group 1101948" transform="translate(0 0)" clip-path="url(#clip-path-3)">
          <path id="Path_880898" data-name="Path 880898" d="M25.6,51.156c-.176.2-.343.383-.5.571a11.831,11.831,0,0,1-4.041,3.1.591.591,0,0,0-.4.6c.005.983.008,1.965,0,2.948,0,.228.168.212.309.257a17.273,17.273,0,0,1,2.544.791,9.492,9.492,0,0,1,5.681,8.2,13.737,13.737,0,0,1,0,2.251,3.581,3.581,0,0,1-3.082,3.171,9.177,9.177,0,0,1-1.106.068q-9.308.008-18.616,0a3.61,3.61,0,0,1-3.517-2.049,4.316,4.316,0,0,1-.4-1.564,10.223,10.223,0,0,1,1.572-6.525A9.657,9.657,0,0,1,10.369,58.7c.191-.039.38-.089.59-.139.005-.115.016-.22.016-.325,0-.972-.01-1.944.005-2.917a.46.46,0,0,0-.314-.493,12.079,12.079,0,0,1-5.692-5.555,13.115,13.115,0,0,1-1.239-4.111.38.38,0,0,0-.309-.354A4.893,4.893,0,0,1,.06,40.625C.024,40.213,0,39.8,0,39.383,0,36.927,0,34.469,0,32.014a12.23,12.23,0,0,1,3.849-9.172,12.1,12.1,0,0,1,8.283-3.323q3.836-.024,7.673.005a11.649,11.649,0,0,1,4.4.946,1.346,1.346,0,0,0,.183.045c.008-.121.018-.212.018-.307Q24.4,13.33,24.383,6.454a6.356,6.356,0,0,1,1.19-3.907A6.211,6.211,0,0,1,30.861,0H66.688a6.207,6.207,0,0,1,5.188,2.416,6.429,6.429,0,0,1,1.284,4.1V29.842q0,8.679,0,17.36a6.154,6.154,0,0,1-2.5,5.188,5.741,5.741,0,0,1-3.428,1.192c-2.285.029-4.57.037-6.858.039q-14.418,0-28.838-.005a13.892,13.892,0,0,1-2.115-.134,5.9,5.9,0,0,1-3.574-2.062c-.063-.073-.128-.147-.191-.22l-.06-.045m45.195-24.32h-.005v-7.7q0-6.207.005-12.413a4.5,4.5,0,0,0-.784-2.848,3.967,3.967,0,0,0-3.388-1.5q-17.731,0-35.465,0a7.745,7.745,0,0,0-1.394.121,3.5,3.5,0,0,0-2.893,3.09c-.071.726-.037,1.462-.039,2.193q0,6.977.005,13.951a.659.659,0,0,0,.183.414c.642.65,1.36,1.234,1.939,1.937A11.169,11.169,0,0,1,31.629,31c.079,3.131.045,6.265.039,9.4a4.48,4.48,0,0,1-.812,2.484,4.924,4.924,0,0,1-2.641,1.981.407.407,0,0,0-.246.262,14.221,14.221,0,0,1-.844,3.286.817.817,0,0,0,.008.553A3.367,3.367,0,0,0,29.781,51.1,15.183,15.183,0,0,0,32,51.177c1.067.008,2.133,0,3.2.005.233,0,.32-.06.341-.307a4.875,4.875,0,0,1,.191-.925,9.63,9.63,0,0,1,7.945-7.17c.186-.034.228-.1.225-.275-.005-.632-.01-1.266,0-1.9.005-.2-.076-.273-.244-.354a12.158,12.158,0,0,1-6.169-6.509,10.784,10.784,0,0,1-.789-3.092c-.018-.162-.01-.328-.244-.406A4.959,4.959,0,0,1,32.923,25.3c0-2.686-.016-5.372.008-8.058a13.48,13.48,0,0,1,.194-2.178,11.872,11.872,0,0,1,4.35-7.45,11.765,11.765,0,0,1,7.138-2.7c2.348-.079,4.7-.039,7.052-.045a14.29,14.29,0,0,1,2.985.231,12.157,12.157,0,0,1,5.744,2.788,11.916,11.916,0,0,1,4.182,9.331c-.01,2.675,0,5.351-.005,8.024a6.1,6.1,0,0,1-.073,1.239,4.807,4.807,0,0,1-3.359,3.75.328.328,0,0,0-.265.333,12.182,12.182,0,0,1-7.012,9.709.342.342,0,0,0-.233.367c.013.6.016,1.2,0,1.8-.008.246.073.322.322.367a9.641,9.641,0,0,1,6.774,4.554A8.492,8.492,0,0,1,62,50.834c.026.215.073.356.351.354,1.622-.016,3.244.008,4.866-.018A3.437,3.437,0,0,0,70.228,49.4a4.471,4.471,0,0,0,.563-2.39q0-10.086,0-20.175m-54.987-4.9v0c-1.153,0-2.309-.013-3.462.005a10.027,10.027,0,0,0-1.753.123,9.544,9.544,0,0,0-7.77,6.858,13.161,13.161,0,0,0-.461,4.211A2.37,2.37,0,0,0,2.7,34.4a14.108,14.108,0,0,0,8.38,6.41,18.556,18.556,0,0,0,6.208.55,14.6,14.6,0,0,0,5.886-1.541,13.859,13.859,0,0,0,5.849-5.49,1.991,1.991,0,0,0,.228-.862c.034-.621.01-1.245.01-1.866a9.366,9.366,0,0,0-2.655-6.632,9.413,9.413,0,0,0-6.983-3.032c-1.274-.013-2.547,0-3.821,0m46.379,2.529c0-.438,0-.875,0-1.31a1.166,1.166,0,0,0-.949-1.2,1.233,1.233,0,0,0-1.4.7,3.128,3.128,0,0,0-.126.7,1.208,1.208,0,0,1-1.428.964,1.359,1.359,0,0,1-.985-1.412,2.663,2.663,0,0,0-2.12-2.461c-.445-.094-.9-.152-1.347-.238a19.882,19.882,0,0,1-4.78-1.6.673.673,0,0,0-.508-.021,18.653,18.653,0,0,1-5.513,1.727,3.128,3.128,0,0,0-2.018.888,2.914,2.914,0,0,0-.791,2.013,1.185,1.185,0,0,1-2.353.142c-.039-.157-.063-.32-.094-.482a1.144,1.144,0,0,0-1.032-.935,1.19,1.19,0,0,0-1.386,1.274c-.026.831-.016,1.661,0,2.489a2.337,2.337,0,0,0,.959,1.853,2.892,2.892,0,0,0,1.554.532,1.061,1.061,0,0,1,1.087,1.1,11.519,11.519,0,0,0,.933,4.153,9.77,9.77,0,0,0,18.642-4,1.181,1.181,0,0,1,.736-1.192,3.039,3.039,0,0,1,.708-.107,2.426,2.426,0,0,0,2.214-2.372c0-.4,0-.807,0-1.211M38.725,20.232a5.14,5.14,0,0,1,3.6-2.2,14.859,14.859,0,0,0,5.508-1.811,1.672,1.672,0,0,1,1.879,0,14.563,14.563,0,0,0,5.38,1.8,5.3,5.3,0,0,1,3.556,1.978c.06.073.126.142.2.225a3.823,3.823,0,0,1,3.328-.524c0-1.182.079-2.322-.016-3.446A9.351,9.351,0,0,0,59.1,9.924a9.221,9.221,0,0,0-6.438-2.586c-2.668.01-5.333-.01-8,.01a7.074,7.074,0,0,0-1.743.2,9.523,9.523,0,0,0-7.39,7.688,20.762,20.762,0,0,0-.186,3.391c-.013.333,0,.668,0,1.064a3.851,3.851,0,0,1,3.383.54M15.872,70.708v.029q4.536,0,9.077,0A5.462,5.462,0,0,0,25.7,70.7a1.206,1.206,0,0,0,1.145-1.15,11.378,11.378,0,0,0,0-1.664,7.168,7.168,0,0,0-1.386-3.952A6.653,6.653,0,0,0,20.293,61c-2.922-.107-5.857-.136-8.778,0a6.817,6.817,0,0,0-5.9,4,8.6,8.6,0,0,0-.71,4.756.943.943,0,0,0,.647.8,2.63,2.63,0,0,0,.852.178c.542.021,1.087-.021,1.63-.024q3.919,0,7.838,0m13.388-32.5c-.037-.024-.071-.05-.107-.076-.2.225-.385.466-.6.676A16.735,16.735,0,0,1,17.9,43.769a20.354,20.354,0,0,1-6.554-.372,17.41,17.41,0,0,1-8.53-4.929c-.115-.118-.244-.228-.414-.388,0,.8-.029,1.512.01,2.225A2.488,2.488,0,0,0,4.678,42.65c1.032.1,1.35.466,1.41,1.512a11.41,11.41,0,0,0,.144,1.465A9.744,9.744,0,0,0,17.6,53.478a9.253,9.253,0,0,0,4.942-2.487A9.471,9.471,0,0,0,25.6,44.071a1.256,1.256,0,0,1,1.174-1.391c.1-.018.194-.024.291-.037a2.36,2.36,0,0,0,2.183-2.112c.039-.773.008-1.549.008-2.324M59.613,51.154c.013-.05.029-.073.024-.092-.063-.265-.11-.535-.2-.791a7.186,7.186,0,0,0-5.8-5.086.321.321,0,0,0-.254.152c-.115.21-.178.445-.288.658a4.686,4.686,0,0,1-4.19,2.728,4.789,4.789,0,0,1-4.717-3.357.332.332,0,0,0-.27-.162,5.26,5.26,0,0,0-.925.186,7.22,7.22,0,0,0-4.84,4.709c-.118.335-.191.684-.291,1.056Zm-13.3-9.992c0,1.03-.066,2,.018,2.961A2.345,2.345,0,0,0,48.4,46.285a2.412,2.412,0,0,0,2.814-2.458c0-.776,0-1.549,0-2.324,0-.1-.008-.2-.013-.322a12.907,12.907,0,0,1-4.882-.018M13.4,58.478h4.866V55.8a12.826,12.826,0,0,1-4.866.005Z" transform="translate(0 0)" fill="#fff"/>
        </g>
      </g>
    </g>
  </g>
</svg>
