<svg xmlns="http://www.w3.org/2000/svg" xmlns:xlink="http://www.w3.org/1999/xlink" width="145" height="145" viewBox="0 0 145 145">
  <defs>
    <linearGradient id="linear-gradient" x1="0.17" y1="0.896" x2="0.791" y2="0.048" gradientUnits="objectBoundingBox">
      <stop offset="0" stop-color="#4e5661"/>
      <stop offset="1" stop-color="#4a71ab"/>
    </linearGradient>
    <clipPath id="clip-path">
      <rect id="Rectangle_401159" data-name="Rectangle 401159" width="145" height="145" fill="url(#linear-gradient)"/>
    </clipPath>
    <clipPath id="clip-path-2">
      <rect id="Rectangle_403323" data-name="Rectangle 403323" width="74.972" height="74.414" fill="#fff"/>
    </clipPath>
  </defs>
  <g id="Group_1101939" data-name="Group 1101939" transform="translate(-180 -8110)">
    <g id="Group_1099650" data-name="Group 1099650" transform="translate(180 8110)">
      <g id="Group_1099585" data-name="Group 1099585">
        <g id="Group_1099584" data-name="Group 1099584" clip-path="url(#clip-path)">
          <path id="Path_873472" data-name="Path 873472" d="M41.364,27.776l.566.252c-.355.366-.681.654-.948.991s-.5.746-.746,1.121a.947.947,0,0,0,1.363.139,30.288,30.288,0,0,1,3.641-2.463A16.123,16.123,0,0,0,47.867,26.2c.6-.508,1.358-.7,1.908-1.247a.34.34,0,0,1,.236-.118,1.117,1.117,0,0,0,1.13-.433c.153-.181.357-.148.545.006.323.265.594.193.887-.1a1.377,1.377,0,0,1,1.72-.3c-.032.493-.032.493-.509.827a2.122,2.122,0,0,0-.412-.174.65.65,0,0,0-.7.836c.1.277.294.2.5.131a15.3,15.3,0,0,1,1.81-.543c1.174-.225,2.36-.383,3.541-.569q1.941-.306,3.882-.614a29.323,29.323,0,0,1,4.642-.5c3.276.01,6.551-.03,9.827-.053a1.718,1.718,0,0,0,.669-.059,6.172,6.172,0,0,1,2.166-.276c.226-.018.437-.243.714-.409.257.27.778-.381,1.092.169-.227.433-.845-.093-.968.548a2.247,2.247,0,0,0,.493.284,11.851,11.851,0,0,0,3.727.59c2.232-.083,4.468-.1,6.7-.108a15.911,15.911,0,0,1,3.936.512c.85.212,1.721.336,2.579.518a2.409,2.409,0,0,1,.616.253c.2.107.373.263.571.372a3.6,3.6,0,0,1,1.465,1.377,1.435,1.435,0,0,0,.953.712,1.483,1.483,0,0,1,.6.3,7.818,7.818,0,0,0,1.922,1.248,7.679,7.679,0,0,1,1.354.87,20,20,0,0,0,2.077,1.262c.908.494,1.84.939,2.76,1.411a1.337,1.337,0,0,1,.394.261,1.357,1.357,0,0,0,1.1.44,1.538,1.538,0,0,1,1.166.6,7.1,7.1,0,0,0,.672.551,2.059,2.059,0,0,1,.229.146,39.072,39.072,0,0,0,3.424,2.562.8.8,0,0,0,.771.251c0-.157.012-.31,0-.46-.033-.343-.111-.685-.114-1.028a1.55,1.55,0,0,1,1.57-1.629,4.21,4.21,0,0,1,2.357.451,7.316,7.316,0,0,0,1.639.567,1.041,1.041,0,0,1,.194.06c.744.427,1.487.859,2.23,1.288.331.191.651.405,1,.562a19.226,19.226,0,0,1,2.955,2.034,21.505,21.505,0,0,1,3.469,3.356c.137.152.285.293.432.434a8.887,8.887,0,0,1,1.571,2.14,9.03,9.03,0,0,0,1.009,1.375,22.542,22.542,0,0,1,2.707,4.355,19.014,19.014,0,0,1,1.017,2.23c.283.8.449,1.639.662,2.462a7.028,7.028,0,0,0,.2.8,9.668,9.668,0,0,1,.407,2.649,1.416,1.416,0,0,1-.018.413c-.093.462-.441.607-.8.315a2.03,2.03,0,0,1-.434-.524c-.425-.7-.817-1.427-1.251-2.123a29.938,29.938,0,0,0-2.246-3.345c-1-1.21-1.928-2.485-2.875-3.741-.4-.527-.758-1.082-1.147-1.615a3.019,3.019,0,0,0-.348-.319,4.244,4.244,0,0,1-.511-.534,3.723,3.723,0,0,0-1.583-1.426c-.218-.091-.363-.388-.517-.608-.167-.238-.306-.5-.413-.675l-1.154.218a1.025,1.025,0,0,0,.764.872c.16.048.379.115.442.241a15.973,15.973,0,0,0,1.831,2.283c.668.9,1.4,1.742,2.051,2.648.852,1.183,1.695,2.377,2.463,3.618s1.448,2.538,2.145,3.823a.754.754,0,0,1-.064.941c-.065-.006-.135.006-.149-.017a13.289,13.289,0,0,1-1.314-1.888,3.209,3.209,0,0,0-1.559-1.829,10.441,10.441,0,0,1-1.062-.67s-.058-.018-.089,0c-.492.336-.672.3-1.066-.131-.151-.167-.184-.507-.633-.421a3.982,3.982,0,0,0,.251.67,7.877,7.877,0,0,1,.639.947c.273.67.46,1.377.694,2.065.183.538.4,1.064.573,1.6a5.935,5.935,0,0,0,.718,1.7,1.933,1.933,0,0,1,.188.586c.089.308.087.308.485.555a.453.453,0,0,0-.112.639,8.869,8.869,0,0,1,.518,1.4q.385,1.178.742,2.365a7.653,7.653,0,0,1,.238,1,7.029,7.029,0,0,0,.768,2.692,1.514,1.514,0,0,0,.273.392,3.808,3.808,0,0,1,1.022,2.13c.252.883.457,1.782.749,2.651.313.931.708,1.833,1.058,2.752a16.819,16.819,0,0,1,.872,4.11.87.87,0,0,1-.065.538,1.687,1.687,0,0,0-.172,1.26c.1.831-.052,1.015-.936,1.109a2.806,2.806,0,0,0-.038.493c.144,1.584.3,3.167.445,4.752.055.6.073,1.2.134,1.793a3.623,3.623,0,0,1-.065,1.63,5.178,5.178,0,0,0-.131,1.509.53.53,0,0,0,.43.614c.443.078.567.408.609.8.017.16.016.322.022.484.045,1.152.128,2.3.125,3.456,0,1.267-.084,2.534-.139,3.8-.02.461-.045.923-.1,1.38-.042.363-.125.722-.2,1.081a5.6,5.6,0,0,0-.176.738,10.561,10.561,0,0,1-1.314,4.037,3.166,3.166,0,0,0-.236.571,3.73,3.73,0,0,1-1.169,1.578c-.386.386-.7.234-.73-.309a.76.76,0,0,0-.38-.682c-.93-.535-.84-1.45-.781-2.307.061-.894.24-1.778.355-2.669a5.4,5.4,0,0,0,0-.653l-.608-.038c-.037-.052-.092-.1-.084-.123a4.3,4.3,0,0,1,.665-1.643,4.43,4.43,0,0,0,.935-2.333,14.412,14.412,0,0,0,.27-2.744,1.3,1.3,0,0,1,.32-1.026.645.645,0,0,0,.107-.711,3.222,3.222,0,0,1,.029-1.693,6.509,6.509,0,0,0,.089-2.835l-.8.585a.809.809,0,0,1-.4-.821c0-.6.047-1.2.105-1.791a2.739,2.739,0,0,0-.45-2.089,4.906,4.906,0,0,1-.6-1.6c-.084-.293-.158-.523-.517-.549-.3.222-.225.569-.236.875-.036.991-.01,1.987-.092,2.974-.108,1.284-.242,2.572-.465,3.839-.243,1.38-.69,2.726-.884,4.111-.219,1.562-.789,3.02-1.1,4.55a14.134,14.134,0,0,1-.678,1.952c-.323.885-.644,1.77-.983,2.648-.256.664-.514,1.328-.813,1.972-.562,1.213-1.131,2.424-1.74,3.613-.55,1.075-1.12,2.143-1.749,3.171-.821,1.34-1.771,2.6-2.553,3.962a38.089,38.089,0,0,0-2.641,4.8,30.834,30.834,0,0,1-1.608,2.945c-1.056,1.989-2.479,3.721-3.718,5.582-.2.3-.479.549-.7.839s-.409.6-.61.9a1.738,1.738,0,0,1-.143.23c-.947,1.014-1.878,2.044-2.852,3.031a23.363,23.363,0,0,1-1.969,1.779,29.419,29.419,0,0,1-2.562,1.884,6.24,6.24,0,0,1-1.892.882,2.873,2.873,0,0,0-1.75,1.092,1.8,1.8,0,0,1-.371.307l-.1-.094.239-.573a2.05,2.05,0,0,0-.5-.188,2.27,2.27,0,0,1-1.159-.515c-.512-.383-.506-.833.078-1.149.436-.236.907-.406,1.361-.61a2.518,2.518,0,0,0,1.334-1.082,8.378,8.378,0,0,0-2.1.611q-1.3.468-2.6.947-3.084,1.14-6.165,2.287-2.575.958-5.15,1.919a8.954,8.954,0,0,0-.887.333,12.273,12.273,0,0,1-4.016.874c-1.073.142-2.136.357-3.206.529-.532.085-1.068.145-1.6.219-.758.105-1.517.213-2.275.319a4.106,4.106,0,0,1-.8.1,18.97,18.97,0,0,0-3.508.243c-1.1.133-2.2.24-3.3.3a5.663,5.663,0,0,1-1.393-.187c-1.195-.246-2.386-.508-3.576-.777-.794-.179-1.58-.395-2.375-.565a5.473,5.473,0,0,0-1.4-.19,22.363,22.363,0,0,1-2.725-.264,10.97,10.97,0,0,1-3.67-.821,4.259,4.259,0,0,0-1.743-.486,9.581,9.581,0,0,1-2.045-.569,2.287,2.287,0,0,1-1.066-.347c-.123-.1-.427,0-.637.053A1.732,1.732,0,0,1,47,146.307a2.257,2.257,0,0,1-1.466.115.335.335,0,0,1-.21-.163,1.523,1.523,0,0,1-.09-.348.809.809,0,0,1,.3-.036.825.825,0,0,0,.438.089,2.176,2.176,0,0,0-.2-.2,1.4,1.4,0,0,1-.654-.9c-.029-.189-.212-.353-.308-.5-.666.213-.213,1.066-.9,1.225-.289-.178-.53-.558-.987-.553-.076,0-.263-.361-.216-.443.319-.549-.06-.964-.206-1.423a.491.491,0,0,0-.257-.319,2.607,2.607,0,0,1-.01.57c-.031.136-.137.327-.243.354a.473.473,0,0,1-.38-.193,1.607,1.607,0,0,1-.17-.464l-.951-.458c-.045-.257-.083-.48-.132-.76a.745.745,0,0,1-.939-.122c-.212-.181-.364-.054-.492.25l1.2.434c.016.327.122.719-.337.955a.9.9,0,0,1-.37-.912c-.274-.089-.428-.091-.483.258-.074.471-.2.518-.795.394l.641-.955-.709.162c-.2-.278-.04-.807-.622-.831-.2.139-.406.53-.856.132a8.128,8.128,0,0,1,.514-.66.337.337,0,0,0,.037-.526,2.014,2.014,0,0,1-.177-.646l-.476-.06c.055-.053.2-.136.24-.255.022-.069-.118-.251-.217-.285a4.062,4.062,0,0,0-.783-.168c-.26-.035-.658.355-.537.564.262.452-.066.772-.11,1.168-.412-.239-.337-.64-.4-.991s-.14-.7.319-.819c-.266-.551-.378-.653-1.23-1.149a1.5,1.5,0,0,0-.391.225c-.144.151-.152.307.089.42a2.6,2.6,0,0,1,.455.371l-.7.428-.518-1.5.627.036c0-.133.037-.306-.006-.33a2.61,2.61,0,0,1-.867-.913c-.1-.15-.43-.142-.725-.225l.1-.523a.85.85,0,0,1-.915-.615.87.87,0,0,1,.019-.783.787.787,0,0,0-.036-.848c-.375-.627-.782-1.234-1.187-1.842-.057-.086-.171-.132-.31-.233a1.641,1.641,0,0,0-.226.418,5.807,5.807,0,0,0-.1.961.793.793,0,0,0,.148.433c.234.335.505.642.741.976.514.726.481,1.038-.186,1.806-.463-.295-.933-.421-1.246.183.171.446.341.868.5,1.3a.741.741,0,0,0,.537.464c.445.151.465.276.2.792a3.526,3.526,0,0,1-.3-.239c-.114-.111-.19-.281-.321-.349a1.827,1.827,0,0,1-.99-2.215c.112-.564-.218-.85-1.036-.9a3.689,3.689,0,0,0,.173.423,4.567,4.567,0,0,0,.281.395c-.2.216-.385.221-.548.052a2.576,2.576,0,0,1-.964-1.515c-.041-.4-.266-.5-.9-.5a6.178,6.178,0,0,0-1.8-2.057c-1.481-1.271-3.226-2.189-4.58-3.617-.8-.839-1.56-1.708-2.33-2.572-.5-.56-1.014-1.11-1.464-1.711-.806-1.075-1.582-2.176-2.345-3.284-.582-.846-1.162-1.7-1.674-2.587q-1.212-2.1-2.32-4.27a3.667,3.667,0,0,1-.522-1.839,1.1,1.1,0,0,0-.1-.536,24.18,24.18,0,0,1-1.4-4.016,8.472,8.472,0,0,1-.372-1.106,17.016,17.016,0,0,1-.147-1.769c0-.06.1-.127.188-.227l2.6,4.641a2.834,2.834,0,0,0,.2-.617c.01-.344-.043-.691-.034-1.035.012-.442.212-.573.615-.431.192.067.374.165.569.222.341.1.462.018.516-.324a.967.967,0,0,0,.008-.276c-.189-1.459-.459-2.9-.517-4.385-.044-1.124-.288-2.239-.34-3.364-.046-.986.058-1.979.081-2.97.015-.644.021-1.29,0-1.933a5.831,5.831,0,0,0-.773-2.19,21.453,21.453,0,0,1-.886-2.3c-.177-.557-.176-.668-.553-.989A.784.784,0,0,0,7.7,89.5a1.2,1.2,0,0,1-.051,1.574,2.948,2.948,0,0,0-.252.514,3.7,3.7,0,0,0,.4.275c.446.226.572.447.44.913a8.177,8.177,0,0,1-.358.851,2.747,2.747,0,0,1-.3-.5c-.222-.8-.428-1.6-.64-2.394a.759.759,0,0,0-.075-.263,2.906,2.906,0,0,1-.4-1.509,7.449,7.449,0,0,0-.457-2.293,2.23,2.23,0,0,1-.076-.68c-.015-.134,0-.313-.075-.393-.442-.462-.365-1.074-.462-1.624-.119-.679-.168-1.373-.22-2.063a.744.744,0,0,0-.377-.681.781.781,0,0,1-.362-1,1.4,1.4,0,0,1,.076-.336,1.369,1.369,0,0,0-.117-1.432.867.867,0,0,1-.043-.848.759.759,0,0,0,.038-.529A4.95,4.95,0,0,1,4.3,75.1c-.007-.874-.029-1.748-.028-2.622a5.361,5.361,0,0,1,.338-2.5,6.09,6.09,0,0,0,.31-1.2,3.563,3.563,0,0,1,.137-.358,2.007,2.007,0,0,1,.513.973,20.975,20.975,0,0,1,.81,3.552,9.106,9.106,0,0,1,.086.961c.074.638.165,1.274.239,1.913.079.687.154,1.374.217,2.063a.963.963,0,0,0,.381.845c.216-.7.406-1.427,1.258-1.666.478.378.292,1.1.63,1.739a2.159,2.159,0,0,0,.265-.548c.111-1.029.209-2.06.285-3.092a2.212,2.212,0,0,0-.143-.595,7.821,7.821,0,0,1-.3-1.4c-.051-1.383-.05-2.768-.043-4.153,0-.316.136-.629.158-.948.02-.286.074-.664-.072-.849a2.972,2.972,0,0,1-.475-1.7,8.936,8.936,0,0,1,.066-1.793,3.147,3.147,0,0,1,.511-1.486,6.422,6.422,0,0,0,.348-.746,3.828,3.828,0,0,1,.427-.7.44.44,0,0,1,.4-.122c.108.047.17.24.217.381.025.077-.031.178-.04.27a2.386,2.386,0,0,0,.44,1.767,1.02,1.02,0,0,1,.072,1.211,1.486,1.486,0,0,0-.193.648,4.742,4.742,0,0,1-.63,2.085,4.492,4.492,0,0,0-.022,2.822,2.952,2.952,0,0,0,.428-.509,3.1,3.1,0,0,0,.188-.66c.251-1.216.495-2.434.743-3.652.128-.631.254-1.262.391-1.891.3-1.394.582-2.8.931-4.177.263-1.041.6-2.063.939-3.081s.712-2.042,1.092-3.054c.444-1.181.845-2.386,1.389-3.518A32.026,32.026,0,0,1,18.551,45.8c.892-1.378,1.827-2.735,2.848-4.015.792-.992,1.746-1.849,2.625-2.771.518-.543,1.043-1.081,1.537-1.647a4.049,4.049,0,0,1,1.6-1.341c.215-.078.375-.322.551-.5.322-.323.627-.665.96-.977.5-.464.809-.372,1.008.271a1.889,1.889,0,0,0,.105.25c.008.017.035.025.1.066a2.363,2.363,0,0,0,1.15-.84,7.61,7.61,0,0,1,3.741-2.591,6.927,6.927,0,0,0,1.615-.975c.388-.262.895-.29,1.223-.68.054-.064.3,0,.432.053a.942.942,0,0,0,1.067-.217c.449-.41.854-.87,1.311-1.343l-.409-.482c.625-.291.987-.93,1.71-1.106l-.342.839a1.564,1.564,0,0,0-.386.068c-.083.036-.187.146-.187.223a.263.263,0,0,0,.463.138,1.684,1.684,0,0,0,.091-.447m92.883,47.43a1.38,1.38,0,0,0,.293-1.256,14.918,14.918,0,0,0-.6-3.18,1.617,1.617,0,0,1-.027-1.215,1.908,1.908,0,0,0-.177-1.657c-.085-.161-.231-.324-.233-.489a6.575,6.575,0,0,0-.5-1.767,10.888,10.888,0,0,0-.981-2.265c-.412-.737-.866-1.449-1.273-2.189-.359-.654-.638-1.355-1.023-1.991-.636-1.05-1.327-2.066-2-3.093-.262-.4-.528-.8-.812-1.184a1.74,1.74,0,0,0-.961-.767c.072.251.106.413.165.564.091.233.191.463.3.687.171.341.354.677.535,1.013a8.037,8.037,0,0,1,.484.9c.26.677.431,1.393.727,2.051.364.812.815,1.585,1.234,2.372A38.549,38.549,0,0,1,131.773,67c.359,1.016.813,2,1.114,3.035.456,1.564.816,3.158,1.219,4.74.027.106.067.208.141.434M25.116,127.665a1.51,1.51,0,0,0-.56-1.81,4.157,4.157,0,0,1-1.868-2,4.7,4.7,0,0,0-.835-1.152,4.828,4.828,0,0,0-1.556-1.277,6.231,6.231,0,0,0,.54,1.216c.385.648.823,1.265,1.2,1.918.295.511.475,1.1.8,1.581a19.124,19.124,0,0,0,2.248,3c.66.65,1.217,1.408,1.828,2.111.216.249.456.476.742.773a11.62,11.62,0,0,0-2.544-4.353M135.088,78.123a5.359,5.359,0,0,0-.044.862c.147,1.212.306,2.422.488,3.628a2.532,2.532,0,0,0,.3.643c.658-.484.78-.786.551-1.314a11.684,11.684,0,0,1-.911-3.167.734.734,0,0,0-.384-.652M8.122,86.315c-.049-.993-.09-1.855-.135-2.718a.447.447,0,0,0-.306-.442c-.049.036-.075.045-.083.063a3.915,3.915,0,0,0,.047,2.743c.033.123.253.193.478.353m86.9-60.864a8.3,8.3,0,0,0,1.248.486,2.625,2.625,0,0,1,1.056.394.869.869,0,0,0,1.089,0,7.529,7.529,0,0,0-.711-.446c-.648-.309-1.412-.243-2.036-.667-.164-.111-.437-.107-.646.232m39.569,43.5a.859.859,0,0,0,.164.983c.237-.549.225-.62-.164-.983M46.966,145.2c-.4.25-.417.31-.188.8.3-.324.3-.324.188-.8m-12.616-7.63c-.039.547.478.4.61.794.074-.553.066-.562-.61-.794m-5.759-7.187a.651.651,0,0,0,.269.881c.149-.376.163-.649-.269-.881M134.8,76.853c.119-.334.205-.542-.108-.726-.168.249-.137.436.108.726m-96.311,64.4c-.081-.356-.15-.593-.558-.53.047.315.187.469.558.53" transform="translate(-2.667 -14.005)" fill="url(#linear-gradient)"/>
          <path id="Path_873473" data-name="Path 873473" d="M85.908,15.945c-.168-.013-.3-.018-.438-.033-.673-.074-.951-.429-.851-1.122a2.174,2.174,0,0,1,.806-1.4c.7-.574,1.435-1.106,2.11-1.709A29.891,29.891,0,0,1,91.3,9.145a15.677,15.677,0,0,1,3.609-1.827,18.758,18.758,0,0,0,1.716-.792,13.351,13.351,0,0,1,1.305-.533c.769-.251,1.548-.467,2.325-.692.26-.075.525-.135.788-.2a.9.9,0,0,1,.393-.067.537.537,0,0,1,.35.258.463.463,0,0,1-.152.4c-.345.255-.718.472-1.084.7a13.986,13.986,0,0,1-2.1,1.228c-.554.215-.993.6-1.53.825a7.708,7.708,0,0,0-1.537.979c-.668.5-1.3,1.055-1.952,1.576a2.4,2.4,0,0,1-.364.168,3.05,3.05,0,0,0-.695.411,27.616,27.616,0,0,1-3.638,2.685c-.346.243-.632.577-.981.813-.578.39-1.049,1.046-1.848.869" transform="translate(-53.207 -3.123)" fill="url(#linear-gradient)"/>
          <path id="Path_873474" data-name="Path 873474" d="M344.167,266.333c-.19-.227-.422-.382-.459-.577a1.718,1.718,0,0,1,.014-1.054,11.2,11.2,0,0,0,1.132-3.058,26.312,26.312,0,0,1,1.007-2.838c.055-.15.142-.29.182-.443a.671.671,0,0,1,.541-.553.743.743,0,0,0,.664-.823c-.02-.544.354-.827.628-1.171.19-.239.44-.149.574.152a.9.9,0,0,1-.091.978,2.534,2.534,0,0,0-.471,1.553c-.01.23-.044.46-.041.69a13.829,13.829,0,0,1-.723,4.264c-.24.783-.417,1.586-.629,2.378-.065.243-.176.475-.224.72a3.884,3.884,0,0,0-.141,1.078,1.2,1.2,0,0,1-.5,1.254,3.5,3.5,0,0,0-.615.724,3.486,3.486,0,0,1-.38.483.628.628,0,0,1-1.109-.387,3.6,3.6,0,0,0-.338-1.247.925.925,0,0,1,.148-.976c.258-.373.53-.734.829-1.146" transform="translate(-215.789 -158.788)" fill="url(#linear-gradient)"/>
          <path id="Path_873475" data-name="Path 873475" d="M181.733,17.766a.643.643,0,0,1-.5-.681,5.5,5.5,0,0,1,.048-.9,1.813,1.813,0,0,0-.112-1.14c-.2-.434-.066-.64.389-.712a30.545,30.545,0,0,1,7.077-.219,6.743,6.743,0,0,0,.731-.022,1.073,1.073,0,0,1,.33,0,20.941,20.941,0,0,0,3.683.411,1.744,1.744,0,0,0,1.105-.231,1.321,1.321,0,0,1,1.612.7.531.531,0,0,1-.534.694c-1.054.009-2.109-.02-3.162.014a11.714,11.714,0,0,0-1.465.224c-1.068.173-2.131.4-3.2.5a4.467,4.467,0,0,0-1.268.286,2.916,2.916,0,0,1-1,.082,3.287,3.287,0,0,0-1.516.279,2.036,2.036,0,0,1-.922.175c-.516-.009-.991.017-1.289.544" transform="translate(-113.888 -8.701)" fill="url(#linear-gradient)"/>
          <path id="Path_873476" data-name="Path 873476" d="M152.431,6.708,152.943,6a.836.836,0,0,0-.851-.006A15.146,15.146,0,0,1,148.666,7a.9.9,0,0,1-1.053-.891,1.584,1.584,0,0,1,.26-.961,3.13,3.13,0,0,1,1.718-1.022c.944-.21,1.879-.466,2.817-.707.24-.061.473-.164.716-.2,1.536-.239,3.071-.488,4.612-.685.667-.085,1.348-.056,2.023-.078a.576.576,0,0,1,.622.365c-.2.451-.6.482-1.008.434a.594.594,0,0,0-.607.179,5.636,5.636,0,0,1-2.477,1.462c-.082.032-.167.056-.334.113.782.365,1.468-.074,2.171-.044.158.282.051.468-.2.544a6.157,6.157,0,0,1-1.176.268,4.01,4.01,0,0,0-1.476.384,10.185,10.185,0,0,1-2.127.634,2.4,2.4,0,0,1-.721-.082M154.8,5.35c0,.043,0,.086,0,.129l.382-.041-.011-.119-.369.03" transform="translate(-92.838 -1.521)" fill="url(#linear-gradient)"/>
          <path id="Path_873477" data-name="Path 873477" d="M201.8,7.889a.8.8,0,0,1-.827.394,4.842,4.842,0,0,0-.606-.021c-.292.025-.527.13-.506.506.012.226-.062.424-.321.443a.509.509,0,0,1-.546-.322c-.07-.158-.155-.309-.278-.552a2.473,2.473,0,0,0-.259.391.49.49,0,0,1-.513.346c-1.554.063-3.106.166-4.659.216a3.812,3.812,0,0,1-1.19-.2.564.564,0,0,1-.46-.6,1.047,1.047,0,0,1,.405-.583,1.547,1.547,0,0,1,.7-.218c1-.122,2.012-.227,3.019-.327a15.372,15.372,0,0,1,3.37-.121c.556.067,1.125.017,1.687.045a1.119,1.119,0,0,1,.987.6" transform="translate(-120.518 -4.463)" fill="url(#linear-gradient)"/>
          <path id="Path_873478" data-name="Path 873478" d="M76.292,339.922l-1.2-.432c-.317-.115-.63-.239-.949-.346a5.187,5.187,0,0,1-2.56-2.253A5.473,5.473,0,0,1,71.08,336a.662.662,0,0,1,.119-.827.9.9,0,0,1,.761-.069,19.64,19.64,0,0,1,2.737,1.31,12.288,12.288,0,0,1,1.58,1.245,2.608,2.608,0,0,1,.765,1.719c.041.356-.227.512-.751.545" transform="translate(-44.65 -208.08)" fill="url(#linear-gradient)"/>
          <path id="Path_873479" data-name="Path 873479" d="M2.939,214.2c.036.687.075,1.373.107,2.06.016.337.1.692-.223,1.011a1.921,1.921,0,0,1-.378-.223c-.61-.577-1.206-1.132-1.042-2.146a3.8,3.8,0,0,0-.32-1.453A12.046,12.046,0,0,1,.4,210.516c-.008-.843-.219-1.682-.309-2.526a4.529,4.529,0,0,1-.016-1.68c.148.193.269.288.308.41.129.414.207.845.344,1.255.2.607.46,1.2.66,1.8.256.781.478,1.573.725,2.4l.6.108a1.586,1.586,0,0,1-.042.351c-.234.627-.184.761.441.993.254.094.4.261.309.516-.1.269-.315.182-.5.07l-.142-.243-.072.072.233.155" transform="translate(0 -128.128)" fill="url(#linear-gradient)"/>
          <path id="Path_873480" data-name="Path 873480" d="M379.722,146.37a2.018,2.018,0,0,1-.2-.414c-.091-.614-.168-1.229-.249-1.844-.018-.137-.024-.277-.055-.411-.267-1.187-.553-2.37-.8-3.561-.161-.765-.277-1.539-.407-2.31a1.67,1.67,0,0,1-.006-.345.453.453,0,0,1,.4-.481c.236-.034.375.117.45.334.137.39.277.779.409,1.171.066.2.107.4.173.6a16.51,16.51,0,0,1,.83,5.57,3.665,3.665,0,0,1-.542,1.7" transform="translate(-237.734 -85.083)" fill="url(#linear-gradient)"/>
          <path id="Path_873481" data-name="Path 873481" d="M175.924,370.226c.213-.725.714-.69,1.261-.549.218.056.452.057.662.132.32.114.386.5.1.627a11.84,11.84,0,0,1-1.4.466.351.351,0,0,1-.264-.028c-.813-.534-1.745-.269-2.615-.42a2.58,2.58,0,0,1-.4-.029,1.014,1.014,0,0,0-1.128.18c-.069.063-.24.009-.486.009l.611-.418c-.214-.154-.422-.237-.521-.392a1.006,1.006,0,0,1-.151-.617c.012-.1.263-.207.419-.234a1.715,1.715,0,0,1,.606.026,8.3,8.3,0,0,1,2.465.67c.27.146.514.346.85.578" transform="translate(-107.911 -229.125)" fill="url(#linear-gradient)"/>
          <path id="Path_873482" data-name="Path 873482" d="M214.022,379.036c-.292-.017-.587-.014-.876-.056a.846.846,0,0,1-.734-.706.871.871,0,0,1,.5-.873,4.038,4.038,0,0,1,2.538-.533c.4.037.767.111.91.569a1,1,0,0,1-.428,1.065,2.834,2.834,0,0,1-1.914.535" transform="translate(-133.586 -234.037)" fill="url(#linear-gradient)"/>
          <path id="Path_873483" data-name="Path 873483" d="M155.079,16.905a1.887,1.887,0,0,1-.238.429c-.106.11-.332.128-.395.248-.4.774-1.2.866-1.871,1.174-.02.009-.037.034-.057.036a4.763,4.763,0,0,0-1.461.271c-.2.088-.392-.2-.359-.457a.705.705,0,0,1,.661-.667,5.086,5.086,0,0,0,2.815-.992.774.774,0,0,1,.9-.043" transform="translate(-94.776 -10.42)" fill="url(#linear-gradient)"/>
          <path id="Path_873484" data-name="Path 873484" d="M224.436,7.568l.363.493h.717c-.041.22-.075.4-.115.615l.57.348c.025.362-.2.433-.458.477-.62.108-1.239.221-1.86.327-.361.061-.5-.112-.379-.481a2.891,2.891,0,0,1,.227-.418,2.561,2.561,0,0,0,.3-.6,1.193,1.193,0,0,1,.631-.766" transform="translate(-140.396 -4.7)" fill="url(#linear-gradient)"/>
          <path id="Path_873485" data-name="Path 873485" d="M16.069,214.9c-.456-1.06-1.046-1.921-.93-3.015.013-.119.1-.323.154-.325.132,0,.361.062.386.149.266.931.812,1.8.61,2.837-.015.078-.088.144-.221.354" transform="translate(-9.512 -131.39)" fill="url(#linear-gradient)"/>
          <path id="Path_873486" data-name="Path 873486" d="M211.777,1.438c-.055.418-.238.507-.494.47a2.386,2.386,0,0,1-.525-.126,2.171,2.171,0,0,0-1.513-.007,1.151,1.151,0,0,1-1.041-.112c-.128-.087-.338-.042-.507-.072a2.528,2.528,0,0,1-.33-.106.7.7,0,0,1,.052-.115,6.2,6.2,0,0,0,1.8-.3c.088-.011.205-.041.263,0,.5.377,1.079.188,1.623.236a6.345,6.345,0,0,1,.67.131" transform="translate(-130.42 -0.651)" fill="url(#linear-gradient)"/>
          <path id="Path_873487" data-name="Path 873487" d="M233.587,3.86c.422.075.8.137,1.167.209.109.021.251.038.311.113a.739.739,0,0,1,.211.458.547.547,0,0,1-.336.345.924.924,0,0,1-.513-.054c-.192-.059-.367-.172-.555-.248-.49-.2-.5-.232-.285-.823" transform="translate(-146.825 -2.397)" fill="url(#linear-gradient)"/>
          <path id="Path_873488" data-name="Path 873488" d="M370.51,95.763a7.98,7.98,0,0,1-1.264-1.976c.272-.239.517-.176.65.008a10.363,10.363,0,0,1,.816,1.323c.078.151.012.38.012.573l-.214.072" transform="translate(-232.23 -58.15)" fill="url(#linear-gradient)"/>
          <path id="Path_873489" data-name="Path 873489" d="M296.61,48.223c-.081-.014-.187,0-.238-.048-.446-.411-.893-.823-1.317-1.257-.209-.214-.375-.478-.034-.8.85.416,1.068,1.371,1.731,1.936l-.142.164" transform="translate(-185.425 -28.644)" fill="url(#linear-gradient)"/>
          <path id="Path_873490" data-name="Path 873490" d="M365.495,124.228c.158.036.368.021.465.12a2.216,2.216,0,0,1,.449.682c.182.44.317.9.462,1.357.015.048-.035.118-.083.264-.491-.833-1.287-1.4-1.282-2.438Z" transform="translate(-229.871 -77.142)" fill="url(#linear-gradient)"/>
          <path id="Path_873491" data-name="Path 873491" d="M353.225,111.438a2.8,2.8,0,0,1,.38.362,7.325,7.325,0,0,1,.521.862.463.463,0,0,1,0,.409.418.418,0,0,1-.408.031,2,2,0,0,1-.74-1.259c-.022-.091.136-.227.251-.405" transform="translate(-221.995 -69.208)" fill="url(#linear-gradient)"/>
          <path id="Path_873492" data-name="Path 873492" d="M188.337,2.111a2.051,2.051,0,0,1-.477.03.446.446,0,0,1-.282-.212c-.026-.046.082-.246.144-.254a8.977,8.977,0,0,1,1.332-.1c.1,0,.187.256.28.394a1.522,1.522,0,0,1-.4.174,3.292,3.292,0,0,1-.6-.036" transform="translate(-117.971 -0.98)" fill="url(#linear-gradient)"/>
          <path id="Path_873493" data-name="Path 873493" d="M11.627,155.921a9.234,9.234,0,0,1-.207-1.195.573.573,0,0,1,.277-.46c.224-.07.337.16.382.372.1.474.2.95-.452,1.283" transform="translate(-7.182 -95.798)" fill="url(#linear-gradient)"/>
          <path id="Path_873494" data-name="Path 873494" d="M332.113,293.852c.328.725.2,1.09-.6,1.542-.03-.156-.11-.306-.069-.405.143-.355.323-.694.5-1.034.026-.05.109-.069.167-.1" transform="translate(-208.45 -182.495)" fill="url(#linear-gradient)"/>
          <path id="Path_873495" data-name="Path 873495" d="M227.445,3.1c-.518.58-.923.561-1.328-.031.431-.358.843-.259,1.328.031" transform="translate(-142.212 -1.76)" fill="url(#linear-gradient)"/>
          <path id="Path_873496" data-name="Path 873496" d="M134.068,20.285c-.693.291-1.393.146-2.076.592a1.586,1.586,0,0,1,2.076-.592" transform="translate(-83.014 -12.495)" fill="url(#linear-gradient)"/>
          <path id="Path_873497" data-name="Path 873497" d="M192.177,371.558c-.334.468-.744.487-1.25.059a.744.744,0,0,1,1.25-.059" transform="translate(-120.08 -230.56)" fill="url(#linear-gradient)"/>
          <path id="Path_873498" data-name="Path 873498" d="M221.876,2.851c-.393.011-.731-.252-.735-.519a.393.393,0,0,1,.2-.291.641.641,0,0,1,.75.5c0,.125-.173.247-.219.307" transform="translate(-139.082 -1.253)" fill="url(#linear-gradient)"/>
          <path id="Path_873499" data-name="Path 873499" d="M13.987,158.723a5.818,5.818,0,0,1,.021.857.506.506,0,0,1-.271.325.358.358,0,0,1-.344-.085.468.468,0,0,1,.019-.373c.115-.263.263-.51.4-.764l.177.04" transform="translate(-8.403 -98.549)" fill="url(#linear-gradient)"/>
          <path id="Path_873500" data-name="Path 873500" d="M140.756,1.748c-.195.114-.368.23-.554.319a.274.274,0,0,1-.424-.179.411.411,0,0,1,.271-.536c.219-.053.4.036.708.4" transform="translate(-87.896 -0.831)" fill="url(#linear-gradient)"/>
          <path id="Path_873501" data-name="Path 873501" d="M241.093,6.067a.851.851,0,0,1,.966-.352.364.364,0,0,1,.208.292.37.37,0,0,1-.273.243,6.962,6.962,0,0,1-.9-.183" transform="translate(-151.631 -3.531)" fill="url(#linear-gradient)"/>
          <path id="Path_873502" data-name="Path 873502" d="M6.425,190.312c.364.5.362.522-.019.988-.417-.416-.418-.49.019-.988" transform="translate(-3.833 -118.192)" fill="url(#linear-gradient)"/>
          <path id="Path_873503" data-name="Path 873503" d="M142.173,25.73c.048.412-.28.5-.476.681-.319-.2-.246-.379-.114-.563a.37.37,0,0,1,.591-.118" transform="translate(-88.975 -15.917)" fill="url(#linear-gradient)"/>
          <path id="Path_873504" data-name="Path 873504" d="M5.814,217.981c.58.014.722.2.594.789a.976.976,0,0,1-.594-.789" transform="translate(-3.657 -135.376)" fill="url(#linear-gradient)"/>
          <path id="Path_873505" data-name="Path 873505" d="M17.466,241.221c-.426-.5.226-.706.107-1.146l.524.213-.631.933" transform="translate(-10.893 -149.097)" fill="url(#linear-gradient)"/>
          <path id="Path_873506" data-name="Path 873506" d="M385.519,122.442a.676.676,0,0,1,.265.839.253.253,0,0,1-.189.15.246.246,0,0,1-.2-.134c-.05-.282-.141-.582.122-.856" transform="translate(-242.353 -76.042)" fill="url(#linear-gradient)"/>
          <path id="Path_873507" data-name="Path 873507" d="M373.871,100.462a.986.986,0,0,1,.6.661.323.323,0,0,1-.09.288.291.291,0,0,1-.285-.071c-.147-.242-.256-.508-.38-.765l.156-.113" transform="translate(-235.041 -62.391)" fill="url(#linear-gradient)"/>
          <path id="Path_873508" data-name="Path 873508" d="M116.127,29.918c.039-.174.021-.427.128-.508.258-.193.533-.055.819.072-.164.414-.55.325-.753.552Z" transform="translate(-73.036 -18.206)" fill="url(#linear-gradient)"/>
          <path id="Path_873509" data-name="Path 873509" d="M339.247,284.917a.7.7,0,0,1,.1.792.236.236,0,0,1-.458-.033.621.621,0,0,1,.359-.759" transform="translate(-213.126 -176.946)" fill="url(#linear-gradient)"/>
          <path id="Path_873510" data-name="Path 873510" d="M389.6,136.567l-.394.341a1.679,1.679,0,0,1-.282-.463c-.041-.18.073-.4.281-.347.138.038.227.259.4.469" transform="translate(-244.602 -84.517)" fill="url(#linear-gradient)"/>
          <path id="Path_873511" data-name="Path 873511" d="M221.5,8.689c-.1.144-.159.314-.246.332a1.369,1.369,0,0,1-.568-.032c-.044-.01-.084-.274-.067-.282a2.024,2.024,0,0,1,.544-.168c.089-.011.19.08.337.15" transform="translate(-138.752 -5.302)" fill="url(#linear-gradient)"/>
          <path id="Path_873512" data-name="Path 873512" d="M381.1,112.916c-.263-.311-.62-.567-.578-1.057a1.617,1.617,0,0,1,.578,1.057" transform="translate(-239.322 -69.469)" fill="url(#linear-gradient)"/>
          <path id="Path_873513" data-name="Path 873513" d="M357.72,118.506c.426.024.511.256.44.566a.292.292,0,0,1-.24.157c-.244-.03-.307-.277-.2-.723" transform="translate(-224.95 -73.597)" fill="url(#linear-gradient)"/>
          <path id="Path_873514" data-name="Path 873514" d="M89.116,332.855a1.969,1.969,0,0,1,.524.319c.049.055-.09.285-.143.436l-.163.011-.319-.658.1-.108" transform="translate(-55.984 -206.718)" fill="url(#linear-gradient)"/>
          <path id="Path_873515" data-name="Path 873515" d="M75.628,321.81l.6.3-.293.307-.419-.511.112-.093" transform="translate(-47.494 -199.858)" fill="url(#linear-gradient)"/>
          <path id="Path_873516" data-name="Path 873516" d="M147.958,20.175c.172.4.2.623-.049.795a.179.179,0,0,1-.173-.042c-.168-.277.024-.442.222-.753" transform="translate(-92.875 -12.53)" fill="url(#linear-gradient)"/>
          <path id="Path_873517" data-name="Path 873517" d="M381.048,170.681c-.09-.232-.181-.351-.161-.445s.144-.188.223-.28c.073.091.211.189.2.272-.011.122-.128.233-.264.453" transform="translate(-239.55 -105.55)" fill="url(#linear-gradient)"/>
          <path id="Path_873518" data-name="Path 873518" d="M291.136,36.792c-.151.127-.239.258-.331.261s-.176-.13-.265-.2c.08-.086.149-.224.242-.244s.192.1.355.187" transform="translate(-182.729 -22.732)" fill="url(#linear-gradient)"/>
          <path id="Path_873519" data-name="Path 873519" d="M108.794,22.023c.02.313-.034.5-.375.513-.1-.346.081-.436.375-.513" transform="translate(-68.171 -13.677)" fill="url(#linear-gradient)"/>
          <path id="Path_873520" data-name="Path 873520" d="M152.291,0c-.2.353-.37.383-.749.235L152.291,0" transform="translate(-95.309)" fill="url(#linear-gradient)"/>
          <path id="Path_873521" data-name="Path 873521" d="M196.076,371.588c-.12.1-.193.212-.27.214s-.174-.094-.261-.147c.074-.093.133-.218.229-.266.046-.023.161.1.3.2" transform="translate(-122.984 -230.648)" fill="url(#linear-gradient)"/>
          <path id="Path_873522" data-name="Path 873522" d="M330.121,298.741l-.315.292-.106-.1.267-.335.154.141" transform="translate(-207.359 -185.444)" fill="url(#linear-gradient)"/>
          <path id="Path_873523" data-name="Path 873523" d="M386.84,125.975a.468.468,0,0,1,.267.677c-.3-.153-.312-.355-.267-.677" transform="translate(-243.283 -78.236)" fill="url(#linear-gradient)"/>
          <path id="Path_873524" data-name="Path 873524" d="M365,122.855c-.067-.26-.425-.417-.272-.828a.876.876,0,0,1,.263.842l.009-.014" transform="translate(-229.364 -75.784)" fill="url(#linear-gradient)"/>
          <path id="Path_873525" data-name="Path 873525" d="M80.367,334.77c.384.12.476.249.38.449-.025.052-.142.057-.218.083l-.162-.533" transform="translate(-50.545 -207.907)" fill="url(#linear-gradient)"/>
          <path id="Path_873526" data-name="Path 873526" d="M384.361,120.312a3.485,3.485,0,0,1,.176.338c.006.013-.128.107-.132.1-.086-.092-.162-.2-.24-.3l.2-.145" transform="translate(-241.613 -74.719)" fill="url(#linear-gradient)"/>
          <path id="Path_873527" data-name="Path 873527" d="M176.067,11.614c-.092.03-.163.077-.2.058s-.057-.1-.071-.161c0-.007.082-.058.106-.046a.856.856,0,0,1,.161.15" transform="translate(-110.566 -7.119)" fill="url(#linear-gradient)"/>
          <path id="Path_873528" data-name="Path 873528" d="M3.1,204.574a.889.889,0,0,1-.15-.218c-.009-.028.1-.128.112-.12a.427.427,0,0,1,.165.156c.012.021-.062.092-.127.182" transform="translate(-1.856 -126.839)" fill="url(#linear-gradient)"/>
          <path id="Path_873529" data-name="Path 873529" d="M100.884,342.275a.97.97,0,0,1-.238.109c-.024,0-.1-.122-.088-.133a.547.547,0,0,1,.19-.14c.015-.006.069.082.137.165" transform="translate(-63.243 -212.466)" fill="url(#linear-gradient)"/>
          <path id="Path_873530" data-name="Path 873530" d="M111.133,34.116l-.177-.1c.035-.043.066-.117.105-.122s.11.041.166.064l-.094.161" transform="translate(-69.784 -21.047)" fill="url(#linear-gradient)"/>
          <path id="Path_873531" data-name="Path 873531" d="M19.041,233.6l-.127.155-.145-.154c.043-.039.083-.1.131-.11s.084.062.142.11" transform="translate(-11.804 -145.01)" fill="url(#linear-gradient)"/>
          <path id="Path_873532" data-name="Path 873532" d="M198.553,2.457c-.029.028-.057.077-.087.078s-.056-.051-.084-.079c.029-.028.057-.077.088-.078s.055.051.083.08" transform="translate(-124.769 -1.476)" fill="url(#linear-gradient)"/>
        </g>
      </g>
    </g>
    <g id="Group_1101943" data-name="Group 1101943" transform="translate(214.08 8147.585)">
      <g id="Group_1101942" data-name="Group 1101942" transform="translate(-2.661 -2.641)" clip-path="url(#clip-path-2)">
        <path id="Path_880884" data-name="Path 880884" d="M73.178,55.5c.244.263.5.513.725.787a3.46,3.46,0,0,1,.8,2.151,4.336,4.336,0,0,1-.392,2.505,6.943,6.943,0,0,1-1.036,1.246c-.158.158-.1.228-.016.352a4.724,4.724,0,0,1-.226,4.876,3.252,3.252,0,0,1-1.958,1.241c-.185.032-.22.1-.212.285a13.523,13.523,0,0,1,.013,2.331A3.084,3.084,0,0,1,67.9,73.751c-4.205-.04-8.413.013-12.618-.038a8.576,8.576,0,0,1-4.366-1.423,10.133,10.133,0,0,0-1.458-.875,4.825,4.825,0,0,0-1.649-.344c-1.829-.043-3.657-.016-5.489-.019a.812.812,0,0,0-.494.191,1.8,1.8,0,0,1-.916.33c-1.708.032-3.413.038-5.121,0a3.3,3.3,0,0,1-1.007-.371,1.209,1.209,0,0,0-.384-.14q-4.5-.012-9-.005a.889.889,0,0,0-.124.013A3.6,3.6,0,0,1,23.211,73.2a3.863,3.863,0,0,1-1.23.252,5.065,5.065,0,0,1-2.213-.193c-.277-.118-.545-.25-.84-.387a3.936,3.936,0,0,1-3.4,1.544,3.918,3.918,0,0,1-3.343-1.506,6.81,6.81,0,0,1-1.5.494,8.158,8.158,0,0,1-2.387-.07,3.391,3.391,0,0,1-2.543-2.5c-.07-.22-.129-.29-.405-.271a11.449,11.449,0,0,1-2.229.005A2.983,2.983,0,0,1,.677,67.8c-.04-.677-.04-1.359-.043-2.038q-.008-4.7-.005-9.4A10.346,10.346,0,0,1,2.58,50.019a4.631,4.631,0,0,0,.878-2.857c-.005-.8-.03-1.606-.019-2.409a1.059,1.059,0,0,1,1.348-1.071,1.229,1.229,0,0,1,.827.967,19.425,19.425,0,0,1-.158,4.065,6.143,6.143,0,0,1-1.02,2.342A8.609,8.609,0,0,0,2.8,56.45c.048,3.622.016,7.25.016,10.873,0,.867.3,1.173,1.157,1.176a5.585,5.585,0,0,0,.9-.059.866.866,0,0,0,.752-.913c0-.87,0-1.74,0-2.61A1.057,1.057,0,0,1,6.67,63.805a1.07,1.07,0,0,1,1.1,1.093c.008,1.574,0,3.147.008,4.718a3.034,3.034,0,0,0,.067.7,1.145,1.145,0,0,0,.98.929,6.083,6.083,0,0,0,1.5.019,1.3,1.3,0,0,0,1.187-1.38c.005-1.638,0-3.279,0-4.919A1.183,1.183,0,0,1,12.3,63.84a1.044,1.044,0,0,1,1.233.561,1.334,1.334,0,0,1,.129.607c.008,1.853,0,3.7.005,5.556a3.439,3.439,0,0,0,.024.5,1.294,1.294,0,0,0,1.222,1.125,10.808,10.808,0,0,0,1.1,0A1.326,1.326,0,0,0,17.4,70.757c.011-1.037,0-2.073,0-3.11,0-.9,0-1.807,0-2.712a1.1,1.1,0,0,1,1.112-1.128,1.07,1.07,0,0,1,1.031,1.125c0,1.606,0,3.212,0,4.817a1.45,1.45,0,0,0,1.5,1.56,7.927,7.927,0,0,0,.838-.008,1.414,1.414,0,0,0,1.4-1.514q0-2.811,0-5.62v-8.7a3.249,3.249,0,0,1,3.464-3.48h2.1a5,5,0,0,0-.776-1.815,5.227,5.227,0,0,0-3.2-2.084,5.536,5.536,0,0,1-4.353-4.154,5.759,5.759,0,0,1-.175-1.455c-.013-5.164-.008-10.327-.011-15.491a5.179,5.179,0,0,0-.056-.865.926.926,0,0,0-.862-.8A4.982,4.982,0,0,0,18.8,25.3q-6.441,0-12.884,0c-.078,0-.153.008-.285.016V39.426a1.171,1.171,0,0,1-1.187,1.249,1.021,1.021,0,0,1-.959-.83,3.97,3.97,0,0,1-.048-.666q.008-6.594.03-13.182a1.05,1.05,0,0,0-.639-1.144,3.406,3.406,0,0,1-1.89-3.126,5.147,5.147,0,0,1,.215-1.982c.11-.3.258-.585.4-.913-.14-.126-.322-.285-.491-.456a4.242,4.242,0,0,1-1.026-3.6,3.657,3.657,0,0,1,1.4-2.6.308.308,0,0,0,.048-.293A4.731,4.731,0,0,1,1.23,7.81,3.178,3.178,0,0,1,3.655,5.723c.2-.046.239-.1.209-.314A4.8,4.8,0,0,1,4.087,2.4,2.908,2.908,0,0,1,6.791.648C7.83.643,8.867.635,9.9.648a1.065,1.065,0,0,1,1.152,1.077A1.165,1.165,0,0,1,9.863,2.8c-.972,0-1.941,0-2.913,0a.9.9,0,0,0-1.031.959,6.147,6.147,0,0,0,.027.969.783.783,0,0,0,.846.806c.3.024.6.013.9.013.559,0,1.117-.013,1.673.008a1.194,1.194,0,0,1,1.211.722,1.045,1.045,0,0,1-.811,1.412,6.686,6.686,0,0,1-.9.051q-2.058,0-4.116-.013A1.447,1.447,0,0,0,3.091,9.348c0,.2,0,.4.008.6a1.406,1.406,0,0,0,1.514,1.474c1.482.019,2.967.005,4.449.013a4.319,4.319,0,0,1,.7.051,1.028,1.028,0,0,1,.894,1.012.988.988,0,0,1-.832,1.02,3.907,3.907,0,0,1-.83.07c-1.6,0-3.19-.016-4.785-.021a4.405,4.405,0,0,0-.8.051,1.41,1.41,0,0,0-1.254,1.455,2.644,2.644,0,0,0,.193,1.472,1.264,1.264,0,0,0,1.184.717c1.842-.013,3.681-.013,5.521-.011a3.542,3.542,0,0,1,.631.064,1.1,1.1,0,0,1,.972,1.128,1.082,1.082,0,0,1-1.061,1.01c-.277.021-.556.019-.835.019-1.294,0-2.589,0-3.883,0a4.626,4.626,0,0,0-.666.046,1.2,1.2,0,0,0-1.055,1.012,6.379,6.379,0,0,0-.021,1.431A1.281,1.281,0,0,0,4.42,23.134c.134.008.269.005.4.005q7.162,0,14.323,0a3.291,3.291,0,0,1,3.311,2.742,9.34,9.34,0,0,1,.04,1.5c.005.432,0,.865,0,1.327a4.7,4.7,0,0,0,2.712-1.536,4.989,4.989,0,0,0,1.176-2.256,6.042,6.042,0,0,1,1.869-3.287A6.154,6.154,0,0,1,31.678,20.2c.051-.008.1-.011.169-.016V5.489H30.571c-1.273,0-2.543-.016-3.816,0a5.579,5.579,0,0,1-2.94-.867c-.518-.306-1.012-.653-1.533-.951A7.479,7.479,0,0,0,18.515,2.8c-1.093,0-2.186.005-3.279,0a1.124,1.124,0,0,1-1.192-1.1A1,1,0,0,1,15.029.651C16.592.64,18.158.573,19.712.683a8.883,8.883,0,0,1,4.522,1.686,4.913,4.913,0,0,0,3.152.975c1.394-.054,2.79-.013,4.184-.013h.215A10.172,10.172,0,0,1,32.395,2,2.8,2.8,0,0,1,35.424.686,2.875,2.875,0,0,1,37.8,3.03c.059.26.164.306.4.3q5.506,0,11.01.005a.327.327,0,0,0,.365-.239A3.5,3.5,0,0,1,52.848.922a4.885,4.885,0,0,1,2.393.325l.534.287c.067-.073.148-.158.226-.247A3.272,3.272,0,0,1,58.31.022a11.054,11.054,0,0,1,2,.048,3.331,3.331,0,0,1,2.041,1.182l.2.215A7.225,7.225,0,0,1,64.054.978a5.2,5.2,0,0,1,3.077.32,3.639,3.639,0,0,1,1.858,2.3c.024.083.051.166.056.185a21.8,21.8,0,0,1,2.3.013A3.043,3.043,0,0,1,74.1,6.851c.035,2.164.032,4.326.035,6.49,0,1.829.032,3.66-.038,5.486a9.244,9.244,0,0,1-1.686,5.137,5.839,5.839,0,0,0-1.147,3.856c.027.564,0,1.13,0,1.743H72.37a2.476,2.476,0,0,1,2.6,2.583q.008,3.645,0,7.293a2.359,2.359,0,0,1-2.393,2.473c-.419.016-.84,0-1.305,0v.7c0,2.052.013,4.1-.008,6.155a.546.546,0,0,0,.381.607,3.553,3.553,0,0,1,2.137,2.975,4.8,4.8,0,0,1-.258,2.468c-.1.234-.228.454-.344.679M22.494,31v.314q0,5.655,0,11.308a3.427,3.427,0,0,0,.532,1.8,3.569,3.569,0,0,0,2.406,1.6A7.33,7.33,0,0,1,28.694,47.7a7.177,7.177,0,0,1,2.3,3.982c.048.231.129.33.389.325.969-.021,1.941-.005,2.911-.021a.723.723,0,0,0,.448-.164,1.686,1.686,0,0,1,1.163-.43c1.584-.011,3.169-.008,4.753,0a1.851,1.851,0,0,1,1.265.446A.767.767,0,0,0,42.3,52a3.636,3.636,0,0,0,3.668-2.089,9.8,9.8,0,0,0,.349-1.149,7.115,7.115,0,0,1,2.564-3.851,7.83,7.83,0,0,1,3.3-1.458V41.883c-.545,0-1.071.038-1.59-.005A2.211,2.211,0,0,1,48.67,40.1a12.749,12.749,0,0,1-.054-2.1.966.966,0,0,1,.9-.881.954.954,0,0,1,1.1.663,3.229,3.229,0,0,1,.115.822c.019.363.005.728.005,1.106h2.366a9.3,9.3,0,0,1,.021-7.978H51.012c-.231,0-.266.142-.271.33a8.88,8.88,0,0,1-.067,1.2,1,1,0,0,1-1.13.854,1.042,1.042,0,0,1-.94-1.042c-.016-.368-.011-.736-.005-1.1a2.326,2.326,0,0,1,1.947-2.333c.263-.054.534-.073.84-.11-.073-.081-.115-.132-.161-.175a4.273,4.273,0,0,0-1.974-1,7.176,7.176,0,0,1-5.51-5.658c-.059-.258-.129-.338-.4-.336q-2.59.024-5.185,0c-.234,0-.3.062-.338.282a2.885,2.885,0,0,1-1.912,2.3,2.957,2.957,0,0,1-3.864-1.9c-.29-.768-.293-.779-1.093-.526a3.448,3.448,0,0,0-2.425,2.691,7.129,7.129,0,0,1-3.883,5A20.411,20.411,0,0,1,22.494,31M42.443,54.278v.266l0,12.58c0,.478.008.959,0,1.437-.005.218.035.314.293.311,1.485-.013,2.967-.011,4.452,0a12.755,12.755,0,0,1,1.568.081,5.744,5.744,0,0,1,2.621,1.112A8.185,8.185,0,0,0,56.4,71.592c3.724-.011,7.452,0,11.176-.005a2.553,2.553,0,0,0,.5-.046.771.771,0,0,0,.669-.7,5.77,5.77,0,0,0,.048-1.031c-.03-.712-.285-.959-1-.972-.768-.013-1.539.016-2.307-.011a2.394,2.394,0,0,1-.865-.2.954.954,0,0,1-.532-1.055,1.023,1.023,0,0,1,.849-.873,4.252,4.252,0,0,1,.666-.051c1.563-.005,3.123.011,4.686-.008A1.268,1.268,0,0,0,71.6,65.459a7.293,7.293,0,0,0-.011-1.369,1.167,1.167,0,0,0-.929-1.058,3.012,3.012,0,0,0-.76-.083c-1.45-.005-2.9,0-4.35,0a3.214,3.214,0,0,1-.663-.067,1.039,1.039,0,0,1-.808-.985.993.993,0,0,1,.76-1.015,3.54,3.54,0,0,1,.859-.091c1.716,0,3.434-.005,5.153.021a1.509,1.509,0,0,0,1.713-1.689c-.019-.234.005-.47-.008-.7a1.347,1.347,0,0,0-1.273-1.308c-.177-.013-.357-.005-.534-.005-1.439.008-2.879.024-4.318.024-.456,0-.913-.03-1.369-.067a1.037,1.037,0,0,1-.967-.945A1.018,1.018,0,0,1,64.806,55a2.557,2.557,0,0,1,.757-.091c1.394-.008,2.787,0,4.184,0a6.154,6.154,0,0,0,.666-.04,1.278,1.278,0,0,0,1.157-1.149,7.78,7.78,0,0,0,.046-.9c.005-1.088-.481-1.571-1.568-1.571H55.558a3.263,3.263,0,0,1-3.08-2.068,4.329,4.329,0,0,1-.255-1.3c-.04-.717-.011-1.439-.011-2.188a4.47,4.47,0,0,0-2.46,1.275,5.605,5.605,0,0,0-1.493,2.787,5.516,5.516,0,0,1-3.969,4.173,18.528,18.528,0,0,1-1.847.349M69.078,29.6c0-.252-.005-.454,0-.653.038-.924.051-1.847.126-2.768a5.993,5.993,0,0,1,1.206-3.034,7.646,7.646,0,0,0,1.493-4.557q0-5.788.008-11.576a3.33,3.33,0,0,0-.021-.365.733.733,0,0,0-.682-.706c-.454-.03-.913-.024-1.369-.008a.716.716,0,0,0-.682.55,2.194,2.194,0,0,0-.075.593c-.008.814,0,1.627-.005,2.441a1.077,1.077,0,0,1-.733,1.02.975.975,0,0,1-1.13-.357,1.819,1.819,0,0,1-.266-.9c-.027-1.6-.008-3.19-.013-4.785A1.283,1.283,0,0,0,65.8,3.137a5.8,5.8,0,0,0-1.525.016A1.321,1.321,0,0,0,63.205,4.4c-.016.188-.008.379-.008.569,0,1.5,0,3.01-.005,4.514a1.078,1.078,0,0,1-.862,1.082,1.1,1.1,0,0,1-1.281-1.144c-.011-1.128,0-2.253,0-3.381,0-.824.011-1.649-.005-2.473a1.287,1.287,0,0,0-1.386-1.378c-.325-.008-.647-.008-.972.005A1.334,1.334,0,0,0,57.311,3.57c-.008.156,0,.314,0,.47q0,2.691.008,5.384a1.1,1.1,0,0,1-1.278,1.144,1.166,1.166,0,0,1-.881-1.155c0-1.606,0-3.212,0-4.817a1.387,1.387,0,0,0-1.42-1.517,4.574,4.574,0,0,0-.47-.008c-1.4.013-1.842.451-1.842,1.847q0,2.807,0,5.618c0,2.922.021,5.843-.008,8.765a3.121,3.121,0,0,1-3,3.056c-.7.03-1.4,0-2.105,0-.129,0-.255.016-.456.027a9.087,9.087,0,0,0,.365,1.082,5.04,5.04,0,0,0,3.569,2.817,5.752,5.752,0,0,1,4.033,3.072.5.5,0,0,0,.411.226,1.168,1.168,0,0,0,.588-.309,9.473,9.473,0,0,1,12.986-.822c.43.349.822.741,1.273,1.155M37.886,20.194H48.171a1.019,1.019,0,0,0,1.1-1.1V5.487h-.4c-3.536,0-7.073.005-10.609-.008-.325,0-.381.1-.381.4q.012,6.876.008,13.751v.567M25.44,68.856a1.067,1.067,0,0,0,.15.019c2.744,0,5.489-.016,8.23,0,.365,0,.435-.1.435-.446-.013-4.549-.008-9.1-.011-13.646v-.567c-.1-.011-.18-.021-.255-.021-2.543,0-5.086-.005-7.629.005a.913.913,0,0,0-.483.175,1.11,1.11,0,0,0-.443.959q.012,6.59.005,13.182v.344M69.059,41.9a9.618,9.618,0,0,1-7.344,3.373,9.794,9.794,0,0,1-7.282-3.346c-.056,2.068-.07,4.084-.048,6.1a.98.98,0,0,0,1.007,1.034c.475.038.959,0,1.437,0q5.518,0,11.039.016h1.192Zm.019-6.117c.228-3.971-3.33-7.1-6.654-7.315a7.333,7.333,0,1,0-.7,14.629,7.212,7.212,0,0,0,7.358-7.315M36.441,69.423h3.8V53.582h-3.8Zm-.717-56.5h-.008q0-4.33,0-8.66c0-.244,0-.491-.019-.733a.746.746,0,0,0-.725-.73.782.782,0,0,0-.9.65,3.44,3.44,0,0,0-.046.6q0,8.861,0,17.72a2.725,2.725,0,0,0,.059.628.811.811,0,0,0,.991.567c.481-.126.65-.376.65-.98q0-4.531,0-9.06M70.453,39.7h2.352V31.754H70.437a9.819,9.819,0,0,1,.016,7.951" transform="translate(0 -0.002)" fill="#fff"/>
        <path id="Path_880885" data-name="Path 880885" d="M26.677,22.87a5.9,5.9,0,0,1-5.862-5.779,5.884,5.884,0,0,1,11.764-.277,5.92,5.92,0,0,1-5.9,6.055M30.4,16.995a3.722,3.722,0,1,0-3.727,3.711A3.63,3.63,0,0,0,30.4,16.995" transform="translate(35.078 18.756)" fill="#fff"/>
      </g>
    </g>
  </g>
</svg>
