<svg xmlns="http://www.w3.org/2000/svg" xmlns:xlink="http://www.w3.org/1999/xlink" width="62.504" height="62.504" viewBox="0 0 62.504 62.504">
  <defs>
    <clipPath id="clip-path">
      <rect id="Rectangle_405178" data-name="Rectangle 405178" width="30" height="30" fill="#fff"/>
    </clipPath>
  </defs>
  <g id="Group_1101904" data-name="Group 1101904" transform="translate(-279.82 -1198.717)">
    <g id="Group_1072053" data-name="Group 1072053" transform="translate(279.82 1198.717)">
      <circle id="Ellipse_4742" data-name="Ellipse 4742" cx="31.252" cy="31.252" r="31.252" transform="translate(0)" fill="#7d420e"/>
    </g>
    <g id="Group_1102743" data-name="Group 1102743" transform="translate(295.82 1214.717)">
      <g id="Group_1102742" data-name="Group 1102742" clip-path="url(#clip-path)">
        <path id="Path_882966" data-name="Path 882966" d="M11.628.009c1.883,0,3.766-.023,5.648.006A4.579,4.579,0,0,1,21.62,3.8a6.427,6.427,0,0,1,.123,1.226c.013,2.075,0,4.151.011,6.226a4.824,4.824,0,0,1-3.4,4.8,4.045,4.045,0,0,1-1.032.14q-5.415.015-10.83,0a.416.416,0,0,0-.337.15c-.469.511-.928,1.035-1.427,1.51a5.817,5.817,0,0,1-3.259,1.516,5.274,5.274,0,0,1-.7.071.779.779,0,0,1-.679-1.15c.171-.394.346-.787.542-1.166a7.108,7.108,0,0,0,.662-2.475,34.848,34.848,0,0,0,.195-4.262c-.009-1.814,0-3.627,0-5.441A4.915,4.915,0,0,1,4.5.3,4.211,4.211,0,0,1,6.028.008h5.6M10.509,9.684h-.019q0,.227,0,.453c0,.151,0,.3,0,.453a.759.759,0,1,0,1.509-.1c0-.447.005-.895,0-1.342,0-.145.031-.2.175-.214a2.807,2.807,0,0,0,1.672-.682,3.331,3.331,0,0,0,1.122-3.037,3.061,3.061,0,0,0-2.714-2.76c-.632-.026-1.265-.017-1.9,0A2.321,2.321,0,0,0,8.231,4.842a.757.757,0,0,0,.652.824.717.717,0,0,0,.846-.627,1.214,1.214,0,0,0,.04-.239.728.728,0,0,1,.728-.732,10.7,10.7,0,0,1,1.7.035,1.413,1.413,0,0,1,1.2,1.086,1.593,1.593,0,0,1-.37,1.63,1.54,1.54,0,0,1-1.136.482,1.486,1.486,0,0,0-1.377,1.34,8.022,8.022,0,0,0-.008,1.043m-.019,3.279a.759.759,0,1,0,.756-.811.773.773,0,0,0-.756.811" transform="translate(-0.001 0)" fill="#fff"/>
        <path id="Path_882967" data-name="Path 882967" d="M63.8,81.765h.212c2.956,0,5.912.031,8.867-.01a5.512,5.512,0,0,0,5.163-5.512c0-.262,0-.523,0-.785,0-.1.017-.175.127-.173a9.8,9.8,0,0,1,2.419.132,4.753,4.753,0,0,1,3.37,3.83,8.3,8.3,0,0,1,.1,1.247c.011,2.343-.008,4.686.02,7.028.01.84.127,1.678.19,2.517a8.26,8.26,0,0,0,1,3.114,5.052,5.052,0,0,1,.22.484.778.778,0,0,1-.677,1.1,6.338,6.338,0,0,1-.956-.118,5.994,5.994,0,0,1-3.524-1.962c-.31-.347-.633-.679-.942-1.026a.377.377,0,0,0-.309-.141q-5.343.006-10.685,0a4.38,4.38,0,0,1-1.759-.349,4.879,4.879,0,0,1-2.839-4.431c-.022-1.621,0-3.244,0-4.866,0-.017,0-.034.011-.082m10.1,5.692V87.45q2.365,0,4.729,0a1.546,1.546,0,0,0,.351-.034.791.791,0,0,0,.547-.926.771.771,0,0,0-.832-.676q-4.746,0-9.491,0a1.442,1.442,0,0,0-.335.038.726.726,0,0,0-.574.588.825.825,0,0,0,.279.852.963.963,0,0,0,.66.165h4.665m.028-4.854v-.014q-2.445,0-4.891,0a.753.753,0,0,0-.752.66.79.79,0,0,0,.585.934,2.155,2.155,0,0,0,.448.031q2.864,0,5.728,0c1.2,0,2.4,0,3.6-.005a1.337,1.337,0,0,0,.441-.079.787.787,0,0,0,.45-.82.749.749,0,0,0-.658-.713c-.187-.009-.375.008-.562.008H73.922" transform="translate(-55.538 -64.735)" fill="#fff"/>
      </g>
    </g>
  </g>
</svg>
