<svg xmlns="http://www.w3.org/2000/svg" xmlns:xlink="http://www.w3.org/1999/xlink" width="62.504" height="62.504" viewBox="0 0 62.504 62.504">
  <defs>
    <clipPath id="clip-path">
      <rect id="Rectangle_403467" data-name="Rectangle 403467" width="34.526" height="34.396" fill="#fff"/>
    </clipPath>
  </defs>
  <g id="Group_1102227" data-name="Group 1102227" transform="translate(-273 -8239)">
    <g id="Group_1102215" data-name="Group 1102215" transform="translate(-6.816 7040.283)">
      <g id="Group_1072053" data-name="Group 1072053" transform="translate(279.816 1198.717)">
        <circle id="Ellipse_4742" data-name="Ellipse 4742" cx="31.252" cy="31.252" r="31.252" transform="translate(0)" fill="#7d420e"/>
      </g>
    </g>
    <g id="Group_1102226" data-name="Group 1102226" transform="translate(286.737 8253.054)">
      <g id="Group_1102225" data-name="Group 1102225" transform="translate(0 0)" clip-path="url(#clip-path)">
        <path id="Path_881316" data-name="Path 881316" d="M21.952,8.362l1.92,1.907c-1.086,1.094-2.161,2.179-3.25,3.276h10.2c0,.052.011.09.011.13,0,.792,0,1.584,0,2.374,0,.14-.038.182-.182.182q-4.857-.006-9.713,0h-.335c.12.121.208.212.3.3q1.422,1.425,2.844,2.847c.09.09.093.145,0,.235-.56.552-1.115,1.11-1.671,1.665a1.282,1.282,0,0,1-.1.082c-2.159-2.179-4.314-4.351-6.441-6.5l6.414-6.5" transform="translate(3.686 1.984)" fill="#fff"/>
        <path id="Path_881317" data-name="Path 881317" d="M15.338,14.824l-6.477,6.53L6.988,19.461,10.2,16.238H0V13.546H10.181L6.974,10.268l1.857-1.9,6.507,6.458" transform="translate(0 1.985)" fill="#fff"/>
        <rect id="Rectangle_403465" data-name="Rectangle 403465" width="2.695" height="6.643" transform="translate(15.906 0)" fill="#fff"/>
        <rect id="Rectangle_403466" data-name="Rectangle 403466" width="2.695" height="6.643" transform="translate(15.908 27.754)" fill="#fff"/>
        <path id="Path_881318" data-name="Path 881318" d="M7.642,1.867l4.572,4.916c-.656.607-1.3,1.206-1.959,1.817-.108-.114-.21-.219-.311-.327L6.1,4.131c-.116-.124-.234-.246-.341-.376a.137.137,0,0,1,0-.132c.619-.579,1.241-1.153,1.892-1.756" transform="translate(1.36 0.443)" fill="#fff"/>
        <path id="Path_881319" data-name="Path 881319" d="M7.653,27.22c-.474-.436-.925-.848-1.375-1.261-.169-.157-.335-.319-.509-.473-.064-.057-.074-.09-.011-.158Q7.454,23.517,9.144,21.7c.329-.354.653-.711.979-1.068.037-.042.072-.087.121-.145l1.97,1.822L7.653,27.22" transform="translate(1.356 4.861)" fill="#fff"/>
        <path id="Path_881320" data-name="Path 881320" d="M21.49,1.873c.148.134.283.251.414.372.49.454.977.911,1.471,1.361.1.089.025.131-.026.184q-.77.831-1.544,1.659l-2.79,3.006c-.038.041-.074.084-.126.142L16.925,6.784,21.49,1.873" transform="translate(4.015 0.445)" fill="#fff"/>
        <path id="Path_881321" data-name="Path 881321" d="M16.926,22.308l1.95-1.824c.262.283.507.551.755.817q1.861,2,3.724,4.006c.057.062.1.105.015.186-.611.558-1.217,1.12-1.826,1.68a.652.652,0,0,1-.059.038l-4.558-4.9" transform="translate(4.015 4.86)" fill="#fff"/>
      </g>
    </g>
  </g>
</svg>
