<svg xmlns="http://www.w3.org/2000/svg" xmlns:xlink="http://www.w3.org/1999/xlink" width="62.504" height="62.504" viewBox="0 0 62.504 62.504">
  <defs>
    <clipPath id="clip-path">
      <rect id="Rectangle_403469" data-name="Rectangle 403469" width="20.503" height="26.44" fill="#fff"/>
    </clipPath>
  </defs>
  <g id="Group_1102242" data-name="Group 1102242" transform="translate(-279.816 -1198.717)">
    <g id="Group_1072053" data-name="Group 1072053" transform="translate(279.816 1198.717)">
      <circle id="Ellipse_4742" data-name="Ellipse 4742" cx="31.252" cy="31.252" r="31.252" transform="translate(0)" fill="#7d420e"/>
    </g>
    <g id="Group_1102231" data-name="Group 1102231" transform="translate(300.817 1216.748)">
      <g id="Group_1102230" data-name="Group 1102230" transform="translate(0 0)" clip-path="url(#clip-path)">
        <path id="Path_881344" data-name="Path 881344" d="M16.985,11.526c-.056-.426-.11-.842-.165-1.258l-.035,0a.272.272,0,0,0-.033.05c-.24.6-.484,1.2-.715,1.8a1.042,1.042,0,0,1-.651.638c-1.2.442-2.393.891-3.588,1.338a.572.572,0,0,1-.061.009,1.163,1.163,0,0,0-.517-1.64.7.7,0,0,1,.1-.057L14.311,11.3a.381.381,0,0,0,.259-.228q.869-2.195,1.756-4.38a4.57,4.57,0,0,1,.37-.726,1.224,1.224,0,0,1,.992-.586,2.365,2.365,0,0,1,2.049.93,3.675,3.675,0,0,1,.649,1.279,16.339,16.339,0,0,1,.511,1.98,11.619,11.619,0,0,1,.151,2.313,9.934,9.934,0,0,1-.156,1.672,2.126,2.126,0,0,1-.835,1.412,1.57,1.57,0,0,1-.372.2.313.313,0,0,0-.215.262c-.091.423-.193.846-.292,1.268-.164.7-.333,1.4-.488,2.109a1.452,1.452,0,0,0,0,.411q.088,1.246.184,2.492c.088,1.165.187,2.33.266,3.5a1.37,1.37,0,0,1-2.722.313c-.049-.387-.066-.779-.1-1.168-.061-.768-.125-1.535-.183-2.3-.047-.626-.084-1.253-.13-1.879-.026-.35-.054-.7-.092-1.05A3.276,3.276,0,0,1,16.04,18c.137-.567.264-1.137.405-1.7a1.08,1.08,0,0,1,.172-.37q1.179-1.6,2.367-3.2c.127-.171.254-.342.373-.519a.989.989,0,0,0,.164-.6c-.027-.79-.057-1.579-.078-2.369-.013-.486-.01-.972-.017-1.457a1.155,1.155,0,0,0-.883-1.123,1.127,1.127,0,0,0-1.347.71,1.375,1.375,0,0,0-.054.489c.024,1.074.056,2.148.087,3.222a.491.491,0,0,1-.244.438" transform="translate(-0.546 -0.262)" fill="#fff"/>
        <path id="Path_881345" data-name="Path 881345" d="M4.65,8.16c-.056-.075-.1-.133-.144-.192-.161-.225-.317-.454-.481-.674a1.1,1.1,0,0,0-.958-.475A1.141,1.141,0,0,0,2.138,8.6c.557.8,1.126,1.592,1.69,2.387a1.417,1.417,0,0,0,.123.173.566.566,0,0,1,.119.506,9.514,9.514,0,0,0-.012,1.926,14.767,14.767,0,0,0,.408,2.027c.212.95.448,1.9.651,2.848a2.8,2.8,0,0,1,.017.742c-.027.5-.072.992-.11,1.488q-.116,1.481-.231,2.963c-.044.567-.087,1.134-.125,1.7A1.391,1.391,0,0,1,3.311,26.7a1.352,1.352,0,0,1-1.388-1.275c-.01-.37.029-.742.054-1.112q.073-1.022.155-2.043c.05-.641.106-1.281.157-1.924.035-.444.082-.889.094-1.334a2.453,2.453,0,0,0-.091-.605c-.191-.83-.39-1.658-.587-2.487-.049-.207-.1-.415-.151-.62a.163.163,0,0,0-.087-.1A1.994,1.994,0,0,1,.26,13.9,4.614,4.614,0,0,1,.077,12.85,11.946,11.946,0,0,1,.05,10.39,11.289,11.289,0,0,1,.557,7.975a8.792,8.792,0,0,1,.4-1.1,2.546,2.546,0,0,1,1.7-1.445A1.5,1.5,0,0,1,4.249,5.8a1.938,1.938,0,0,1,.465.956,2.822,2.822,0,0,1-.029,1.245c-.01.042-.019.084-.035.155" transform="translate(0 -0.261)" fill="#fff"/>
        <path id="Path_881346" data-name="Path 881346" d="M5.5,4.935A2.444,2.444,0,0,1,3.076,2.454,2.445,2.445,0,0,1,5.53,0,2.468,2.468,0,1,1,5.5,4.935" transform="translate(-0.15 0)" fill="#fff"/>
        <path id="Path_881347" data-name="Path 881347" d="M10.319,14.487a2.052,2.052,0,0,1-.275-.061q-2.139-.792-4.276-1.59a1.092,1.092,0,0,1-.527-.4L2.582,8.685c-.052-.074-.1-.152-.146-.229A.842.842,0,0,1,2.7,7.338a.845.845,0,0,1,1.152.136c.154.18.283.381.42.573L6.43,11.088a.586.586,0,0,0,.282.237c1.286.474,2.569.956,3.855,1.435a.966.966,0,0,1,.581.551.9.9,0,0,1-.829,1.176" transform="translate(-0.113 -0.35)" fill="#fff"/>
        <path id="Path_881348" data-name="Path 881348" d="M17.606,9.556c-.014-.569-.034-1.137-.041-1.706a.878.878,0,0,1,1.754-.045q.04,1.226.074,2.451c.012.43.013.861.032,1.291a1.137,1.137,0,0,1-.238.76q-1.207,1.618-2.4,3.243c-.113.152-.224.306-.338.458a.869.869,0,0,1-1.431-.983c.279-.412.584-.806.879-1.205q.84-1.139,1.684-2.275a.4.4,0,0,0,.084-.273c-.022-.573-.04-1.144-.06-1.717h0" transform="translate(-0.724 -0.34)" fill="#fff"/>
        <path id="Path_881349" data-name="Path 881349" d="M13.85,2.3a2.474,2.474,0,1,0-.05,4.948,2.448,2.448,0,0,0,2.49-2.429A2.445,2.445,0,0,0,13.85,2.3" transform="translate(-0.551 -0.112)" fill="#fff"/>
      </g>
    </g>
  </g>
</svg>
