<svg xmlns="http://www.w3.org/2000/svg" width="62.504" height="62.504" viewBox="0 0 62.504 62.504">
  <g id="Group_1101903" data-name="Group 1101903" transform="translate(-280.072 -1198.717)">
    <g id="Group_1072053" data-name="Group 1072053" transform="translate(280.072 1198.717)">
      <circle id="Ellipse_4742" data-name="Ellipse 4742" cx="31.252" cy="31.252" r="31.252" transform="translate(0)" fill="#7d420e"/>
    </g>
    <g id="humano" transform="translate(259.915 1211.717)">
      <g id="Group_1102769" data-name="Group 1102769" transform="translate(37.157 12.682)">
        <g id="Group_1102768" data-name="Group 1102768" transform="translate(0)">
          <path id="Path_882983" data-name="Path 882983" d="M67.058,187.34l-2.423-2.423v-1.145a14.054,14.054,0,0,0-.34-2.956A1.06,1.06,0,0,0,63.256,180H38.432a1.052,1.052,0,0,0-1.04.84,13.274,13.274,0,0,0-.235,2.4,13.759,13.759,0,0,0,4.227,9.914v9.179a1.057,1.057,0,0,0,1.057,1.057H55.123a1.057,1.057,0,0,0,1.057-1.057v-3.241h5.284a3.17,3.17,0,0,0,3.17-3.17v-3.17h.182a3.17,3.17,0,0,0,2.242-5.412ZM50.9,188.525a1.057,1.057,0,0,1,0,2.114,5.29,5.29,0,0,1-5.284-5.284,3.17,3.17,0,1,1,6.341,0,1.057,1.057,0,0,1-2.114,0,1.057,1.057,0,1,0-2.114,0A3.174,3.174,0,0,0,50.9,188.525Z" transform="translate(-37.157 -180)" fill="#fff"/>
        </g>
      </g>
      <g id="Group_1102771" data-name="Group 1102771" transform="translate(39.271)">
        <g id="Group_1102770" data-name="Group 1102770" transform="translate(0)">
          <path id="Path_882984" data-name="Path 882984" d="M75.612,0A6.3,6.3,0,0,0,69.4,5.186a5.369,5.369,0,0,0-.7.588A5.247,5.247,0,0,0,67.157,9.5v.013a5.283,5.283,0,0,0,.139,1.057H77.725V.421A6.153,6.153,0,0,0,75.612,0Z" transform="translate(-67.157)" fill="#fff"/>
        </g>
      </g>
      <g id="Group_1102773" data-name="Group 1102773" transform="translate(51.952)">
        <g id="Group_1102772" data-name="Group 1102772">
          <path id="Path_882985" data-name="Path 882985" d="M257.725,9.5a5.247,5.247,0,0,0-1.547-3.723,5.453,5.453,0,0,0-.7-.589A6.294,6.294,0,0,0,249.271,0a6.153,6.153,0,0,0-2.114.421V10.568h10.429a5.283,5.283,0,0,0,.139-1.057s0-.009,0-.009Z" transform="translate(-247.157)" fill="#fff"/>
        </g>
      </g>
    </g>
  </g>
</svg>
