<svg xmlns="http://www.w3.org/2000/svg" xmlns:xlink="http://www.w3.org/1999/xlink" width="62.504" height="62.504" viewBox="0 0 62.504 62.504">
  <defs>
    <clipPath id="clip-path">
      <rect id="Rectangle_403470" data-name="Rectangle 403470" width="35.403" height="23.697" fill="#fff"/>
    </clipPath>
  </defs>
  <g id="Group_1102248" data-name="Group 1102248" transform="translate(-279.816 -1198.717)">
    <g id="Group_1072053" data-name="Group 1072053" transform="translate(279.816 1198.717)">
      <circle id="Ellipse_4742" data-name="Ellipse 4742" cx="31.252" cy="31.252" r="31.252" transform="translate(0)" fill="#7d420e"/>
    </g>
    <g id="Group_1102233" data-name="Group 1102233" transform="translate(293.402 1219.432)">
      <g id="Group_1102232" data-name="Group 1102232" transform="translate(0 0)" clip-path="url(#clip-path)">
        <path id="Path_881350" data-name="Path 881350" d="M3.231,11.61c.1-.323.186-.616.274-.909Q4.728,6.682,5.946,2.663a.28.28,0,0,1,.329-.241c1.993.011,3.984.014,5.977.019.044,0,.088.01.162.018-.155.164-.293.309-.432.454a12.317,12.317,0,0,0-1.837,2.441A3.8,3.8,0,0,0,9.606,7.78,1.931,1.931,0,0,0,11.32,9.457a3.674,3.674,0,0,0,2.94-.943A7.972,7.972,0,0,1,16.731,6.92c.637-.226.634-.23,1.13.224q3.507,3.206,7.015,6.408c.7.642,1.415,1.278,2.105,1.934a1.256,1.256,0,0,1,.41,1.315,1.359,1.359,0,0,1-1.1,1.03,1.209,1.209,0,0,1-1.085-.289c-.44-.4-.866-.811-1.294-1.223q-1.819-1.751-3.636-3.5c-.078-.076-.158-.15-.242-.217a.366.366,0,0,0-.5.021.354.354,0,0,0-.021.507c.293.3.6.6.9.89Q22.06,15.6,23.7,17.178c.037.036.072.073.109.109a1.427,1.427,0,0,1-.664,2.437,1.331,1.331,0,0,1-1.3-.341c-.381-.344-.73-.721-1.086-1.091q-1.475-1.529-2.943-3.06a2.782,2.782,0,0,0-.264-.245.339.339,0,0,0-.514.032.3.3,0,0,0-.014.492c.386.418.791.821,1.187,1.232q1.1,1.149,2.2,2.3a1.817,1.817,0,0,1,.221.282,1.308,1.308,0,0,1-.279,1.768,1.355,1.355,0,0,1-1.868-.037c-.63-.6-1.236-1.217-1.851-1.829q-.957-.955-1.91-1.914a1.872,1.872,0,0,0-.166-.147.348.348,0,0,0-.529.015.343.343,0,0,0,.03.527c.415.417.839.824,1.254,1.239q.873.87,1.74,1.746a2.4,2.4,0,0,1,.254.3,1.131,1.131,0,0,1-1.522,1.61c-.733-.513-1.454-1.047-2.165-1.591-1.958-1.5-3.864-3.061-5.695-4.714a54.683,54.683,0,0,1-4.406-4.377c-.1-.111-.2-.217-.287-.312" transform="translate(1.212 0.909)" fill="#fff"/>
        <path id="Path_881351" data-name="Path 881351" d="M9.971,9.182A1.375,1.375,0,0,1,8.406,7.493a4.149,4.149,0,0,1,.708-1.707,11.558,11.558,0,0,1,3.6-3.648,7.122,7.122,0,0,1,1.814-.829,3.236,3.236,0,0,1,2.1.142q3.7,1.463,7.4,2.936a.433.433,0,0,1,.212.239c.58,1.553,1.15,3.108,1.723,4.662q.84,2.275,1.679,4.55a.237.237,0,0,1-.011.187,3.294,3.294,0,0,1-1.789,1.411.284.284,0,0,1-.308-.073q-2.857-2.607-5.719-5.211c-1.257-1.146-2.519-2.286-3.761-3.446a.858.858,0,0,0-.822-.226,5.846,5.846,0,0,0-2.383,1.067c-.351.254-.681.538-1.007.824a3.305,3.305,0,0,1-1.87.81" transform="translate(3.146 0.449)" fill="#fff"/>
        <path id="Path_881352" data-name="Path 881352" d="M27.781,1.314c0,.05.007.094.007.139q0,6.844,0,13.689c0,.138.008.274.014.41,0,.092-.032.135-.129.133-.759-.006-1.52.01-2.277-.017a1.024,1.024,0,0,1-.946-.726c-.177-.451-.341-.906-.509-1.36q-1.729-4.676-3.456-9.355c-.05-.133-.1-.265-.147-.4a1.053,1.053,0,0,1,.6-1.37,12.164,12.164,0,0,1,1.174-.419,15.755,15.755,0,0,1,5.67-.723" transform="translate(7.604 0.484)" fill="#fff"/>
        <path id="Path_881353" data-name="Path 881353" d="M.006,0C.344,0,.65-.005.957,0A14.389,14.389,0,0,1,5.809,1.07a1.211,1.211,0,0,1,.9.939,1.8,1.8,0,0,1-.095.734c-.47,1.57-.956,3.137-1.434,4.7q-.92,3.022-1.84,6.045a1.157,1.157,0,0,1-1.253.917c-.645,0-1.29-.005-1.935,0-.132,0-.15-.055-.149-.164.006-.531.008-1.06.008-1.591q0-6.083,0-12.168V0" transform="translate(0 0)" fill="#fff"/>
      </g>
    </g>
  </g>
</svg>
