<svg xmlns="http://www.w3.org/2000/svg" xmlns:xlink="http://www.w3.org/1999/xlink" width="190" height="121" viewBox="0 0 190 121">
  <defs>
    <clipPath id="clip-path">
      <rect id="Rectangle_403464" data-name="Rectangle 403464" width="190" height="121" transform="translate(1125 8770)" fill="#fff" stroke="#707070" stroke-width="1"/>
    </clipPath>
    <clipPath id="clip-path-2">
      <rect id="Rectangle_401159" data-name="Rectangle 401159" width="114" height="114" fill="#c2e8e8"/>
    </clipPath>
    <clipPath id="clip-path-3">
      <rect id="Rectangle_403463" data-name="Rectangle 403463" width="69.719" height="69.487" fill="#3d5756"/>
    </clipPath>
  </defs>
  <g id="Mask_Group_1098709" data-name="Mask Group 1098709" transform="translate(-1125 -8770)" clip-path="url(#clip-path)">
    <g id="Group_1102224" data-name="Group 1102224" transform="translate(19 4)">
      <g id="Group_1102223" data-name="Group 1102223" transform="translate(1144 8770)">
        <g id="Group_1099585" data-name="Group 1099585" transform="translate(0)">
          <g id="Group_1099584" data-name="Group 1099584" clip-path="url(#clip-path-2)">
            <path id="Path_873472" data-name="Path 873472" d="M33.427,26.659l.445.2c-.279.288-.535.515-.745.779s-.393.586-.586.881a.745.745,0,0,0,1.071.109,23.812,23.812,0,0,1,2.862-1.936,12.676,12.676,0,0,0,2.065-1.27c.471-.4,1.068-.55,1.5-.98a.268.268,0,0,1,.185-.093.878.878,0,0,0,.888-.34c.12-.142.281-.116.428.005.254.209.467.152.7-.079a1.082,1.082,0,0,1,1.352-.235c-.025.388-.025.388-.4.65a1.668,1.668,0,0,0-.324-.137.511.511,0,0,0-.551.657c.075.218.231.156.395.1a12.025,12.025,0,0,1,1.423-.427c.923-.177,1.856-.3,2.784-.448q1.526-.241,3.052-.483a23.054,23.054,0,0,1,3.649-.39c2.575.008,5.151-.024,7.726-.042a1.35,1.35,0,0,0,.526-.047,4.853,4.853,0,0,1,1.7-.217c.178-.014.344-.191.562-.321.2.212.611-.3.859.133-.179.341-.664-.073-.761.431a1.767,1.767,0,0,0,.388.223,9.317,9.317,0,0,0,2.93.464c1.755-.066,3.513-.077,5.269-.085a12.51,12.51,0,0,1,3.095.4c.668.167,1.353.264,2.027.408a1.894,1.894,0,0,1,.484.2c.156.084.293.206.449.292a2.829,2.829,0,0,1,1.152,1.083,1.129,1.129,0,0,0,.749.56,1.166,1.166,0,0,1,.472.234,6.147,6.147,0,0,0,1.511.981,6.037,6.037,0,0,1,1.064.684,15.728,15.728,0,0,0,1.633.992c.714.388,1.447.739,2.17,1.109a1.051,1.051,0,0,1,.31.2,1.067,1.067,0,0,0,.866.346,1.209,1.209,0,0,1,.916.468,5.587,5.587,0,0,0,.528.433,1.619,1.619,0,0,1,.18.115,30.722,30.722,0,0,0,2.692,2.014.632.632,0,0,0,.606.2c0-.123.009-.243,0-.361-.026-.27-.088-.539-.089-.808a1.219,1.219,0,0,1,1.234-1.281,3.31,3.31,0,0,1,1.853.355,5.752,5.752,0,0,0,1.289.445.818.818,0,0,1,.152.047c.585.336,1.169.675,1.753,1.013.26.15.512.319.784.442a15.115,15.115,0,0,1,2.323,1.6,16.907,16.907,0,0,1,2.727,2.639c.108.119.224.23.339.341a6.987,6.987,0,0,1,1.236,1.682,7.1,7.1,0,0,0,.793,1.081,17.722,17.722,0,0,1,2.128,3.424,14.95,14.95,0,0,1,.8,1.753c.223.627.353,1.289.52,1.936a5.526,5.526,0,0,0,.154.63,7.6,7.6,0,0,1,.32,2.082,1.113,1.113,0,0,1-.014.325c-.073.363-.347.477-.627.248a1.6,1.6,0,0,1-.341-.412c-.334-.553-.642-1.122-.984-1.669a23.536,23.536,0,0,0-1.766-2.63c-.787-.951-1.516-1.954-2.26-2.941-.312-.414-.6-.85-.9-1.27a2.373,2.373,0,0,0-.274-.251,3.337,3.337,0,0,1-.4-.42,2.927,2.927,0,0,0-1.244-1.121c-.171-.072-.285-.3-.406-.478s-.24-.391-.325-.531l-.908.171a.806.806,0,0,0,.6.686c.126.038.3.091.347.189a12.559,12.559,0,0,0,1.44,1.8c.525.7,1.1,1.369,1.613,2.082.67.93,1.332,1.869,1.936,2.844s1.138,2,1.687,3.005a.593.593,0,0,1-.05.74c-.051,0-.106,0-.117-.013a10.448,10.448,0,0,1-1.033-1.485,2.523,2.523,0,0,0-1.226-1.438,8.21,8.21,0,0,1-.835-.526s-.046-.014-.07,0c-.387.264-.528.24-.838-.1-.119-.132-.145-.4-.5-.331a3.131,3.131,0,0,0,.2.527,6.192,6.192,0,0,1,.5.744c.215.527.361,1.083.546,1.623.144.423.312.837.45,1.261a4.666,4.666,0,0,0,.564,1.34,1.52,1.52,0,0,1,.148.461c.07.242.069.243.382.436a.356.356,0,0,0-.088.5,6.975,6.975,0,0,1,.408,1.1q.3.926.583,1.86a6.016,6.016,0,0,1,.187.784,5.526,5.526,0,0,0,.6,2.117,1.191,1.191,0,0,0,.214.308,2.994,2.994,0,0,1,.8,1.675c.2.694.359,1.4.589,2.084.246.732.557,1.441.832,2.164a13.223,13.223,0,0,1,.686,3.231.684.684,0,0,1-.051.423,1.326,1.326,0,0,0-.135.991c.081.654-.041.8-.736.872a2.206,2.206,0,0,0-.03.388c.113,1.246.236,2.49.349,3.736.043.469.058.941.105,1.41a2.849,2.849,0,0,1-.051,1.281,4.071,4.071,0,0,0-.1,1.186.416.416,0,0,0,.338.483c.349.062.446.321.479.629.013.126.012.254.017.38.036.906.1,1.811.1,2.717,0,1-.066,1.992-.109,2.988-.015.362-.036.725-.078,1.085-.033.286-.1.568-.158.85a4.4,4.4,0,0,0-.138.58,8.3,8.3,0,0,1-1.033,3.174,2.489,2.489,0,0,0-.186.449,2.932,2.932,0,0,1-.919,1.24c-.3.3-.553.184-.574-.243a.6.6,0,0,0-.3-.536c-.731-.421-.66-1.14-.614-1.814.048-.7.188-1.4.279-2.1a4.246,4.246,0,0,0,0-.513l-.478-.03c-.029-.041-.073-.077-.066-.1a3.385,3.385,0,0,1,.523-1.292,3.483,3.483,0,0,0,.735-1.834,11.33,11.33,0,0,0,.213-2.158,1.022,1.022,0,0,1,.252-.807.507.507,0,0,0,.084-.559,2.533,2.533,0,0,1,.023-1.331,5.117,5.117,0,0,0,.07-2.229l-.63.46a.636.636,0,0,1-.313-.646c0-.47.037-.941.083-1.408a2.154,2.154,0,0,0-.354-1.643,3.857,3.857,0,0,1-.474-1.254c-.066-.23-.125-.411-.406-.432-.238.174-.177.447-.185.688-.028.779-.008,1.562-.072,2.339-.085,1.01-.19,2.022-.365,3.018-.191,1.085-.543,2.143-.695,3.232-.172,1.228-.62,2.374-.867,3.577a11.112,11.112,0,0,1-.533,1.534c-.254.7-.506,1.392-.773,2.082-.2.522-.4,1.044-.639,1.55-.442.954-.889,1.906-1.368,2.841-.433.845-.88,1.685-1.375,2.493-.645,1.054-1.392,2.044-2.007,3.115a29.946,29.946,0,0,0-2.076,3.774,24.246,24.246,0,0,1-1.264,2.315c-.83,1.564-1.949,2.925-2.923,4.388-.158.237-.377.431-.55.66s-.321.471-.48.709a1.366,1.366,0,0,1-.112.181c-.744.8-1.477,1.607-2.242,2.383a18.37,18.37,0,0,1-1.548,1.4,23.132,23.132,0,0,1-2.014,1.481,4.907,4.907,0,0,1-1.487.693,2.259,2.259,0,0,0-1.376.859,1.414,1.414,0,0,1-.291.241l-.081-.074.188-.45a1.611,1.611,0,0,0-.392-.148,1.785,1.785,0,0,1-.911-.4c-.4-.3-.4-.655.061-.9.343-.186.713-.319,1.07-.479a1.979,1.979,0,0,0,1.049-.851,6.587,6.587,0,0,0-1.65.48q-1.024.368-2.047.744-2.424.9-4.847,1.8-2.025.753-4.049,1.509a7.037,7.037,0,0,0-.7.262,9.649,9.649,0,0,1-3.157.687c-.843.111-1.68.281-2.52.416-.418.067-.84.114-1.259.172l-1.788.251a3.228,3.228,0,0,1-.632.078,14.914,14.914,0,0,0-2.758.191c-.863.1-1.73.189-2.6.232a4.452,4.452,0,0,1-1.095-.147c-.939-.193-1.876-.4-2.811-.611-.624-.141-1.242-.31-1.867-.444a4.3,4.3,0,0,0-1.1-.15,17.581,17.581,0,0,1-2.143-.208,8.625,8.625,0,0,1-2.885-.646,3.348,3.348,0,0,0-1.37-.382,7.532,7.532,0,0,1-1.608-.448,1.8,1.8,0,0,1-.838-.273c-.1-.078-.336,0-.5.042a1.362,1.362,0,0,1-1.529-.542,1.774,1.774,0,0,1-1.153.09.263.263,0,0,1-.165-.128,1.2,1.2,0,0,1-.071-.273.636.636,0,0,1,.238-.029.649.649,0,0,0,.344.07,1.71,1.71,0,0,0-.153-.153,1.1,1.1,0,0,1-.514-.71c-.023-.149-.166-.278-.242-.4-.524.168-.167.838-.707.963-.228-.14-.416-.439-.776-.435-.06,0-.207-.284-.17-.349.251-.431-.048-.758-.162-1.119a.386.386,0,0,0-.2-.251,2.049,2.049,0,0,1-.008.448c-.025.107-.108.257-.191.278a.372.372,0,0,1-.3-.152,1.263,1.263,0,0,1-.133-.365l-.748-.36c-.035-.2-.066-.377-.1-.6a.586.586,0,0,1-.738-.1c-.167-.142-.286-.042-.387.2l.947.341c.013.257.1.565-.265.75a.709.709,0,0,1-.291-.717c-.216-.07-.337-.072-.38.2-.058.37-.159.408-.625.31l.5-.75-.557.127c-.155-.219-.032-.634-.489-.654-.154.109-.319.417-.673.1a6.391,6.391,0,0,1,.4-.519.265.265,0,0,0,.029-.413,1.583,1.583,0,0,1-.139-.508l-.374-.047c.043-.042.159-.107.189-.2.017-.054-.092-.2-.17-.224a3.193,3.193,0,0,0-.616-.132c-.2-.027-.517.279-.422.443.206.355-.052.607-.086.919-.324-.188-.265-.5-.315-.779s-.11-.553.251-.644c-.209-.433-.3-.513-.967-.9a1.177,1.177,0,0,0-.307.177c-.113.119-.12.241.07.33a2.044,2.044,0,0,1,.358.292l-.553.337-.408-1.177.493.028c0-.1.029-.24,0-.26a2.052,2.052,0,0,1-.681-.717c-.078-.118-.338-.111-.57-.177l.078-.411a.669.669,0,0,1-.72-.484.684.684,0,0,1,.015-.615.619.619,0,0,0-.028-.667c-.295-.493-.615-.97-.933-1.448-.045-.067-.135-.1-.244-.183a1.29,1.29,0,0,0-.178.329,4.565,4.565,0,0,0-.08.755.624.624,0,0,0,.117.34c.184.263.4.5.583.767.4.571.378.816-.146,1.42-.364-.232-.734-.331-.98.144.135.351.268.682.389,1.019a.582.582,0,0,0,.422.365c.35.119.365.217.159.623a2.772,2.772,0,0,1-.238-.188c-.089-.087-.15-.221-.253-.274a1.436,1.436,0,0,1-.778-1.741c.088-.444-.171-.668-.815-.706a2.9,2.9,0,0,0,.136.333,3.59,3.59,0,0,0,.221.31c-.156.17-.3.174-.431.041a2.025,2.025,0,0,1-.758-1.191c-.032-.318-.209-.394-.71-.4a4.858,4.858,0,0,0-1.415-1.617,44.316,44.316,0,0,1-3.6-2.844c-.625-.66-1.227-1.343-1.832-2.022-.392-.441-.8-.873-1.151-1.345-.634-.846-1.244-1.71-1.843-2.582-.457-.665-.914-1.334-1.316-2.034q-.953-1.655-1.824-3.357A2.883,2.883,0,0,1,7.3,92.919a.868.868,0,0,0-.078-.421,19.011,19.011,0,0,1-1.1-3.157,6.661,6.661,0,0,1-.292-.87,13.379,13.379,0,0,1-.116-1.39c0-.047.08-.1.148-.179L7.9,90.55a2.228,2.228,0,0,0,.158-.485c.008-.271-.034-.543-.027-.814.009-.348.166-.45.483-.339.151.053.294.13.447.174.268.078.363.014.406-.255a.76.76,0,0,0,.006-.217c-.148-1.147-.361-2.284-.406-3.447-.035-.884-.226-1.761-.267-2.645-.036-.776.045-1.556.063-2.335.012-.506.017-1.014,0-1.52a4.584,4.584,0,0,0-.608-1.721,16.867,16.867,0,0,1-.7-1.81c-.139-.438-.139-.525-.435-.778a.616.616,0,0,0-.074.829.945.945,0,0,1-.04,1.238,2.318,2.318,0,0,0-.2.4,2.9,2.9,0,0,0,.316.216c.351.178.45.352.346.717a6.428,6.428,0,0,1-.282.669,2.159,2.159,0,0,1-.233-.392c-.175-.625-.337-1.254-.5-1.882a.6.6,0,0,0-.059-.206,2.285,2.285,0,0,1-.315-1.186,5.856,5.856,0,0,0-.359-1.8,1.753,1.753,0,0,1-.06-.535c-.012-.105,0-.246-.059-.309-.347-.363-.287-.844-.363-1.277-.094-.534-.132-1.08-.173-1.622a.585.585,0,0,0-.3-.535.614.614,0,0,1-.285-.788,1.1,1.1,0,0,1,.06-.264,1.076,1.076,0,0,0-.092-1.126.682.682,0,0,1-.034-.667.6.6,0,0,0,.03-.416,3.892,3.892,0,0,1-.072-1.555c-.005-.687-.023-1.374-.022-2.061a4.215,4.215,0,0,1,.266-1.963,4.788,4.788,0,0,0,.244-.941,2.8,2.8,0,0,1,.108-.281,1.578,1.578,0,0,1,.4.765,16.491,16.491,0,0,1,.637,2.793,7.159,7.159,0,0,1,.068.755c.058.5.13,1,.188,1.5.062.54.121,1.081.171,1.622a.757.757,0,0,0,.3.664c.169-.552.319-1.122.989-1.31.376.3.23.863.5,1.368a1.7,1.7,0,0,0,.209-.431c.087-.809.165-1.619.224-2.431a1.739,1.739,0,0,0-.112-.467,6.149,6.149,0,0,1-.234-1.1c-.04-1.087-.039-2.176-.034-3.265,0-.248.107-.495.124-.745.015-.225.058-.522-.056-.667a2.337,2.337,0,0,1-.373-1.339,7.025,7.025,0,0,1,.052-1.41,2.474,2.474,0,0,1,.4-1.168,5.05,5.05,0,0,0,.273-.586,3.01,3.01,0,0,1,.336-.55.346.346,0,0,1,.315-.1c.085.037.134.189.171.3.02.06-.025.14-.031.212a1.876,1.876,0,0,0,.346,1.39.8.8,0,0,1,.057.952,1.168,1.168,0,0,0-.152.509,3.729,3.729,0,0,1-.5,1.639,3.532,3.532,0,0,0-.017,2.218,2.321,2.321,0,0,0,.337-.4,2.434,2.434,0,0,0,.148-.519c.2-.956.389-1.914.584-2.871.1-.5.2-.992.307-1.487.239-1.1.457-2.2.732-3.284.207-.818.472-1.622.738-2.423s.56-1.606.858-2.4c.349-.928.664-1.876,1.092-2.766a25.179,25.179,0,0,1,1.563-2.767c.7-1.084,1.437-2.151,2.239-3.156.623-.78,1.373-1.454,2.063-2.178.407-.427.82-.85,1.209-1.295a3.183,3.183,0,0,1,1.257-1.054c.169-.062.295-.253.434-.392.254-.254.493-.523.755-.768.39-.365.636-.293.793.213a1.485,1.485,0,0,0,.083.2c.006.013.028.019.078.052a1.858,1.858,0,0,0,.9-.661,5.983,5.983,0,0,1,2.942-2.037,5.446,5.446,0,0,0,1.27-.767c.305-.206.7-.228.962-.535.043-.051.235,0,.34.042a.741.741,0,0,0,.839-.171c.353-.323.671-.684,1.03-1.056l-.321-.379c.492-.229.776-.731,1.344-.869l-.269.66a1.229,1.229,0,0,0-.3.053c-.065.029-.147.115-.147.175a.207.207,0,0,0,.364.108,1.324,1.324,0,0,0,.071-.352m73.025,37.29a1.085,1.085,0,0,0,.23-.988,11.729,11.729,0,0,0-.472-2.5,1.271,1.271,0,0,1-.021-.955,1.5,1.5,0,0,0-.139-1.3c-.067-.127-.182-.255-.184-.384a5.169,5.169,0,0,0-.391-1.39,8.56,8.56,0,0,0-.771-1.78c-.324-.579-.681-1.139-1-1.721-.282-.514-.5-1.065-.8-1.565-.5-.826-1.044-1.624-1.573-2.432-.206-.315-.415-.629-.638-.931a1.368,1.368,0,0,0-.756-.6c.057.2.083.325.13.444.071.183.15.364.238.54.134.268.278.532.421.8a6.318,6.318,0,0,1,.38.706c.2.532.339,1.095.571,1.613.286.639.641,1.246.97,1.864a30.306,30.306,0,0,1,1.866,4.134c.282.8.639,1.574.876,2.386.359,1.23.642,2.483.958,3.726.021.083.053.164.111.341m-85.8,41.243a1.187,1.187,0,0,0-.44-1.423,3.268,3.268,0,0,1-1.469-1.576,3.693,3.693,0,0,0-.656-.906,3.8,3.8,0,0,0-1.223-1,4.9,4.9,0,0,0,.424.956c.3.51.647.994.943,1.508.232.4.374.863.633,1.243a15.036,15.036,0,0,0,1.767,2.357c.519.511.957,1.107,1.437,1.66.17.2.359.374.583.608a9.136,9.136,0,0,0-2-3.423m86.461-38.951a4.214,4.214,0,0,0-.034.678c.116.953.24,1.9.384,2.852a1.991,1.991,0,0,0,.235.506c.517-.381.613-.618.433-1.033a9.187,9.187,0,0,1-.716-2.49.577.577,0,0,0-.3-.512M7.292,72.683c-.039-.781-.071-1.459-.106-2.137a.351.351,0,0,0-.241-.347c-.039.029-.059.036-.066.05A3.078,3.078,0,0,0,6.917,72.4c.026.1.2.152.376.278M75.614,24.831a6.527,6.527,0,0,0,.981.382,2.064,2.064,0,0,1,.831.31.683.683,0,0,0,.856,0,5.92,5.92,0,0,0-.559-.35c-.51-.243-1.11-.191-1.6-.524-.129-.087-.343-.084-.508.182m31.109,34.2a.675.675,0,0,0,.129.773c.186-.431.177-.488-.129-.773M37.832,118.979c-.317.2-.328.244-.148.628.237-.255.239-.255.148-.628m-9.919-6c-.031.43.376.316.479.624.058-.435.052-.442-.479-.624m-4.528-5.65a.512.512,0,0,0,.212.693c.117-.3.128-.51-.212-.693m83.5-42.086c.093-.262.161-.426-.085-.571-.132.2-.108.343.085.571m-75.72,50.628c-.063-.28-.118-.467-.439-.417.037.247.147.369.439.417" transform="translate(-3.003 -15.832)" fill="#c2e8e8"/>
            <path id="Path_873473" data-name="Path 873473" d="M85.629,13.611c-.132-.01-.238-.014-.344-.026-.529-.058-.747-.337-.669-.882a1.709,1.709,0,0,1,.634-1.1c.55-.451,1.128-.869,1.659-1.343a23.5,23.5,0,0,1,2.962-1.995,12.325,12.325,0,0,1,2.837-1.436,14.749,14.749,0,0,0,1.349-.623,10.5,10.5,0,0,1,1.026-.419c.6-.2,1.217-.367,1.828-.544.2-.059.412-.106.619-.155a.71.71,0,0,1,.309-.052.422.422,0,0,1,.275.2.364.364,0,0,1-.119.313c-.271.2-.564.371-.852.547a11,11,0,0,1-1.649.966c-.436.169-.781.468-1.2.649a6.061,6.061,0,0,0-1.208.77c-.525.395-1.021.829-1.535,1.239a1.89,1.89,0,0,1-.286.132,2.4,2.4,0,0,0-.546.323,21.712,21.712,0,0,1-2.86,2.111c-.272.191-.5.454-.772.639-.454.307-.825.822-1.453.683" transform="translate(-59.919 -3.531)" fill="#c2e8e8"/>
            <path id="Path_873474" data-name="Path 873474" d="M343.94,264.055c-.149-.178-.332-.3-.361-.453a1.351,1.351,0,0,1,.011-.829,8.8,8.8,0,0,0,.89-2.4,20.68,20.68,0,0,1,.792-2.232c.043-.118.112-.228.143-.348a.528.528,0,0,1,.425-.435.584.584,0,0,0,.522-.647c-.016-.428.279-.65.494-.921.149-.188.346-.117.451.12a.709.709,0,0,1-.071.769,1.992,1.992,0,0,0-.371,1.221c-.008.181-.035.362-.032.543a10.871,10.871,0,0,1-.568,3.353c-.189.616-.328,1.247-.494,1.87-.051.191-.138.373-.176.566a3.054,3.054,0,0,0-.111.847.946.946,0,0,1-.391.986,2.751,2.751,0,0,0-.483.569,2.744,2.744,0,0,1-.3.38.493.493,0,0,1-.872-.3,2.831,2.831,0,0,0-.266-.981.728.728,0,0,1,.117-.767c.2-.293.417-.577.652-.9" transform="translate(-243.008 -179.502)" fill="#c2e8e8"/>
            <path id="Path_873475" data-name="Path 873475" d="M181.594,16.963a.506.506,0,0,1-.391-.536,4.328,4.328,0,0,1,.038-.7,1.426,1.426,0,0,0-.088-.9c-.157-.341-.052-.5.306-.56a24.015,24.015,0,0,1,5.564-.172,5.3,5.3,0,0,0,.575-.017.844.844,0,0,1,.259,0,16.463,16.463,0,0,0,2.9.323,1.371,1.371,0,0,0,.869-.181,1.038,1.038,0,0,1,1.267.549.418.418,0,0,1-.42.546c-.829.007-1.658-.016-2.486.011a9.21,9.21,0,0,0-1.152.176c-.839.136-1.675.316-2.52.39a3.512,3.512,0,0,0-1,.225,2.293,2.293,0,0,1-.79.065,2.584,2.584,0,0,0-1.192.219,1.6,1.6,0,0,1-.725.138c-.406-.007-.78.013-1.013.428" transform="translate(-128.253 -9.836)" fill="#c2e8e8"/>
            <path id="Path_873476" data-name="Path 873476" d="M151.4,5.8l.4-.561a.657.657,0,0,0-.669,0,11.908,11.908,0,0,1-2.693.792.7.7,0,0,1-.828-.7,1.245,1.245,0,0,1,.2-.756,2.461,2.461,0,0,1,1.351-.8c.742-.165,1.477-.367,2.215-.556.189-.048.372-.129.563-.159,1.208-.188,2.414-.383,3.626-.538.525-.067,1.06-.044,1.591-.061a.453.453,0,0,1,.489.287c-.156.355-.47.379-.793.341a.467.467,0,0,0-.477.141,4.431,4.431,0,0,1-1.948,1.15c-.064.025-.131.044-.263.088.615.287,1.154-.058,1.707-.034.125.221.04.368-.155.428a4.841,4.841,0,0,1-.924.211,3.153,3.153,0,0,0-1.16.3,8.007,8.007,0,0,1-1.672.5A1.89,1.89,0,0,1,151.4,5.8m1.863-1.068c0,.034,0,.067,0,.1l.3-.032-.009-.093-.29.024" transform="translate(-104.549 -1.72)" fill="#c2e8e8"/>
            <path id="Path_873477" data-name="Path 873477" d="M199.622,7.739a.629.629,0,0,1-.651.31,3.807,3.807,0,0,0-.476-.016c-.23.02-.415.1-.4.4.01.178-.049.333-.253.349a.4.4,0,0,1-.429-.253c-.055-.124-.122-.243-.218-.434a1.946,1.946,0,0,0-.2.307.385.385,0,0,1-.4.272c-1.221.049-2.442.13-3.663.17a3,3,0,0,1-.935-.155.443.443,0,0,1-.361-.474.823.823,0,0,1,.319-.459,1.216,1.216,0,0,1,.548-.172c.79-.1,1.582-.178,2.374-.257a12.086,12.086,0,0,1,2.65-.095c.437.052.884.014,1.326.036a.88.88,0,0,1,.776.473" transform="translate(-135.719 -5.045)" fill="#c2e8e8"/>
            <path id="Path_873478" data-name="Path 873478" d="M75.159,338.88l-.941-.34c-.249-.09-.5-.188-.746-.272A4.078,4.078,0,0,1,71.46,336.5a4.3,4.3,0,0,1-.4-.7.521.521,0,0,1,.094-.65.709.709,0,0,1,.6-.054,15.445,15.445,0,0,1,2.152,1.03,9.661,9.661,0,0,1,1.242.979,2.05,2.05,0,0,1,.6,1.351c.032.28-.179.4-.59.428" transform="translate(-50.282 -235.224)" fill="#c2e8e8"/>
            <path id="Path_873479" data-name="Path 873479" d="M2.311,212.511c.028.54.059,1.08.084,1.62.013.265.078.544-.175.8a1.509,1.509,0,0,1-.3-.176c-.479-.454-.948-.89-.819-1.687a2.988,2.988,0,0,0-.252-1.143,9.47,9.47,0,0,1-.535-2.3c-.006-.663-.172-1.323-.243-1.986a3.56,3.56,0,0,1-.013-1.32c.117.151.212.226.242.322.1.325.162.664.27.987.16.478.362.941.519,1.419.2.614.376,1.237.57,1.884l.472.085a1.247,1.247,0,0,1-.033.276c-.184.493-.145.6.347.781.2.074.316.206.243.405s-.248.143-.4.055l-.111-.191-.057.056.184.122" transform="translate(0 -144.842)" fill="#c2e8e8"/>
            <path id="Path_873480" data-name="Path 873480" d="M379.354,144.367a1.587,1.587,0,0,1-.156-.325c-.072-.482-.132-.966-.2-1.45-.014-.108-.019-.217-.043-.323-.21-.933-.435-1.864-.633-2.8-.127-.6-.218-1.21-.32-1.817a1.316,1.316,0,0,1,0-.271.356.356,0,0,1,.314-.378c.185-.027.295.092.354.263.108.307.218.612.322.92.052.154.084.314.136.468a12.979,12.979,0,0,1,.653,4.379,2.881,2.881,0,0,1-.426,1.334" transform="translate(-267.721 -96.182)" fill="#c2e8e8"/>
            <path id="Path_873481" data-name="Path 873481" d="M174.995,369.95c.167-.57.561-.542.991-.432.172.044.355.045.52.1.252.09.3.391.077.493a9.321,9.321,0,0,1-1.1.366.276.276,0,0,1-.208-.022c-.639-.419-1.372-.211-2.056-.33a2.031,2.031,0,0,1-.317-.023.8.8,0,0,0-.887.142c-.054.049-.188.007-.382.007l.48-.329c-.168-.121-.332-.186-.41-.308a.791.791,0,0,1-.118-.485c.009-.077.207-.163.33-.184a1.349,1.349,0,0,1,.476.02,6.528,6.528,0,0,1,1.938.527c.213.115.4.272.668.454" transform="translate(-121.523 -259.015)" fill="#c2e8e8"/>
            <path id="Path_873482" data-name="Path 873482" d="M213.675,378.567c-.23-.013-.462-.011-.689-.044a.665.665,0,0,1-.577-.555.684.684,0,0,1,.4-.687,3.174,3.174,0,0,1,2-.419c.313.029.6.088.716.448a.783.783,0,0,1-.337.838,2.228,2.228,0,0,1-1.5.421" transform="translate(-150.436 -264.567)" fill="#c2e8e8"/>
            <path id="Path_873483" data-name="Path 873483" d="M154.141,16.878a1.483,1.483,0,0,1-.187.337c-.083.086-.261.1-.31.195-.317.608-.943.681-1.471.923-.016.007-.029.027-.045.028a3.745,3.745,0,0,0-1.149.213c-.16.069-.308-.154-.282-.359a.555.555,0,0,1,.52-.524,4,4,0,0,0,2.213-.78.609.609,0,0,1,.711-.034" transform="translate(-106.731 -11.779)" fill="#c2e8e8"/>
            <path id="Path_873484" data-name="Path 873484" d="M224.178,7.568l.286.388h.564l-.09.483.448.274c.02.285-.159.34-.36.375-.487.085-.974.173-1.462.257-.284.048-.4-.088-.3-.378a2.274,2.274,0,0,1,.178-.329,2.013,2.013,0,0,0,.239-.468.938.938,0,0,1,.5-.6" transform="translate(-158.106 -5.313)" fill="#c2e8e8"/>
            <path id="Path_873485" data-name="Path 873485" d="M15.867,214.188a4.759,4.759,0,0,1-.731-2.37c.01-.094.076-.254.121-.256.1,0,.284.049.3.117a4.681,4.681,0,0,1,.48,2.23c-.012.061-.069.114-.174.278" transform="translate(-10.712 -148.53)" fill="#c2e8e8"/>
            <path id="Path_873486" data-name="Path 873486" d="M210.834,1.355c-.043.328-.187.4-.388.369a1.876,1.876,0,0,1-.413-.1,1.707,1.707,0,0,0-1.189-.006.905.905,0,0,1-.818-.088c-.1-.069-.265-.033-.4-.057a1.988,1.988,0,0,1-.259-.083.548.548,0,0,1,.041-.091,4.878,4.878,0,0,0,1.416-.236c.069-.008.161-.032.207,0,.4.3.848.148,1.276.186a4.988,4.988,0,0,1,.527.1" transform="translate(-146.87 -0.736)" fill="#c2e8e8"/>
            <path id="Path_873487" data-name="Path 873487" d="M233.559,3.86c.332.059.626.108.918.164.086.017.2.03.244.089a.581.581,0,0,1,.166.36.43.43,0,0,1-.264.271.726.726,0,0,1-.4-.043c-.151-.046-.289-.135-.436-.195-.385-.157-.4-.183-.224-.647" transform="translate(-165.345 -2.71)" fill="#c2e8e8"/>
            <path id="Path_873488" data-name="Path 873488" d="M370.24,95.308a6.275,6.275,0,0,1-.994-1.553c.214-.188.406-.138.511.006a8.148,8.148,0,0,1,.642,1.04c.062.119.01.3.01.45l-.168.056" transform="translate(-261.523 -65.735)" fill="#c2e8e8"/>
            <path id="Path_873489" data-name="Path 873489" d="M296.229,47.774c-.064-.011-.147,0-.187-.038-.351-.323-.7-.647-1.035-.989-.164-.169-.295-.376-.027-.625.669.327.84,1.078,1.361,1.522l-.111.129" transform="translate(-208.814 -32.381)" fill="#c2e8e8"/>
            <path id="Path_873490" data-name="Path 873490" d="M365.495,124.225c.124.029.289.016.365.095a1.742,1.742,0,0,1,.353.536c.143.346.249.708.363,1.067.012.038-.027.093-.065.207-.386-.655-1.012-1.1-1.008-1.917Z" transform="translate(-258.867 -87.205)" fill="#c2e8e8"/>
            <path id="Path_873491" data-name="Path 873491" d="M353.171,111.438a2.2,2.2,0,0,1,.3.284,5.752,5.752,0,0,1,.409.678.364.364,0,0,1,0,.322.329.329,0,0,1-.321.024,1.572,1.572,0,0,1-.582-.989c-.017-.072.107-.179.2-.319" transform="translate(-249.997 -78.236)" fill="#c2e8e8"/>
            <path id="Path_873492" data-name="Path 873492" d="M188.174,2a1.612,1.612,0,0,1-.375.023.351.351,0,0,1-.221-.167c-.02-.036.064-.194.113-.2a7.058,7.058,0,0,1,1.047-.075c.076,0,.147.2.22.31a1.2,1.2,0,0,1-.313.137A2.588,2.588,0,0,1,188.174,2" transform="translate(-132.852 -1.107)" fill="#c2e8e8"/>
            <path id="Path_873493" data-name="Path 873493" d="M11.582,155.565a7.26,7.26,0,0,1-.163-.939.45.45,0,0,1,.218-.362c.176-.055.265.125.3.293.08.373.155.747-.355,1.009" transform="translate(-8.088 -108.295)" fill="#c2e8e8"/>
            <path id="Path_873494" data-name="Path 873494" d="M331.968,293.852c.258.57.158.857-.469,1.212-.024-.122-.086-.24-.055-.319.112-.279.254-.546.392-.813.021-.039.086-.054.132-.081" transform="translate(-234.744 -206.302)" fill="#c2e8e8"/>
            <path id="Path_873495" data-name="Path 873495" d="M227.161,3.04c-.407.456-.726.441-1.044-.024.339-.282.663-.2,1.044.024" transform="translate(-160.15 -1.99)" fill="#c2e8e8"/>
            <path id="Path_873496" data-name="Path 873496" d="M133.624,20.249c-.545.229-1.1.114-1.632.466a1.247,1.247,0,0,1,1.632-.466" transform="translate(-93.485 -14.125)" fill="#c2e8e8"/>
            <path id="Path_873497" data-name="Path 873497" d="M191.91,371.491c-.262.368-.585.383-.983.046a.585.585,0,0,1,.983-.046" transform="translate(-135.227 -260.637)" fill="#c2e8e8"/>
            <path id="Path_873498" data-name="Path 873498" d="M221.719,2.673c-.309.008-.574-.2-.578-.408a.309.309,0,0,1,.161-.229.5.5,0,0,1,.589.4c0,.1-.136.194-.172.242" transform="translate(-156.626 -1.416)" fill="#c2e8e8"/>
            <path id="Path_873499" data-name="Path 873499" d="M13.853,158.714a4.574,4.574,0,0,1,.016.674.4.4,0,0,1-.213.256.282.282,0,0,1-.271-.067.368.368,0,0,1,.015-.293c.09-.207.207-.4.313-.6l.139.031" transform="translate(-9.463 -111.405)" fill="#c2e8e8"/>
            <path id="Path_873500" data-name="Path 873500" d="M140.542,1.661c-.153.089-.289.181-.436.251a.216.216,0,0,1-.333-.141.323.323,0,0,1,.213-.422c.172-.042.311.028.557.311" transform="translate(-98.983 -0.94)" fill="#c2e8e8"/>
            <path id="Path_873501" data-name="Path 873501" d="M241.093,5.985a.669.669,0,0,1,.759-.277.286.286,0,0,1,.164.23.291.291,0,0,1-.214.191,5.473,5.473,0,0,1-.709-.144" transform="translate(-170.757 -3.992)" fill="#c2e8e8"/>
            <path id="Path_873502" data-name="Path 873502" d="M6.354,190.312c.286.39.285.411-.015.777-.328-.327-.328-.385.015-.777" transform="translate(-4.317 -133.611)" fill="#c2e8e8"/>
            <path id="Path_873503" data-name="Path 873503" d="M142.023,25.708c.038.324-.22.39-.375.535-.251-.154-.194-.3-.09-.443a.291.291,0,0,1,.464-.093" transform="translate(-100.198 -17.993)" fill="#c2e8e8"/>
            <path id="Path_873504" data-name="Path 873504" d="M5.814,217.981c.456.011.567.155.467.621a.767.767,0,0,1-.467-.621" transform="translate(-4.118 -153.036)" fill="#c2e8e8"/>
            <path id="Path_873505" data-name="Path 873505" d="M17.435,240.976c-.335-.392.178-.555.084-.9l.412.167-.5.734" transform="translate(-12.267 -168.547)" fill="#c2e8e8"/>
            <path id="Path_873506" data-name="Path 873506" d="M385.481,122.442a.531.531,0,0,1,.208.66.2.2,0,0,1-.149.118.193.193,0,0,1-.156-.105c-.039-.222-.111-.458.1-.673" transform="translate(-272.922 -85.962)" fill="#c2e8e8"/>
            <path id="Path_873507" data-name="Path 873507" d="M373.838,100.462a.776.776,0,0,1,.471.52.254.254,0,0,1-.071.226.229.229,0,0,1-.224-.056c-.115-.19-.2-.4-.3-.6l.123-.089" transform="translate(-264.689 -70.53)" fill="#c2e8e8"/>
            <path id="Path_873508" data-name="Path 873508" d="M116.127,29.789c.03-.137.016-.336.1-.4.2-.152.419-.043.644.057-.129.325-.432.255-.592.434Z" transform="translate(-82.248 -20.581)" fill="#c2e8e8"/>
            <path id="Path_873509" data-name="Path 873509" d="M339.166,284.917a.553.553,0,0,1,.077.623.185.185,0,0,1-.36-.026.488.488,0,0,1,.283-.6" transform="translate(-240.009 -200.029)" fill="#c2e8e8"/>
            <path id="Path_873510" data-name="Path 873510" d="M389.455,136.464l-.31.268a1.32,1.32,0,0,1-.222-.364c-.032-.142.058-.318.221-.273.108.03.179.2.311.369" transform="translate(-275.455 -95.542)" fill="#c2e8e8"/>
            <path id="Path_873511" data-name="Path 873511" d="M221.311,8.657c-.079.113-.125.247-.193.261a1.076,1.076,0,0,1-.447-.025c-.034-.008-.066-.216-.053-.222a1.591,1.591,0,0,1,.427-.132c.07-.009.149.063.265.118" transform="translate(-156.254 -5.994)" fill="#c2e8e8"/>
            <path id="Path_873512" data-name="Path 873512" d="M380.979,112.69c-.207-.245-.487-.446-.454-.831a1.271,1.271,0,0,1,.454.831" transform="translate(-269.51 -78.532)" fill="#c2e8e8"/>
            <path id="Path_873513" data-name="Path 873513" d="M357.709,118.506c.335.019.4.2.346.445a.23.23,0,0,1-.188.123c-.192-.023-.241-.217-.157-.568" transform="translate(-253.325 -83.198)" fill="#c2e8e8"/>
            <path id="Path_873514" data-name="Path 873514" d="M89.094,332.855a1.548,1.548,0,0,1,.412.251c.039.043-.071.224-.112.343l-.128.009-.251-.517.079-.085" transform="translate(-63.046 -233.685)" fill="#c2e8e8"/>
            <path id="Path_873515" data-name="Path 873515" d="M75.6,321.81l.471.234-.23.241-.329-.4.088-.073" transform="translate(-53.485 -225.93)" fill="#c2e8e8"/>
            <path id="Path_873516" data-name="Path 873516" d="M147.9,20.175c.135.314.157.49-.039.625a.141.141,0,0,1-.136-.033c-.132-.218.019-.347.174-.592" transform="translate(-104.59 -14.164)" fill="#c2e8e8"/>
            <path id="Path_873517" data-name="Path 873517" d="M381.013,170.526c-.071-.182-.142-.276-.127-.35s.113-.147.175-.22c.057.072.166.148.16.214-.009.1-.1.183-.208.356" transform="translate(-269.766 -119.32)" fill="#c2e8e8"/>
            <path id="Path_873518" data-name="Path 873518" d="M291.008,36.751c-.119.1-.188.2-.261.205s-.139-.1-.209-.16c.063-.068.117-.176.19-.192s.151.075.279.147" transform="translate(-205.778 -25.698)" fill="#c2e8e8"/>
            <path id="Path_873519" data-name="Path 873519" d="M108.708,22.023c.016.246-.027.393-.295.4-.079-.272.064-.343.295-.4" transform="translate(-76.77 -15.461)" fill="#c2e8e8"/>
            <path id="Path_873520" data-name="Path 873520" d="M152.131,0c-.155.277-.291.3-.589.185L152.131,0" transform="translate(-107.332)" fill="#c2e8e8"/>
            <path id="Path_873521" data-name="Path 873521" d="M195.963,371.545c-.094.079-.152.167-.212.168s-.137-.074-.205-.115c.058-.073.1-.171.18-.209.036-.018.127.08.238.156" transform="translate(-138.497 -260.736)" fill="#c2e8e8"/>
            <path id="Path_873522" data-name="Path 873522" d="M330.031,298.711l-.247.23-.083-.077.21-.263.121.111" transform="translate(-233.514 -209.636)" fill="#c2e8e8"/>
            <path id="Path_873523" data-name="Path 873523" d="M386.836,125.975a.368.368,0,0,1,.21.532c-.239-.12-.245-.279-.21-.532" transform="translate(-273.97 -88.442)" fill="#c2e8e8"/>
            <path id="Path_873524" data-name="Path 873524" d="M364.932,122.678c-.053-.2-.334-.328-.214-.651a.689.689,0,0,1,.207.662l.007-.011" transform="translate(-258.295 -85.67)" fill="#c2e8e8"/>
            <path id="Path_873525" data-name="Path 873525" d="M80.367,334.77c.3.095.375.2.3.353-.02.041-.112.045-.171.066l-.127-.419" transform="translate(-56.921 -235.029)" fill="#c2e8e8"/>
            <path id="Path_873526" data-name="Path 873526" d="M384.319,120.312a2.734,2.734,0,0,1,.138.266c0,.01-.1.084-.1.08-.068-.073-.127-.153-.188-.232l.154-.114" transform="translate(-272.09 -84.466)" fill="#c2e8e8"/>
            <path id="Path_873527" data-name="Path 873527" d="M176.01,11.581c-.073.024-.128.061-.154.045s-.045-.081-.056-.127c0-.006.064-.046.083-.036a.672.672,0,0,1,.127.118" transform="translate(-124.513 -8.047)" fill="#c2e8e8"/>
            <path id="Path_873528" data-name="Path 873528" d="M3.07,204.5a.7.7,0,0,1-.118-.172c-.007-.022.077-.1.088-.094a.336.336,0,0,1,.13.123c.009.017-.049.072-.1.143" transform="translate(-2.091 -143.386)" fill="#c2e8e8"/>
            <path id="Path_873529" data-name="Path 873529" d="M100.814,342.24a.764.764,0,0,1-.187.085c-.019,0-.077-.1-.069-.1a.431.431,0,0,1,.149-.11c.012-.005.055.065.107.13" transform="translate(-71.221 -240.182)" fill="#c2e8e8"/>
            <path id="Path_873530" data-name="Path 873530" d="M111.1,34.068l-.139-.081c.027-.034.052-.092.083-.1s.087.032.13.051l-.074.127" transform="translate(-78.586 -23.793)" fill="#c2e8e8"/>
            <path id="Path_873531" data-name="Path 873531" d="M18.982,233.58l-.1.122-.114-.121c.034-.031.066-.082.1-.087s.066.049.111.086" transform="translate(-13.293 -163.927)" fill="#c2e8e8"/>
            <path id="Path_873532" data-name="Path 873532" d="M198.516,2.44c-.022.022-.045.061-.068.061s-.044-.04-.066-.062c.023-.022.045-.061.069-.062s.043.04.066.063" transform="translate(-140.507 -1.669)" fill="#c2e8e8"/>
          </g>
        </g>
      </g>
      <g id="Group_1102222" data-name="Group 1102222" transform="translate(1166.612 8792.611)">
        <g id="Group_1102221" data-name="Group 1102221" transform="translate(0 0)" clip-path="url(#clip-path-3)">
          <path id="Path_881313" data-name="Path 881313" d="M15.388,39.087c-.165.192-.3.375-.462.535Q8.621,45.927,2.305,52.22a.974.974,0,0,0-.315.762Q2,60.018,2,67.052v.415c.135,0,.235.015.337.015q5.725,0,11.452-.017a.77.77,0,0,0,.482-.2c1.216-1.189,2.418-2.393,3.627-3.589a2.793,2.793,0,0,1,.5-.41.918.918,0,0,1,1.141.16.891.891,0,0,1,.17,1.159,2.92,2.92,0,0,1-.422.537c-1.214,1.206-2.443,2.4-3.647,3.614a2.452,2.452,0,0,1-1.868.744c-3.911-.012-7.82,0-11.732-.02A2.667,2.667,0,0,1,.854,69.18,1.719,1.719,0,0,1,.005,67.5q0-4.9,0-9.806c0-1.671,0-3.342,0-5.013a2.179,2.179,0,0,1,.674-1.644q4.312-4.29,8.612-8.595,4.335-4.335,8.667-8.675c.132-.13.272-.255.417-.372.127-.1.12-.175,0-.295-1.209-1.2-2.405-2.408-3.609-3.609a3.2,3.2,0,0,1-.917-1.763,2.672,2.672,0,0,1,.6-2.275c.687-.787,1.471-1.486,2.225-2.213a3.315,3.315,0,0,1,.525-.337c-.087-.262-.182-.522-.265-.787a2.7,2.7,0,0,1,.512-2.635,24.33,24.33,0,0,1,2.1-2.113A2.5,2.5,0,0,1,21,16.73c.182-.022.255-.1.29-.287a3.429,3.429,0,0,1,.994-1.9c.579-.549,1.139-1.119,1.731-1.656a2.676,2.676,0,0,1,1.4-.629c.23-.04.347-.11.392-.37a3.321,3.321,0,0,1,.992-1.863c.442-.435.882-.877,1.326-1.314a2.928,2.928,0,0,1,1.641-.882c.195-.03.22-.1.195-.29A5.833,5.833,0,0,1,31.9,2.051a2.266,2.266,0,0,1,2.745-.2.291.291,0,0,0,.442-.055c.4-.415.819-.827,1.254-1.2A2.256,2.256,0,0,1,39.357.563,5.539,5.539,0,0,1,41.362,5a5.477,5.477,0,0,1-.642,2.565c-.1.18,0,.262.1.365C41.55,8.653,42.279,9.374,43,10.1A3.509,3.509,0,0,1,44,11.967a.386.386,0,0,0,.242.255,3.786,3.786,0,0,1,2.136,1.239c.387.407.794.792,1.186,1.191a3.388,3.388,0,0,1,.919,1.766c.037.192.112.287.312.315a3.015,3.015,0,0,1,1.716.869c.5.492,1.024.972,1.494,1.5a5.488,5.488,0,0,1,.744,1.1,2.636,2.636,0,0,1-.13,2.53c-.027.065-.06.13-.1.21a12.09,12.09,0,0,1,2.365,2.1,3.014,3.014,0,0,1,.037,4.528c-1.1,1.139-2.24,2.248-3.359,3.369-.09.085-.19.157-.312.262.07.082.135.167.212.245,1.1,1.087,2.208,2.163,3.3,3.257,1.961,1.966,3.914,3.946,5.88,5.912q4.174,4.17,8.36,8.322a2.328,2.328,0,0,1,.719,1.748q-.011,7.377-.005,14.754a1.82,1.82,0,0,1-2.038,2.038c-3.859,0-7.715-.012-11.577.012a2.743,2.743,0,0,1-2.1-.872c-1.556-1.594-3.15-3.16-4.728-4.733l-9.831-9.8a6.06,6.06,0,0,1-.425-.455,1.546,1.546,0,0,1,.047-2.193c.477-.52.984-1.009,1.484-1.506a3.42,3.42,0,0,1,.375-.282h-.132c-.667-.709-1.324-1.426-2-2.123-.889-.917-1.8-1.816-2.7-2.72a5.371,5.371,0,0,0-.577-.515c-.542-.4-.659-.415-1.214-.032a5.771,5.771,0,0,0-.747.652q-2.278,2.259-4.541,4.526c-.047.045-.085.09-.155.167a3.437,3.437,0,0,0,.277.352c.417.422.837.834,1.254,1.254a1.7,1.7,0,0,1,.012,2.812q-3.072,3.072-6.144,6.137c-.435.432-.859.877-1.324,1.269a.974.974,0,0,1-1.6-.452.782.782,0,0,1,.112-.767,5.834,5.834,0,0,1,.495-.557q3.383-3.376,6.774-6.736c.207-.207.22-.332,0-.547q-6.47-6.452-12.931-12.911c-.1-.1-.212-.2-.395-.37m34.386-4.5a1.7,1.7,0,0,1-.185.285c-.485.482-.954.979-1.471,1.429a.906.906,0,0,1-1.291-.062.952.952,0,0,1-.065-1.324,5.965,5.965,0,0,1,.487-.52q3.125-3.125,6.257-6.244a1.022,1.022,0,0,0,.047-1.631c-.492-.522-1-1.027-1.516-1.521a1.036,1.036,0,0,0-1.484-.012c-.095.08-.182.167-.27.255q-1.334,1.334-2.663,2.665a1.075,1.075,0,0,1-1.029.382,1.03,1.03,0,0,1-.452-1.758c1.474-1.431,2.915-2.895,4.369-4.346a2.926,2.926,0,0,0,.312-.347.956.956,0,0,0-.017-1.106c-.594-.622-1.194-1.244-1.833-1.816a.868.868,0,0,0-1.289.01,7.849,7.849,0,0,0-.614.574q-1.971,1.967-3.934,3.941a1.047,1.047,0,0,1-1.091.357,1,1,0,0,1-.395-1.716c.712-.737,1.451-1.451,2.176-2.178.784-.787,1.571-1.569,2.35-2.363a.919.919,0,0,0,.14-1.269c-.617-.669-1.281-1.3-1.953-1.911a.758.758,0,0,0-1.009-.007,4.873,4.873,0,0,0-.612.52q-2.4,2.383-4.778,4.773a3.746,3.746,0,0,1-1.506,1.022c-.584.182-1.191.282-1.823.425-.53,3.092-1.441,4-4.481,4.406a4.384,4.384,0,0,1-3.474,4.4c.764,2.1.335,3.936-1.179,5.1a4.113,4.113,0,0,1-2.41.889,4.249,4.249,0,0,1-3.152-1.244c-1.007,1.009-2,2.006-2.96,2.97q5.264,5.245,10.543,10.5c.195-.2.452-.5.729-.772,1.454-1.439,2.892-2.887,4.371-4.3a4.166,4.166,0,0,1,2.745-1.174A11.319,11.319,0,0,0,43.116,38.5a1.881,1.881,0,0,1,.37-.287.977.977,0,0,1,1.466.7,1.085,1.085,0,0,1-.392.994,13.779,13.779,0,0,1-4.866,3.1c-.614.227-1.249.4-1.823.587q2.214,2.24,4.478,4.526c3.472-3.5,6.956-7.019,10.4-10.5l-2.975-3.04M40.735,52.545c.195.212.357.4.532.572,1.441,1.419,2.895,2.827,4.326,4.256q4.9,4.889,9.786,9.8a1,1,0,0,0,.767.32q5.526-.019,11.047-.01h.5c.012-.12.022-.2.022-.28q0-7.268,0-14.537a.543.543,0,0,0-.145-.35q-1.431-1.45-2.88-2.882-4.646-4.616-9.3-9.224c-.37-.365-.724-.737-1.1-1.119-4.536,4.5-9.037,8.969-13.558,13.458M30.3,23.4a2.026,2.026,0,0,0,2.173-1.476,2.072,2.072,0,0,0-.435-2.031c-.237-.29-.532-.527-.779-.8a1.024,1.024,0,0,1-.357-.917,1.009,1.009,0,0,1,1.718-.517c.25.232.48.487.727.722a2.2,2.2,0,0,0,2.35.445,2.109,2.109,0,0,0,.934-3.27,4.746,4.746,0,0,0-.5-.552q-.91-.914-1.833-1.818c-1.047-1.037-2.078-2.088-3.14-3.1a.966.966,0,0,0-1.559.01q-.791.746-1.539,1.539a.976.976,0,0,0-.022,1.424c.382.422.8.812,1.181,1.236a.936.936,0,0,1-.027,1.366.967.967,0,0,1-1.366.01c-.355-.362-.719-.717-1.092-1.059a1.03,1.03,0,0,0-1.678.01c-.442.422-.872.857-1.3,1.294-.664.677-.677,1.176-.012,1.843q2.5,2.514,5.02,5.008A1.746,1.746,0,0,0,30.3,23.4m-4.428,4.473a1.93,1.93,0,0,0,1.594-.582,2.121,2.121,0,0,0,.007-3.02c-.7-.734-1.444-1.426-2.163-2.143-1.029-1.024-2.043-2.068-3.085-3.077a1,1,0,0,0-1.626.012c-.5.477-.992.972-1.471,1.474a.985.985,0,0,0,0,1.536c.312.332.657.634.977.957q2.008,2.019,4.006,4.041a2.061,2.061,0,0,0,1.756.8M22.832,33.86a2.1,2.1,0,0,0,2.011-1.1,2.125,2.125,0,0,0-.46-2.638c-.867-.867-1.751-1.711-2.62-2.573-.837-.834-1.651-1.691-2.5-2.515a1.037,1.037,0,0,0-1.678.01c-.49.465-.962.944-1.429,1.431a1,1,0,0,0,.007,1.584c.27.285.572.542.849.822q2.083,2.094,4.159,4.2a2.057,2.057,0,0,0,1.658.779M37.983,8.048C36.552,6.58,35.111,5.1,33.677,3.625c-.2-.207-.382-.17-.589.015a3.7,3.7,0,0,0-.5,4.936,31.328,31.328,0,0,0,2.258,2.358,26.661,26.661,0,0,1,3.137-2.885m-1.648,4.321c.992,1.054,2.151,1.956,2.635,3.489.18-.207.287-.345.41-.467.769-.782,1.551-1.556,2.318-2.34a.969.969,0,0,0,.142-1.251c-.6-.632-1.209-1.254-1.853-1.836a.857.857,0,0,0-1.241-.012,2.911,2.911,0,0,0-.325.285c-.649.642-1.291,1.289-1.933,1.936a1.79,1.79,0,0,0-.152.2m2.8-6.194a.434.434,0,0,0,.057-.1,3.781,3.781,0,0,0-.789-3.682c-.495-.54-.507-.54-1.029-.042-.365.345-.709.707-1,.994.942.964,1.848,1.9,2.757,2.83" transform="translate(0 0)" fill="#3d5756"/>
          <path id="Path_881314" data-name="Path 881314" d="M16.795,26.995a1.019,1.019,0,0,1-.557.889,1,1,0,0,1-1.136-.107c-.24-.2-.462-.415-.682-.634Q10.37,23.1,6.327,19.05a3.383,3.383,0,0,1-.307-.35,1,1,0,0,1,.065-1.359.987.987,0,0,1,1.356.015c.5.452.977.927,1.454,1.4q3.66,3.66,7.316,7.328a2.03,2.03,0,0,1,.312.345,5.824,5.824,0,0,1,.272.562" transform="translate(8.664 25.58)" fill="#3d5756"/>
          <path id="Path_881315" data-name="Path 881315" d="M18.8,27.983a.927.927,0,0,1-.954-.567.9.9,0,0,1,.165-1.067c1.092-1.106,2.181-2.215,3.282-3.314q2.66-2.656,5.338-5.3a5.579,5.579,0,0,1,.452-.425.946.946,0,0,1,1.344.075.934.934,0,0,1,.025,1.321c-.317.37-.662.714-1.007,1.059q-3.923,3.9-7.855,7.8c-.227.225-.462.46-.789.422" transform="translate(26.566 25.557)" fill="#3d5756"/>
        </g>
      </g>
    </g>
  </g>
</svg>
