<svg xmlns="http://www.w3.org/2000/svg" xmlns:xlink="http://www.w3.org/1999/xlink" width="62.504" height="62.504" viewBox="0 0 62.504 62.504">
  <defs>
    <clipPath id="clip-path">
      <rect id="Rectangle_403471" data-name="Rectangle 403471" width="32.496" height="26.212" fill="#fff"/>
    </clipPath>
  </defs>
  <g id="Group_1102254" data-name="Group 1102254" transform="translate(-279.816 -1198.717)">
    <g id="Group_1072053" data-name="Group 1072053" transform="translate(279.816 1198.717)">
      <circle id="Ellipse_4742" data-name="Ellipse 4742" cx="31.252" cy="31.252" r="31.252" transform="translate(0)" fill="#7d420e"/>
    </g>
    <g id="Group_1102235" data-name="Group 1102235" transform="translate(294.82 1218.871)">
      <g id="Group_1102234" data-name="Group 1102234" transform="translate(0 0)" clip-path="url(#clip-path)">
        <path id="Path_881354" data-name="Path 881354" d="M30.755,7.268v.248c0,1.919,0,3.839,0,5.758a.31.31,0,0,1-.207.341c-1.03.5-2.051,1.015-3.074,1.525q-3,1.494-6,2.99a.221.221,0,0,1-.291-.043Q18.915,16.039,16.635,14a2.475,2.475,0,0,0-1.28-.661,2.181,2.181,0,0,0-1.458.242c-.63.357-1.247.737-1.869,1.108-.087.051-.173.1-.262.155a.745.745,0,0,1-1.034-.214.815.815,0,0,1,.221-1.128,2.057,2.057,0,0,1,.227-.127q1.432-.714,2.866-1.426a2.372,2.372,0,0,1,1.441-.284,9.538,9.538,0,0,1,1.052.267c.887.248,1.769.512,2.66.747a4.527,4.527,0,0,0,.7.055,1.31,1.31,0,0,0,.769-.183q3.984-2.1,7.974-4.19.986-.519,1.976-1.032c.037-.019.077-.033.133-.057" transform="translate(1.737 1.191)" fill="#fff"/>
        <path id="Path_881355" data-name="Path 881355" d="M14.115,10.623l-1.049.521c-.544.271-1.089.54-1.632.815a1.793,1.793,0,0,0-.94,1,1.928,1.928,0,0,0,1.263,2.62,1.763,1.763,0,0,0,1.4-.168c.62-.365,1.237-.734,1.856-1.1.1-.062.208-.122.315-.178a1.069,1.069,0,0,1,1.258.121c.356.289.693.6,1.035.908q1.826,1.634,3.649,3.272a.613.613,0,1,1-.722.99c-.332-.241-.641-.513-.958-.775-.659-.545-1.315-1.093-1.975-1.638-.169-.139-.176-.139-.315.026-.2.23-.391.466-.595.709l1.006.837c.595.495,1.191.987,1.784,1.483a1.953,1.953,0,0,1,.229.22.523.523,0,0,1,.09.582.551.551,0,0,1-.485.339.828.828,0,0,1-.635-.227q-1.133-.95-2.273-1.891c-.212-.176-.424-.349-.658-.542-.25.3-.49.587-.734.878.5.416.992.821,1.48,1.227q.658.546,1.315,1.1a1.968,1.968,0,0,1,.219.211.513.513,0,0,1,.084.6.507.507,0,0,1-.528.307.988.988,0,0,1-.471-.154c-.439-.333-.857-.691-1.28-1.044a.782.782,0,0,1-.148-.178,1.675,1.675,0,0,0-1.244-.807.2.2,0,0,1-.2-.2,1.678,1.678,0,0,0-1.5-1.474c-.106-.012-.154-.048-.163-.156a1.688,1.688,0,0,0-1.471-1.5c-.176-.016-.218-.108-.23-.26a1.7,1.7,0,0,0-1.8-1.446,1.61,1.61,0,0,0-1.065.433c-.378.36-.744.732-1.107,1.108-.088.092-.152.115-.267.044q-.7-.435-1.414-.852a.189.189,0,0,1-.1-.257q.709-2.439,1.4-4.883A.3.3,0,0,1,6.8,11c1.056-.229,2.11-.466,3.167-.694a7.226,7.226,0,0,1,1.745-.236,7.361,7.361,0,0,1,1.943.368c.158.049.315.1.473.151l-.014.038" transform="translate(0.839 1.649)" fill="#fff"/>
        <path id="Path_881356" data-name="Path 881356" d="M9.161,10.8a1.646,1.646,0,0,1,1.2-1.724c.946-.253,1.9-.484,2.848-.719.417-.1.417-.1.417-.516s0-.812.006-1.219a.238.238,0,0,0-.14-.241,2.825,2.825,0,0,1-1.456-1.841,1.794,1.794,0,0,1-.063-.4,6.971,6.971,0,0,1,.1-2.132,2.777,2.777,0,0,1,2.525-2,2.7,2.7,0,0,1,2.46,1.32,2.507,2.507,0,0,1,.443,1.345,11.351,11.351,0,0,1-.026,1.677A2.6,2.6,0,0,1,16.123,6.3a.451.451,0,0,0-.268.488,12.328,12.328,0,0,1,0,1.262c-.006.149.042.208.176.241.539.133,1.077.269,1.614.405.463.116.928.229,1.39.35a1.623,1.623,0,0,1,1.284,1.6c.015.416,0,.832,0,1.248,0,.236,0,.474.015.71.006.142-.054.215-.191.21a1.932,1.932,0,0,1-.443-.047c-1.009-.281-2.014-.577-3.023-.852-.329-.091-.674-.125-1.007-.2-.263-.059-.521-.142-.78-.219-.817-.244-1.627-.519-2.454-.73a6.1,6.1,0,0,0-2.575-.079c-.232.041-.464.076-.706.114" transform="translate(1.501 0)" fill="#fff"/>
        <path id="Path_881357" data-name="Path 881357" d="M25.915,8.965l-6.057,3.175c0-.073-.007-.123-.007-.175-.008-.511,0-1.024-.026-1.535a2.624,2.624,0,0,0-.659-1.589c-.03-.036-.056-.073-.1-.127.509-.123.994-.244,1.479-.36.428-.1.427-.1.426-.539,0-.406,0-.811.006-1.217a.2.2,0,0,0-.118-.2,2.945,2.945,0,0,1-1.328-1.386,3.184,3.184,0,0,1-.257-1.342,9.11,9.11,0,0,1,.084-1.414A2.819,2.819,0,0,1,21.731.02a2.834,2.834,0,0,1,3.108,2.643,10.56,10.56,0,0,1-.014,1.662,2.613,2.613,0,0,1-1.17,1.855,1.783,1.783,0,0,1-.282.177.253.253,0,0,0-.161.279c.01.488.007.975,0,1.464a.152.152,0,0,0,.136.178c.519.128,1.038.261,1.557.392.335.085.669.173,1,.26l0,.035" transform="translate(3.126 0)" fill="#fff"/>
        <path id="Path_881358" data-name="Path 881358" d="M9.655,8.721c-.113.154-.228.3-.328.447a2.9,2.9,0,0,0-.446,1.682c0,.228,0,.226-.221.272-.491.1-.981.21-1.491.319.01-.1.024-.183.027-.27.01-.262.012-.523.024-.783a.178.178,0,0,0-.1-.186Q5.75,9.414,4.385,8.62c-.023-.014-.045-.031-.093-.064l.7-.175c.144-.037.291-.07.432-.121a.179.179,0,0,0,.09-.132c0-.523,0-1.044,0-1.567a.163.163,0,0,0-.1-.169A2.855,2.855,0,0,1,4,4.73a2.177,2.177,0,0,1-.114-.638,13.513,13.513,0,0,1,.041-1.778A2.568,2.568,0,0,1,5.274.375a2.741,2.741,0,0,1,3.961,1.5,4.873,4.873,0,0,1,.212,1.945,3.168,3.168,0,0,1-.229,1.144A2.762,2.762,0,0,1,8,6.315a.41.41,0,0,0-.253.439c.021.443.013.889.006,1.334a.154.154,0,0,0,.135.182c.584.147,1.167.3,1.769.452" transform="translate(0.635 0)" fill="#fff"/>
        <path id="Path_881359" data-name="Path 881359" d="M0,5.754l.171.113q2.079,1.36,4.161,2.715c.1.066.08.137.058.222q-.316,1.257-.631,2.512-.651,2.589-1.3,5.178c-.058.234-.056.235-.292.157C1.485,16.426.8,16.2.12,15.977A.147.147,0,0,1,0,15.809c0-.1,0-.2,0-.3V5.754Z" transform="translate(0 0.943)" fill="#fff"/>
        <path id="Path_881360" data-name="Path 881360" d="M4.974,8.762c.4.23.782.457,1.171.681.093.054.09.128.066.212-.085.3-.169.6-.255.906L4.21,16.64c-.094.329-.092.329-.418.222-.239-.079-.476-.157-.716-.23-.094-.029-.068-.091-.052-.15q.272-1.095.547-2.189.475-1.894.951-3.79c.141-.561.278-1.123.418-1.685a.4.4,0,0,1,.034-.056" transform="translate(0.493 1.436)" fill="#fff"/>
        <path id="Path_881361" data-name="Path 881361" d="M9.44,16.516a.938.938,0,0,1-.142.3c-.343.365-.694.727-1.064,1.065a.576.576,0,0,1-.8-.021.605.605,0,0,1-.073-.793,2.465,2.465,0,0,1,.3-.336c.251-.254.5-.511.766-.751a.562.562,0,0,1,.7-.069.649.649,0,0,1,.321.606" transform="translate(1.187 2.593)" fill="#fff"/>
        <path id="Path_881362" data-name="Path 881362" d="M12.161,22.339a.6.6,0,0,1-.514-.885,1.006,1.006,0,0,1,.147-.2c.294-.3.59-.6.892-.892a.636.636,0,0,1,.617-.2.6.6,0,0,1,.37.915.794.794,0,0,1-.116.148c-.3.3-.592.6-.893.89a.682.682,0,0,1-.5.222" transform="translate(1.897 3.302)" fill="#fff"/>
        <path id="Path_881363" data-name="Path 881363" d="M9.289,19.451a.568.568,0,0,1-.546-.335.545.545,0,0,1,.087-.647c.34-.361.689-.717,1.056-1.05a.6.6,0,0,1,.845.848c-.333.362-.687.705-1.046,1.039a1.41,1.41,0,0,1-.379.18l-.016-.036" transform="translate(1.422 2.829)" fill="#fff"/>
        <path id="Path_881364" data-name="Path 881364" d="M10.793,20.9a.619.619,0,0,1-.595-.335.552.552,0,0,1,.071-.649c.336-.364.689-.716,1.053-1.053a.585.585,0,0,1,.815.02.572.572,0,0,1,.044.81c-.338.37-.7.72-1.064,1.061a.967.967,0,0,1-.325.147" transform="translate(1.66 3.066)" fill="#fff"/>
        <path id="Path_881365" data-name="Path 881365" d="M14.415,21.3c.179.161.35.3.507.455a.554.554,0,0,1,.116.663.657.657,0,0,1-.641.3,1.361,1.361,0,0,1-.693-.469.085.085,0,0,1,0-.086,3.267,3.267,0,0,0,.708-.865" transform="translate(2.245 3.49)" fill="#fff"/>
      </g>
    </g>
  </g>
</svg>
