<svg xmlns="http://www.w3.org/2000/svg" xmlns:xlink="http://www.w3.org/1999/xlink" width="72" height="72" viewBox="0 0 72 72">
  <defs>
    <clipPath id="clip-path">
      <rect id="Rectangle_405162" data-name="Rectangle 405162" width="72" height="72" transform="translate(288 11564)" fill="#fff" stroke="#707070" stroke-width="1"/>
    </clipPath>
    <clipPath id="clip-path-2">
      <rect id="Rectangle_405163" data-name="Rectangle 405163" width="65" height="64.785" fill="#fff"/>
    </clipPath>
  </defs>
  <g id="Mask_Group_1098723" data-name="Mask Group 1098723" transform="translate(-288 -11564)" clip-path="url(#clip-path)">
    <g id="Group_1102727" data-name="Group 1102727" transform="translate(292 11568)">
      <g id="Group_1102726" data-name="Group 1102726" clip-path="url(#clip-path-2)">
        <path id="Path_882927" data-name="Path 882927" d="M20.648,63.609,17.5,59.845c-.351-.421-.7-.847-1.057-1.26a.444.444,0,0,0-.294-.145c-3.592,0-7.183.021-10.775.008a3.165,3.165,0,0,1-3.236-2.936,6.274,6.274,0,0,1-.051-.774q0-9.934,0-19.868a3.3,3.3,0,0,1,1.781-3.184,3.849,3.849,0,0,1,1.795-.393q3.816-.008,7.632,0h.537c-.145-.176-.256-.309-.365-.442-.41-.5-.809-1.014-1.239-1.5a.667.667,0,0,0-.453-.135q-4.115,0-8.231.022A3.506,3.506,0,0,1,1.3,28.576,3.345,3.345,0,0,1,0,25.752q0-2.334,0-4.668Q0,12.273,0,3.461A3.251,3.251,0,0,1,1.9.32,3.552,3.552,0,0,1,3.5,0L21.605,0h8.471a3.519,3.519,0,0,1,1.76.4A2.982,2.982,0,0,1,33.5,3.05c.032,1.675.02,3.351.027,5.026,0,.059,0,.118,0,.218.122.005.237.015.351.015q13.754,0,27.508,0a3.611,3.611,0,0,1,2.556.915A3.4,3.4,0,0,1,65,11.866q0,4.458,0,8.917,0,6.583,0,13.165a3.637,3.637,0,0,1-.625,2.292,3,3,0,0,1-2.526,1.3c-3.492-.011-6.984,0-10.476-.018a1.05,1.05,0,0,0-.916.418c-1.32,1.613-2.67,3.2-4,4.806a2.579,2.579,0,0,1-2.129,1.076,2.467,2.467,0,0,1-2.359-2.178c-.072-1.143-.045-2.292-.06-3.438,0-.206,0-.412,0-.653-.651,0-1.257-.007-1.863.01-.067,0-.176.136-.186.218a5.544,5.544,0,0,0-.007.657q0,8.243,0,16.487a3.487,3.487,0,0,1-.816,2.436,3.283,3.283,0,0,1-2.584,1.1q-4.191-.006-8.381,0c-.888,0-1.776-.006-2.664-.008-.078,0-.156.007-.275.013,0,.107,0,.2,0,.3,0,1.107-.006,2.214.007,3.321a2.957,2.957,0,0,1-.452,1.642c-1.139,1.637-2.491,1.21-4.042-.114m.263-30.15a2.451,2.451,0,0,1-1.852,1.949,2.324,2.324,0,0,1-2.42-.807c-.29-.316-.545-.663-.833-.98a.521.521,0,0,0-.336-.169Q10.4,33.44,5.323,33.448a.969.969,0,0,0-1.078,1.093q0,9.231,0,18.462c0,.8-.02,1.6.012,2.393a1.186,1.186,0,0,0,.273.661,1.167,1.167,0,0,0,.947.362c.579,0,1.157,0,1.736,0q4.879,0,9.758,0a.6.6,0,0,1,.507.244q2.188,2.636,4.389,5.261a3.135,3.135,0,0,0,.5.551.685.685,0,0,0,.509.093c.1-.024.167-.229.219-.364a.875.875,0,0,0,.012-.3q-.007-2.573-.015-5.146c0-.1,0-.208,0-.318.107-.007.166-.014.225-.014q6.57,0,13.14-.006a1.149,1.149,0,0,0,1.311-1.3q0-8.617,0-17.235v-.338c-.08-.01-.109-.017-.138-.017q-3.622,0-7.243,0a2.634,2.634,0,0,1-.827-.086,3.077,3.077,0,0,1-2.207-2.408c-.1-.512-.115-1.041-.17-1.576Zm-2.06-6.282h.66q3.472,0,6.944,0,1.841,0,3.681.014a1.185,1.185,0,0,0,1.351-1.333c0-.469-.013-.937-.013-1.406q.01-10.517.022-21.033c0-.934-.392-1.331-1.327-1.331H3.382c-.907,0-1.292.387-1.292,1.293q0,11.265,0,22.53a1.148,1.148,0,0,0,1.287,1.3c.429,0,.857-.028,1.286-.028q3.876-.005,7.752,0a3.333,3.333,0,0,1,.537.027.485.485,0,0,1,.273.147c.827.985,1.644,1.978,2.469,2.965q1.218,1.458,2.446,2.907c.126.149.264.266.491.171.209-.088.223-.244.223-.436,0-1.267,0-2.533,0-3.8v-1.98M33.513,10.466v.3q.006,5.041.011,10.082c0,1.755.009,3.51-.01,5.265a3.094,3.094,0,0,1-3.013,3.1c-.363.015-.728,0-1.077,0a.645.645,0,0,0-.03.106c0,1.765-.007,3.53,0,5.3a.9.9,0,0,0,.8.869,5.722,5.722,0,0,0,.746.034q6.15,0,12.3-.006H44v.385q0,2.618,0,5.236a1.48,1.48,0,0,0,.013.3.388.388,0,0,0,.673.216,6.969,6.969,0,0,0,.486-.528c1.4-1.666,2.811-3.317,4.17-5.013a1.488,1.488,0,0,1,1.329-.61c3.641.027,7.282.02,10.923.015a1.73,1.73,0,0,0,.7-.126,1.2,1.2,0,0,0,.627-1.253V11.747c0-.92-.363-1.282-1.284-1.282H33.513ZM21.03,31.267h6.184V29.229H21.03Z" transform="translate(0 0)" fill="#fff"/>
        <path id="Path_882928" data-name="Path 882928" d="M44.1,163.514l1.479.958c-.1-.339-.208-.641-.277-.951a4.16,4.16,0,0,1,8.17-1.565,3.894,3.894,0,0,1-.864,3.446c-.17.205-.162.3.071.447a6.151,6.151,0,0,1,2.975,5.345c.01.658,0,1.316,0,2H53.579c0-.679-.011-1.354,0-2.028a4.057,4.057,0,0,0-3.072-4.056,4.374,4.374,0,0,0-2.844.207c-.136.059-.164.116-.134.268.163.818.329,1.636.452,2.461s.192,1.643.284,2.464a2.292,2.292,0,0,0,.025.238c.064.285-.064.386-.338.406a10.493,10.493,0,0,0-1.306.146c-.3.061-.363-.071-.389-.312-.078-.733-.139-1.469-.249-2.2a13.031,13.031,0,0,0-.475-2.821,4.725,4.725,0,0,0-4.508-3.111,4.805,4.805,0,0,0-4.843,4.514c-.09,1.262-.27,2.517-.4,3.775-.018.165-.1.194-.241.176-.544-.069-1.089-.127-1.631-.209-.077-.012-.2-.14-.2-.2.152-1.376.311-2.751.488-4.124a4.9,4.9,0,0,1,.242-1.044c.108-.3.006-.408-.251-.5a4.993,4.993,0,0,0-2.153-.223,4.145,4.145,0,0,0-3.63,4.127c-.008.588,0,1.177.01,1.765.005.222-.044.323-.3.313-.5-.02-1-.008-1.5,0-.135,0-.241-.016-.237-.185a14.6,14.6,0,0,1,.168-3.365,6.182,6.182,0,0,1,2.862-3.858c.253-.154.124-.261.02-.393a4.143,4.143,0,0,1-.977-2.727,4.247,4.247,0,0,1,3.58-4.015,4.171,4.171,0,0,1,4.721,4.557,7.259,7.259,0,0,1-.232.951c-.021.083-.04.167-.073.3l1.493-.975a4.053,4.053,0,0,1-.865-4.144,4.159,4.159,0,1,1,7.015,4.148m-3.078-4.9a2.092,2.092,0,1,0,.068,4.181,2.133,2.133,0,0,0,2.064-2.1,2.1,2.1,0,0,0-2.132-2.084M32.6,164.837a2.082,2.082,0,0,0,2.176-2.055,2.142,2.142,0,0,0-2.162-2.061,2.07,2.07,0,0,0-2.1,2.063,2.012,2.012,0,0,0,2.089,2.053m16.736,0a2.085,2.085,0,0,0,2.2-2.028,2.141,2.141,0,0,0-2.165-2.088,2.066,2.066,0,0,0-2.1,2.036,2.007,2.007,0,0,0,2.061,2.08" transform="translate(-20.041 -118.944)" fill="#fff"/>
        <path id="Path_882929" data-name="Path 882929" d="M26.37,32.755a6.477,6.477,0,0,1,1.968-4.793,6.016,6.016,0,0,1,8.135-.418c.357.282.356.274.71-.005a5.82,5.82,0,0,1,4.4-1.345,6.031,6.031,0,0,1,5.3,4.318,6.681,6.681,0,0,1-1.87,7.435c-2.61,2.42-5.309,4.745-7.967,7.113-.151.134-.26.163-.43.012q-3.912-3.48-7.834-6.948A7.112,7.112,0,0,1,26.474,34a11.72,11.72,0,0,1-.1-1.249m18.9,0a12.66,12.66,0,0,0-.284-1.519A4.133,4.133,0,0,0,38.1,29.453c-.354.366-.722.717-1.074,1.084-.14.146-.223.153-.38,0a20.327,20.327,0,0,0-1.7-1.588,3.542,3.542,0,0,0-2.5-.743,4.355,4.355,0,0,0-4.023,4.208,5.157,5.157,0,0,0,1.907,4.381c1.473,1.286,2.935,2.583,4.4,3.875q.943.831,1.888,1.659c.1.092.206.2.36.061q1.276-1.131,2.556-2.257c1.2-1.063,2.383-2.154,3.612-3.185a5.432,5.432,0,0,0,2.131-4.192" transform="translate(-20.036 -19.87)" fill="#fff"/>
        <path id="Path_882930" data-name="Path 882930" d="M165.239,58.6c.719,0,1.368,0,2.016,0a4.047,4.047,0,0,1,4.027,3.772c.081,2.311.082,4.628.017,6.939a4.056,4.056,0,0,1-3.4,3.762,9.41,9.41,0,0,1-1.425.125c-1.067.018-2.135.006-3.2.006a14.761,14.761,0,0,1-6.52-1.384c-.053-.025-.107-.046-.175-.075-.071.13-.132.253-.2.37a2.273,2.273,0,0,1-2.016,1.083q-1.855.037-3.711,0a2.285,2.285,0,0,1-2.365-2.423q0-4.907,0-9.814a2.34,2.34,0,0,1,.806-1.888,1.923,1.923,0,0,1,1.262-.471c1.426-.006,2.854-.019,4.279.01a3.073,3.073,0,0,1,1,.269.333.333,0,0,0,.438-.069,9.109,9.109,0,0,0,2.395-4.141,3.084,3.084,0,0,1,1.892-2.134,3.307,3.307,0,0,1,1.972-.12,4.072,4.072,0,0,1,3.179,3.346,5.935,5.935,0,0,1-.182,2.282c-.04.169-.05.345-.079.554m-2.412,2.048c.055-.382.1-.707.151-1.029.159-.932.328-1.862.484-2.8a2.04,2.04,0,0,0-1.419-2.385,1.2,1.2,0,0,0-1.674.9,17.708,17.708,0,0,1-.683,1.845,11.658,11.658,0,0,1-2.841,3.7.543.543,0,0,0-.174.343q-.014,4.008,0,8.016a.475.475,0,0,0,.2.346,10.46,10.46,0,0,0,5.205,1.458c1.745.015,3.491.019,5.236-.009a2.108,2.108,0,0,0,.981-.3,2.164,2.164,0,0,0,1.026-2.087c-.014-.658-.033-1.315-.035-1.973,0-1.326.016-2.652.009-3.978a2.12,2.12,0,0,0-2.13-2.059c-1.156.03-2.314.007-3.471.007h-.867m-8.276.016h-4.1V71.034h4.1Z" transform="translate(-112.665 -39.756)" fill="#fff"/>
      </g>
    </g>
  </g>
</svg>
