<svg xmlns="http://www.w3.org/2000/svg" xmlns:xlink="http://www.w3.org/1999/xlink" width="72" height="72" viewBox="0 0 72 72">
  <defs>
    <clipPath id="clip-path">
      <rect id="Rectangle_403421" data-name="Rectangle 403421" width="72" height="72" transform="translate(288 11564)" fill="#fff" stroke="#707070" stroke-width="1"/>
    </clipPath>
    <clipPath id="clip-path-2">
      <rect id="Rectangle_403422" data-name="Rectangle 403422" width="65.49" height="66.564" fill="#fff"/>
    </clipPath>
  </defs>
  <g id="Mask_Group_1098707" data-name="Mask Group 1098707" transform="translate(-288 -11564)" clip-path="url(#clip-path)">
    <g id="Group_1102178" data-name="Group 1102178" transform="translate(291 11567)">
      <g id="Group_1102177" data-name="Group 1102177" transform="translate(0 0)" clip-path="url(#clip-path-2)">
        <path id="Path_881287" data-name="Path 881287" d="M33.738,37.008c-.173-.212-.336-.437-.526-.635a6.386,6.386,0,0,1-1.869-4.23c-.01-.215-.081-.284-.294-.277-.667.03-.538-.062-.541.565,0,1.109-.01,2.215-.01,3.321a1.041,1.041,0,0,1-.7,1.054,1.02,1.02,0,0,1-1.183-.353c-1.388-1.437-2.78-2.874-4.161-4.319a.829.829,0,0,0-.674-.272c-3.353.01-6.709.02-10.062,0A3.547,3.547,0,0,1,10.11,29.4a2.911,2.911,0,0,1-.136-.874q-.015-5.215-.01-10.43c0-.738-.025-1.477,0-2.215a3.385,3.385,0,0,1,1.978-3.025,3.7,3.7,0,0,1,1.788-.348q6.926,0,13.848,0c1.385,0,2.768.02,4.153.015a3.5,3.5,0,0,1,3.358,3.531c.037,3.109.01,6.215.01,9.324v.449a6.617,6.617,0,0,1,8.781,3.141,6.571,6.571,0,0,1-1.872,7.993c.131.054.247.1.361.151a11.917,11.917,0,0,1,7.339,8.741,7.911,7.911,0,0,1,.165,1.153,1.018,1.018,0,0,1-.909,1.121,4.4,4.4,0,0,1-.674.047q-10.463,0-20.925,0a2.814,2.814,0,0,1-.519-.047.977.977,0,0,1-.862-1.03,9.377,9.377,0,0,1,.965-3.751,11.881,11.881,0,0,1,6.558-6.24c.1-.042.2-.089.227-.1M28.37,33.153c.01-.183.022-.279.022-.375.007-.625,0-1.252.017-1.877a1.078,1.078,0,0,1,.988-1.138,2.49,2.49,0,0,1,.489-.027c.462,0,.924.007,1.385.025a.47.47,0,0,0,.494-.306c.306-.6.667-1.17.983-1.766a1.439,1.439,0,0,0,.168-.635c0-2.9-.012-5.8-.022-8.7,0-.872.017-1.743-.02-2.612a1.27,1.27,0,0,0-.3-.674,1.562,1.562,0,0,0-1.341-.467q-4.167.022-8.336.025c-3.1,0-6.2-.012-9.292-.02a1.436,1.436,0,0,0-1.489,1,3.016,3.016,0,0,0-.079.761q0,5.03.012,10.06c0,.6-.015,1.21-.01,1.815a1.348,1.348,0,0,0,.706,1.309,2.4,2.4,0,0,0,1.01.183q5.215.019,10.43,0a1.868,1.868,0,0,1,1.474.617c.807.862,1.632,1.7,2.45,2.551.067.069.136.133.264.257m-.077,12.86H47.578a9.908,9.908,0,0,0-19.285,0m9.7-9.818a4.338,4.338,0,0,0,4.42-4.341,4.5,4.5,0,1,0-9.005-.044A4.358,4.358,0,0,0,37.993,36.2" transform="translate(14.625 18.381)" fill="#fff"/>
        <path id="Path_881288" data-name="Path 881288" d="M7.851,23.219c-2.657-2.585-3.427-5.551-1.375-8.744,1.911-2.966,4.783-3.632,8.112-2.558a.663.663,0,0,0,.047-.168L14.6,3.874A3.621,3.621,0,0,1,16.367.536a3.734,3.734,0,0,1,2-.531Q27.255,0,36.146,0a3.637,3.637,0,0,1,3.509,2.746,4.088,4.088,0,0,1,.094.884c0,4.072.015,8.144,0,12.215A3.5,3.5,0,0,1,36.9,19.334a5.019,5.019,0,0,1-1.04.059q-4.937,0-9.877-.007a.967.967,0,0,0-.78.326c-1.314,1.383-2.642,2.751-3.968,4.124a3.45,3.45,0,0,1-.383.353.951.951,0,0,1-1.067.119.982.982,0,0,1-.583-.936c0-1.22,0-2.44,0-3.662V19.45c-.037-.025-.054-.044-.072-.047-.654-.037-.654-.037-.859.6a6.912,6.912,0,0,1-2.17,3.163c.133.069.247.141.37.193a12.048,12.048,0,0,1,6.351,5.929,12.423,12.423,0,0,1,1.106,3.659,1.124,1.124,0,0,1-1.027,1.43q-10.875.015-21.754.007A1.1,1.1,0,0,1,.011,33.125a12.013,12.013,0,0,1,3.874-7.514,11.739,11.739,0,0,1,3.81-2.319c.054-.02.106-.052.156-.074M21.3,20.611c.047.037.094.072.138.106a1.1,1.1,0,0,1,.146-.272c.827-.867,1.677-1.714,2.489-2.6a1.754,1.754,0,0,1,1.4-.565q4.952.015,9.907,0c.309,0,.617,0,.924-.02a1.393,1.393,0,0,0,1.363-1.454v-.338q0-5.923,0-11.843a1.4,1.4,0,0,0-1.484-1.489q-8.908,0-17.816,0a1.4,1.4,0,0,0-1.61,1.6q-.007,4.722,0,9.445a.765.765,0,0,0,.173.467,6.68,6.68,0,0,1,1.59,3.405c.03.19.111.232.284.23.449-.007.9-.017,1.353,0a1.066,1.066,0,0,1,1.141,1.168c.015.472.007.943.01,1.415v.731m.316,11.606a9.8,9.8,0,0,0-9.909-7.591,9.778,9.778,0,0,0-9.363,7.591Zm-9.65-9.739a4.47,4.47,0,1,0,.074-8.939,4.47,4.47,0,1,0-.074,8.939" transform="translate(-0.001 0)" fill="#fff"/>
        <path id="Path_881289" data-name="Path 881289" d="M36.279,38.132c.064-.222.133-.444.193-.669a26.638,26.638,0,0,0-1.556-18.179A26.871,26.871,0,0,0,23.142,6.8a25.375,25.375,0,0,0-5.106-2.084,1.385,1.385,0,0,1-.963-.649.933.933,0,0,1,.109-1.089A.955.955,0,0,1,18.216,2.6a25.137,25.137,0,0,1,4.516,1.662A29.034,29.034,0,0,1,34.713,14.593a28.07,28.07,0,0,1,3.914,8.862,28.8,28.8,0,0,1,.793,9.087,27.407,27.407,0,0,1-.993,5.739l-.156.543.069.044c.225-.131.444-.272.672-.393a1.034,1.034,0,0,1,1.121,1.733c-.274.212-.58.385-.874.57-.8.506-1.588,1.017-2.39,1.514a1.048,1.048,0,0,1-1.7-.565c-.432-1.2-.835-2.417-1.22-3.637a.993.993,0,0,1,.632-1.338,1.046,1.046,0,0,1,1.333.664c.1.232.2.467.291.7l.072.017" transform="translate(24.9 3.769)" fill="#fff"/>
        <path id="Path_881290" data-name="Path 881290" d="M4.222,19.034c-.151.291-.249.5-.368.7a1.062,1.062,0,0,1-1.469.449.994.994,0,0,1-.42-1.348c.289-.61.617-1.2.933-1.8.294-.553.59-1.1.9-1.647a1.047,1.047,0,0,1,1.684-.341q1.5,1.3,2.941,2.662a1.006,1.006,0,0,1-.43,1.731.944.944,0,0,1-.9-.17c-.227-.165-.444-.351-.721-.57a1.812,1.812,0,0,0,.022.343A27,27,0,0,0,9.882,27.1,26.745,26.745,0,0,0,23.925,38.022a25.433,25.433,0,0,0,5.593,1.24,26.637,26.637,0,0,0,5.558.044,1.354,1.354,0,0,1,1.3.346,1.014,1.014,0,0,1-.548,1.7,11.246,11.246,0,0,1-1.5.148,28.538,28.538,0,0,1-8.3-.7A28.809,28.809,0,0,1,7.655,27.469a26.711,26.711,0,0,1-3.321-8.089c-.02-.086-.054-.17-.111-.346" transform="translate(2.721 21.687)" fill="#fff"/>
        <path id="Path_881291" data-name="Path 881291" d="M19.474,14.22h5.568c.215,0,.43,0,.644.027a1.108,1.108,0,0,1,.98.988,1.083,1.083,0,0,1-.83,1.079,2.65,2.65,0,0,1-.607.069q-5.86.007-11.719,0a3.066,3.066,0,0,1-.521-.04,1.027,1.027,0,0,1-.9-1.069,1.07,1.07,0,0,1,.928-1.027,3.339,3.339,0,0,1,.521-.035q2.967,0,5.936,0Z" transform="translate(17.76 20.884)" fill="#fff"/>
        <path id="Path_881292" data-name="Path 881292" d="M19.356,19.968c-1.921,0-3.837,0-5.753,0a2.868,2.868,0,0,1-.728-.084,1.018,1.018,0,0,1-.78-1.1,1.067,1.067,0,0,1,.973-.951,4.166,4.166,0,0,1,.464-.015q5.845,0,11.689,0a2.63,2.63,0,0,1,.7.074,1.065,1.065,0,0,1,.753,1.017,1.041,1.041,0,0,1-.775.961,3.369,3.369,0,0,1-.82.1c-1.906.007-3.815,0-5.719,0Z" transform="translate(17.76 26.168)" fill="#fff"/>
        <path id="Path_881293" data-name="Path 881293" d="M19.412,16.017q2.982,0,5.963,0a1.169,1.169,0,0,1,1.2.684.97.97,0,0,1-.543,1.314,3.178,3.178,0,0,1-.963.151q-5.7.011-11.406,0a5.1,5.1,0,0,1-.583-.042,1.048,1.048,0,0,1,.091-2.094c.612-.017,1.227,0,1.842,0h4.4Z" transform="translate(17.76 23.53)" fill="#fff"/>
        <path id="Path_881294" data-name="Path 881294" d="M14.016,13.287a2.4,2.4,0,0,1-1.622-.709c-1.252-1.227-2.511-2.447-3.721-3.716a2.465,2.465,0,0,1,.01-3.585,2.61,2.61,0,0,1,3.684-.161c.541.472,1.047.983,1.551,1.491.18.183.286.18.467,0,1.378-1.393,2.766-2.773,4.153-4.156a2.731,2.731,0,0,1,1.99-.9,2.55,2.55,0,0,1,2.437,1.568A2.429,2.429,0,0,1,22.5,5.965c-1.044,1.114-2.133,2.185-3.208,3.272q-1.593,1.6-3.2,3.2a2.77,2.77,0,0,1-2.077.852m.151-2.025a4.5,4.5,0,0,0,.568-.417q2.989-3.008,5.968-6.03a2.042,2.042,0,0,0,.323-.407.478.478,0,0,0-.141-.632.4.4,0,0,0-.58-.04c-.173.143-.353.281-.511.44Q17.483,6.494,15.176,8.82c-.8.807-1.232.83-2.04.044-.7-.686-1.385-1.4-2.082-2.091-.294-.3-.575-.331-.807-.114a.534.534,0,0,0,.01.854c.341.37.706.714,1.062,1.069.783.78,1.566,1.563,2.356,2.338a4.054,4.054,0,0,0,.491.341" transform="translate(11.613 2.278)" fill="#fff"/>
      </g>
    </g>
  </g>
</svg>
